M48
; DRILL file {KiCad 6.0.2+dfsg-1} date Fr 03 Feb 2023 00:30:37 CET
; FORMAT={-:-/ absolute / inch / decimal}
; #@! TF.CreationDate,2023-02-03T00:30:37+01:00
; #@! TF.GenerationSoftware,Kicad,Pcbnew,6.0.2+dfsg-1
; #@! TF.FileFunction,NonPlated,1,2,NPTH
FMAT,2
INCH
; #@! TA.AperFunction,NonPlated,NPTH,ComponentDrill
T1C0.1260
; #@! TA.AperFunction,NonPlated,NPTH,ComponentDrill
T2C0.1772
; #@! TA.AperFunction,NonPlated,NPTH,ComponentDrill
T3C0.1969
%
G90
G05
T1
X4.22Y-4.08
X4.2894Y-3.4665
X4.52Y-3.84
X4.72Y-3.04
X4.72Y-3.42
X4.7205Y-4.1457
X4.94Y-3.84
X5.1378Y-3.4724
X5.23Y-4.06
T2
X1.6Y-3.72
X1.6122Y-5.7815
X1.88Y-5.48
X1.95Y-3.6
X2.32Y-3.48
X2.69Y-3.4
X7.0091Y-3.4858
X7.3807Y-3.5969
X7.45Y-5.5
X7.7283Y-5.7835
X7.7488Y-3.7201
T3
X4.72Y-3.68
T0
M30
