M48
; DRILL file {KiCad 6.0.2+dfsg-1} date Fr 03 Feb 2023 00:30:37 CET
; FORMAT={-:-/ absolute / inch / decimal}
; #@! TF.CreationDate,2023-02-03T00:30:37+01:00
; #@! TF.GenerationSoftware,Kicad,Pcbnew,6.0.2+dfsg-1
; #@! TF.FileFunction,Plated,1,2,PTH
FMAT,2
INCH
; #@! TA.AperFunction,Plated,PTH,ViaDrill
T1C0.0157
; #@! TA.AperFunction,Plated,PTH,ComponentDrill
T2C0.0300
; #@! TA.AperFunction,Plated,PTH,ComponentDrill
T3C0.0350
; #@! TA.AperFunction,Plated,PTH,ComponentDrill
T4C0.0394
; #@! TA.AperFunction,Plated,PTH,ComponentDrill
T5C0.0610
; #@! TA.AperFunction,Plated,PTH,ComponentDrill
T6C0.0791
; #@! TA.AperFunction,Plated,PTH,ComponentDrill
T7C0.1260
%
G90
G05
T1
X3.3Y-3.2
X3.3Y-3.3
X3.3Y-3.4
X3.3Y-3.5
X3.3Y-3.6
X3.3Y-3.7
X3.4Y-3.2
X3.4Y-3.5
X3.55Y-3.2
X3.55Y-3.5
X3.65Y-3.2
X3.74Y-3.3
X3.74Y-3.4
X3.74Y-3.69
X3.75Y-3.2
X3.85Y-3.2
X3.95Y-3.2
X4.05Y-3.2
X4.15Y-3.0
X4.15Y-3.1
X4.15Y-3.2
T2
X3.91Y-3.32
X3.91Y-3.42
X3.91Y-3.72
T3
X3.6978Y-3.5057
X3.6978Y-3.6057
T4
X5.5317Y-3.507
X5.532Y-3.324
X5.697Y-3.508
X5.878Y-3.508
T5
X4.0977Y-3.5194
X4.0977Y-3.8502
X5.3457Y-3.8502
T6
X3.4978Y-3.3057
X3.4978Y-3.7057
T7
X6.63Y-3.4
T0
M30
