%TF.GenerationSoftware,KiCad,Pcbnew,6.0.2+dfsg-1*%
%TF.CreationDate,2023-02-03T00:30:42+01:00*%
%TF.ProjectId,xOTA,784f5441-2e6b-4696-9361-645f70636258,rev?*%
%TF.SameCoordinates,Original*%
%TF.FileFunction,Copper,L2,Bot*%
%TF.FilePolarity,Positive*%
%FSLAX46Y46*%
G04 Gerber Fmt 4.6, Leading zero omitted, Abs format (unit mm)*
G04 Created by KiCad (PCBNEW 6.0.2+dfsg-1) date 2023-02-03 00:30:42*
%MOMM*%
%LPD*%
G01*
G04 APERTURE LIST*
G04 Aperture macros list*
%AMRoundRect*
0 Rectangle with rounded corners*
0 $1 Rounding radius*
0 $2 $3 $4 $5 $6 $7 $8 $9 X,Y pos of 4 corners*
0 Add a 4 corners polygon primitive as box body*
4,1,4,$2,$3,$4,$5,$6,$7,$8,$9,$2,$3,0*
0 Add four circle primitives for the rounded corners*
1,1,$1+$1,$2,$3*
1,1,$1+$1,$4,$5*
1,1,$1+$1,$6,$7*
1,1,$1+$1,$8,$9*
0 Add four rect primitives between the rounded corners*
20,1,$1+$1,$2,$3,$4,$5,0*
20,1,$1+$1,$4,$5,$6,$7,0*
20,1,$1+$1,$6,$7,$8,$9,0*
20,1,$1+$1,$8,$9,$2,$3,0*%
G04 Aperture macros list end*
%TA.AperFunction,ComponentPad*%
%ADD10RoundRect,0.249999X-1.025001X-1.025001X1.025001X-1.025001X1.025001X1.025001X-1.025001X1.025001X0*%
%TD*%
%TA.AperFunction,SMDPad,CuDef*%
%ADD11R,18.000000X5.000000*%
%TD*%
%TA.AperFunction,ComponentPad*%
%ADD12C,3.600000*%
%TD*%
%TA.AperFunction,ConnectorPad*%
%ADD13C,5.600000*%
%TD*%
%TA.AperFunction,ComponentPad*%
%ADD14O,2.500000X1.600000*%
%TD*%
%TA.AperFunction,ComponentPad*%
%ADD15O,7.000000X3.500000*%
%TD*%
%TA.AperFunction,ComponentPad*%
%ADD16RoundRect,0.500000X-0.500000X0.500000X-0.500000X-0.500000X0.500000X-0.500000X0.500000X0.500000X0*%
%TD*%
%TA.AperFunction,SMDPad,CuDef*%
%ADD17R,22.500000X5.000000*%
%TD*%
%TA.AperFunction,ViaPad*%
%ADD18C,0.800000*%
%TD*%
%TA.AperFunction,Conductor*%
%ADD19C,2.000000*%
%TD*%
%TA.AperFunction,Conductor*%
%ADD20C,0.250000*%
%TD*%
%TA.AperFunction,Conductor*%
%ADD21C,0.200000*%
%TD*%
%TA.AperFunction,Conductor*%
%ADD22C,1.200000*%
%TD*%
G04 APERTURE END LIST*
D10*
%TO.P,,1,Pin_1*%
%TO.N,N/C*%
X140505400Y-89077800D03*
%TD*%
%TO.P,,1,Pin_1*%
%TO.N,N/C*%
X140512800Y-84429600D03*
%TD*%
%TO.P,,1,Pin_1*%
%TO.N,N/C*%
X144703800Y-89103200D03*
%TD*%
D11*
%TO.P,,1,Pin_1*%
%TO.N,N/C*%
X142748000Y-77470000D03*
%TD*%
D12*
%TO.P,REF\u002A\u002A,1*%
%TO.N,N/C*%
X168402000Y-86360000D03*
D13*
X168402000Y-86360000D03*
%TD*%
D10*
%TO.P,,5,x*%
%TO.N,N/C*%
X135781000Y-97794000D03*
%TD*%
D14*
%TO.P,REF\u002A\u002A,1*%
%TO.N,N/C*%
X93924800Y-89046000D03*
%TO.P,REF\u002A\u002A,2*%
%TO.N,gnd*%
X93924800Y-91586000D03*
D15*
X88844800Y-94126000D03*
X88844800Y-83966000D03*
%TD*%
D10*
%TO.P,,1,Pin_1*%
%TO.N,N/C*%
X149301200Y-89103200D03*
%TD*%
D16*
%TO.P,100pF,1*%
%TO.N,N/C*%
X99314000Y-86868000D03*
X99314000Y-84328000D03*
%TO.P,100pF,2*%
%TO.N,gnd*%
X99314000Y-94488000D03*
%TD*%
D10*
%TO.P,,5,x*%
%TO.N,gnd*%
X104081000Y-97794000D03*
%TD*%
%TO.P,,5,x*%
%TO.N,N/C*%
X104081000Y-89394000D03*
%TD*%
D17*
%TO.P,J6,1,Pin_1*%
%TO.N,gnd*%
X92964000Y-77470000D03*
%TD*%
D18*
%TO.N,gnd*%
X94996000Y-93726000D03*
X94996000Y-86360000D03*
X94996000Y-83820000D03*
X90170000Y-88900000D03*
X86360000Y-88900000D03*
X83820000Y-91440000D03*
X83820000Y-88900000D03*
X83820000Y-83820000D03*
X83820000Y-86360000D03*
X83820000Y-93980000D03*
X105410000Y-81280000D03*
X102870000Y-81280000D03*
X100330000Y-81280000D03*
X97790000Y-81280000D03*
X92710000Y-81280000D03*
X95250000Y-81280000D03*
X90170000Y-81280000D03*
X86360000Y-81280000D03*
X83820000Y-81280000D03*
X105410000Y-78740000D03*
X105410000Y-76200000D03*
%TD*%
D19*
%TO.N,*%
X138201400Y-77851000D02*
X142367000Y-77851000D01*
X142367000Y-77851000D02*
X140512800Y-79705200D01*
X140512800Y-79705200D02*
X140512800Y-84429600D01*
X135781000Y-97794000D02*
X135781000Y-97645000D01*
X135781000Y-97645000D02*
X140505400Y-92920600D01*
X140505400Y-92920600D02*
X140505400Y-89077800D01*
X135781000Y-97794000D02*
X135781000Y-97721200D01*
X140505400Y-89077800D02*
X144678400Y-89077800D01*
X144678400Y-89077800D02*
X144703800Y-89103200D01*
X168402000Y-86360000D02*
X156640000Y-86360000D01*
X153896800Y-89103200D02*
X149301200Y-89103200D01*
X156640000Y-86360000D02*
X153896800Y-89103200D01*
X149301200Y-89103200D02*
X149174200Y-89230200D01*
D20*
X143459200Y-77774800D02*
X138277600Y-77774800D01*
X143764000Y-77470000D02*
X143459200Y-77774800D01*
X138277600Y-77774800D02*
X138201400Y-77851000D01*
X137845800Y-77470000D02*
X137744200Y-77368400D01*
X143764000Y-77470000D02*
X137845800Y-77470000D01*
D19*
X149326600Y-89077800D02*
X149301200Y-89103200D01*
D21*
X99314000Y-88900000D02*
X99460000Y-89046000D01*
D22*
X93924800Y-89046000D02*
X99460000Y-89046000D01*
D21*
X104115735Y-89428735D02*
X104081000Y-89394000D01*
D22*
X99314000Y-84328000D02*
X99314000Y-86868000D01*
D21*
X103733000Y-89046000D02*
X104081000Y-89394000D01*
D22*
X99314000Y-86868000D02*
X99314000Y-88900000D01*
X99460000Y-89046000D02*
X103733000Y-89046000D01*
D21*
X104115735Y-89359265D02*
X104081000Y-89394000D01*
%TD*%
%TA.AperFunction,Conductor*%
%TO.N,gnd*%
G36*
X106622078Y-75591097D02*
G01*
X106668593Y-75644733D01*
X106680000Y-75697122D01*
X106680000Y-87243267D01*
X106671905Y-87287702D01*
X106649664Y-87346717D01*
X106648735Y-87350632D01*
X106582648Y-87629115D01*
X106578947Y-87644709D01*
X106546668Y-87949271D01*
X106546755Y-87953273D01*
X106546755Y-87953280D01*
X106553261Y-88251448D01*
X106553349Y-88255465D01*
X106553946Y-88259436D01*
X106555083Y-88266997D01*
X106598883Y-88558330D01*
X106599979Y-88562190D01*
X106599980Y-88562195D01*
X106675209Y-88827163D01*
X106680000Y-88861576D01*
X106680000Y-101181497D01*
X106659998Y-101249618D01*
X106606342Y-101296111D01*
X106585762Y-101303428D01*
X106585602Y-101303470D01*
X106581662Y-101304232D01*
X106290800Y-101400144D01*
X106014482Y-101532237D01*
X105935801Y-101583041D01*
X105867950Y-101603187D01*
X104370383Y-101609064D01*
X81530493Y-101698704D01*
X81462296Y-101678969D01*
X81415593Y-101625497D01*
X81404000Y-101572705D01*
X81404000Y-98866098D01*
X102298000Y-98866098D01*
X102298337Y-98872613D01*
X102308256Y-98968205D01*
X102311150Y-98981604D01*
X102362588Y-99135785D01*
X102368762Y-99148964D01*
X102454063Y-99286810D01*
X102463099Y-99298209D01*
X102577828Y-99412738D01*
X102589239Y-99421750D01*
X102727242Y-99506816D01*
X102740423Y-99512963D01*
X102894709Y-99564138D01*
X102908085Y-99567005D01*
X103002437Y-99576672D01*
X103008853Y-99577000D01*
X103062885Y-99577000D01*
X103078124Y-99572525D01*
X103079329Y-99571135D01*
X103081000Y-99563452D01*
X103081000Y-99558885D01*
X105081000Y-99558885D01*
X105085475Y-99574124D01*
X105086865Y-99575329D01*
X105094548Y-99577000D01*
X105153098Y-99577000D01*
X105159613Y-99576663D01*
X105255205Y-99566744D01*
X105268604Y-99563850D01*
X105422785Y-99512412D01*
X105435964Y-99506238D01*
X105573810Y-99420937D01*
X105585209Y-99411901D01*
X105699738Y-99297172D01*
X105708750Y-99285761D01*
X105793816Y-99147758D01*
X105799963Y-99134577D01*
X105851138Y-98980291D01*
X105854005Y-98966915D01*
X105863672Y-98872563D01*
X105864000Y-98866146D01*
X105864000Y-98812115D01*
X105859525Y-98796876D01*
X105858135Y-98795671D01*
X105850452Y-98794000D01*
X105099115Y-98794000D01*
X105083876Y-98798475D01*
X105082671Y-98799865D01*
X105081000Y-98807548D01*
X105081000Y-99558885D01*
X103081000Y-99558885D01*
X103081000Y-98812115D01*
X103076525Y-98796876D01*
X103075135Y-98795671D01*
X103067452Y-98794000D01*
X102316115Y-98794000D01*
X102300876Y-98798475D01*
X102299671Y-98799865D01*
X102298000Y-98807548D01*
X102298000Y-98866098D01*
X81404000Y-98866098D01*
X81404000Y-96775885D01*
X102298000Y-96775885D01*
X102302475Y-96791124D01*
X102303865Y-96792329D01*
X102311548Y-96794000D01*
X103062885Y-96794000D01*
X103078124Y-96789525D01*
X103079329Y-96788135D01*
X103081000Y-96780452D01*
X103081000Y-96775885D01*
X105081000Y-96775885D01*
X105085475Y-96791124D01*
X105086865Y-96792329D01*
X105094548Y-96794000D01*
X105845885Y-96794000D01*
X105861124Y-96789525D01*
X105862329Y-96788135D01*
X105864000Y-96780452D01*
X105864000Y-96721902D01*
X105863663Y-96715387D01*
X105853744Y-96619795D01*
X105850850Y-96606396D01*
X105799412Y-96452215D01*
X105793238Y-96439036D01*
X105707937Y-96301190D01*
X105698901Y-96289791D01*
X105584172Y-96175262D01*
X105572761Y-96166250D01*
X105434758Y-96081184D01*
X105421577Y-96075037D01*
X105267291Y-96023862D01*
X105253915Y-96020995D01*
X105159563Y-96011328D01*
X105153146Y-96011000D01*
X105099115Y-96011000D01*
X105083876Y-96015475D01*
X105082671Y-96016865D01*
X105081000Y-96024548D01*
X105081000Y-96775885D01*
X103081000Y-96775885D01*
X103081000Y-96029115D01*
X103076525Y-96013876D01*
X103075135Y-96012671D01*
X103067452Y-96011000D01*
X103008902Y-96011000D01*
X103002387Y-96011337D01*
X102906795Y-96021256D01*
X102893396Y-96024150D01*
X102739215Y-96075588D01*
X102726036Y-96081762D01*
X102588190Y-96167063D01*
X102576791Y-96176099D01*
X102462262Y-96290828D01*
X102453250Y-96302239D01*
X102368184Y-96440242D01*
X102362037Y-96453423D01*
X102310862Y-96607709D01*
X102307995Y-96621085D01*
X102298328Y-96715437D01*
X102298000Y-96721854D01*
X102298000Y-96775885D01*
X81404000Y-96775885D01*
X81404000Y-95132870D01*
X85073498Y-95132870D01*
X85074373Y-95135565D01*
X85165349Y-95308115D01*
X85169716Y-95315213D01*
X85338635Y-95552905D01*
X85343908Y-95559372D01*
X85542783Y-95772639D01*
X85548867Y-95778351D01*
X85774193Y-95963437D01*
X85780974Y-95968292D01*
X86028813Y-96121958D01*
X86036173Y-96125871D01*
X86302146Y-96245404D01*
X86309969Y-96248314D01*
X86589425Y-96331624D01*
X86597546Y-96333469D01*
X86886229Y-96379191D01*
X86893203Y-96379899D01*
X86982086Y-96383936D01*
X86984919Y-96384000D01*
X87826685Y-96384000D01*
X87841924Y-96379525D01*
X87843129Y-96378135D01*
X87844800Y-96370452D01*
X87844800Y-96365885D01*
X89844800Y-96365885D01*
X89849275Y-96381124D01*
X89850665Y-96382329D01*
X89858348Y-96384000D01*
X90668793Y-96384000D01*
X90672982Y-96383861D01*
X90889932Y-96369451D01*
X90898203Y-96368347D01*
X91184051Y-96310710D01*
X91192103Y-96308522D01*
X91467805Y-96213591D01*
X91475516Y-96210350D01*
X91736244Y-96079787D01*
X91743438Y-96075566D01*
X91984620Y-95911659D01*
X91991190Y-95906526D01*
X92208575Y-95712161D01*
X92214408Y-95706205D01*
X92398095Y-95491894D01*
X97940503Y-95491894D01*
X97943518Y-95499753D01*
X98027885Y-95625779D01*
X98035678Y-95635266D01*
X98166734Y-95766322D01*
X98176221Y-95774115D01*
X98298946Y-95856272D01*
X98312134Y-95860414D01*
X98314000Y-95852205D01*
X98314000Y-95848235D01*
X100314000Y-95848235D01*
X100317894Y-95861497D01*
X100325753Y-95858482D01*
X100451779Y-95774115D01*
X100461266Y-95766322D01*
X100592322Y-95635266D01*
X100600115Y-95625779D01*
X100682272Y-95503054D01*
X100686414Y-95489866D01*
X100678205Y-95488000D01*
X100332115Y-95488000D01*
X100316876Y-95492475D01*
X100315671Y-95493865D01*
X100314000Y-95501548D01*
X100314000Y-95848235D01*
X98314000Y-95848235D01*
X98314000Y-95506115D01*
X98309525Y-95490876D01*
X98308135Y-95489671D01*
X98300452Y-95488000D01*
X97953765Y-95488000D01*
X97940503Y-95491894D01*
X92398095Y-95491894D01*
X92404178Y-95484797D01*
X92409176Y-95478116D01*
X92567991Y-95233563D01*
X92572065Y-95226273D01*
X92611907Y-95142365D01*
X92614122Y-95128438D01*
X92610526Y-95126050D01*
X92610195Y-95126000D01*
X89862915Y-95126000D01*
X89847676Y-95130475D01*
X89846471Y-95131865D01*
X89844800Y-95139548D01*
X89844800Y-96365885D01*
X87844800Y-96365885D01*
X87844800Y-95144115D01*
X87840325Y-95128876D01*
X87838935Y-95127671D01*
X87831252Y-95126000D01*
X85087445Y-95126000D01*
X85073914Y-95129973D01*
X85073498Y-95132870D01*
X81404000Y-95132870D01*
X81404000Y-93486134D01*
X97941586Y-93486134D01*
X97949795Y-93488000D01*
X98295885Y-93488000D01*
X98311124Y-93483525D01*
X98312329Y-93482135D01*
X98314000Y-93474452D01*
X98314000Y-93469885D01*
X100314000Y-93469885D01*
X100318475Y-93485124D01*
X100319865Y-93486329D01*
X100327548Y-93488000D01*
X100674235Y-93488000D01*
X100687497Y-93484106D01*
X100684482Y-93476247D01*
X100600115Y-93350221D01*
X100592322Y-93340734D01*
X100461266Y-93209678D01*
X100451779Y-93201885D01*
X100329054Y-93119728D01*
X100315866Y-93115586D01*
X100314000Y-93123795D01*
X100314000Y-93469885D01*
X98314000Y-93469885D01*
X98314000Y-93127765D01*
X98310106Y-93114503D01*
X98302247Y-93117518D01*
X98176221Y-93201885D01*
X98166734Y-93209678D01*
X98035678Y-93340734D01*
X98027885Y-93350221D01*
X97945728Y-93472946D01*
X97941586Y-93486134D01*
X81404000Y-93486134D01*
X81404000Y-93123562D01*
X85075478Y-93123562D01*
X85079074Y-93125950D01*
X85079405Y-93126000D01*
X87826685Y-93126000D01*
X87841924Y-93121525D01*
X87843129Y-93120135D01*
X87844800Y-93112452D01*
X87844800Y-93107885D01*
X89844800Y-93107885D01*
X89849275Y-93123124D01*
X89850665Y-93124329D01*
X89858348Y-93126000D01*
X92602155Y-93126000D01*
X92615686Y-93122027D01*
X92616102Y-93119130D01*
X92615227Y-93116435D01*
X92524251Y-92943885D01*
X92519884Y-92936787D01*
X92350965Y-92699095D01*
X92345692Y-92692628D01*
X92146817Y-92479361D01*
X92140733Y-92473649D01*
X92038647Y-92389794D01*
X92443388Y-92389794D01*
X92446689Y-92398133D01*
X92465828Y-92425467D01*
X92472884Y-92433875D01*
X92626925Y-92587916D01*
X92635333Y-92594972D01*
X92813793Y-92719931D01*
X92823289Y-92725414D01*
X93020747Y-92817490D01*
X93031039Y-92821236D01*
X93107303Y-92841671D01*
X93121399Y-92841335D01*
X93124800Y-92833393D01*
X93124800Y-92828244D01*
X94724800Y-92828244D01*
X94728773Y-92841775D01*
X94737322Y-92843004D01*
X94818561Y-92821236D01*
X94828853Y-92817490D01*
X95026311Y-92725414D01*
X95035807Y-92719931D01*
X95214267Y-92594972D01*
X95222675Y-92587916D01*
X95376716Y-92433875D01*
X95383772Y-92425467D01*
X95401017Y-92400839D01*
X95405320Y-92388079D01*
X95396597Y-92386000D01*
X94742915Y-92386000D01*
X94727676Y-92390475D01*
X94726471Y-92391865D01*
X94724800Y-92399548D01*
X94724800Y-92828244D01*
X93124800Y-92828244D01*
X93124800Y-92404115D01*
X93120325Y-92388876D01*
X93118935Y-92387671D01*
X93111252Y-92386000D01*
X92456308Y-92386000D01*
X92443388Y-92389794D01*
X92038647Y-92389794D01*
X91915407Y-92288563D01*
X91908626Y-92283708D01*
X91660787Y-92130042D01*
X91653427Y-92126129D01*
X91387454Y-92006596D01*
X91379631Y-92003686D01*
X91100175Y-91920376D01*
X91092054Y-91918531D01*
X90803371Y-91872809D01*
X90796397Y-91872101D01*
X90707514Y-91868064D01*
X90704681Y-91868000D01*
X89862915Y-91868000D01*
X89847676Y-91872475D01*
X89846471Y-91873865D01*
X89844800Y-91881548D01*
X89844800Y-93107885D01*
X87844800Y-93107885D01*
X87844800Y-91886115D01*
X87840325Y-91870876D01*
X87838935Y-91869671D01*
X87831252Y-91868000D01*
X87020807Y-91868000D01*
X87016618Y-91868139D01*
X86799668Y-91882549D01*
X86791397Y-91883653D01*
X86505549Y-91941290D01*
X86497497Y-91943478D01*
X86221795Y-92038409D01*
X86214084Y-92041650D01*
X85953356Y-92172213D01*
X85946162Y-92176434D01*
X85704980Y-92340341D01*
X85698410Y-92345474D01*
X85481025Y-92539839D01*
X85475192Y-92545795D01*
X85285422Y-92767203D01*
X85280424Y-92773884D01*
X85121609Y-93018437D01*
X85117535Y-93025727D01*
X85077693Y-93109635D01*
X85075478Y-93123562D01*
X81404000Y-93123562D01*
X81404000Y-89046000D01*
X91869351Y-89046000D01*
X91889117Y-89297148D01*
X91890271Y-89301955D01*
X91890272Y-89301961D01*
X91913470Y-89398585D01*
X91947927Y-89542111D01*
X91949820Y-89546682D01*
X91949821Y-89546684D01*
X91981833Y-89623967D01*
X92044334Y-89774859D01*
X92175964Y-89989659D01*
X92179176Y-89993419D01*
X92179179Y-89993424D01*
X92222548Y-90044202D01*
X92339576Y-90181224D01*
X92343338Y-90184437D01*
X92527376Y-90341621D01*
X92527381Y-90341624D01*
X92531141Y-90344836D01*
X92535363Y-90347423D01*
X92535364Y-90347424D01*
X92602596Y-90388624D01*
X92650228Y-90441272D01*
X92661835Y-90511313D01*
X92633732Y-90576511D01*
X92625857Y-90585152D01*
X92472884Y-90738125D01*
X92465828Y-90746533D01*
X92448583Y-90771161D01*
X92444280Y-90783921D01*
X92453003Y-90786000D01*
X95393292Y-90786000D01*
X95406212Y-90782206D01*
X95402911Y-90773867D01*
X95383772Y-90746533D01*
X95376716Y-90738125D01*
X95300186Y-90661595D01*
X95266160Y-90599283D01*
X95271225Y-90528468D01*
X95313772Y-90471632D01*
X95380292Y-90446821D01*
X95389281Y-90446500D01*
X101886727Y-90446500D01*
X101954848Y-90466502D01*
X102001341Y-90520158D01*
X102010241Y-90547595D01*
X102046541Y-90727623D01*
X102048907Y-90733307D01*
X102069976Y-90783921D01*
X102125711Y-90917817D01*
X102240315Y-91089011D01*
X102385989Y-91234685D01*
X102557183Y-91349289D01*
X102562868Y-91351656D01*
X102562871Y-91351657D01*
X102741693Y-91426093D01*
X102747377Y-91428459D01*
X102910858Y-91461422D01*
X102944738Y-91468254D01*
X102944739Y-91468254D01*
X102949326Y-91469179D01*
X102953992Y-91469415D01*
X102953997Y-91469416D01*
X102954074Y-91469420D01*
X102954092Y-91469420D01*
X102955662Y-91469500D01*
X105206338Y-91469500D01*
X105207908Y-91469420D01*
X105207926Y-91469420D01*
X105208003Y-91469416D01*
X105208008Y-91469415D01*
X105212674Y-91469179D01*
X105217261Y-91468254D01*
X105217262Y-91468254D01*
X105251142Y-91461422D01*
X105414623Y-91428459D01*
X105420307Y-91426093D01*
X105599129Y-91351657D01*
X105599132Y-91351656D01*
X105604817Y-91349289D01*
X105776011Y-91234685D01*
X105921685Y-91089011D01*
X106036289Y-90917817D01*
X106092025Y-90783921D01*
X106113093Y-90733307D01*
X106115459Y-90727623D01*
X106156179Y-90525674D01*
X106156500Y-90519338D01*
X106156500Y-88268662D01*
X106156179Y-88262326D01*
X106115459Y-88060377D01*
X106036289Y-87870183D01*
X105977231Y-87781962D01*
X105925116Y-87704114D01*
X105925115Y-87704113D01*
X105921685Y-87698989D01*
X105776011Y-87553315D01*
X105604817Y-87438711D01*
X105599132Y-87436344D01*
X105599129Y-87436343D01*
X105420307Y-87361907D01*
X105414623Y-87359541D01*
X105251142Y-87326578D01*
X105217262Y-87319746D01*
X105217261Y-87319746D01*
X105212674Y-87318821D01*
X105208008Y-87318585D01*
X105208003Y-87318584D01*
X105207926Y-87318580D01*
X105207908Y-87318580D01*
X105206338Y-87318500D01*
X102955662Y-87318500D01*
X102954092Y-87318580D01*
X102954074Y-87318580D01*
X102953997Y-87318584D01*
X102953992Y-87318585D01*
X102949326Y-87318821D01*
X102944739Y-87319746D01*
X102944738Y-87319746D01*
X102910858Y-87326578D01*
X102747377Y-87359541D01*
X102741693Y-87361907D01*
X102562871Y-87436343D01*
X102562868Y-87436344D01*
X102557183Y-87438711D01*
X102385989Y-87553315D01*
X102330709Y-87608595D01*
X102268397Y-87642621D01*
X102241614Y-87645500D01*
X101232695Y-87645500D01*
X101164574Y-87625498D01*
X101118081Y-87571842D01*
X101107174Y-87508518D01*
X101114262Y-87427508D01*
X101114262Y-87427501D01*
X101114500Y-87424784D01*
X101114500Y-86311216D01*
X101099635Y-86141308D01*
X101092953Y-86116369D01*
X101042162Y-85926814D01*
X101042161Y-85926812D01*
X101040739Y-85921504D01*
X100985683Y-85803437D01*
X100946891Y-85720247D01*
X100946889Y-85720244D01*
X100944568Y-85715266D01*
X100913060Y-85670268D01*
X100890374Y-85602996D01*
X100907660Y-85534135D01*
X100913054Y-85525742D01*
X100944568Y-85480734D01*
X101040739Y-85274496D01*
X101099635Y-85054692D01*
X101114500Y-84884784D01*
X101114500Y-83771216D01*
X101099635Y-83601308D01*
X101040739Y-83381504D01*
X100944568Y-83175266D01*
X100814047Y-82988861D01*
X100653139Y-82827953D01*
X100466734Y-82697432D01*
X100461756Y-82695111D01*
X100461753Y-82695109D01*
X100265478Y-82603584D01*
X100265476Y-82603583D01*
X100260496Y-82601261D01*
X100255188Y-82599839D01*
X100255186Y-82599838D01*
X100046007Y-82543789D01*
X100046005Y-82543789D01*
X100040692Y-82542365D01*
X99941698Y-82533704D01*
X99873508Y-82527738D01*
X99873501Y-82527738D01*
X99870784Y-82527500D01*
X98757216Y-82527500D01*
X98754499Y-82527738D01*
X98754492Y-82527738D01*
X98686302Y-82533704D01*
X98587308Y-82542365D01*
X98581995Y-82543789D01*
X98581993Y-82543789D01*
X98372814Y-82599838D01*
X98372812Y-82599839D01*
X98367504Y-82601261D01*
X98362524Y-82603583D01*
X98362522Y-82603584D01*
X98166247Y-82695109D01*
X98166244Y-82695111D01*
X98161266Y-82697432D01*
X97974861Y-82827953D01*
X97813953Y-82988861D01*
X97683432Y-83175266D01*
X97587261Y-83381504D01*
X97528365Y-83601308D01*
X97513500Y-83771216D01*
X97513500Y-84884784D01*
X97528365Y-85054692D01*
X97587261Y-85274496D01*
X97683432Y-85480734D01*
X97714940Y-85525732D01*
X97737626Y-85593004D01*
X97720340Y-85661865D01*
X97714946Y-85670258D01*
X97683432Y-85715266D01*
X97681111Y-85720244D01*
X97681109Y-85720247D01*
X97642317Y-85803437D01*
X97587261Y-85921504D01*
X97585839Y-85926812D01*
X97585838Y-85926814D01*
X97535047Y-86116369D01*
X97528365Y-86141308D01*
X97513500Y-86311216D01*
X97513500Y-87424784D01*
X97513738Y-87427501D01*
X97513738Y-87427508D01*
X97520826Y-87508518D01*
X97506837Y-87578123D01*
X97457438Y-87629115D01*
X97395305Y-87645500D01*
X95188095Y-87645500D01*
X95122259Y-87626932D01*
X95107882Y-87618122D01*
X95103659Y-87615534D01*
X95099089Y-87613641D01*
X95099085Y-87613639D01*
X94875484Y-87521021D01*
X94875482Y-87521020D01*
X94870911Y-87519127D01*
X94786511Y-87498865D01*
X94630761Y-87461472D01*
X94630755Y-87461471D01*
X94625948Y-87460317D01*
X94537651Y-87453368D01*
X94440139Y-87445693D01*
X94440130Y-87445693D01*
X94437682Y-87445500D01*
X93411918Y-87445500D01*
X93409470Y-87445693D01*
X93409461Y-87445693D01*
X93311949Y-87453368D01*
X93223652Y-87460317D01*
X93218845Y-87461471D01*
X93218839Y-87461472D01*
X93063089Y-87498865D01*
X92978689Y-87519127D01*
X92974118Y-87521020D01*
X92974116Y-87521021D01*
X92750515Y-87613639D01*
X92750511Y-87613641D01*
X92745941Y-87615534D01*
X92531141Y-87747164D01*
X92527381Y-87750376D01*
X92527376Y-87750379D01*
X92417134Y-87844535D01*
X92339576Y-87910776D01*
X92336363Y-87914538D01*
X92179179Y-88098576D01*
X92179176Y-88098581D01*
X92175964Y-88102341D01*
X92044334Y-88317141D01*
X92042441Y-88321711D01*
X92042439Y-88321715D01*
X91949821Y-88545316D01*
X91947927Y-88549889D01*
X91946772Y-88554701D01*
X91899097Y-88753283D01*
X91889117Y-88794852D01*
X91869351Y-89046000D01*
X81404000Y-89046000D01*
X81404000Y-84972870D01*
X85073498Y-84972870D01*
X85074373Y-84975565D01*
X85165349Y-85148115D01*
X85169716Y-85155213D01*
X85338635Y-85392905D01*
X85343908Y-85399372D01*
X85542783Y-85612639D01*
X85548867Y-85618351D01*
X85774193Y-85803437D01*
X85780974Y-85808292D01*
X86028813Y-85961958D01*
X86036173Y-85965871D01*
X86302146Y-86085404D01*
X86309969Y-86088314D01*
X86589425Y-86171624D01*
X86597546Y-86173469D01*
X86886229Y-86219191D01*
X86893203Y-86219899D01*
X86982086Y-86223936D01*
X86984919Y-86224000D01*
X87826685Y-86224000D01*
X87841924Y-86219525D01*
X87843129Y-86218135D01*
X87844800Y-86210452D01*
X87844800Y-86205885D01*
X89844800Y-86205885D01*
X89849275Y-86221124D01*
X89850665Y-86222329D01*
X89858348Y-86224000D01*
X90668793Y-86224000D01*
X90672982Y-86223861D01*
X90889932Y-86209451D01*
X90898203Y-86208347D01*
X91184051Y-86150710D01*
X91192103Y-86148522D01*
X91467805Y-86053591D01*
X91475516Y-86050350D01*
X91736244Y-85919787D01*
X91743438Y-85915566D01*
X91984620Y-85751659D01*
X91991190Y-85746526D01*
X92208575Y-85552161D01*
X92214408Y-85546205D01*
X92404178Y-85324797D01*
X92409176Y-85318116D01*
X92567991Y-85073563D01*
X92572065Y-85066273D01*
X92611907Y-84982365D01*
X92614122Y-84968438D01*
X92610526Y-84966050D01*
X92610195Y-84966000D01*
X89862915Y-84966000D01*
X89847676Y-84970475D01*
X89846471Y-84971865D01*
X89844800Y-84979548D01*
X89844800Y-86205885D01*
X87844800Y-86205885D01*
X87844800Y-84984115D01*
X87840325Y-84968876D01*
X87838935Y-84967671D01*
X87831252Y-84966000D01*
X85087445Y-84966000D01*
X85073914Y-84969973D01*
X85073498Y-84972870D01*
X81404000Y-84972870D01*
X81404000Y-82963562D01*
X85075478Y-82963562D01*
X85079074Y-82965950D01*
X85079405Y-82966000D01*
X87826685Y-82966000D01*
X87841924Y-82961525D01*
X87843129Y-82960135D01*
X87844800Y-82952452D01*
X87844800Y-82947885D01*
X89844800Y-82947885D01*
X89849275Y-82963124D01*
X89850665Y-82964329D01*
X89858348Y-82966000D01*
X92602155Y-82966000D01*
X92615686Y-82962027D01*
X92616102Y-82959130D01*
X92615227Y-82956435D01*
X92524251Y-82783885D01*
X92519884Y-82776787D01*
X92350965Y-82539095D01*
X92345692Y-82532628D01*
X92146817Y-82319361D01*
X92140733Y-82313649D01*
X91915407Y-82128563D01*
X91908626Y-82123708D01*
X91660787Y-81970042D01*
X91653427Y-81966129D01*
X91387454Y-81846596D01*
X91379631Y-81843686D01*
X91100175Y-81760376D01*
X91092054Y-81758531D01*
X90803371Y-81712809D01*
X90796397Y-81712101D01*
X90707514Y-81708064D01*
X90704681Y-81708000D01*
X89862915Y-81708000D01*
X89847676Y-81712475D01*
X89846471Y-81713865D01*
X89844800Y-81721548D01*
X89844800Y-82947885D01*
X87844800Y-82947885D01*
X87844800Y-81726115D01*
X87840325Y-81710876D01*
X87838935Y-81709671D01*
X87831252Y-81708000D01*
X87020807Y-81708000D01*
X87016618Y-81708139D01*
X86799668Y-81722549D01*
X86791397Y-81723653D01*
X86505549Y-81781290D01*
X86497497Y-81783478D01*
X86221795Y-81878409D01*
X86214084Y-81881650D01*
X85953356Y-82012213D01*
X85946162Y-82016434D01*
X85704980Y-82180341D01*
X85698410Y-82185474D01*
X85481025Y-82379839D01*
X85475192Y-82385795D01*
X85285422Y-82607203D01*
X85280424Y-82613884D01*
X85121609Y-82858437D01*
X85117535Y-82865727D01*
X85077693Y-82949635D01*
X85075478Y-82963562D01*
X81404000Y-82963562D01*
X81404000Y-80862545D01*
X81424002Y-80794424D01*
X81460202Y-80760216D01*
X81459150Y-80758762D01*
X81506657Y-80724385D01*
X81513649Y-80719675D01*
X81563378Y-80688549D01*
X81575609Y-80676385D01*
X81590584Y-80663657D01*
X81598849Y-80657675D01*
X81598848Y-80657675D01*
X81604555Y-80653546D01*
X81609202Y-80648259D01*
X81643265Y-80609501D01*
X81649056Y-80603342D01*
X81685640Y-80566957D01*
X81685645Y-80566951D01*
X81690636Y-80561987D01*
X81699861Y-80547427D01*
X81711652Y-80531684D01*
X81721197Y-80520823D01*
X81781191Y-80482858D01*
X81815842Y-80478000D01*
X91945885Y-80478000D01*
X91961124Y-80473525D01*
X91962329Y-80472135D01*
X91964000Y-80464452D01*
X91964000Y-80459884D01*
X93964000Y-80459884D01*
X93968475Y-80475123D01*
X93969865Y-80476328D01*
X93977548Y-80477999D01*
X104258669Y-80477999D01*
X104265490Y-80477629D01*
X104316352Y-80472105D01*
X104331604Y-80468479D01*
X104452054Y-80423324D01*
X104467649Y-80414786D01*
X104569724Y-80338285D01*
X104582285Y-80325724D01*
X104658786Y-80223649D01*
X104667324Y-80208054D01*
X104712478Y-80087606D01*
X104716105Y-80072351D01*
X104721631Y-80021486D01*
X104722000Y-80014672D01*
X104722000Y-78488115D01*
X104717525Y-78472876D01*
X104716135Y-78471671D01*
X104708452Y-78470000D01*
X93982115Y-78470000D01*
X93966876Y-78474475D01*
X93965671Y-78475865D01*
X93964000Y-78483548D01*
X93964000Y-80459884D01*
X91964000Y-80459884D01*
X91964000Y-76596000D01*
X91984002Y-76527879D01*
X92037658Y-76481386D01*
X92090000Y-76470000D01*
X104703884Y-76470000D01*
X104719123Y-76465525D01*
X104720328Y-76464135D01*
X104721999Y-76456452D01*
X104721999Y-75697810D01*
X104742001Y-75629689D01*
X104795657Y-75583196D01*
X104847948Y-75571810D01*
X105511453Y-75571542D01*
X106553949Y-75571122D01*
X106622078Y-75591097D01*
G37*
%TD.AperFunction*%
%TD*%
M02*
