%TF.GenerationSoftware,KiCad,Pcbnew,6.0.2+dfsg-1*%
%TF.CreationDate,2023-02-03T00:30:43+01:00*%
%TF.ProjectId,xOTA,784f5441-2e6b-4696-9361-645f70636258,rev?*%
%TF.SameCoordinates,Original*%
%TF.FileFunction,Legend,Bot*%
%TF.FilePolarity,Positive*%
%FSLAX46Y46*%
G04 Gerber Fmt 4.6, Leading zero omitted, Abs format (unit mm)*
G04 Created by KiCad (PCBNEW 6.0.2+dfsg-1) date 2023-02-03 00:30:43*
%MOMM*%
%LPD*%
G01*
G04 APERTURE LIST*
%ADD10C,0.300000*%
%ADD11C,0.500000*%
%ADD12C,0.010000*%
G04 APERTURE END LIST*
D10*
X180259238Y-113680666D02*
X180354476Y-113585428D01*
X180544952Y-113299714D01*
X180640190Y-113109238D01*
X180735428Y-112823523D01*
X180830666Y-112347333D01*
X180830666Y-111966380D01*
X180735428Y-111490190D01*
X180640190Y-111204476D01*
X180544952Y-111014000D01*
X180354476Y-110728285D01*
X180259238Y-110633047D01*
X178354476Y-112728285D02*
X178449714Y-112823523D01*
X178735428Y-112918761D01*
X178925904Y-112918761D01*
X179211619Y-112823523D01*
X179402095Y-112633047D01*
X179497333Y-112442571D01*
X179592571Y-112061619D01*
X179592571Y-111775904D01*
X179497333Y-111394952D01*
X179402095Y-111204476D01*
X179211619Y-111014000D01*
X178925904Y-110918761D01*
X178735428Y-110918761D01*
X178449714Y-111014000D01*
X178354476Y-111109238D01*
X176354476Y-112728285D02*
X176449714Y-112823523D01*
X176735428Y-112918761D01*
X176925904Y-112918761D01*
X177211619Y-112823523D01*
X177402095Y-112633047D01*
X177497333Y-112442571D01*
X177592571Y-112061619D01*
X177592571Y-111775904D01*
X177497333Y-111394952D01*
X177402095Y-111204476D01*
X177211619Y-111014000D01*
X176925904Y-110918761D01*
X176735428Y-110918761D01*
X176449714Y-111014000D01*
X176354476Y-111109238D01*
X173306857Y-111871142D02*
X173021142Y-111966380D01*
X172925904Y-112061619D01*
X172830666Y-112252095D01*
X172830666Y-112537809D01*
X172925904Y-112728285D01*
X173021142Y-112823523D01*
X173211619Y-112918761D01*
X173973523Y-112918761D01*
X173973523Y-110918761D01*
X173306857Y-110918761D01*
X173116380Y-111014000D01*
X173021142Y-111109238D01*
X172925904Y-111299714D01*
X172925904Y-111490190D01*
X173021142Y-111680666D01*
X173116380Y-111775904D01*
X173306857Y-111871142D01*
X173973523Y-111871142D01*
X171592571Y-111966380D02*
X171592571Y-112918761D01*
X172259238Y-110918761D02*
X171592571Y-111966380D01*
X170925904Y-110918761D01*
X170259238Y-112156857D02*
X168735428Y-112156857D01*
X167878285Y-112823523D02*
X167592571Y-112918761D01*
X167116380Y-112918761D01*
X166925904Y-112823523D01*
X166830666Y-112728285D01*
X166735428Y-112537809D01*
X166735428Y-112347333D01*
X166830666Y-112156857D01*
X166925904Y-112061619D01*
X167116380Y-111966380D01*
X167497333Y-111871142D01*
X167687809Y-111775904D01*
X167783047Y-111680666D01*
X167878285Y-111490190D01*
X167878285Y-111299714D01*
X167783047Y-111109238D01*
X167687809Y-111014000D01*
X167497333Y-110918761D01*
X167021142Y-110918761D01*
X166735428Y-111014000D01*
X165973523Y-112347333D02*
X165021142Y-112347333D01*
X166164000Y-112918761D02*
X165497333Y-110918761D01*
X164830666Y-112918761D01*
X161783047Y-111585428D02*
X161783047Y-112918761D01*
X162259238Y-110823523D02*
X162735428Y-112252095D01*
X161497333Y-112252095D01*
X160735428Y-112728285D02*
X160640190Y-112823523D01*
X160735428Y-112918761D01*
X160830666Y-112823523D01*
X160735428Y-112728285D01*
X160735428Y-112918761D01*
X159402095Y-110918761D02*
X159211619Y-110918761D01*
X159021142Y-111014000D01*
X158925904Y-111109238D01*
X158830666Y-111299714D01*
X158735428Y-111680666D01*
X158735428Y-112156857D01*
X158830666Y-112537809D01*
X158925904Y-112728285D01*
X159021142Y-112823523D01*
X159211619Y-112918761D01*
X159402095Y-112918761D01*
X159592571Y-112823523D01*
X159687809Y-112728285D01*
X159783047Y-112537809D01*
X159878285Y-112156857D01*
X159878285Y-111680666D01*
X159783047Y-111299714D01*
X159687809Y-111109238D01*
X159592571Y-111014000D01*
X159402095Y-110918761D01*
X158068761Y-113680666D02*
X157973523Y-113585428D01*
X157783047Y-113299714D01*
X157687809Y-113109238D01*
X157592571Y-112823523D01*
X157497333Y-112347333D01*
X157497333Y-111966380D01*
X157592571Y-111490190D01*
X157687809Y-111204476D01*
X157783047Y-111014000D01*
X157973523Y-110728285D01*
X158068761Y-110633047D01*
D11*
X77977714Y-82320000D02*
X78263428Y-82177142D01*
X78692000Y-82177142D01*
X79120571Y-82320000D01*
X79406285Y-82605714D01*
X79549142Y-82891428D01*
X79692000Y-83462857D01*
X79692000Y-83891428D01*
X79549142Y-84462857D01*
X79406285Y-84748571D01*
X79120571Y-85034285D01*
X78692000Y-85177142D01*
X78406285Y-85177142D01*
X77977714Y-85034285D01*
X77834857Y-84891428D01*
X77834857Y-83891428D01*
X78406285Y-83891428D01*
X76549142Y-85177142D02*
X76549142Y-82177142D01*
X74834857Y-85177142D01*
X74834857Y-82177142D01*
X73406285Y-85177142D02*
X73406285Y-82177142D01*
X72692000Y-82177142D01*
X72263428Y-82320000D01*
X71977714Y-82605714D01*
X71834857Y-82891428D01*
X71692000Y-83462857D01*
X71692000Y-83891428D01*
X71834857Y-84462857D01*
X71977714Y-84748571D01*
X72263428Y-85034285D01*
X72692000Y-85177142D01*
X73406285Y-85177142D01*
X164878571Y-84250000D02*
X163450000Y-84250000D01*
X165164285Y-85107142D02*
X164164285Y-82107142D01*
X163164285Y-85107142D01*
X162164285Y-85107142D02*
X162164285Y-82107142D01*
X160450000Y-85107142D01*
X160450000Y-82107142D01*
X159450000Y-82107142D02*
X157735714Y-82107142D01*
X158592857Y-85107142D02*
X158592857Y-82107142D01*
X177132285Y-109561142D02*
X177132285Y-106561142D01*
X176418000Y-106561142D01*
X175989428Y-106704000D01*
X175703714Y-106989714D01*
X175560857Y-107275428D01*
X175418000Y-107846857D01*
X175418000Y-108275428D01*
X175560857Y-108846857D01*
X175703714Y-109132571D01*
X175989428Y-109418285D01*
X176418000Y-109561142D01*
X177132285Y-109561142D01*
X172560857Y-106704000D02*
X172846571Y-106561142D01*
X173275142Y-106561142D01*
X173703714Y-106704000D01*
X173989428Y-106989714D01*
X174132285Y-107275428D01*
X174275142Y-107846857D01*
X174275142Y-108275428D01*
X174132285Y-108846857D01*
X173989428Y-109132571D01*
X173703714Y-109418285D01*
X173275142Y-109561142D01*
X172989428Y-109561142D01*
X172560857Y-109418285D01*
X172418000Y-109275428D01*
X172418000Y-108275428D01*
X172989428Y-108275428D01*
X169560857Y-109561142D02*
X171275142Y-109561142D01*
X170418000Y-109561142D02*
X170418000Y-106561142D01*
X170703714Y-106989714D01*
X170989428Y-107275428D01*
X171275142Y-107418285D01*
X167418000Y-106561142D02*
X167418000Y-108704000D01*
X167560857Y-109132571D01*
X167846571Y-109418285D01*
X168275142Y-109561142D01*
X168560857Y-109561142D01*
X166132285Y-108704000D02*
X164703714Y-108704000D01*
X166418000Y-109561142D02*
X165418000Y-106561142D01*
X164418000Y-109561142D01*
X163418000Y-109561142D02*
X163418000Y-106561142D01*
X161703714Y-109561142D01*
X161703714Y-106561142D01*
D12*
%TO.C,REF\u002A\u002A*%
X65457571Y-107677071D02*
X65297430Y-107698245D01*
X65297430Y-107698245D02*
X65133490Y-107738385D01*
X65133490Y-107738385D02*
X64963687Y-107797889D01*
X64963687Y-107797889D02*
X64785957Y-107877154D01*
X64785957Y-107877154D02*
X64774690Y-107882699D01*
X64774690Y-107882699D02*
X64716995Y-107910725D01*
X64716995Y-107910725D02*
X64665448Y-107934802D01*
X64665448Y-107934802D02*
X64623809Y-107953249D01*
X64623809Y-107953249D02*
X64595838Y-107964386D01*
X64595838Y-107964386D02*
X64586267Y-107966933D01*
X64586267Y-107966933D02*
X64567050Y-107971941D01*
X64567050Y-107971941D02*
X64562439Y-107976147D01*
X64562439Y-107976147D02*
X64567542Y-107986580D01*
X64567542Y-107986580D02*
X64583582Y-108012868D01*
X64583582Y-108012868D02*
X64608712Y-108052257D01*
X64608712Y-108052257D02*
X64641086Y-108101991D01*
X64641086Y-108101991D02*
X64678857Y-108159315D01*
X64678857Y-108159315D02*
X64720178Y-108221476D01*
X64720178Y-108221476D02*
X64763202Y-108285718D01*
X64763202Y-108285718D02*
X64806083Y-108349285D01*
X64806083Y-108349285D02*
X64846974Y-108409425D01*
X64846974Y-108409425D02*
X64884029Y-108463380D01*
X64884029Y-108463380D02*
X64915400Y-108508397D01*
X64915400Y-108508397D02*
X64939241Y-108541721D01*
X64939241Y-108541721D02*
X64953706Y-108560597D01*
X64953706Y-108560597D02*
X64955691Y-108562787D01*
X64955691Y-108562787D02*
X64965809Y-108558138D01*
X64965809Y-108558138D02*
X64988150Y-108540962D01*
X64988150Y-108540962D02*
X65018720Y-108514440D01*
X65018720Y-108514440D02*
X65034464Y-108499964D01*
X65034464Y-108499964D02*
X65130953Y-108424682D01*
X65130953Y-108424682D02*
X65237664Y-108369241D01*
X65237664Y-108369241D02*
X65353168Y-108334141D01*
X65353168Y-108334141D02*
X65476038Y-108319880D01*
X65476038Y-108319880D02*
X65545439Y-108321051D01*
X65545439Y-108321051D02*
X65666577Y-108338212D01*
X65666577Y-108338212D02*
X65775795Y-108374094D01*
X65775795Y-108374094D02*
X65873418Y-108428959D01*
X65873418Y-108428959D02*
X65959772Y-108503070D01*
X65959772Y-108503070D02*
X66035185Y-108596688D01*
X66035185Y-108596688D02*
X66099982Y-108710076D01*
X66099982Y-108710076D02*
X66137399Y-108796667D01*
X66137399Y-108796667D02*
X66181252Y-108932366D01*
X66181252Y-108932366D02*
X66213572Y-109079850D01*
X66213572Y-109079850D02*
X66234443Y-109235314D01*
X66234443Y-109235314D02*
X66243949Y-109394956D01*
X66243949Y-109394956D02*
X66242173Y-109554973D01*
X66242173Y-109554973D02*
X66229197Y-109711561D01*
X66229197Y-109711561D02*
X66205106Y-109860918D01*
X66205106Y-109860918D02*
X66169982Y-109999240D01*
X66169982Y-109999240D02*
X66123908Y-110122724D01*
X66123908Y-110122724D02*
X66107627Y-110156978D01*
X66107627Y-110156978D02*
X66039380Y-110271064D01*
X66039380Y-110271064D02*
X65958921Y-110367557D01*
X65958921Y-110367557D02*
X65867430Y-110445670D01*
X65867430Y-110445670D02*
X65766089Y-110504617D01*
X65766089Y-110504617D02*
X65656080Y-110543612D01*
X65656080Y-110543612D02*
X65538585Y-110561868D01*
X65538585Y-110561868D02*
X65497117Y-110563211D01*
X65497117Y-110563211D02*
X65375559Y-110552290D01*
X65375559Y-110552290D02*
X65255122Y-110519474D01*
X65255122Y-110519474D02*
X65137334Y-110465439D01*
X65137334Y-110465439D02*
X65023723Y-110390865D01*
X65023723Y-110390865D02*
X64932315Y-110312539D01*
X64932315Y-110312539D02*
X64885785Y-110268008D01*
X64885785Y-110268008D02*
X64704517Y-110565271D01*
X64704517Y-110565271D02*
X64659420Y-110639433D01*
X64659420Y-110639433D02*
X64618181Y-110707646D01*
X64618181Y-110707646D02*
X64582265Y-110767459D01*
X64582265Y-110767459D02*
X64553134Y-110816420D01*
X64553134Y-110816420D02*
X64532250Y-110852079D01*
X64532250Y-110852079D02*
X64521076Y-110871984D01*
X64521076Y-110871984D02*
X64519625Y-110875079D01*
X64519625Y-110875079D02*
X64527854Y-110884718D01*
X64527854Y-110884718D02*
X64553433Y-110901999D01*
X64553433Y-110901999D02*
X64593127Y-110925283D01*
X64593127Y-110925283D02*
X64643703Y-110952934D01*
X64643703Y-110952934D02*
X64701926Y-110983315D01*
X64701926Y-110983315D02*
X64764563Y-111014790D01*
X64764563Y-111014790D02*
X64828379Y-111045722D01*
X64828379Y-111045722D02*
X64890140Y-111074473D01*
X64890140Y-111074473D02*
X64946612Y-111099408D01*
X64946612Y-111099408D02*
X64994562Y-111118889D01*
X64994562Y-111118889D02*
X65018014Y-111127318D01*
X65018014Y-111127318D02*
X65151779Y-111165133D01*
X65151779Y-111165133D02*
X65289673Y-111190136D01*
X65289673Y-111190136D02*
X65437378Y-111203140D01*
X65437378Y-111203140D02*
X65564167Y-111205468D01*
X65564167Y-111205468D02*
X65632122Y-111204373D01*
X65632122Y-111204373D02*
X65697723Y-111202275D01*
X65697723Y-111202275D02*
X65755153Y-111199434D01*
X65755153Y-111199434D02*
X65798597Y-111196106D01*
X65798597Y-111196106D02*
X65812702Y-111194422D01*
X65812702Y-111194422D02*
X65951716Y-111165587D01*
X65951716Y-111165587D02*
X66093243Y-111120468D01*
X66093243Y-111120468D02*
X66230725Y-111061750D01*
X66230725Y-111061750D02*
X66357606Y-110992120D01*
X66357606Y-110992120D02*
X66435111Y-110939441D01*
X66435111Y-110939441D02*
X66562519Y-110831239D01*
X66562519Y-110831239D02*
X66680822Y-110704671D01*
X66680822Y-110704671D02*
X66787828Y-110562866D01*
X66787828Y-110562866D02*
X66881348Y-110408951D01*
X66881348Y-110408951D02*
X66959190Y-110246053D01*
X66959190Y-110246053D02*
X67003044Y-110128756D01*
X67003044Y-110128756D02*
X67053292Y-109945128D01*
X67053292Y-109945128D02*
X67086791Y-109750581D01*
X67086791Y-109750581D02*
X67103551Y-109549325D01*
X67103551Y-109549325D02*
X67103584Y-109345568D01*
X67103584Y-109345568D02*
X67086899Y-109143521D01*
X67086899Y-109143521D02*
X67053507Y-108947392D01*
X67053507Y-108947392D02*
X67003420Y-108761391D01*
X67003420Y-108761391D02*
X66999603Y-108749803D01*
X66999603Y-108749803D02*
X66936719Y-108587750D01*
X66936719Y-108587750D02*
X66859972Y-108439832D01*
X66859972Y-108439832D02*
X66766758Y-108301865D01*
X66766758Y-108301865D02*
X66654473Y-108169661D01*
X66654473Y-108169661D02*
X66610608Y-108124399D01*
X66610608Y-108124399D02*
X66474466Y-108000457D01*
X66474466Y-108000457D02*
X66334509Y-107897915D01*
X66334509Y-107897915D02*
X66188589Y-107815656D01*
X66188589Y-107815656D02*
X66034558Y-107752564D01*
X66034558Y-107752564D02*
X65870268Y-107707523D01*
X65870268Y-107707523D02*
X65774711Y-107690033D01*
X65774711Y-107690033D02*
X65615977Y-107674466D01*
X65615977Y-107674466D02*
X65457571Y-107677071D01*
X65457571Y-107677071D02*
X65457571Y-107677071D01*
G36*
X65774711Y-107690033D02*
G01*
X65870268Y-107707523D01*
X66034558Y-107752564D01*
X66188589Y-107815656D01*
X66334509Y-107897915D01*
X66474466Y-108000457D01*
X66610608Y-108124399D01*
X66654473Y-108169661D01*
X66766758Y-108301865D01*
X66859972Y-108439832D01*
X66936719Y-108587750D01*
X66999603Y-108749803D01*
X67003420Y-108761391D01*
X67053507Y-108947392D01*
X67086899Y-109143521D01*
X67103584Y-109345568D01*
X67103551Y-109549325D01*
X67086791Y-109750581D01*
X67053292Y-109945128D01*
X67003044Y-110128756D01*
X66959190Y-110246053D01*
X66881348Y-110408951D01*
X66787828Y-110562866D01*
X66680822Y-110704671D01*
X66562519Y-110831239D01*
X66435111Y-110939441D01*
X66357606Y-110992120D01*
X66230725Y-111061750D01*
X66093243Y-111120468D01*
X65951716Y-111165587D01*
X65812702Y-111194422D01*
X65798597Y-111196106D01*
X65755153Y-111199434D01*
X65697723Y-111202275D01*
X65632122Y-111204373D01*
X65564167Y-111205468D01*
X65437378Y-111203140D01*
X65289673Y-111190136D01*
X65151779Y-111165133D01*
X65018014Y-111127318D01*
X64994562Y-111118889D01*
X64946612Y-111099408D01*
X64890140Y-111074473D01*
X64828379Y-111045722D01*
X64764563Y-111014790D01*
X64701926Y-110983315D01*
X64643703Y-110952934D01*
X64593127Y-110925283D01*
X64553433Y-110901999D01*
X64527854Y-110884718D01*
X64519625Y-110875079D01*
X64521076Y-110871984D01*
X64532250Y-110852079D01*
X64553134Y-110816420D01*
X64582265Y-110767459D01*
X64618181Y-110707646D01*
X64659420Y-110639433D01*
X64704517Y-110565271D01*
X64885785Y-110268008D01*
X64932315Y-110312539D01*
X65023723Y-110390865D01*
X65137334Y-110465439D01*
X65255122Y-110519474D01*
X65375559Y-110552290D01*
X65497117Y-110563211D01*
X65538585Y-110561868D01*
X65656080Y-110543612D01*
X65766089Y-110504617D01*
X65867430Y-110445670D01*
X65958921Y-110367557D01*
X66039380Y-110271064D01*
X66107627Y-110156978D01*
X66123908Y-110122724D01*
X66169982Y-109999240D01*
X66205106Y-109860918D01*
X66229197Y-109711561D01*
X66242173Y-109554973D01*
X66243949Y-109394956D01*
X66234443Y-109235314D01*
X66213572Y-109079850D01*
X66181252Y-108932366D01*
X66137399Y-108796667D01*
X66099982Y-108710076D01*
X66035185Y-108596688D01*
X65959772Y-108503070D01*
X65873418Y-108428959D01*
X65775795Y-108374094D01*
X65666577Y-108338212D01*
X65545439Y-108321051D01*
X65476038Y-108319880D01*
X65353168Y-108334141D01*
X65237664Y-108369241D01*
X65130953Y-108424682D01*
X65034464Y-108499964D01*
X65018720Y-108514440D01*
X64988150Y-108540962D01*
X64965809Y-108558138D01*
X64955691Y-108562787D01*
X64953706Y-108560597D01*
X64939241Y-108541721D01*
X64915400Y-108508397D01*
X64884029Y-108463380D01*
X64846974Y-108409425D01*
X64806083Y-108349285D01*
X64763202Y-108285718D01*
X64720178Y-108221476D01*
X64678857Y-108159315D01*
X64641086Y-108101991D01*
X64608712Y-108052257D01*
X64583582Y-108012868D01*
X64567542Y-107986580D01*
X64562439Y-107976147D01*
X64567050Y-107971941D01*
X64586267Y-107966933D01*
X64595838Y-107964386D01*
X64623809Y-107953249D01*
X64665448Y-107934802D01*
X64716995Y-107910725D01*
X64774690Y-107882699D01*
X64785957Y-107877154D01*
X64963687Y-107797889D01*
X65133490Y-107738385D01*
X65297430Y-107698245D01*
X65457571Y-107677071D01*
X65615977Y-107674466D01*
X65774711Y-107690033D01*
G37*
X65774711Y-107690033D02*
X65870268Y-107707523D01*
X66034558Y-107752564D01*
X66188589Y-107815656D01*
X66334509Y-107897915D01*
X66474466Y-108000457D01*
X66610608Y-108124399D01*
X66654473Y-108169661D01*
X66766758Y-108301865D01*
X66859972Y-108439832D01*
X66936719Y-108587750D01*
X66999603Y-108749803D01*
X67003420Y-108761391D01*
X67053507Y-108947392D01*
X67086899Y-109143521D01*
X67103584Y-109345568D01*
X67103551Y-109549325D01*
X67086791Y-109750581D01*
X67053292Y-109945128D01*
X67003044Y-110128756D01*
X66959190Y-110246053D01*
X66881348Y-110408951D01*
X66787828Y-110562866D01*
X66680822Y-110704671D01*
X66562519Y-110831239D01*
X66435111Y-110939441D01*
X66357606Y-110992120D01*
X66230725Y-111061750D01*
X66093243Y-111120468D01*
X65951716Y-111165587D01*
X65812702Y-111194422D01*
X65798597Y-111196106D01*
X65755153Y-111199434D01*
X65697723Y-111202275D01*
X65632122Y-111204373D01*
X65564167Y-111205468D01*
X65437378Y-111203140D01*
X65289673Y-111190136D01*
X65151779Y-111165133D01*
X65018014Y-111127318D01*
X64994562Y-111118889D01*
X64946612Y-111099408D01*
X64890140Y-111074473D01*
X64828379Y-111045722D01*
X64764563Y-111014790D01*
X64701926Y-110983315D01*
X64643703Y-110952934D01*
X64593127Y-110925283D01*
X64553433Y-110901999D01*
X64527854Y-110884718D01*
X64519625Y-110875079D01*
X64521076Y-110871984D01*
X64532250Y-110852079D01*
X64553134Y-110816420D01*
X64582265Y-110767459D01*
X64618181Y-110707646D01*
X64659420Y-110639433D01*
X64704517Y-110565271D01*
X64885785Y-110268008D01*
X64932315Y-110312539D01*
X65023723Y-110390865D01*
X65137334Y-110465439D01*
X65255122Y-110519474D01*
X65375559Y-110552290D01*
X65497117Y-110563211D01*
X65538585Y-110561868D01*
X65656080Y-110543612D01*
X65766089Y-110504617D01*
X65867430Y-110445670D01*
X65958921Y-110367557D01*
X66039380Y-110271064D01*
X66107627Y-110156978D01*
X66123908Y-110122724D01*
X66169982Y-109999240D01*
X66205106Y-109860918D01*
X66229197Y-109711561D01*
X66242173Y-109554973D01*
X66243949Y-109394956D01*
X66234443Y-109235314D01*
X66213572Y-109079850D01*
X66181252Y-108932366D01*
X66137399Y-108796667D01*
X66099982Y-108710076D01*
X66035185Y-108596688D01*
X65959772Y-108503070D01*
X65873418Y-108428959D01*
X65775795Y-108374094D01*
X65666577Y-108338212D01*
X65545439Y-108321051D01*
X65476038Y-108319880D01*
X65353168Y-108334141D01*
X65237664Y-108369241D01*
X65130953Y-108424682D01*
X65034464Y-108499964D01*
X65018720Y-108514440D01*
X64988150Y-108540962D01*
X64965809Y-108558138D01*
X64955691Y-108562787D01*
X64953706Y-108560597D01*
X64939241Y-108541721D01*
X64915400Y-108508397D01*
X64884029Y-108463380D01*
X64846974Y-108409425D01*
X64806083Y-108349285D01*
X64763202Y-108285718D01*
X64720178Y-108221476D01*
X64678857Y-108159315D01*
X64641086Y-108101991D01*
X64608712Y-108052257D01*
X64583582Y-108012868D01*
X64567542Y-107986580D01*
X64562439Y-107976147D01*
X64567050Y-107971941D01*
X64586267Y-107966933D01*
X64595838Y-107964386D01*
X64623809Y-107953249D01*
X64665448Y-107934802D01*
X64716995Y-107910725D01*
X64774690Y-107882699D01*
X64785957Y-107877154D01*
X64963687Y-107797889D01*
X65133490Y-107738385D01*
X65297430Y-107698245D01*
X65457571Y-107677071D01*
X65615977Y-107674466D01*
X65774711Y-107690033D01*
X59599493Y-109200245D02*
X59599474Y-109434662D01*
X59599474Y-109434662D02*
X59599448Y-109647603D01*
X59599448Y-109647603D02*
X59599375Y-109840168D01*
X59599375Y-109840168D02*
X59599218Y-110013459D01*
X59599218Y-110013459D02*
X59598936Y-110168576D01*
X59598936Y-110168576D02*
X59598491Y-110306620D01*
X59598491Y-110306620D02*
X59597844Y-110428692D01*
X59597844Y-110428692D02*
X59596955Y-110535894D01*
X59596955Y-110535894D02*
X59595787Y-110629326D01*
X59595787Y-110629326D02*
X59594299Y-110710090D01*
X59594299Y-110710090D02*
X59592454Y-110779286D01*
X59592454Y-110779286D02*
X59590211Y-110838015D01*
X59590211Y-110838015D02*
X59587531Y-110887379D01*
X59587531Y-110887379D02*
X59584377Y-110928478D01*
X59584377Y-110928478D02*
X59580708Y-110962413D01*
X59580708Y-110962413D02*
X59576487Y-110990286D01*
X59576487Y-110990286D02*
X59571673Y-111013198D01*
X59571673Y-111013198D02*
X59566227Y-111032249D01*
X59566227Y-111032249D02*
X59560112Y-111048540D01*
X59560112Y-111048540D02*
X59553288Y-111063173D01*
X59553288Y-111063173D02*
X59545715Y-111077249D01*
X59545715Y-111077249D02*
X59537355Y-111091868D01*
X59537355Y-111091868D02*
X59532161Y-111100974D01*
X59532161Y-111100974D02*
X59497896Y-111161689D01*
X59497896Y-111161689D02*
X60356045Y-111161689D01*
X60356045Y-111161689D02*
X60356045Y-111065733D01*
X60356045Y-111065733D02*
X60356776Y-111022370D01*
X60356776Y-111022370D02*
X60358728Y-110989205D01*
X60358728Y-110989205D02*
X60361537Y-110971424D01*
X60361537Y-110971424D02*
X60362779Y-110969778D01*
X60362779Y-110969778D02*
X60374201Y-110976662D01*
X60374201Y-110976662D02*
X60396916Y-110994505D01*
X60396916Y-110994505D02*
X60419615Y-111013879D01*
X60419615Y-111013879D02*
X60474200Y-111054614D01*
X60474200Y-111054614D02*
X60543679Y-111095617D01*
X60543679Y-111095617D02*
X60620730Y-111133123D01*
X60620730Y-111133123D02*
X60698035Y-111163364D01*
X60698035Y-111163364D02*
X60728887Y-111173012D01*
X60728887Y-111173012D02*
X60797384Y-111187578D01*
X60797384Y-111187578D02*
X60880236Y-111197539D01*
X60880236Y-111197539D02*
X60969629Y-111202583D01*
X60969629Y-111202583D02*
X61057752Y-111202396D01*
X61057752Y-111202396D02*
X61136793Y-111196666D01*
X61136793Y-111196666D02*
X61174489Y-111190858D01*
X61174489Y-111190858D02*
X61312586Y-111152797D01*
X61312586Y-111152797D02*
X61439887Y-111095073D01*
X61439887Y-111095073D02*
X61555708Y-111018211D01*
X61555708Y-111018211D02*
X61659363Y-110922739D01*
X61659363Y-110922739D02*
X61750167Y-110809179D01*
X61750167Y-110809179D02*
X61816969Y-110698381D01*
X61816969Y-110698381D02*
X61871836Y-110581625D01*
X61871836Y-110581625D02*
X61913837Y-110462276D01*
X61913837Y-110462276D02*
X61943833Y-110336283D01*
X61943833Y-110336283D02*
X61962689Y-110199594D01*
X61962689Y-110199594D02*
X61971268Y-110048158D01*
X61971268Y-110048158D02*
X61971994Y-109970711D01*
X61971994Y-109970711D02*
X61969900Y-109913934D01*
X61969900Y-109913934D02*
X61140783Y-109913934D01*
X61140783Y-109913934D02*
X61140576Y-110007002D01*
X61140576Y-110007002D02*
X61137663Y-110094692D01*
X61137663Y-110094692D02*
X61132000Y-110171772D01*
X61132000Y-110171772D02*
X61123545Y-110233009D01*
X61123545Y-110233009D02*
X61120962Y-110245350D01*
X61120962Y-110245350D02*
X61089160Y-110352633D01*
X61089160Y-110352633D02*
X61047502Y-110439658D01*
X61047502Y-110439658D02*
X60995637Y-110506642D01*
X60995637Y-110506642D02*
X60933219Y-110553805D01*
X60933219Y-110553805D02*
X60859900Y-110581365D01*
X60859900Y-110581365D02*
X60775331Y-110589541D01*
X60775331Y-110589541D02*
X60679165Y-110578551D01*
X60679165Y-110578551D02*
X60615689Y-110562829D01*
X60615689Y-110562829D02*
X60566546Y-110544639D01*
X60566546Y-110544639D02*
X60512417Y-110518791D01*
X60512417Y-110518791D02*
X60471756Y-110495089D01*
X60471756Y-110495089D02*
X60401200Y-110448721D01*
X60401200Y-110448721D02*
X60401200Y-109298530D01*
X60401200Y-109298530D02*
X60468608Y-109254962D01*
X60468608Y-109254962D02*
X60547133Y-109214040D01*
X60547133Y-109214040D02*
X60631319Y-109187389D01*
X60631319Y-109187389D02*
X60716443Y-109175465D01*
X60716443Y-109175465D02*
X60797784Y-109178722D01*
X60797784Y-109178722D02*
X60870620Y-109197615D01*
X60870620Y-109197615D02*
X60902574Y-109213184D01*
X60902574Y-109213184D02*
X60960499Y-109256181D01*
X60960499Y-109256181D02*
X61009456Y-109312953D01*
X61009456Y-109312953D02*
X61050610Y-109385575D01*
X61050610Y-109385575D02*
X61085126Y-109476121D01*
X61085126Y-109476121D02*
X61114167Y-109586666D01*
X61114167Y-109586666D02*
X61115448Y-109592533D01*
X61115448Y-109592533D02*
X61125619Y-109654788D01*
X61125619Y-109654788D02*
X61133261Y-109732594D01*
X61133261Y-109732594D02*
X61138330Y-109820720D01*
X61138330Y-109820720D02*
X61140783Y-109913934D01*
X61140783Y-109913934D02*
X61969900Y-109913934D01*
X61969900Y-109913934D02*
X61964143Y-109757895D01*
X61964143Y-109757895D02*
X61942198Y-109562059D01*
X61942198Y-109562059D02*
X61906214Y-109383332D01*
X61906214Y-109383332D02*
X61856241Y-109221845D01*
X61856241Y-109221845D02*
X61792332Y-109077726D01*
X61792332Y-109077726D02*
X61714538Y-108951106D01*
X61714538Y-108951106D02*
X61622911Y-108842115D01*
X61622911Y-108842115D02*
X61517503Y-108750883D01*
X61517503Y-108750883D02*
X61472338Y-108719932D01*
X61472338Y-108719932D02*
X61371389Y-108663785D01*
X61371389Y-108663785D02*
X61268099Y-108624174D01*
X61268099Y-108624174D02*
X61158011Y-108600014D01*
X61158011Y-108600014D02*
X61036670Y-108590219D01*
X61036670Y-108590219D02*
X60944164Y-108591265D01*
X60944164Y-108591265D02*
X60814510Y-108602231D01*
X60814510Y-108602231D02*
X60701916Y-108624046D01*
X60701916Y-108624046D02*
X60603125Y-108657714D01*
X60603125Y-108657714D02*
X60514879Y-108704236D01*
X60514879Y-108704236D02*
X60466014Y-108738448D01*
X60466014Y-108738448D02*
X60436647Y-108760362D01*
X60436647Y-108760362D02*
X60414957Y-108775333D01*
X60414957Y-108775333D02*
X60406747Y-108779733D01*
X60406747Y-108779733D02*
X60405132Y-108768904D01*
X60405132Y-108768904D02*
X60403841Y-108738251D01*
X60403841Y-108738251D02*
X60402862Y-108690526D01*
X60402862Y-108690526D02*
X60402183Y-108628479D01*
X60402183Y-108628479D02*
X60401790Y-108554862D01*
X60401790Y-108554862D02*
X60401670Y-108472427D01*
X60401670Y-108472427D02*
X60401812Y-108383925D01*
X60401812Y-108383925D02*
X60402203Y-108292107D01*
X60402203Y-108292107D02*
X60402829Y-108199724D01*
X60402829Y-108199724D02*
X60403680Y-108109528D01*
X60403680Y-108109528D02*
X60404740Y-108024271D01*
X60404740Y-108024271D02*
X60405999Y-107946703D01*
X60405999Y-107946703D02*
X60407444Y-107879576D01*
X60407444Y-107879576D02*
X60409062Y-107825641D01*
X60409062Y-107825641D02*
X60410839Y-107787650D01*
X60410839Y-107787650D02*
X60411331Y-107780667D01*
X60411331Y-107780667D02*
X60418908Y-107710251D01*
X60418908Y-107710251D02*
X60430469Y-107655102D01*
X60430469Y-107655102D02*
X60448208Y-107607981D01*
X60448208Y-107607981D02*
X60474318Y-107561647D01*
X60474318Y-107561647D02*
X60480585Y-107552067D01*
X60480585Y-107552067D02*
X60505017Y-107515378D01*
X60505017Y-107515378D02*
X59599689Y-107515378D01*
X59599689Y-107515378D02*
X59599493Y-109200245D01*
X59599493Y-109200245D02*
X59599493Y-109200245D01*
G36*
X61971268Y-110048158D02*
G01*
X61962689Y-110199594D01*
X61943833Y-110336283D01*
X61913837Y-110462276D01*
X61871836Y-110581625D01*
X61816969Y-110698381D01*
X61750167Y-110809179D01*
X61659363Y-110922739D01*
X61555708Y-111018211D01*
X61439887Y-111095073D01*
X61312586Y-111152797D01*
X61174489Y-111190858D01*
X61136793Y-111196666D01*
X61057752Y-111202396D01*
X60969629Y-111202583D01*
X60880236Y-111197539D01*
X60797384Y-111187578D01*
X60728887Y-111173012D01*
X60698035Y-111163364D01*
X60620730Y-111133123D01*
X60543679Y-111095617D01*
X60474200Y-111054614D01*
X60419615Y-111013879D01*
X60396916Y-110994505D01*
X60374201Y-110976662D01*
X60362779Y-110969778D01*
X60361537Y-110971424D01*
X60358728Y-110989205D01*
X60356776Y-111022370D01*
X60356045Y-111065733D01*
X60356045Y-111161689D01*
X59497896Y-111161689D01*
X59532161Y-111100974D01*
X59537355Y-111091868D01*
X59545715Y-111077249D01*
X59553288Y-111063173D01*
X59560112Y-111048540D01*
X59566227Y-111032249D01*
X59571673Y-111013198D01*
X59576487Y-110990286D01*
X59580708Y-110962413D01*
X59584377Y-110928478D01*
X59587531Y-110887379D01*
X59590211Y-110838015D01*
X59592454Y-110779286D01*
X59594299Y-110710090D01*
X59595787Y-110629326D01*
X59596955Y-110535894D01*
X59597678Y-110448721D01*
X60401200Y-110448721D01*
X60471756Y-110495089D01*
X60512417Y-110518791D01*
X60566546Y-110544639D01*
X60615689Y-110562829D01*
X60679165Y-110578551D01*
X60775331Y-110589541D01*
X60859900Y-110581365D01*
X60933219Y-110553805D01*
X60995637Y-110506642D01*
X61047502Y-110439658D01*
X61089160Y-110352633D01*
X61120962Y-110245350D01*
X61123545Y-110233009D01*
X61132000Y-110171772D01*
X61137663Y-110094692D01*
X61140576Y-110007002D01*
X61140783Y-109913934D01*
X61138330Y-109820720D01*
X61133261Y-109732594D01*
X61125619Y-109654788D01*
X61115448Y-109592533D01*
X61114167Y-109586666D01*
X61085126Y-109476121D01*
X61050610Y-109385575D01*
X61009456Y-109312953D01*
X60960499Y-109256181D01*
X60902574Y-109213184D01*
X60870620Y-109197615D01*
X60797784Y-109178722D01*
X60716443Y-109175465D01*
X60631319Y-109187389D01*
X60547133Y-109214040D01*
X60468608Y-109254962D01*
X60401200Y-109298530D01*
X60401200Y-110448721D01*
X59597678Y-110448721D01*
X59597844Y-110428692D01*
X59598491Y-110306620D01*
X59598936Y-110168576D01*
X59599218Y-110013459D01*
X59599375Y-109840168D01*
X59599448Y-109647603D01*
X59599474Y-109434662D01*
X59599493Y-109200245D01*
X59599689Y-107515378D01*
X60505017Y-107515378D01*
X60480585Y-107552067D01*
X60474318Y-107561647D01*
X60448208Y-107607981D01*
X60430469Y-107655102D01*
X60418908Y-107710251D01*
X60411331Y-107780667D01*
X60410839Y-107787650D01*
X60409062Y-107825641D01*
X60407444Y-107879576D01*
X60405999Y-107946703D01*
X60404740Y-108024271D01*
X60403680Y-108109528D01*
X60402829Y-108199724D01*
X60402203Y-108292107D01*
X60401812Y-108383925D01*
X60401670Y-108472427D01*
X60401790Y-108554862D01*
X60402183Y-108628479D01*
X60402862Y-108690526D01*
X60403841Y-108738251D01*
X60405132Y-108768904D01*
X60406747Y-108779733D01*
X60414957Y-108775333D01*
X60436647Y-108760362D01*
X60466014Y-108738448D01*
X60514879Y-108704236D01*
X60603125Y-108657714D01*
X60701916Y-108624046D01*
X60814510Y-108602231D01*
X60944164Y-108591265D01*
X61036670Y-108590219D01*
X61158011Y-108600014D01*
X61268099Y-108624174D01*
X61371389Y-108663785D01*
X61472338Y-108719932D01*
X61517503Y-108750883D01*
X61622911Y-108842115D01*
X61714538Y-108951106D01*
X61792332Y-109077726D01*
X61856241Y-109221845D01*
X61906214Y-109383332D01*
X61942198Y-109562059D01*
X61964143Y-109757895D01*
X61969900Y-109913934D01*
X61971994Y-109970711D01*
X61971268Y-110048158D01*
G37*
X61971268Y-110048158D02*
X61962689Y-110199594D01*
X61943833Y-110336283D01*
X61913837Y-110462276D01*
X61871836Y-110581625D01*
X61816969Y-110698381D01*
X61750167Y-110809179D01*
X61659363Y-110922739D01*
X61555708Y-111018211D01*
X61439887Y-111095073D01*
X61312586Y-111152797D01*
X61174489Y-111190858D01*
X61136793Y-111196666D01*
X61057752Y-111202396D01*
X60969629Y-111202583D01*
X60880236Y-111197539D01*
X60797384Y-111187578D01*
X60728887Y-111173012D01*
X60698035Y-111163364D01*
X60620730Y-111133123D01*
X60543679Y-111095617D01*
X60474200Y-111054614D01*
X60419615Y-111013879D01*
X60396916Y-110994505D01*
X60374201Y-110976662D01*
X60362779Y-110969778D01*
X60361537Y-110971424D01*
X60358728Y-110989205D01*
X60356776Y-111022370D01*
X60356045Y-111065733D01*
X60356045Y-111161689D01*
X59497896Y-111161689D01*
X59532161Y-111100974D01*
X59537355Y-111091868D01*
X59545715Y-111077249D01*
X59553288Y-111063173D01*
X59560112Y-111048540D01*
X59566227Y-111032249D01*
X59571673Y-111013198D01*
X59576487Y-110990286D01*
X59580708Y-110962413D01*
X59584377Y-110928478D01*
X59587531Y-110887379D01*
X59590211Y-110838015D01*
X59592454Y-110779286D01*
X59594299Y-110710090D01*
X59595787Y-110629326D01*
X59596955Y-110535894D01*
X59597678Y-110448721D01*
X60401200Y-110448721D01*
X60471756Y-110495089D01*
X60512417Y-110518791D01*
X60566546Y-110544639D01*
X60615689Y-110562829D01*
X60679165Y-110578551D01*
X60775331Y-110589541D01*
X60859900Y-110581365D01*
X60933219Y-110553805D01*
X60995637Y-110506642D01*
X61047502Y-110439658D01*
X61089160Y-110352633D01*
X61120962Y-110245350D01*
X61123545Y-110233009D01*
X61132000Y-110171772D01*
X61137663Y-110094692D01*
X61140576Y-110007002D01*
X61140783Y-109913934D01*
X61138330Y-109820720D01*
X61133261Y-109732594D01*
X61125619Y-109654788D01*
X61115448Y-109592533D01*
X61114167Y-109586666D01*
X61085126Y-109476121D01*
X61050610Y-109385575D01*
X61009456Y-109312953D01*
X60960499Y-109256181D01*
X60902574Y-109213184D01*
X60870620Y-109197615D01*
X60797784Y-109178722D01*
X60716443Y-109175465D01*
X60631319Y-109187389D01*
X60547133Y-109214040D01*
X60468608Y-109254962D01*
X60401200Y-109298530D01*
X60401200Y-110448721D01*
X59597678Y-110448721D01*
X59597844Y-110428692D01*
X59598491Y-110306620D01*
X59598936Y-110168576D01*
X59599218Y-110013459D01*
X59599375Y-109840168D01*
X59599448Y-109647603D01*
X59599474Y-109434662D01*
X59599493Y-109200245D01*
X59599689Y-107515378D01*
X60505017Y-107515378D01*
X60480585Y-107552067D01*
X60474318Y-107561647D01*
X60448208Y-107607981D01*
X60430469Y-107655102D01*
X60418908Y-107710251D01*
X60411331Y-107780667D01*
X60410839Y-107787650D01*
X60409062Y-107825641D01*
X60407444Y-107879576D01*
X60405999Y-107946703D01*
X60404740Y-108024271D01*
X60403680Y-108109528D01*
X60402829Y-108199724D01*
X60402203Y-108292107D01*
X60401812Y-108383925D01*
X60401670Y-108472427D01*
X60401790Y-108554862D01*
X60402183Y-108628479D01*
X60402862Y-108690526D01*
X60403841Y-108738251D01*
X60405132Y-108768904D01*
X60406747Y-108779733D01*
X60414957Y-108775333D01*
X60436647Y-108760362D01*
X60466014Y-108738448D01*
X60514879Y-108704236D01*
X60603125Y-108657714D01*
X60701916Y-108624046D01*
X60814510Y-108602231D01*
X60944164Y-108591265D01*
X61036670Y-108590219D01*
X61158011Y-108600014D01*
X61268099Y-108624174D01*
X61371389Y-108663785D01*
X61472338Y-108719932D01*
X61517503Y-108750883D01*
X61622911Y-108842115D01*
X61714538Y-108951106D01*
X61792332Y-109077726D01*
X61856241Y-109221845D01*
X61906214Y-109383332D01*
X61942198Y-109562059D01*
X61964143Y-109757895D01*
X61969900Y-109913934D01*
X61971994Y-109970711D01*
X61971268Y-110048158D01*
X70498794Y-111997146D02*
X70429386Y-111997518D01*
X70429386Y-111997518D02*
X70376997Y-111998385D01*
X70376997Y-111998385D02*
X70338847Y-111999946D01*
X70338847Y-111999946D02*
X70312159Y-112002403D01*
X70312159Y-112002403D02*
X70294153Y-112005957D01*
X70294153Y-112005957D02*
X70282049Y-112010810D01*
X70282049Y-112010810D02*
X70273069Y-112017161D01*
X70273069Y-112017161D02*
X70269818Y-112020084D01*
X70269818Y-112020084D02*
X70250043Y-112051142D01*
X70250043Y-112051142D02*
X70246482Y-112086828D01*
X70246482Y-112086828D02*
X70259491Y-112118510D01*
X70259491Y-112118510D02*
X70265506Y-112124913D01*
X70265506Y-112124913D02*
X70275235Y-112131121D01*
X70275235Y-112131121D02*
X70290901Y-112135910D01*
X70290901Y-112135910D02*
X70315408Y-112139514D01*
X70315408Y-112139514D02*
X70351661Y-112142164D01*
X70351661Y-112142164D02*
X70402565Y-112144095D01*
X70402565Y-112144095D02*
X70471026Y-112145539D01*
X70471026Y-112145539D02*
X70533617Y-112146418D01*
X70533617Y-112146418D02*
X70781334Y-112149467D01*
X70781334Y-112149467D02*
X70784719Y-112214378D01*
X70784719Y-112214378D02*
X70788105Y-112279289D01*
X70788105Y-112279289D02*
X70619958Y-112279289D01*
X70619958Y-112279289D02*
X70546959Y-112279919D01*
X70546959Y-112279919D02*
X70493517Y-112282553D01*
X70493517Y-112282553D02*
X70456628Y-112288309D01*
X70456628Y-112288309D02*
X70433288Y-112298304D01*
X70433288Y-112298304D02*
X70420494Y-112313656D01*
X70420494Y-112313656D02*
X70415242Y-112335482D01*
X70415242Y-112335482D02*
X70414445Y-112355738D01*
X70414445Y-112355738D02*
X70416923Y-112380592D01*
X70416923Y-112380592D02*
X70426277Y-112398906D01*
X70426277Y-112398906D02*
X70445383Y-112411637D01*
X70445383Y-112411637D02*
X70477118Y-112419741D01*
X70477118Y-112419741D02*
X70524359Y-112424176D01*
X70524359Y-112424176D02*
X70589983Y-112425899D01*
X70589983Y-112425899D02*
X70625801Y-112426045D01*
X70625801Y-112426045D02*
X70786978Y-112426045D01*
X70786978Y-112426045D02*
X70786978Y-112584089D01*
X70786978Y-112584089D02*
X70538622Y-112584089D01*
X70538622Y-112584089D02*
X70457213Y-112584202D01*
X70457213Y-112584202D02*
X70395342Y-112584712D01*
X70395342Y-112584712D02*
X70349968Y-112585870D01*
X70349968Y-112585870D02*
X70318054Y-112587930D01*
X70318054Y-112587930D02*
X70296559Y-112591146D01*
X70296559Y-112591146D02*
X70282443Y-112595772D01*
X70282443Y-112595772D02*
X70272668Y-112602059D01*
X70272668Y-112602059D02*
X70267689Y-112606667D01*
X70267689Y-112606667D02*
X70250610Y-112633560D01*
X70250610Y-112633560D02*
X70245111Y-112657467D01*
X70245111Y-112657467D02*
X70252963Y-112686667D01*
X70252963Y-112686667D02*
X70267689Y-112708267D01*
X70267689Y-112708267D02*
X70275546Y-112715066D01*
X70275546Y-112715066D02*
X70285688Y-112720346D01*
X70285688Y-112720346D02*
X70300844Y-112724298D01*
X70300844Y-112724298D02*
X70323741Y-112727113D01*
X70323741Y-112727113D02*
X70357109Y-112728982D01*
X70357109Y-112728982D02*
X70403675Y-112730098D01*
X70403675Y-112730098D02*
X70466167Y-112730651D01*
X70466167Y-112730651D02*
X70547314Y-112730833D01*
X70547314Y-112730833D02*
X70589422Y-112730845D01*
X70589422Y-112730845D02*
X70679598Y-112730765D01*
X70679598Y-112730765D02*
X70749924Y-112730398D01*
X70749924Y-112730398D02*
X70803129Y-112729552D01*
X70803129Y-112729552D02*
X70841940Y-112728036D01*
X70841940Y-112728036D02*
X70869087Y-112725659D01*
X70869087Y-112725659D02*
X70887298Y-112722229D01*
X70887298Y-112722229D02*
X70899300Y-112717554D01*
X70899300Y-112717554D02*
X70907822Y-112711444D01*
X70907822Y-112711444D02*
X70911156Y-112708267D01*
X70911156Y-112708267D02*
X70917755Y-112700670D01*
X70917755Y-112700670D02*
X70922927Y-112690870D01*
X70922927Y-112690870D02*
X70926846Y-112676239D01*
X70926846Y-112676239D02*
X70929684Y-112654152D01*
X70929684Y-112654152D02*
X70931615Y-112621982D01*
X70931615Y-112621982D02*
X70932812Y-112577103D01*
X70932812Y-112577103D02*
X70933448Y-112516889D01*
X70933448Y-112516889D02*
X70933697Y-112438713D01*
X70933697Y-112438713D02*
X70933734Y-112365923D01*
X70933734Y-112365923D02*
X70933700Y-112272707D01*
X70933700Y-112272707D02*
X70933465Y-112199431D01*
X70933465Y-112199431D02*
X70932830Y-112143458D01*
X70932830Y-112143458D02*
X70931594Y-112102151D01*
X70931594Y-112102151D02*
X70929556Y-112072872D01*
X70929556Y-112072872D02*
X70926517Y-112052984D01*
X70926517Y-112052984D02*
X70922277Y-112039850D01*
X70922277Y-112039850D02*
X70916635Y-112030832D01*
X70916635Y-112030832D02*
X70909391Y-112023293D01*
X70909391Y-112023293D02*
X70907606Y-112021612D01*
X70907606Y-112021612D02*
X70898945Y-112014172D01*
X70898945Y-112014172D02*
X70888882Y-112008409D01*
X70888882Y-112008409D02*
X70874625Y-112004112D01*
X70874625Y-112004112D02*
X70853383Y-112001064D01*
X70853383Y-112001064D02*
X70822364Y-111999051D01*
X70822364Y-111999051D02*
X70778777Y-111997860D01*
X70778777Y-111997860D02*
X70719831Y-111997275D01*
X70719831Y-111997275D02*
X70642734Y-111997083D01*
X70642734Y-111997083D02*
X70588001Y-111997067D01*
X70588001Y-111997067D02*
X70498794Y-111997146D01*
X70498794Y-111997146D02*
X70498794Y-111997146D01*
G36*
X70642734Y-111997083D02*
G01*
X70719831Y-111997275D01*
X70778777Y-111997860D01*
X70822364Y-111999051D01*
X70853383Y-112001064D01*
X70874625Y-112004112D01*
X70888882Y-112008409D01*
X70898945Y-112014172D01*
X70907606Y-112021612D01*
X70909391Y-112023293D01*
X70916635Y-112030832D01*
X70922277Y-112039850D01*
X70926517Y-112052984D01*
X70929556Y-112072872D01*
X70931594Y-112102151D01*
X70932830Y-112143458D01*
X70933465Y-112199431D01*
X70933700Y-112272707D01*
X70933734Y-112365923D01*
X70933697Y-112438713D01*
X70933448Y-112516889D01*
X70932812Y-112577103D01*
X70931615Y-112621982D01*
X70929684Y-112654152D01*
X70926846Y-112676239D01*
X70922927Y-112690870D01*
X70917755Y-112700670D01*
X70911156Y-112708267D01*
X70907822Y-112711444D01*
X70899300Y-112717554D01*
X70887298Y-112722229D01*
X70869087Y-112725659D01*
X70841940Y-112728036D01*
X70803129Y-112729552D01*
X70749924Y-112730398D01*
X70679598Y-112730765D01*
X70589422Y-112730845D01*
X70547314Y-112730833D01*
X70466167Y-112730651D01*
X70403675Y-112730098D01*
X70357109Y-112728982D01*
X70323741Y-112727113D01*
X70300844Y-112724298D01*
X70285688Y-112720346D01*
X70275546Y-112715066D01*
X70267689Y-112708267D01*
X70252963Y-112686667D01*
X70245111Y-112657467D01*
X70250610Y-112633560D01*
X70267689Y-112606667D01*
X70272668Y-112602059D01*
X70282443Y-112595772D01*
X70296559Y-112591146D01*
X70318054Y-112587930D01*
X70349968Y-112585870D01*
X70395342Y-112584712D01*
X70457213Y-112584202D01*
X70538622Y-112584089D01*
X70786978Y-112584089D01*
X70786978Y-112426045D01*
X70625801Y-112426045D01*
X70589983Y-112425899D01*
X70524359Y-112424176D01*
X70477118Y-112419741D01*
X70445383Y-112411637D01*
X70426277Y-112398906D01*
X70416923Y-112380592D01*
X70414445Y-112355738D01*
X70415242Y-112335482D01*
X70420494Y-112313656D01*
X70433288Y-112298304D01*
X70456628Y-112288309D01*
X70493517Y-112282553D01*
X70546959Y-112279919D01*
X70619958Y-112279289D01*
X70788105Y-112279289D01*
X70784719Y-112214378D01*
X70781334Y-112149467D01*
X70533617Y-112146418D01*
X70471026Y-112145539D01*
X70402565Y-112144095D01*
X70351661Y-112142164D01*
X70315408Y-112139514D01*
X70290901Y-112135910D01*
X70275235Y-112131121D01*
X70265506Y-112124913D01*
X70259491Y-112118510D01*
X70246482Y-112086828D01*
X70250043Y-112051142D01*
X70269818Y-112020084D01*
X70273069Y-112017161D01*
X70282049Y-112010810D01*
X70294153Y-112005957D01*
X70312159Y-112002403D01*
X70338847Y-111999946D01*
X70376997Y-111998385D01*
X70429386Y-111997518D01*
X70498794Y-111997146D01*
X70588001Y-111997067D01*
X70642734Y-111997083D01*
G37*
X70642734Y-111997083D02*
X70719831Y-111997275D01*
X70778777Y-111997860D01*
X70822364Y-111999051D01*
X70853383Y-112001064D01*
X70874625Y-112004112D01*
X70888882Y-112008409D01*
X70898945Y-112014172D01*
X70907606Y-112021612D01*
X70909391Y-112023293D01*
X70916635Y-112030832D01*
X70922277Y-112039850D01*
X70926517Y-112052984D01*
X70929556Y-112072872D01*
X70931594Y-112102151D01*
X70932830Y-112143458D01*
X70933465Y-112199431D01*
X70933700Y-112272707D01*
X70933734Y-112365923D01*
X70933697Y-112438713D01*
X70933448Y-112516889D01*
X70932812Y-112577103D01*
X70931615Y-112621982D01*
X70929684Y-112654152D01*
X70926846Y-112676239D01*
X70922927Y-112690870D01*
X70917755Y-112700670D01*
X70911156Y-112708267D01*
X70907822Y-112711444D01*
X70899300Y-112717554D01*
X70887298Y-112722229D01*
X70869087Y-112725659D01*
X70841940Y-112728036D01*
X70803129Y-112729552D01*
X70749924Y-112730398D01*
X70679598Y-112730765D01*
X70589422Y-112730845D01*
X70547314Y-112730833D01*
X70466167Y-112730651D01*
X70403675Y-112730098D01*
X70357109Y-112728982D01*
X70323741Y-112727113D01*
X70300844Y-112724298D01*
X70285688Y-112720346D01*
X70275546Y-112715066D01*
X70267689Y-112708267D01*
X70252963Y-112686667D01*
X70245111Y-112657467D01*
X70250610Y-112633560D01*
X70267689Y-112606667D01*
X70272668Y-112602059D01*
X70282443Y-112595772D01*
X70296559Y-112591146D01*
X70318054Y-112587930D01*
X70349968Y-112585870D01*
X70395342Y-112584712D01*
X70457213Y-112584202D01*
X70538622Y-112584089D01*
X70786978Y-112584089D01*
X70786978Y-112426045D01*
X70625801Y-112426045D01*
X70589983Y-112425899D01*
X70524359Y-112424176D01*
X70477118Y-112419741D01*
X70445383Y-112411637D01*
X70426277Y-112398906D01*
X70416923Y-112380592D01*
X70414445Y-112355738D01*
X70415242Y-112335482D01*
X70420494Y-112313656D01*
X70433288Y-112298304D01*
X70456628Y-112288309D01*
X70493517Y-112282553D01*
X70546959Y-112279919D01*
X70619958Y-112279289D01*
X70788105Y-112279289D01*
X70784719Y-112214378D01*
X70781334Y-112149467D01*
X70533617Y-112146418D01*
X70471026Y-112145539D01*
X70402565Y-112144095D01*
X70351661Y-112142164D01*
X70315408Y-112139514D01*
X70290901Y-112135910D01*
X70275235Y-112131121D01*
X70265506Y-112124913D01*
X70259491Y-112118510D01*
X70246482Y-112086828D01*
X70250043Y-112051142D01*
X70269818Y-112020084D01*
X70273069Y-112017161D01*
X70282049Y-112010810D01*
X70294153Y-112005957D01*
X70312159Y-112002403D01*
X70338847Y-111999946D01*
X70376997Y-111998385D01*
X70429386Y-111997518D01*
X70498794Y-111997146D01*
X70588001Y-111997067D01*
X70642734Y-111997083D01*
X68732400Y-107217054D02*
X68721535Y-107330993D01*
X68721535Y-107330993D02*
X68689918Y-107438616D01*
X68689918Y-107438616D02*
X68639015Y-107537615D01*
X68639015Y-107537615D02*
X68570293Y-107625684D01*
X68570293Y-107625684D02*
X68485219Y-107700516D01*
X68485219Y-107700516D02*
X68388232Y-107758384D01*
X68388232Y-107758384D02*
X68281964Y-107798005D01*
X68281964Y-107798005D02*
X68174950Y-107816573D01*
X68174950Y-107816573D02*
X68069300Y-107815434D01*
X68069300Y-107815434D02*
X67967125Y-107795930D01*
X67967125Y-107795930D02*
X67870534Y-107759406D01*
X67870534Y-107759406D02*
X67781638Y-107707205D01*
X67781638Y-107707205D02*
X67702546Y-107640673D01*
X67702546Y-107640673D02*
X67635369Y-107561152D01*
X67635369Y-107561152D02*
X67582217Y-107469987D01*
X67582217Y-107469987D02*
X67545199Y-107368523D01*
X67545199Y-107368523D02*
X67526427Y-107258102D01*
X67526427Y-107258102D02*
X67524489Y-107208206D01*
X67524489Y-107208206D02*
X67524489Y-107120267D01*
X67524489Y-107120267D02*
X67472560Y-107120267D01*
X67472560Y-107120267D02*
X67436253Y-107123111D01*
X67436253Y-107123111D02*
X67409355Y-107134911D01*
X67409355Y-107134911D02*
X67382249Y-107158649D01*
X67382249Y-107158649D02*
X67343867Y-107197031D01*
X67343867Y-107197031D02*
X67343867Y-109388602D01*
X67343867Y-109388602D02*
X67343876Y-109650739D01*
X67343876Y-109650739D02*
X67343908Y-109891241D01*
X67343908Y-109891241D02*
X67343972Y-110111048D01*
X67343972Y-110111048D02*
X67344076Y-110311101D01*
X67344076Y-110311101D02*
X67344227Y-110492344D01*
X67344227Y-110492344D02*
X67344434Y-110655716D01*
X67344434Y-110655716D02*
X67344706Y-110802160D01*
X67344706Y-110802160D02*
X67345050Y-110932617D01*
X67345050Y-110932617D02*
X67345474Y-111048029D01*
X67345474Y-111048029D02*
X67345987Y-111149338D01*
X67345987Y-111149338D02*
X67346597Y-111237484D01*
X67346597Y-111237484D02*
X67347312Y-111313410D01*
X67347312Y-111313410D02*
X67348140Y-111378057D01*
X67348140Y-111378057D02*
X67349089Y-111432367D01*
X67349089Y-111432367D02*
X67350167Y-111477280D01*
X67350167Y-111477280D02*
X67351383Y-111513740D01*
X67351383Y-111513740D02*
X67352745Y-111542687D01*
X67352745Y-111542687D02*
X67354261Y-111565063D01*
X67354261Y-111565063D02*
X67355938Y-111581809D01*
X67355938Y-111581809D02*
X67357786Y-111593868D01*
X67357786Y-111593868D02*
X67359813Y-111602180D01*
X67359813Y-111602180D02*
X67362025Y-111607687D01*
X67362025Y-111607687D02*
X67363108Y-111609537D01*
X67363108Y-111609537D02*
X67367271Y-111616549D01*
X67367271Y-111616549D02*
X67370805Y-111622996D01*
X67370805Y-111622996D02*
X67374635Y-111628900D01*
X67374635Y-111628900D02*
X67379682Y-111634286D01*
X67379682Y-111634286D02*
X67386871Y-111639178D01*
X67386871Y-111639178D02*
X67397123Y-111643598D01*
X67397123Y-111643598D02*
X67411364Y-111647572D01*
X67411364Y-111647572D02*
X67430514Y-111651121D01*
X67430514Y-111651121D02*
X67455499Y-111654270D01*
X67455499Y-111654270D02*
X67487240Y-111657042D01*
X67487240Y-111657042D02*
X67526662Y-111659461D01*
X67526662Y-111659461D02*
X67574686Y-111661551D01*
X67574686Y-111661551D02*
X67632237Y-111663335D01*
X67632237Y-111663335D02*
X67700237Y-111664837D01*
X67700237Y-111664837D02*
X67779610Y-111666080D01*
X67779610Y-111666080D02*
X67871279Y-111667089D01*
X67871279Y-111667089D02*
X67976166Y-111667885D01*
X67976166Y-111667885D02*
X68095196Y-111668494D01*
X68095196Y-111668494D02*
X68229290Y-111668939D01*
X68229290Y-111668939D02*
X68379373Y-111669243D01*
X68379373Y-111669243D02*
X68546367Y-111669430D01*
X68546367Y-111669430D02*
X68731196Y-111669524D01*
X68731196Y-111669524D02*
X68934783Y-111669548D01*
X68934783Y-111669548D02*
X69158050Y-111669525D01*
X69158050Y-111669525D02*
X69401922Y-111669480D01*
X69401922Y-111669480D02*
X69667321Y-111669437D01*
X69667321Y-111669437D02*
X69705704Y-111669432D01*
X69705704Y-111669432D02*
X69972682Y-111669389D01*
X69972682Y-111669389D02*
X70218002Y-111669318D01*
X70218002Y-111669318D02*
X70442583Y-111669213D01*
X70442583Y-111669213D02*
X70647345Y-111669066D01*
X70647345Y-111669066D02*
X70833206Y-111668869D01*
X70833206Y-111668869D02*
X71001088Y-111668616D01*
X71001088Y-111668616D02*
X71151908Y-111668300D01*
X71151908Y-111668300D02*
X71286587Y-111667913D01*
X71286587Y-111667913D02*
X71406044Y-111667447D01*
X71406044Y-111667447D02*
X71511199Y-111666897D01*
X71511199Y-111666897D02*
X71602971Y-111666253D01*
X71602971Y-111666253D02*
X71682279Y-111665511D01*
X71682279Y-111665511D02*
X71750043Y-111664661D01*
X71750043Y-111664661D02*
X71807182Y-111663697D01*
X71807182Y-111663697D02*
X71854617Y-111662611D01*
X71854617Y-111662611D02*
X71893266Y-111661397D01*
X71893266Y-111661397D02*
X71924049Y-111660047D01*
X71924049Y-111660047D02*
X71947885Y-111658555D01*
X71947885Y-111658555D02*
X71965694Y-111656911D01*
X71965694Y-111656911D02*
X71978395Y-111655111D01*
X71978395Y-111655111D02*
X71986908Y-111653145D01*
X71986908Y-111653145D02*
X71991266Y-111651477D01*
X71991266Y-111651477D02*
X71999728Y-111647906D01*
X71999728Y-111647906D02*
X72007497Y-111645270D01*
X72007497Y-111645270D02*
X72014602Y-111642634D01*
X72014602Y-111642634D02*
X72021073Y-111639062D01*
X72021073Y-111639062D02*
X72026939Y-111633621D01*
X72026939Y-111633621D02*
X72032229Y-111625375D01*
X72032229Y-111625375D02*
X72036974Y-111613390D01*
X72036974Y-111613390D02*
X72041202Y-111596731D01*
X72041202Y-111596731D02*
X72044943Y-111574463D01*
X72044943Y-111574463D02*
X72048227Y-111545652D01*
X72048227Y-111545652D02*
X72051083Y-111509363D01*
X72051083Y-111509363D02*
X72053540Y-111464661D01*
X72053540Y-111464661D02*
X72055629Y-111410611D01*
X72055629Y-111410611D02*
X72057378Y-111346279D01*
X72057378Y-111346279D02*
X72058817Y-111270730D01*
X72058817Y-111270730D02*
X72059976Y-111183030D01*
X72059976Y-111183030D02*
X72060883Y-111082243D01*
X72060883Y-111082243D02*
X72061569Y-110967434D01*
X72061569Y-110967434D02*
X72062063Y-110837670D01*
X72062063Y-110837670D02*
X72062395Y-110692015D01*
X72062395Y-110692015D02*
X72062593Y-110529535D01*
X72062593Y-110529535D02*
X72062687Y-110349295D01*
X72062687Y-110349295D02*
X72062708Y-110150360D01*
X72062708Y-110150360D02*
X72062685Y-109931796D01*
X72062685Y-109931796D02*
X72062646Y-109692668D01*
X72062646Y-109692668D02*
X72062622Y-109432040D01*
X72062622Y-109432040D02*
X72062622Y-109389889D01*
X72062622Y-109389889D02*
X72062636Y-109126992D01*
X72062636Y-109126992D02*
X72062661Y-108885732D01*
X72062661Y-108885732D02*
X72062671Y-108665165D01*
X72062671Y-108665165D02*
X72062642Y-108464352D01*
X72062642Y-108464352D02*
X72062548Y-108282349D01*
X72062548Y-108282349D02*
X72062362Y-108118216D01*
X72062362Y-108118216D02*
X72062059Y-107971011D01*
X72062059Y-107971011D02*
X72061614Y-107839792D01*
X72061614Y-107839792D02*
X72061034Y-107729867D01*
X72061034Y-107729867D02*
X71758197Y-107729867D01*
X71758197Y-107729867D02*
X71718407Y-107787711D01*
X71718407Y-107787711D02*
X71707236Y-107803479D01*
X71707236Y-107803479D02*
X71697166Y-107817441D01*
X71697166Y-107817441D02*
X71688138Y-107830784D01*
X71688138Y-107830784D02*
X71680097Y-107844693D01*
X71680097Y-107844693D02*
X71672986Y-107860356D01*
X71672986Y-107860356D02*
X71666747Y-107878958D01*
X71666747Y-107878958D02*
X71661325Y-107901686D01*
X71661325Y-107901686D02*
X71656662Y-107929727D01*
X71656662Y-107929727D02*
X71652701Y-107964267D01*
X71652701Y-107964267D02*
X71649385Y-108006492D01*
X71649385Y-108006492D02*
X71646659Y-108057589D01*
X71646659Y-108057589D02*
X71644464Y-108118744D01*
X71644464Y-108118744D02*
X71642745Y-108191144D01*
X71642745Y-108191144D02*
X71641444Y-108275975D01*
X71641444Y-108275975D02*
X71640505Y-108374422D01*
X71640505Y-108374422D02*
X71639870Y-108487674D01*
X71639870Y-108487674D02*
X71639484Y-108616916D01*
X71639484Y-108616916D02*
X71639288Y-108763334D01*
X71639288Y-108763334D02*
X71639227Y-108928116D01*
X71639227Y-108928116D02*
X71639243Y-109112447D01*
X71639243Y-109112447D02*
X71639280Y-109317513D01*
X71639280Y-109317513D02*
X71639289Y-109440133D01*
X71639289Y-109440133D02*
X71639265Y-109657082D01*
X71639265Y-109657082D02*
X71639231Y-109852642D01*
X71639231Y-109852642D02*
X71639243Y-110027999D01*
X71639243Y-110027999D02*
X71639358Y-110184341D01*
X71639358Y-110184341D02*
X71639630Y-110322857D01*
X71639630Y-110322857D02*
X71640118Y-110444734D01*
X71640118Y-110444734D02*
X71640876Y-110551160D01*
X71640876Y-110551160D02*
X71641962Y-110643322D01*
X71641962Y-110643322D02*
X71643431Y-110722409D01*
X71643431Y-110722409D02*
X71645340Y-110789608D01*
X71645340Y-110789608D02*
X71647744Y-110846107D01*
X71647744Y-110846107D02*
X71650701Y-110893093D01*
X71650701Y-110893093D02*
X71654266Y-110931755D01*
X71654266Y-110931755D02*
X71658495Y-110963280D01*
X71658495Y-110963280D02*
X71663446Y-110988855D01*
X71663446Y-110988855D02*
X71669173Y-111009670D01*
X71669173Y-111009670D02*
X71675733Y-111026911D01*
X71675733Y-111026911D02*
X71683183Y-111041765D01*
X71683183Y-111041765D02*
X71691579Y-111055422D01*
X71691579Y-111055422D02*
X71700976Y-111069069D01*
X71700976Y-111069069D02*
X71711432Y-111083893D01*
X71711432Y-111083893D02*
X71717523Y-111092783D01*
X71717523Y-111092783D02*
X71756296Y-111150400D01*
X71756296Y-111150400D02*
X71224732Y-111150400D01*
X71224732Y-111150400D02*
X71101483Y-111150365D01*
X71101483Y-111150365D02*
X70998987Y-111150215D01*
X70998987Y-111150215D02*
X70915420Y-111149878D01*
X70915420Y-111149878D02*
X70848956Y-111149286D01*
X70848956Y-111149286D02*
X70797771Y-111148367D01*
X70797771Y-111148367D02*
X70760041Y-111147051D01*
X70760041Y-111147051D02*
X70733940Y-111145269D01*
X70733940Y-111145269D02*
X70717644Y-111142951D01*
X70717644Y-111142951D02*
X70709328Y-111140026D01*
X70709328Y-111140026D02*
X70707168Y-111136424D01*
X70707168Y-111136424D02*
X70709339Y-111132075D01*
X70709339Y-111132075D02*
X70710535Y-111130645D01*
X70710535Y-111130645D02*
X70735685Y-111093573D01*
X70735685Y-111093573D02*
X70761583Y-111040772D01*
X70761583Y-111040772D02*
X70785192Y-110978770D01*
X70785192Y-110978770D02*
X70793461Y-110952357D01*
X70793461Y-110952357D02*
X70798078Y-110934416D01*
X70798078Y-110934416D02*
X70801979Y-110913355D01*
X70801979Y-110913355D02*
X70805248Y-110887089D01*
X70805248Y-110887089D02*
X70807966Y-110853532D01*
X70807966Y-110853532D02*
X70810215Y-110810599D01*
X70810215Y-110810599D02*
X70812077Y-110756204D01*
X70812077Y-110756204D02*
X70813636Y-110688262D01*
X70813636Y-110688262D02*
X70814972Y-110604688D01*
X70814972Y-110604688D02*
X70816169Y-110503395D01*
X70816169Y-110503395D02*
X70817308Y-110382300D01*
X70817308Y-110382300D02*
X70817685Y-110337600D01*
X70817685Y-110337600D02*
X70818702Y-110212449D01*
X70818702Y-110212449D02*
X70819460Y-110108082D01*
X70819460Y-110108082D02*
X70819903Y-110022707D01*
X70819903Y-110022707D02*
X70819970Y-109954533D01*
X70819970Y-109954533D02*
X70819605Y-109901765D01*
X70819605Y-109901765D02*
X70818748Y-109862614D01*
X70818748Y-109862614D02*
X70817341Y-109835285D01*
X70817341Y-109835285D02*
X70815325Y-109817986D01*
X70815325Y-109817986D02*
X70812643Y-109808926D01*
X70812643Y-109808926D02*
X70809236Y-109806312D01*
X70809236Y-109806312D02*
X70805044Y-109808351D01*
X70805044Y-109808351D02*
X70800571Y-109812667D01*
X70800571Y-109812667D02*
X70790216Y-109825602D01*
X70790216Y-109825602D02*
X70768158Y-109854676D01*
X70768158Y-109854676D02*
X70735957Y-109897759D01*
X70735957Y-109897759D02*
X70695174Y-109952718D01*
X70695174Y-109952718D02*
X70647370Y-110017423D01*
X70647370Y-110017423D02*
X70594105Y-110089742D01*
X70594105Y-110089742D02*
X70536940Y-110167544D01*
X70536940Y-110167544D02*
X70477437Y-110248698D01*
X70477437Y-110248698D02*
X70417155Y-110331072D01*
X70417155Y-110331072D02*
X70357655Y-110412536D01*
X70357655Y-110412536D02*
X70300498Y-110490957D01*
X70300498Y-110490957D02*
X70247245Y-110564204D01*
X70247245Y-110564204D02*
X70199457Y-110630147D01*
X70199457Y-110630147D02*
X70158693Y-110686654D01*
X70158693Y-110686654D02*
X70126516Y-110731593D01*
X70126516Y-110731593D02*
X70104485Y-110762834D01*
X70104485Y-110762834D02*
X70099917Y-110769466D01*
X70099917Y-110769466D02*
X70076996Y-110806369D01*
X70076996Y-110806369D02*
X70050188Y-110854359D01*
X70050188Y-110854359D02*
X70024789Y-110903897D01*
X70024789Y-110903897D02*
X70021568Y-110910577D01*
X70021568Y-110910577D02*
X69999890Y-110958772D01*
X69999890Y-110958772D02*
X69987304Y-110996334D01*
X69987304Y-110996334D02*
X69981574Y-111032160D01*
X69981574Y-111032160D02*
X69980456Y-111074200D01*
X69980456Y-111074200D02*
X69981090Y-111150400D01*
X69981090Y-111150400D02*
X68826651Y-111150400D01*
X68826651Y-111150400D02*
X68917815Y-111056669D01*
X68917815Y-111056669D02*
X68964612Y-111006775D01*
X68964612Y-111006775D02*
X69014899Y-110950295D01*
X69014899Y-110950295D02*
X69060944Y-110896026D01*
X69060944Y-110896026D02*
X69081369Y-110870673D01*
X69081369Y-110870673D02*
X69111807Y-110831128D01*
X69111807Y-110831128D02*
X69151862Y-110777916D01*
X69151862Y-110777916D02*
X69200361Y-110712667D01*
X69200361Y-110712667D02*
X69256135Y-110637011D01*
X69256135Y-110637011D02*
X69318011Y-110552577D01*
X69318011Y-110552577D02*
X69384819Y-110460994D01*
X69384819Y-110460994D02*
X69455387Y-110363892D01*
X69455387Y-110363892D02*
X69528545Y-110262901D01*
X69528545Y-110262901D02*
X69603121Y-110159650D01*
X69603121Y-110159650D02*
X69677944Y-110055768D01*
X69677944Y-110055768D02*
X69751843Y-109952885D01*
X69751843Y-109952885D02*
X69823646Y-109852631D01*
X69823646Y-109852631D02*
X69892184Y-109756636D01*
X69892184Y-109756636D02*
X69956284Y-109666527D01*
X69956284Y-109666527D02*
X70014775Y-109583936D01*
X70014775Y-109583936D02*
X70066486Y-109510492D01*
X70066486Y-109510492D02*
X70110247Y-109447824D01*
X70110247Y-109447824D02*
X70144885Y-109397561D01*
X70144885Y-109397561D02*
X70169230Y-109361334D01*
X70169230Y-109361334D02*
X70182111Y-109340771D01*
X70182111Y-109340771D02*
X70183869Y-109336668D01*
X70183869Y-109336668D02*
X70175910Y-109325342D01*
X70175910Y-109325342D02*
X70155115Y-109298162D01*
X70155115Y-109298162D02*
X70122847Y-109256829D01*
X70122847Y-109256829D02*
X70080470Y-109203044D01*
X70080470Y-109203044D02*
X70029347Y-109138506D01*
X70029347Y-109138506D02*
X69970841Y-109064918D01*
X69970841Y-109064918D02*
X69906314Y-108983978D01*
X69906314Y-108983978D02*
X69837131Y-108897388D01*
X69837131Y-108897388D02*
X69764653Y-108806848D01*
X69764653Y-108806848D02*
X69690246Y-108714060D01*
X69690246Y-108714060D02*
X69630517Y-108639702D01*
X69630517Y-108639702D02*
X68619511Y-108639702D01*
X68619511Y-108639702D02*
X68613602Y-108652659D01*
X68613602Y-108652659D02*
X68599272Y-108674908D01*
X68599272Y-108674908D02*
X68598225Y-108676391D01*
X68598225Y-108676391D02*
X68579438Y-108706544D01*
X68579438Y-108706544D02*
X68559791Y-108743375D01*
X68559791Y-108743375D02*
X68555892Y-108751511D01*
X68555892Y-108751511D02*
X68552356Y-108759940D01*
X68552356Y-108759940D02*
X68549230Y-108770059D01*
X68549230Y-108770059D02*
X68546486Y-108783260D01*
X68546486Y-108783260D02*
X68544092Y-108800938D01*
X68544092Y-108800938D02*
X68542019Y-108824484D01*
X68542019Y-108824484D02*
X68540235Y-108855293D01*
X68540235Y-108855293D02*
X68538712Y-108894757D01*
X68538712Y-108894757D02*
X68537419Y-108944269D01*
X68537419Y-108944269D02*
X68536326Y-109005223D01*
X68536326Y-109005223D02*
X68535403Y-109079011D01*
X68535403Y-109079011D02*
X68534619Y-109167028D01*
X68534619Y-109167028D02*
X68533945Y-109270665D01*
X68533945Y-109270665D02*
X68533350Y-109391316D01*
X68533350Y-109391316D02*
X68532805Y-109530374D01*
X68532805Y-109530374D02*
X68532279Y-109689232D01*
X68532279Y-109689232D02*
X68531745Y-109868089D01*
X68531745Y-109868089D02*
X68531206Y-110053207D01*
X68531206Y-110053207D02*
X68530772Y-110217145D01*
X68530772Y-110217145D02*
X68530509Y-110361303D01*
X68530509Y-110361303D02*
X68530484Y-110487079D01*
X68530484Y-110487079D02*
X68530765Y-110595871D01*
X68530765Y-110595871D02*
X68531419Y-110689077D01*
X68531419Y-110689077D02*
X68532514Y-110768097D01*
X68532514Y-110768097D02*
X68534118Y-110834328D01*
X68534118Y-110834328D02*
X68536297Y-110889170D01*
X68536297Y-110889170D02*
X68539119Y-110934021D01*
X68539119Y-110934021D02*
X68542651Y-110970278D01*
X68542651Y-110970278D02*
X68546961Y-110999341D01*
X68546961Y-110999341D02*
X68552117Y-111022609D01*
X68552117Y-111022609D02*
X68558185Y-111041479D01*
X68558185Y-111041479D02*
X68565233Y-111057351D01*
X68565233Y-111057351D02*
X68573329Y-111071622D01*
X68573329Y-111071622D02*
X68582540Y-111085691D01*
X68582540Y-111085691D02*
X68591040Y-111098158D01*
X68591040Y-111098158D02*
X68608176Y-111124452D01*
X68608176Y-111124452D02*
X68618322Y-111142037D01*
X68618322Y-111142037D02*
X68619511Y-111145257D01*
X68619511Y-111145257D02*
X68608604Y-111146334D01*
X68608604Y-111146334D02*
X68577411Y-111147335D01*
X68577411Y-111147335D02*
X68528223Y-111148235D01*
X68528223Y-111148235D02*
X68463333Y-111149010D01*
X68463333Y-111149010D02*
X68385030Y-111149637D01*
X68385030Y-111149637D02*
X68295607Y-111150091D01*
X68295607Y-111150091D02*
X68197356Y-111150349D01*
X68197356Y-111150349D02*
X68128445Y-111150400D01*
X68128445Y-111150400D02*
X68023452Y-111150180D01*
X68023452Y-111150180D02*
X67926610Y-111149548D01*
X67926610Y-111149548D02*
X67840107Y-111148549D01*
X67840107Y-111148549D02*
X67766132Y-111147227D01*
X67766132Y-111147227D02*
X67706874Y-111145626D01*
X67706874Y-111145626D02*
X67664520Y-111143791D01*
X67664520Y-111143791D02*
X67641260Y-111141765D01*
X67641260Y-111141765D02*
X67637378Y-111140493D01*
X67637378Y-111140493D02*
X67645076Y-111125591D01*
X67645076Y-111125591D02*
X67653074Y-111117560D01*
X67653074Y-111117560D02*
X67666246Y-111100434D01*
X67666246Y-111100434D02*
X67683485Y-111070183D01*
X67683485Y-111070183D02*
X67695407Y-111045622D01*
X67695407Y-111045622D02*
X67722045Y-110986711D01*
X67722045Y-110986711D02*
X67725120Y-109809845D01*
X67725120Y-109809845D02*
X67728195Y-108632978D01*
X67728195Y-108632978D02*
X68173853Y-108632978D01*
X68173853Y-108632978D02*
X68271670Y-108633142D01*
X68271670Y-108633142D02*
X68362064Y-108633611D01*
X68362064Y-108633611D02*
X68442630Y-108634347D01*
X68442630Y-108634347D02*
X68510962Y-108635316D01*
X68510962Y-108635316D02*
X68564656Y-108636480D01*
X68564656Y-108636480D02*
X68601305Y-108637803D01*
X68601305Y-108637803D02*
X68618504Y-108639249D01*
X68618504Y-108639249D02*
X68619511Y-108639702D01*
X68619511Y-108639702D02*
X69630517Y-108639702D01*
X69630517Y-108639702D02*
X69615270Y-108620722D01*
X69615270Y-108620722D02*
X69541090Y-108528537D01*
X69541090Y-108528537D02*
X69469069Y-108439204D01*
X69469069Y-108439204D02*
X69400569Y-108354424D01*
X69400569Y-108354424D02*
X69336955Y-108275898D01*
X69336955Y-108275898D02*
X69279588Y-108205326D01*
X69279588Y-108205326D02*
X69229833Y-108144409D01*
X69229833Y-108144409D02*
X69189052Y-108094847D01*
X69189052Y-108094847D02*
X69171888Y-108074178D01*
X69171888Y-108074178D02*
X69085596Y-107973516D01*
X69085596Y-107973516D02*
X69008997Y-107890259D01*
X69008997Y-107890259D02*
X68940183Y-107822438D01*
X68940183Y-107822438D02*
X68877248Y-107768089D01*
X68877248Y-107768089D02*
X68867867Y-107760722D01*
X68867867Y-107760722D02*
X68828356Y-107730117D01*
X68828356Y-107730117D02*
X69960116Y-107729867D01*
X69960116Y-107729867D02*
X69954827Y-107777844D01*
X69954827Y-107777844D02*
X69958130Y-107835188D01*
X69958130Y-107835188D02*
X69979661Y-107903463D01*
X69979661Y-107903463D02*
X70019635Y-107983212D01*
X70019635Y-107983212D02*
X70064943Y-108055495D01*
X70064943Y-108055495D02*
X70081161Y-108078140D01*
X70081161Y-108078140D02*
X70109214Y-108115696D01*
X70109214Y-108115696D02*
X70147430Y-108166021D01*
X70147430Y-108166021D02*
X70194137Y-108226973D01*
X70194137Y-108226973D02*
X70247661Y-108296411D01*
X70247661Y-108296411D02*
X70306331Y-108372194D01*
X70306331Y-108372194D02*
X70368475Y-108452180D01*
X70368475Y-108452180D02*
X70432421Y-108534228D01*
X70432421Y-108534228D02*
X70496495Y-108616196D01*
X70496495Y-108616196D02*
X70559027Y-108695943D01*
X70559027Y-108695943D02*
X70618343Y-108771327D01*
X70618343Y-108771327D02*
X70672771Y-108840207D01*
X70672771Y-108840207D02*
X70720639Y-108900442D01*
X70720639Y-108900442D02*
X70760275Y-108949889D01*
X70760275Y-108949889D02*
X70790006Y-108986408D01*
X70790006Y-108986408D02*
X70808161Y-109007858D01*
X70808161Y-109007858D02*
X70811220Y-109011156D01*
X70811220Y-109011156D02*
X70814079Y-109003149D01*
X70814079Y-109003149D02*
X70816293Y-108972855D01*
X70816293Y-108972855D02*
X70817857Y-108920556D01*
X70817857Y-108920556D02*
X70818767Y-108846531D01*
X70818767Y-108846531D02*
X70819020Y-108751063D01*
X70819020Y-108751063D02*
X70818613Y-108634434D01*
X70818613Y-108634434D02*
X70817704Y-108514445D01*
X70817704Y-108514445D02*
X70816382Y-108382333D01*
X70816382Y-108382333D02*
X70814857Y-108270594D01*
X70814857Y-108270594D02*
X70812881Y-108177025D01*
X70812881Y-108177025D02*
X70810206Y-108099419D01*
X70810206Y-108099419D02*
X70806582Y-108035574D01*
X70806582Y-108035574D02*
X70801761Y-107983283D01*
X70801761Y-107983283D02*
X70795494Y-107940344D01*
X70795494Y-107940344D02*
X70787532Y-107904551D01*
X70787532Y-107904551D02*
X70777627Y-107873700D01*
X70777627Y-107873700D02*
X70765531Y-107845586D01*
X70765531Y-107845586D02*
X70750993Y-107818005D01*
X70750993Y-107818005D02*
X70736311Y-107792966D01*
X70736311Y-107792966D02*
X70698314Y-107729867D01*
X70698314Y-107729867D02*
X71758197Y-107729867D01*
X71758197Y-107729867D02*
X72061034Y-107729867D01*
X72061034Y-107729867D02*
X72061001Y-107723617D01*
X72061001Y-107723617D02*
X72060195Y-107621544D01*
X72060195Y-107621544D02*
X72059170Y-107532633D01*
X72059170Y-107532633D02*
X72057900Y-107455941D01*
X72057900Y-107455941D02*
X72056360Y-107390527D01*
X72056360Y-107390527D02*
X72054524Y-107335449D01*
X72054524Y-107335449D02*
X72052367Y-107289765D01*
X72052367Y-107289765D02*
X72049863Y-107252534D01*
X72049863Y-107252534D02*
X72046987Y-107222813D01*
X72046987Y-107222813D02*
X72043713Y-107199662D01*
X72043713Y-107199662D02*
X72040015Y-107182139D01*
X72040015Y-107182139D02*
X72035869Y-107169301D01*
X72035869Y-107169301D02*
X72031247Y-107160208D01*
X72031247Y-107160208D02*
X72026126Y-107153918D01*
X72026126Y-107153918D02*
X72020478Y-107149488D01*
X72020478Y-107149488D02*
X72014279Y-107145978D01*
X72014279Y-107145978D02*
X72007504Y-107142445D01*
X72007504Y-107142445D02*
X72001508Y-107138876D01*
X72001508Y-107138876D02*
X71996275Y-107136300D01*
X71996275Y-107136300D02*
X71988099Y-107133972D01*
X71988099Y-107133972D02*
X71975886Y-107131878D01*
X71975886Y-107131878D02*
X71958541Y-107130007D01*
X71958541Y-107130007D02*
X71934969Y-107128347D01*
X71934969Y-107128347D02*
X71904077Y-107126884D01*
X71904077Y-107126884D02*
X71864768Y-107125608D01*
X71864768Y-107125608D02*
X71815950Y-107124504D01*
X71815950Y-107124504D02*
X71756527Y-107123561D01*
X71756527Y-107123561D02*
X71685404Y-107122767D01*
X71685404Y-107122767D02*
X71601488Y-107122109D01*
X71601488Y-107122109D02*
X71503683Y-107121575D01*
X71503683Y-107121575D02*
X71390894Y-107121153D01*
X71390894Y-107121153D02*
X71262029Y-107120829D01*
X71262029Y-107120829D02*
X71115991Y-107120592D01*
X71115991Y-107120592D02*
X70951686Y-107120430D01*
X70951686Y-107120430D02*
X70768020Y-107120330D01*
X70768020Y-107120330D02*
X70563897Y-107120280D01*
X70563897Y-107120280D02*
X70352753Y-107120267D01*
X70352753Y-107120267D02*
X68732400Y-107120267D01*
X68732400Y-107120267D02*
X68732400Y-107217054D01*
X68732400Y-107217054D02*
X68732400Y-107217054D01*
G36*
X72062059Y-107971011D02*
G01*
X72062362Y-108118216D01*
X72062548Y-108282349D01*
X72062642Y-108464352D01*
X72062671Y-108665165D01*
X72062661Y-108885732D01*
X72062636Y-109126992D01*
X72062622Y-109389889D01*
X72062622Y-109432040D01*
X72062646Y-109692668D01*
X72062685Y-109931796D01*
X72062708Y-110150360D01*
X72062687Y-110349295D01*
X72062593Y-110529535D01*
X72062395Y-110692015D01*
X72062063Y-110837670D01*
X72061569Y-110967434D01*
X72060883Y-111082243D01*
X72059976Y-111183030D01*
X72058817Y-111270730D01*
X72057378Y-111346279D01*
X72055629Y-111410611D01*
X72053540Y-111464661D01*
X72051083Y-111509363D01*
X72048227Y-111545652D01*
X72044943Y-111574463D01*
X72041202Y-111596731D01*
X72036974Y-111613390D01*
X72032229Y-111625375D01*
X72026939Y-111633621D01*
X72021073Y-111639062D01*
X72014602Y-111642634D01*
X72007497Y-111645270D01*
X71999728Y-111647906D01*
X71991266Y-111651477D01*
X71986908Y-111653145D01*
X71978395Y-111655111D01*
X71965694Y-111656911D01*
X71947885Y-111658555D01*
X71924049Y-111660047D01*
X71893266Y-111661397D01*
X71854617Y-111662611D01*
X71807182Y-111663697D01*
X71750043Y-111664661D01*
X71682279Y-111665511D01*
X71602971Y-111666253D01*
X71511199Y-111666897D01*
X71406044Y-111667447D01*
X71286587Y-111667913D01*
X71151908Y-111668300D01*
X71001088Y-111668616D01*
X70833206Y-111668869D01*
X70647345Y-111669066D01*
X70442583Y-111669213D01*
X70218002Y-111669318D01*
X69972682Y-111669389D01*
X69705704Y-111669432D01*
X69667321Y-111669437D01*
X69401922Y-111669480D01*
X69158050Y-111669525D01*
X68934783Y-111669548D01*
X68731196Y-111669524D01*
X68546367Y-111669430D01*
X68379373Y-111669243D01*
X68229290Y-111668939D01*
X68095196Y-111668494D01*
X67976166Y-111667885D01*
X67871279Y-111667089D01*
X67779610Y-111666080D01*
X67700237Y-111664837D01*
X67632237Y-111663335D01*
X67574686Y-111661551D01*
X67526662Y-111659461D01*
X67487240Y-111657042D01*
X67455499Y-111654270D01*
X67430514Y-111651121D01*
X67411364Y-111647572D01*
X67397123Y-111643598D01*
X67386871Y-111639178D01*
X67379682Y-111634286D01*
X67374635Y-111628900D01*
X67370805Y-111622996D01*
X67367271Y-111616549D01*
X67363108Y-111609537D01*
X67362025Y-111607687D01*
X67359813Y-111602180D01*
X67357786Y-111593868D01*
X67355938Y-111581809D01*
X67354261Y-111565063D01*
X67352745Y-111542687D01*
X67351383Y-111513740D01*
X67350167Y-111477280D01*
X67349089Y-111432367D01*
X67348140Y-111378057D01*
X67347312Y-111313410D01*
X67346597Y-111237484D01*
X67345987Y-111149338D01*
X67345942Y-111140493D01*
X67637378Y-111140493D01*
X67641260Y-111141765D01*
X67664520Y-111143791D01*
X67706874Y-111145626D01*
X67766132Y-111147227D01*
X67840107Y-111148549D01*
X67926610Y-111149548D01*
X68023452Y-111150180D01*
X68128445Y-111150400D01*
X68826651Y-111150400D01*
X69981090Y-111150400D01*
X69980456Y-111074200D01*
X69981574Y-111032160D01*
X69987304Y-110996334D01*
X69999890Y-110958772D01*
X70021568Y-110910577D01*
X70024789Y-110903897D01*
X70050188Y-110854359D01*
X70076996Y-110806369D01*
X70099917Y-110769466D01*
X70104485Y-110762834D01*
X70126516Y-110731593D01*
X70158693Y-110686654D01*
X70199457Y-110630147D01*
X70247245Y-110564204D01*
X70300498Y-110490957D01*
X70357655Y-110412536D01*
X70417155Y-110331072D01*
X70477437Y-110248698D01*
X70536940Y-110167544D01*
X70594105Y-110089742D01*
X70647370Y-110017423D01*
X70695174Y-109952718D01*
X70735957Y-109897759D01*
X70768158Y-109854676D01*
X70790216Y-109825602D01*
X70800571Y-109812667D01*
X70805044Y-109808351D01*
X70809236Y-109806312D01*
X70812643Y-109808926D01*
X70815325Y-109817986D01*
X70817341Y-109835285D01*
X70818748Y-109862614D01*
X70819605Y-109901765D01*
X70819970Y-109954533D01*
X70819903Y-110022707D01*
X70819460Y-110108082D01*
X70818702Y-110212449D01*
X70817685Y-110337600D01*
X70817308Y-110382300D01*
X70816169Y-110503395D01*
X70814972Y-110604688D01*
X70813636Y-110688262D01*
X70812077Y-110756204D01*
X70810215Y-110810599D01*
X70807966Y-110853532D01*
X70805248Y-110887089D01*
X70801979Y-110913355D01*
X70798078Y-110934416D01*
X70793461Y-110952357D01*
X70785192Y-110978770D01*
X70761583Y-111040772D01*
X70735685Y-111093573D01*
X70710535Y-111130645D01*
X70709339Y-111132075D01*
X70707168Y-111136424D01*
X70709328Y-111140026D01*
X70717644Y-111142951D01*
X70733940Y-111145269D01*
X70760041Y-111147051D01*
X70797771Y-111148367D01*
X70848956Y-111149286D01*
X70915420Y-111149878D01*
X70998987Y-111150215D01*
X71101483Y-111150365D01*
X71224732Y-111150400D01*
X71756296Y-111150400D01*
X71717523Y-111092783D01*
X71711432Y-111083893D01*
X71700976Y-111069069D01*
X71691579Y-111055422D01*
X71683183Y-111041765D01*
X71675733Y-111026911D01*
X71669173Y-111009670D01*
X71663446Y-110988855D01*
X71658495Y-110963280D01*
X71654266Y-110931755D01*
X71650701Y-110893093D01*
X71647744Y-110846107D01*
X71645340Y-110789608D01*
X71643431Y-110722409D01*
X71641962Y-110643322D01*
X71640876Y-110551160D01*
X71640118Y-110444734D01*
X71639630Y-110322857D01*
X71639358Y-110184341D01*
X71639243Y-110027999D01*
X71639231Y-109852642D01*
X71639265Y-109657082D01*
X71639289Y-109440133D01*
X71639280Y-109317513D01*
X71639243Y-109112447D01*
X71639227Y-108928116D01*
X71639288Y-108763334D01*
X71639484Y-108616916D01*
X71639870Y-108487674D01*
X71640505Y-108374422D01*
X71641444Y-108275975D01*
X71642745Y-108191144D01*
X71644464Y-108118744D01*
X71646659Y-108057589D01*
X71649385Y-108006492D01*
X71652701Y-107964267D01*
X71656662Y-107929727D01*
X71661325Y-107901686D01*
X71666747Y-107878958D01*
X71672986Y-107860356D01*
X71680097Y-107844693D01*
X71688138Y-107830784D01*
X71697166Y-107817441D01*
X71707236Y-107803479D01*
X71718407Y-107787711D01*
X71758197Y-107729867D01*
X70698314Y-107729867D01*
X70736311Y-107792966D01*
X70750993Y-107818005D01*
X70765531Y-107845586D01*
X70777627Y-107873700D01*
X70787532Y-107904551D01*
X70795494Y-107940344D01*
X70801761Y-107983283D01*
X70806582Y-108035574D01*
X70810206Y-108099419D01*
X70812881Y-108177025D01*
X70814857Y-108270594D01*
X70816382Y-108382333D01*
X70817704Y-108514445D01*
X70818613Y-108634434D01*
X70819020Y-108751063D01*
X70818767Y-108846531D01*
X70817857Y-108920556D01*
X70816293Y-108972855D01*
X70814079Y-109003149D01*
X70811220Y-109011156D01*
X70808161Y-109007858D01*
X70790006Y-108986408D01*
X70760275Y-108949889D01*
X70720639Y-108900442D01*
X70672771Y-108840207D01*
X70618343Y-108771327D01*
X70559027Y-108695943D01*
X70496495Y-108616196D01*
X70432421Y-108534228D01*
X70368475Y-108452180D01*
X70306331Y-108372194D01*
X70247661Y-108296411D01*
X70194137Y-108226973D01*
X70147430Y-108166021D01*
X70109214Y-108115696D01*
X70081161Y-108078140D01*
X70064943Y-108055495D01*
X70019635Y-107983212D01*
X69979661Y-107903463D01*
X69958130Y-107835188D01*
X69954827Y-107777844D01*
X69960116Y-107729867D01*
X68828356Y-107730117D01*
X68867867Y-107760722D01*
X68877248Y-107768089D01*
X68940183Y-107822438D01*
X69008997Y-107890259D01*
X69085596Y-107973516D01*
X69171888Y-108074178D01*
X69189052Y-108094847D01*
X69229833Y-108144409D01*
X69279588Y-108205326D01*
X69336955Y-108275898D01*
X69400569Y-108354424D01*
X69469069Y-108439204D01*
X69541090Y-108528537D01*
X69615270Y-108620722D01*
X69630517Y-108639702D01*
X69690246Y-108714060D01*
X69764653Y-108806848D01*
X69837131Y-108897388D01*
X69906314Y-108983978D01*
X69970841Y-109064918D01*
X70029347Y-109138506D01*
X70080470Y-109203044D01*
X70122847Y-109256829D01*
X70155115Y-109298162D01*
X70175910Y-109325342D01*
X70183869Y-109336668D01*
X70182111Y-109340771D01*
X70169230Y-109361334D01*
X70144885Y-109397561D01*
X70110247Y-109447824D01*
X70066486Y-109510492D01*
X70014775Y-109583936D01*
X69956284Y-109666527D01*
X69892184Y-109756636D01*
X69823646Y-109852631D01*
X69751843Y-109952885D01*
X69677944Y-110055768D01*
X69603121Y-110159650D01*
X69528545Y-110262901D01*
X69455387Y-110363892D01*
X69384819Y-110460994D01*
X69318011Y-110552577D01*
X69256135Y-110637011D01*
X69200361Y-110712667D01*
X69151862Y-110777916D01*
X69111807Y-110831128D01*
X69081369Y-110870673D01*
X69060944Y-110896026D01*
X69014899Y-110950295D01*
X68964612Y-111006775D01*
X68917815Y-111056669D01*
X68826651Y-111150400D01*
X68128445Y-111150400D01*
X68197356Y-111150349D01*
X68295607Y-111150091D01*
X68385030Y-111149637D01*
X68463333Y-111149010D01*
X68528223Y-111148235D01*
X68577411Y-111147335D01*
X68608604Y-111146334D01*
X68619511Y-111145257D01*
X68618322Y-111142037D01*
X68608176Y-111124452D01*
X68591040Y-111098158D01*
X68582540Y-111085691D01*
X68573329Y-111071622D01*
X68565233Y-111057351D01*
X68558185Y-111041479D01*
X68552117Y-111022609D01*
X68546961Y-110999341D01*
X68542651Y-110970278D01*
X68539119Y-110934021D01*
X68536297Y-110889170D01*
X68534118Y-110834328D01*
X68532514Y-110768097D01*
X68531419Y-110689077D01*
X68530765Y-110595871D01*
X68530484Y-110487079D01*
X68530509Y-110361303D01*
X68530772Y-110217145D01*
X68531206Y-110053207D01*
X68531745Y-109868089D01*
X68532279Y-109689232D01*
X68532805Y-109530374D01*
X68533350Y-109391316D01*
X68533945Y-109270665D01*
X68534619Y-109167028D01*
X68535403Y-109079011D01*
X68536326Y-109005223D01*
X68537419Y-108944269D01*
X68538712Y-108894757D01*
X68540235Y-108855293D01*
X68542019Y-108824484D01*
X68544092Y-108800938D01*
X68546486Y-108783260D01*
X68549230Y-108770059D01*
X68552356Y-108759940D01*
X68555892Y-108751511D01*
X68559791Y-108743375D01*
X68579438Y-108706544D01*
X68598225Y-108676391D01*
X68599272Y-108674908D01*
X68613602Y-108652659D01*
X68619511Y-108639702D01*
X68618504Y-108639249D01*
X68601305Y-108637803D01*
X68564656Y-108636480D01*
X68510962Y-108635316D01*
X68442630Y-108634347D01*
X68362064Y-108633611D01*
X68271670Y-108633142D01*
X68173853Y-108632978D01*
X67728195Y-108632978D01*
X67725120Y-109809845D01*
X67722045Y-110986711D01*
X67695407Y-111045622D01*
X67683485Y-111070183D01*
X67666246Y-111100434D01*
X67653074Y-111117560D01*
X67645076Y-111125591D01*
X67637378Y-111140493D01*
X67345942Y-111140493D01*
X67345474Y-111048029D01*
X67345050Y-110932617D01*
X67344706Y-110802160D01*
X67344434Y-110655716D01*
X67344227Y-110492344D01*
X67344076Y-110311101D01*
X67343972Y-110111048D01*
X67343908Y-109891241D01*
X67343876Y-109650739D01*
X67343867Y-109388602D01*
X67343867Y-107197031D01*
X67382249Y-107158649D01*
X67409355Y-107134911D01*
X67436253Y-107123111D01*
X67472560Y-107120267D01*
X67524489Y-107120267D01*
X67524489Y-107208206D01*
X67526427Y-107258102D01*
X67545199Y-107368523D01*
X67582217Y-107469987D01*
X67635369Y-107561152D01*
X67702546Y-107640673D01*
X67781638Y-107707205D01*
X67870534Y-107759406D01*
X67967125Y-107795930D01*
X68069300Y-107815434D01*
X68174950Y-107816573D01*
X68281964Y-107798005D01*
X68388232Y-107758384D01*
X68485219Y-107700516D01*
X68570293Y-107625684D01*
X68639015Y-107537615D01*
X68689918Y-107438616D01*
X68721535Y-107330993D01*
X68732400Y-107217054D01*
X68732400Y-107120267D01*
X70352753Y-107120267D01*
X70563897Y-107120280D01*
X70768020Y-107120330D01*
X70951686Y-107120430D01*
X71115991Y-107120592D01*
X71262029Y-107120829D01*
X71390894Y-107121153D01*
X71503683Y-107121575D01*
X71601488Y-107122109D01*
X71685404Y-107122767D01*
X71756527Y-107123561D01*
X71815950Y-107124504D01*
X71864768Y-107125608D01*
X71904077Y-107126884D01*
X71934969Y-107128347D01*
X71958541Y-107130007D01*
X71975886Y-107131878D01*
X71988099Y-107133972D01*
X71996275Y-107136300D01*
X72001508Y-107138876D01*
X72007504Y-107142445D01*
X72014279Y-107145978D01*
X72020478Y-107149488D01*
X72026126Y-107153918D01*
X72031247Y-107160208D01*
X72035869Y-107169301D01*
X72040015Y-107182139D01*
X72043713Y-107199662D01*
X72046987Y-107222813D01*
X72049863Y-107252534D01*
X72052367Y-107289765D01*
X72054524Y-107335449D01*
X72056360Y-107390527D01*
X72057900Y-107455941D01*
X72059170Y-107532633D01*
X72060195Y-107621544D01*
X72061001Y-107723617D01*
X72061034Y-107729867D01*
X72061614Y-107839792D01*
X72062059Y-107971011D01*
G37*
X72062059Y-107971011D02*
X72062362Y-108118216D01*
X72062548Y-108282349D01*
X72062642Y-108464352D01*
X72062671Y-108665165D01*
X72062661Y-108885732D01*
X72062636Y-109126992D01*
X72062622Y-109389889D01*
X72062622Y-109432040D01*
X72062646Y-109692668D01*
X72062685Y-109931796D01*
X72062708Y-110150360D01*
X72062687Y-110349295D01*
X72062593Y-110529535D01*
X72062395Y-110692015D01*
X72062063Y-110837670D01*
X72061569Y-110967434D01*
X72060883Y-111082243D01*
X72059976Y-111183030D01*
X72058817Y-111270730D01*
X72057378Y-111346279D01*
X72055629Y-111410611D01*
X72053540Y-111464661D01*
X72051083Y-111509363D01*
X72048227Y-111545652D01*
X72044943Y-111574463D01*
X72041202Y-111596731D01*
X72036974Y-111613390D01*
X72032229Y-111625375D01*
X72026939Y-111633621D01*
X72021073Y-111639062D01*
X72014602Y-111642634D01*
X72007497Y-111645270D01*
X71999728Y-111647906D01*
X71991266Y-111651477D01*
X71986908Y-111653145D01*
X71978395Y-111655111D01*
X71965694Y-111656911D01*
X71947885Y-111658555D01*
X71924049Y-111660047D01*
X71893266Y-111661397D01*
X71854617Y-111662611D01*
X71807182Y-111663697D01*
X71750043Y-111664661D01*
X71682279Y-111665511D01*
X71602971Y-111666253D01*
X71511199Y-111666897D01*
X71406044Y-111667447D01*
X71286587Y-111667913D01*
X71151908Y-111668300D01*
X71001088Y-111668616D01*
X70833206Y-111668869D01*
X70647345Y-111669066D01*
X70442583Y-111669213D01*
X70218002Y-111669318D01*
X69972682Y-111669389D01*
X69705704Y-111669432D01*
X69667321Y-111669437D01*
X69401922Y-111669480D01*
X69158050Y-111669525D01*
X68934783Y-111669548D01*
X68731196Y-111669524D01*
X68546367Y-111669430D01*
X68379373Y-111669243D01*
X68229290Y-111668939D01*
X68095196Y-111668494D01*
X67976166Y-111667885D01*
X67871279Y-111667089D01*
X67779610Y-111666080D01*
X67700237Y-111664837D01*
X67632237Y-111663335D01*
X67574686Y-111661551D01*
X67526662Y-111659461D01*
X67487240Y-111657042D01*
X67455499Y-111654270D01*
X67430514Y-111651121D01*
X67411364Y-111647572D01*
X67397123Y-111643598D01*
X67386871Y-111639178D01*
X67379682Y-111634286D01*
X67374635Y-111628900D01*
X67370805Y-111622996D01*
X67367271Y-111616549D01*
X67363108Y-111609537D01*
X67362025Y-111607687D01*
X67359813Y-111602180D01*
X67357786Y-111593868D01*
X67355938Y-111581809D01*
X67354261Y-111565063D01*
X67352745Y-111542687D01*
X67351383Y-111513740D01*
X67350167Y-111477280D01*
X67349089Y-111432367D01*
X67348140Y-111378057D01*
X67347312Y-111313410D01*
X67346597Y-111237484D01*
X67345987Y-111149338D01*
X67345942Y-111140493D01*
X67637378Y-111140493D01*
X67641260Y-111141765D01*
X67664520Y-111143791D01*
X67706874Y-111145626D01*
X67766132Y-111147227D01*
X67840107Y-111148549D01*
X67926610Y-111149548D01*
X68023452Y-111150180D01*
X68128445Y-111150400D01*
X68826651Y-111150400D01*
X69981090Y-111150400D01*
X69980456Y-111074200D01*
X69981574Y-111032160D01*
X69987304Y-110996334D01*
X69999890Y-110958772D01*
X70021568Y-110910577D01*
X70024789Y-110903897D01*
X70050188Y-110854359D01*
X70076996Y-110806369D01*
X70099917Y-110769466D01*
X70104485Y-110762834D01*
X70126516Y-110731593D01*
X70158693Y-110686654D01*
X70199457Y-110630147D01*
X70247245Y-110564204D01*
X70300498Y-110490957D01*
X70357655Y-110412536D01*
X70417155Y-110331072D01*
X70477437Y-110248698D01*
X70536940Y-110167544D01*
X70594105Y-110089742D01*
X70647370Y-110017423D01*
X70695174Y-109952718D01*
X70735957Y-109897759D01*
X70768158Y-109854676D01*
X70790216Y-109825602D01*
X70800571Y-109812667D01*
X70805044Y-109808351D01*
X70809236Y-109806312D01*
X70812643Y-109808926D01*
X70815325Y-109817986D01*
X70817341Y-109835285D01*
X70818748Y-109862614D01*
X70819605Y-109901765D01*
X70819970Y-109954533D01*
X70819903Y-110022707D01*
X70819460Y-110108082D01*
X70818702Y-110212449D01*
X70817685Y-110337600D01*
X70817308Y-110382300D01*
X70816169Y-110503395D01*
X70814972Y-110604688D01*
X70813636Y-110688262D01*
X70812077Y-110756204D01*
X70810215Y-110810599D01*
X70807966Y-110853532D01*
X70805248Y-110887089D01*
X70801979Y-110913355D01*
X70798078Y-110934416D01*
X70793461Y-110952357D01*
X70785192Y-110978770D01*
X70761583Y-111040772D01*
X70735685Y-111093573D01*
X70710535Y-111130645D01*
X70709339Y-111132075D01*
X70707168Y-111136424D01*
X70709328Y-111140026D01*
X70717644Y-111142951D01*
X70733940Y-111145269D01*
X70760041Y-111147051D01*
X70797771Y-111148367D01*
X70848956Y-111149286D01*
X70915420Y-111149878D01*
X70998987Y-111150215D01*
X71101483Y-111150365D01*
X71224732Y-111150400D01*
X71756296Y-111150400D01*
X71717523Y-111092783D01*
X71711432Y-111083893D01*
X71700976Y-111069069D01*
X71691579Y-111055422D01*
X71683183Y-111041765D01*
X71675733Y-111026911D01*
X71669173Y-111009670D01*
X71663446Y-110988855D01*
X71658495Y-110963280D01*
X71654266Y-110931755D01*
X71650701Y-110893093D01*
X71647744Y-110846107D01*
X71645340Y-110789608D01*
X71643431Y-110722409D01*
X71641962Y-110643322D01*
X71640876Y-110551160D01*
X71640118Y-110444734D01*
X71639630Y-110322857D01*
X71639358Y-110184341D01*
X71639243Y-110027999D01*
X71639231Y-109852642D01*
X71639265Y-109657082D01*
X71639289Y-109440133D01*
X71639280Y-109317513D01*
X71639243Y-109112447D01*
X71639227Y-108928116D01*
X71639288Y-108763334D01*
X71639484Y-108616916D01*
X71639870Y-108487674D01*
X71640505Y-108374422D01*
X71641444Y-108275975D01*
X71642745Y-108191144D01*
X71644464Y-108118744D01*
X71646659Y-108057589D01*
X71649385Y-108006492D01*
X71652701Y-107964267D01*
X71656662Y-107929727D01*
X71661325Y-107901686D01*
X71666747Y-107878958D01*
X71672986Y-107860356D01*
X71680097Y-107844693D01*
X71688138Y-107830784D01*
X71697166Y-107817441D01*
X71707236Y-107803479D01*
X71718407Y-107787711D01*
X71758197Y-107729867D01*
X70698314Y-107729867D01*
X70736311Y-107792966D01*
X70750993Y-107818005D01*
X70765531Y-107845586D01*
X70777627Y-107873700D01*
X70787532Y-107904551D01*
X70795494Y-107940344D01*
X70801761Y-107983283D01*
X70806582Y-108035574D01*
X70810206Y-108099419D01*
X70812881Y-108177025D01*
X70814857Y-108270594D01*
X70816382Y-108382333D01*
X70817704Y-108514445D01*
X70818613Y-108634434D01*
X70819020Y-108751063D01*
X70818767Y-108846531D01*
X70817857Y-108920556D01*
X70816293Y-108972855D01*
X70814079Y-109003149D01*
X70811220Y-109011156D01*
X70808161Y-109007858D01*
X70790006Y-108986408D01*
X70760275Y-108949889D01*
X70720639Y-108900442D01*
X70672771Y-108840207D01*
X70618343Y-108771327D01*
X70559027Y-108695943D01*
X70496495Y-108616196D01*
X70432421Y-108534228D01*
X70368475Y-108452180D01*
X70306331Y-108372194D01*
X70247661Y-108296411D01*
X70194137Y-108226973D01*
X70147430Y-108166021D01*
X70109214Y-108115696D01*
X70081161Y-108078140D01*
X70064943Y-108055495D01*
X70019635Y-107983212D01*
X69979661Y-107903463D01*
X69958130Y-107835188D01*
X69954827Y-107777844D01*
X69960116Y-107729867D01*
X68828356Y-107730117D01*
X68867867Y-107760722D01*
X68877248Y-107768089D01*
X68940183Y-107822438D01*
X69008997Y-107890259D01*
X69085596Y-107973516D01*
X69171888Y-108074178D01*
X69189052Y-108094847D01*
X69229833Y-108144409D01*
X69279588Y-108205326D01*
X69336955Y-108275898D01*
X69400569Y-108354424D01*
X69469069Y-108439204D01*
X69541090Y-108528537D01*
X69615270Y-108620722D01*
X69630517Y-108639702D01*
X69690246Y-108714060D01*
X69764653Y-108806848D01*
X69837131Y-108897388D01*
X69906314Y-108983978D01*
X69970841Y-109064918D01*
X70029347Y-109138506D01*
X70080470Y-109203044D01*
X70122847Y-109256829D01*
X70155115Y-109298162D01*
X70175910Y-109325342D01*
X70183869Y-109336668D01*
X70182111Y-109340771D01*
X70169230Y-109361334D01*
X70144885Y-109397561D01*
X70110247Y-109447824D01*
X70066486Y-109510492D01*
X70014775Y-109583936D01*
X69956284Y-109666527D01*
X69892184Y-109756636D01*
X69823646Y-109852631D01*
X69751843Y-109952885D01*
X69677944Y-110055768D01*
X69603121Y-110159650D01*
X69528545Y-110262901D01*
X69455387Y-110363892D01*
X69384819Y-110460994D01*
X69318011Y-110552577D01*
X69256135Y-110637011D01*
X69200361Y-110712667D01*
X69151862Y-110777916D01*
X69111807Y-110831128D01*
X69081369Y-110870673D01*
X69060944Y-110896026D01*
X69014899Y-110950295D01*
X68964612Y-111006775D01*
X68917815Y-111056669D01*
X68826651Y-111150400D01*
X68128445Y-111150400D01*
X68197356Y-111150349D01*
X68295607Y-111150091D01*
X68385030Y-111149637D01*
X68463333Y-111149010D01*
X68528223Y-111148235D01*
X68577411Y-111147335D01*
X68608604Y-111146334D01*
X68619511Y-111145257D01*
X68618322Y-111142037D01*
X68608176Y-111124452D01*
X68591040Y-111098158D01*
X68582540Y-111085691D01*
X68573329Y-111071622D01*
X68565233Y-111057351D01*
X68558185Y-111041479D01*
X68552117Y-111022609D01*
X68546961Y-110999341D01*
X68542651Y-110970278D01*
X68539119Y-110934021D01*
X68536297Y-110889170D01*
X68534118Y-110834328D01*
X68532514Y-110768097D01*
X68531419Y-110689077D01*
X68530765Y-110595871D01*
X68530484Y-110487079D01*
X68530509Y-110361303D01*
X68530772Y-110217145D01*
X68531206Y-110053207D01*
X68531745Y-109868089D01*
X68532279Y-109689232D01*
X68532805Y-109530374D01*
X68533350Y-109391316D01*
X68533945Y-109270665D01*
X68534619Y-109167028D01*
X68535403Y-109079011D01*
X68536326Y-109005223D01*
X68537419Y-108944269D01*
X68538712Y-108894757D01*
X68540235Y-108855293D01*
X68542019Y-108824484D01*
X68544092Y-108800938D01*
X68546486Y-108783260D01*
X68549230Y-108770059D01*
X68552356Y-108759940D01*
X68555892Y-108751511D01*
X68559791Y-108743375D01*
X68579438Y-108706544D01*
X68598225Y-108676391D01*
X68599272Y-108674908D01*
X68613602Y-108652659D01*
X68619511Y-108639702D01*
X68618504Y-108639249D01*
X68601305Y-108637803D01*
X68564656Y-108636480D01*
X68510962Y-108635316D01*
X68442630Y-108634347D01*
X68362064Y-108633611D01*
X68271670Y-108633142D01*
X68173853Y-108632978D01*
X67728195Y-108632978D01*
X67725120Y-109809845D01*
X67722045Y-110986711D01*
X67695407Y-111045622D01*
X67683485Y-111070183D01*
X67666246Y-111100434D01*
X67653074Y-111117560D01*
X67645076Y-111125591D01*
X67637378Y-111140493D01*
X67345942Y-111140493D01*
X67345474Y-111048029D01*
X67345050Y-110932617D01*
X67344706Y-110802160D01*
X67344434Y-110655716D01*
X67344227Y-110492344D01*
X67344076Y-110311101D01*
X67343972Y-110111048D01*
X67343908Y-109891241D01*
X67343876Y-109650739D01*
X67343867Y-109388602D01*
X67343867Y-107197031D01*
X67382249Y-107158649D01*
X67409355Y-107134911D01*
X67436253Y-107123111D01*
X67472560Y-107120267D01*
X67524489Y-107120267D01*
X67524489Y-107208206D01*
X67526427Y-107258102D01*
X67545199Y-107368523D01*
X67582217Y-107469987D01*
X67635369Y-107561152D01*
X67702546Y-107640673D01*
X67781638Y-107707205D01*
X67870534Y-107759406D01*
X67967125Y-107795930D01*
X68069300Y-107815434D01*
X68174950Y-107816573D01*
X68281964Y-107798005D01*
X68388232Y-107758384D01*
X68485219Y-107700516D01*
X68570293Y-107625684D01*
X68639015Y-107537615D01*
X68689918Y-107438616D01*
X68721535Y-107330993D01*
X68732400Y-107217054D01*
X68732400Y-107120267D01*
X70352753Y-107120267D01*
X70563897Y-107120280D01*
X70768020Y-107120330D01*
X70951686Y-107120430D01*
X71115991Y-107120592D01*
X71262029Y-107120829D01*
X71390894Y-107121153D01*
X71503683Y-107121575D01*
X71601488Y-107122109D01*
X71685404Y-107122767D01*
X71756527Y-107123561D01*
X71815950Y-107124504D01*
X71864768Y-107125608D01*
X71904077Y-107126884D01*
X71934969Y-107128347D01*
X71958541Y-107130007D01*
X71975886Y-107131878D01*
X71988099Y-107133972D01*
X71996275Y-107136300D01*
X72001508Y-107138876D01*
X72007504Y-107142445D01*
X72014279Y-107145978D01*
X72020478Y-107149488D01*
X72026126Y-107153918D01*
X72031247Y-107160208D01*
X72035869Y-107169301D01*
X72040015Y-107182139D01*
X72043713Y-107199662D01*
X72046987Y-107222813D01*
X72049863Y-107252534D01*
X72052367Y-107289765D01*
X72054524Y-107335449D01*
X72056360Y-107390527D01*
X72057900Y-107455941D01*
X72059170Y-107532633D01*
X72060195Y-107621544D01*
X72061001Y-107723617D01*
X72061034Y-107729867D01*
X72061614Y-107839792D01*
X72062059Y-107971011D01*
X59557177Y-112002533D02*
X59525798Y-112024776D01*
X59525798Y-112024776D02*
X59498089Y-112052485D01*
X59498089Y-112052485D02*
X59498089Y-112361920D01*
X59498089Y-112361920D02*
X59498162Y-112453799D01*
X59498162Y-112453799D02*
X59498505Y-112525840D01*
X59498505Y-112525840D02*
X59499308Y-112580780D01*
X59499308Y-112580780D02*
X59500759Y-112621360D01*
X59500759Y-112621360D02*
X59503048Y-112650317D01*
X59503048Y-112650317D02*
X59506364Y-112670391D01*
X59506364Y-112670391D02*
X59510895Y-112684321D01*
X59510895Y-112684321D02*
X59516831Y-112694845D01*
X59516831Y-112694845D02*
X59521486Y-112701100D01*
X59521486Y-112701100D02*
X59552217Y-112725673D01*
X59552217Y-112725673D02*
X59587504Y-112728341D01*
X59587504Y-112728341D02*
X59619755Y-112713271D01*
X59619755Y-112713271D02*
X59630412Y-112704374D01*
X59630412Y-112704374D02*
X59637536Y-112692557D01*
X59637536Y-112692557D02*
X59641833Y-112673526D01*
X59641833Y-112673526D02*
X59644009Y-112642992D01*
X59644009Y-112642992D02*
X59644772Y-112596662D01*
X59644772Y-112596662D02*
X59644845Y-112560871D01*
X59644845Y-112560871D02*
X59644845Y-112426045D01*
X59644845Y-112426045D02*
X60141556Y-112426045D01*
X60141556Y-112426045D02*
X60141556Y-112548700D01*
X60141556Y-112548700D02*
X60142069Y-112604787D01*
X60142069Y-112604787D02*
X60144124Y-112643333D01*
X60144124Y-112643333D02*
X60148492Y-112669361D01*
X60148492Y-112669361D02*
X60155944Y-112687897D01*
X60155944Y-112687897D02*
X60164953Y-112701100D01*
X60164953Y-112701100D02*
X60195856Y-112725604D01*
X60195856Y-112725604D02*
X60230804Y-112728506D01*
X60230804Y-112728506D02*
X60264262Y-112711089D01*
X60264262Y-112711089D02*
X60273396Y-112701959D01*
X60273396Y-112701959D02*
X60279848Y-112689855D01*
X60279848Y-112689855D02*
X60284103Y-112671001D01*
X60284103Y-112671001D02*
X60286648Y-112641620D01*
X60286648Y-112641620D02*
X60287971Y-112597937D01*
X60287971Y-112597937D02*
X60288557Y-112536175D01*
X60288557Y-112536175D02*
X60288625Y-112522000D01*
X60288625Y-112522000D02*
X60289109Y-112405631D01*
X60289109Y-112405631D02*
X60289359Y-112309727D01*
X60289359Y-112309727D02*
X60289277Y-112232177D01*
X60289277Y-112232177D02*
X60288769Y-112170869D01*
X60288769Y-112170869D02*
X60287738Y-112123690D01*
X60287738Y-112123690D02*
X60286087Y-112088530D01*
X60286087Y-112088530D02*
X60283721Y-112063276D01*
X60283721Y-112063276D02*
X60280543Y-112045817D01*
X60280543Y-112045817D02*
X60276456Y-112034041D01*
X60276456Y-112034041D02*
X60271366Y-112025835D01*
X60271366Y-112025835D02*
X60265734Y-112019645D01*
X60265734Y-112019645D02*
X60233872Y-111999844D01*
X60233872Y-111999844D02*
X60200643Y-112002533D01*
X60200643Y-112002533D02*
X60169265Y-112024776D01*
X60169265Y-112024776D02*
X60156567Y-112039126D01*
X60156567Y-112039126D02*
X60148474Y-112054978D01*
X60148474Y-112054978D02*
X60143958Y-112077554D01*
X60143958Y-112077554D02*
X60141994Y-112112078D01*
X60141994Y-112112078D02*
X60141556Y-112163776D01*
X60141556Y-112163776D02*
X60141556Y-112279289D01*
X60141556Y-112279289D02*
X59644845Y-112279289D01*
X59644845Y-112279289D02*
X59644845Y-112160756D01*
X59644845Y-112160756D02*
X59644338Y-112106148D01*
X59644338Y-112106148D02*
X59642302Y-112069275D01*
X59642302Y-112069275D02*
X59637965Y-112045307D01*
X59637965Y-112045307D02*
X59630553Y-112029415D01*
X59630553Y-112029415D02*
X59622267Y-112019645D01*
X59622267Y-112019645D02*
X59590406Y-111999844D01*
X59590406Y-111999844D02*
X59557177Y-112002533D01*
X59557177Y-112002533D02*
X59557177Y-112002533D01*
G36*
X60265734Y-112019645D02*
G01*
X60271366Y-112025835D01*
X60276456Y-112034041D01*
X60280543Y-112045817D01*
X60283721Y-112063276D01*
X60286087Y-112088530D01*
X60287738Y-112123690D01*
X60288769Y-112170869D01*
X60289277Y-112232177D01*
X60289359Y-112309727D01*
X60289109Y-112405631D01*
X60288625Y-112522000D01*
X60288557Y-112536175D01*
X60287971Y-112597937D01*
X60286648Y-112641620D01*
X60284103Y-112671001D01*
X60279848Y-112689855D01*
X60273396Y-112701959D01*
X60264262Y-112711089D01*
X60230804Y-112728506D01*
X60195856Y-112725604D01*
X60164953Y-112701100D01*
X60155944Y-112687897D01*
X60148492Y-112669361D01*
X60144124Y-112643333D01*
X60142069Y-112604787D01*
X60141556Y-112548700D01*
X60141556Y-112426045D01*
X59644845Y-112426045D01*
X59644845Y-112560871D01*
X59644772Y-112596662D01*
X59644009Y-112642992D01*
X59641833Y-112673526D01*
X59637536Y-112692557D01*
X59630412Y-112704374D01*
X59619755Y-112713271D01*
X59587504Y-112728341D01*
X59552217Y-112725673D01*
X59521486Y-112701100D01*
X59516831Y-112694845D01*
X59510895Y-112684321D01*
X59506364Y-112670391D01*
X59503048Y-112650317D01*
X59500759Y-112621360D01*
X59499308Y-112580780D01*
X59498505Y-112525840D01*
X59498162Y-112453799D01*
X59498089Y-112361920D01*
X59498089Y-112052485D01*
X59525798Y-112024776D01*
X59557177Y-112002533D01*
X59590406Y-111999844D01*
X59622267Y-112019645D01*
X59630553Y-112029415D01*
X59637965Y-112045307D01*
X59642302Y-112069275D01*
X59644338Y-112106148D01*
X59644845Y-112160756D01*
X59644845Y-112279289D01*
X60141556Y-112279289D01*
X60141556Y-112163776D01*
X60141994Y-112112078D01*
X60143958Y-112077554D01*
X60148474Y-112054978D01*
X60156567Y-112039126D01*
X60169265Y-112024776D01*
X60200643Y-112002533D01*
X60233872Y-111999844D01*
X60265734Y-112019645D01*
G37*
X60265734Y-112019645D02*
X60271366Y-112025835D01*
X60276456Y-112034041D01*
X60280543Y-112045817D01*
X60283721Y-112063276D01*
X60286087Y-112088530D01*
X60287738Y-112123690D01*
X60288769Y-112170869D01*
X60289277Y-112232177D01*
X60289359Y-112309727D01*
X60289109Y-112405631D01*
X60288625Y-112522000D01*
X60288557Y-112536175D01*
X60287971Y-112597937D01*
X60286648Y-112641620D01*
X60284103Y-112671001D01*
X60279848Y-112689855D01*
X60273396Y-112701959D01*
X60264262Y-112711089D01*
X60230804Y-112728506D01*
X60195856Y-112725604D01*
X60164953Y-112701100D01*
X60155944Y-112687897D01*
X60148492Y-112669361D01*
X60144124Y-112643333D01*
X60142069Y-112604787D01*
X60141556Y-112548700D01*
X60141556Y-112426045D01*
X59644845Y-112426045D01*
X59644845Y-112560871D01*
X59644772Y-112596662D01*
X59644009Y-112642992D01*
X59641833Y-112673526D01*
X59637536Y-112692557D01*
X59630412Y-112704374D01*
X59619755Y-112713271D01*
X59587504Y-112728341D01*
X59552217Y-112725673D01*
X59521486Y-112701100D01*
X59516831Y-112694845D01*
X59510895Y-112684321D01*
X59506364Y-112670391D01*
X59503048Y-112650317D01*
X59500759Y-112621360D01*
X59499308Y-112580780D01*
X59498505Y-112525840D01*
X59498162Y-112453799D01*
X59498089Y-112361920D01*
X59498089Y-112052485D01*
X59525798Y-112024776D01*
X59557177Y-112002533D01*
X59590406Y-111999844D01*
X59622267Y-112019645D01*
X59630553Y-112029415D01*
X59637965Y-112045307D01*
X59642302Y-112069275D01*
X59644338Y-112106148D01*
X59644845Y-112160756D01*
X59644845Y-112279289D01*
X60141556Y-112279289D01*
X60141556Y-112163776D01*
X60141994Y-112112078D01*
X60143958Y-112077554D01*
X60148474Y-112054978D01*
X60156567Y-112039126D01*
X60169265Y-112024776D01*
X60200643Y-112002533D01*
X60233872Y-111999844D01*
X60265734Y-112019645D01*
X65555657Y-111997260D02*
X65479299Y-111998174D01*
X65479299Y-111998174D02*
X65420783Y-112000311D01*
X65420783Y-112000311D02*
X65377745Y-112004175D01*
X65377745Y-112004175D02*
X65347817Y-112010267D01*
X65347817Y-112010267D02*
X65328632Y-112019090D01*
X65328632Y-112019090D02*
X65317824Y-112031146D01*
X65317824Y-112031146D02*
X65313027Y-112046939D01*
X65313027Y-112046939D02*
X65311873Y-112066970D01*
X65311873Y-112066970D02*
X65311867Y-112069335D01*
X65311867Y-112069335D02*
X65312869Y-112091992D01*
X65312869Y-112091992D02*
X65317604Y-112109503D01*
X65317604Y-112109503D02*
X65328667Y-112122574D01*
X65328667Y-112122574D02*
X65348652Y-112131913D01*
X65348652Y-112131913D02*
X65380154Y-112138227D01*
X65380154Y-112138227D02*
X65425768Y-112142222D01*
X65425768Y-112142222D02*
X65488087Y-112144606D01*
X65488087Y-112144606D02*
X65569707Y-112146086D01*
X65569707Y-112146086D02*
X65594723Y-112146414D01*
X65594723Y-112146414D02*
X65836800Y-112149467D01*
X65836800Y-112149467D02*
X65840186Y-112214378D01*
X65840186Y-112214378D02*
X65843571Y-112279289D01*
X65843571Y-112279289D02*
X65675424Y-112279289D01*
X65675424Y-112279289D02*
X65609734Y-112279531D01*
X65609734Y-112279531D02*
X65562828Y-112280556D01*
X65562828Y-112280556D02*
X65530917Y-112282811D01*
X65530917Y-112282811D02*
X65510209Y-112286742D01*
X65510209Y-112286742D02*
X65496916Y-112292798D01*
X65496916Y-112292798D02*
X65487245Y-112301424D01*
X65487245Y-112301424D02*
X65487183Y-112301493D01*
X65487183Y-112301493D02*
X65469644Y-112335112D01*
X65469644Y-112335112D02*
X65470278Y-112371448D01*
X65470278Y-112371448D02*
X65488686Y-112402423D01*
X65488686Y-112402423D02*
X65492329Y-112405607D01*
X65492329Y-112405607D02*
X65505259Y-112413812D01*
X65505259Y-112413812D02*
X65522976Y-112419521D01*
X65522976Y-112419521D02*
X65549430Y-112423162D01*
X65549430Y-112423162D02*
X65588568Y-112425167D01*
X65588568Y-112425167D02*
X65644338Y-112425964D01*
X65644338Y-112425964D02*
X65680006Y-112426045D01*
X65680006Y-112426045D02*
X65842445Y-112426045D01*
X65842445Y-112426045D02*
X65842445Y-112584089D01*
X65842445Y-112584089D02*
X65595839Y-112584089D01*
X65595839Y-112584089D02*
X65514420Y-112584231D01*
X65514420Y-112584231D02*
X65452590Y-112584814D01*
X65452590Y-112584814D02*
X65407363Y-112586068D01*
X65407363Y-112586068D02*
X65375752Y-112588227D01*
X65375752Y-112588227D02*
X65354769Y-112591523D01*
X65354769Y-112591523D02*
X65341427Y-112596189D01*
X65341427Y-112596189D02*
X65332739Y-112602457D01*
X65332739Y-112602457D02*
X65330550Y-112604733D01*
X65330550Y-112604733D02*
X65314386Y-112636280D01*
X65314386Y-112636280D02*
X65313203Y-112672168D01*
X65313203Y-112672168D02*
X65326464Y-112703285D01*
X65326464Y-112703285D02*
X65336957Y-112713271D01*
X65336957Y-112713271D02*
X65347871Y-112718769D01*
X65347871Y-112718769D02*
X65364783Y-112723022D01*
X65364783Y-112723022D02*
X65390367Y-112726180D01*
X65390367Y-112726180D02*
X65427299Y-112728392D01*
X65427299Y-112728392D02*
X65478254Y-112729806D01*
X65478254Y-112729806D02*
X65545906Y-112730572D01*
X65545906Y-112730572D02*
X65632931Y-112730838D01*
X65632931Y-112730838D02*
X65652606Y-112730845D01*
X65652606Y-112730845D02*
X65741089Y-112730787D01*
X65741089Y-112730787D02*
X65809773Y-112730467D01*
X65809773Y-112730467D02*
X65861436Y-112729667D01*
X65861436Y-112729667D02*
X65898855Y-112728167D01*
X65898855Y-112728167D02*
X65924810Y-112725749D01*
X65924810Y-112725749D02*
X65942078Y-112722194D01*
X65942078Y-112722194D02*
X65953438Y-112717282D01*
X65953438Y-112717282D02*
X65961668Y-112710795D01*
X65961668Y-112710795D02*
X65966183Y-112706138D01*
X65966183Y-112706138D02*
X65972979Y-112697889D01*
X65972979Y-112697889D02*
X65978288Y-112687669D01*
X65978288Y-112687669D02*
X65982294Y-112672800D01*
X65982294Y-112672800D02*
X65985179Y-112650602D01*
X65985179Y-112650602D02*
X65987126Y-112618393D01*
X65987126Y-112618393D02*
X65988319Y-112573496D01*
X65988319Y-112573496D02*
X65988939Y-112513228D01*
X65988939Y-112513228D02*
X65989171Y-112434911D01*
X65989171Y-112434911D02*
X65989200Y-112368994D01*
X65989200Y-112368994D02*
X65989129Y-112276628D01*
X65989129Y-112276628D02*
X65988792Y-112204117D01*
X65988792Y-112204117D02*
X65988002Y-112148737D01*
X65988002Y-112148737D02*
X65986574Y-112107765D01*
X65986574Y-112107765D02*
X65984321Y-112078478D01*
X65984321Y-112078478D02*
X65981057Y-112058153D01*
X65981057Y-112058153D02*
X65976596Y-112044066D01*
X65976596Y-112044066D02*
X65970752Y-112033495D01*
X65970752Y-112033495D02*
X65965803Y-112026811D01*
X65965803Y-112026811D02*
X65942406Y-111997067D01*
X65942406Y-111997067D02*
X65652226Y-111997067D01*
X65652226Y-111997067D02*
X65555657Y-111997260D01*
X65555657Y-111997260D02*
X65555657Y-111997260D01*
G36*
X65965803Y-112026811D02*
G01*
X65970752Y-112033495D01*
X65976596Y-112044066D01*
X65981057Y-112058153D01*
X65984321Y-112078478D01*
X65986574Y-112107765D01*
X65988002Y-112148737D01*
X65988792Y-112204117D01*
X65989129Y-112276628D01*
X65989200Y-112368994D01*
X65989171Y-112434911D01*
X65988939Y-112513228D01*
X65988319Y-112573496D01*
X65987126Y-112618393D01*
X65985179Y-112650602D01*
X65982294Y-112672800D01*
X65978288Y-112687669D01*
X65972979Y-112697889D01*
X65966183Y-112706138D01*
X65961668Y-112710795D01*
X65953438Y-112717282D01*
X65942078Y-112722194D01*
X65924810Y-112725749D01*
X65898855Y-112728167D01*
X65861436Y-112729667D01*
X65809773Y-112730467D01*
X65741089Y-112730787D01*
X65652606Y-112730845D01*
X65632931Y-112730838D01*
X65545906Y-112730572D01*
X65478254Y-112729806D01*
X65427299Y-112728392D01*
X65390367Y-112726180D01*
X65364783Y-112723022D01*
X65347871Y-112718769D01*
X65336957Y-112713271D01*
X65326464Y-112703285D01*
X65313203Y-112672168D01*
X65314386Y-112636280D01*
X65330550Y-112604733D01*
X65332739Y-112602457D01*
X65341427Y-112596189D01*
X65354769Y-112591523D01*
X65375752Y-112588227D01*
X65407363Y-112586068D01*
X65452590Y-112584814D01*
X65514420Y-112584231D01*
X65595839Y-112584089D01*
X65842445Y-112584089D01*
X65842445Y-112426045D01*
X65680006Y-112426045D01*
X65644338Y-112425964D01*
X65588568Y-112425167D01*
X65549430Y-112423162D01*
X65522976Y-112419521D01*
X65505259Y-112413812D01*
X65492329Y-112405607D01*
X65488686Y-112402423D01*
X65470278Y-112371448D01*
X65469644Y-112335112D01*
X65487183Y-112301493D01*
X65487245Y-112301424D01*
X65496916Y-112292798D01*
X65510209Y-112286742D01*
X65530917Y-112282811D01*
X65562828Y-112280556D01*
X65609734Y-112279531D01*
X65675424Y-112279289D01*
X65843571Y-112279289D01*
X65840186Y-112214378D01*
X65836800Y-112149467D01*
X65594723Y-112146414D01*
X65569707Y-112146086D01*
X65488087Y-112144606D01*
X65425768Y-112142222D01*
X65380154Y-112138227D01*
X65348652Y-112131913D01*
X65328667Y-112122574D01*
X65317604Y-112109503D01*
X65312869Y-112091992D01*
X65311867Y-112069335D01*
X65311873Y-112066970D01*
X65313027Y-112046939D01*
X65317824Y-112031146D01*
X65328632Y-112019090D01*
X65347817Y-112010267D01*
X65377745Y-112004175D01*
X65420783Y-112000311D01*
X65479299Y-111998174D01*
X65555657Y-111997260D01*
X65652226Y-111997067D01*
X65942406Y-111997067D01*
X65965803Y-112026811D01*
G37*
X65965803Y-112026811D02*
X65970752Y-112033495D01*
X65976596Y-112044066D01*
X65981057Y-112058153D01*
X65984321Y-112078478D01*
X65986574Y-112107765D01*
X65988002Y-112148737D01*
X65988792Y-112204117D01*
X65989129Y-112276628D01*
X65989200Y-112368994D01*
X65989171Y-112434911D01*
X65988939Y-112513228D01*
X65988319Y-112573496D01*
X65987126Y-112618393D01*
X65985179Y-112650602D01*
X65982294Y-112672800D01*
X65978288Y-112687669D01*
X65972979Y-112697889D01*
X65966183Y-112706138D01*
X65961668Y-112710795D01*
X65953438Y-112717282D01*
X65942078Y-112722194D01*
X65924810Y-112725749D01*
X65898855Y-112728167D01*
X65861436Y-112729667D01*
X65809773Y-112730467D01*
X65741089Y-112730787D01*
X65652606Y-112730845D01*
X65632931Y-112730838D01*
X65545906Y-112730572D01*
X65478254Y-112729806D01*
X65427299Y-112728392D01*
X65390367Y-112726180D01*
X65364783Y-112723022D01*
X65347871Y-112718769D01*
X65336957Y-112713271D01*
X65326464Y-112703285D01*
X65313203Y-112672168D01*
X65314386Y-112636280D01*
X65330550Y-112604733D01*
X65332739Y-112602457D01*
X65341427Y-112596189D01*
X65354769Y-112591523D01*
X65375752Y-112588227D01*
X65407363Y-112586068D01*
X65452590Y-112584814D01*
X65514420Y-112584231D01*
X65595839Y-112584089D01*
X65842445Y-112584089D01*
X65842445Y-112426045D01*
X65680006Y-112426045D01*
X65644338Y-112425964D01*
X65588568Y-112425167D01*
X65549430Y-112423162D01*
X65522976Y-112419521D01*
X65505259Y-112413812D01*
X65492329Y-112405607D01*
X65488686Y-112402423D01*
X65470278Y-112371448D01*
X65469644Y-112335112D01*
X65487183Y-112301493D01*
X65487245Y-112301424D01*
X65496916Y-112292798D01*
X65510209Y-112286742D01*
X65530917Y-112282811D01*
X65562828Y-112280556D01*
X65609734Y-112279531D01*
X65675424Y-112279289D01*
X65843571Y-112279289D01*
X65840186Y-112214378D01*
X65836800Y-112149467D01*
X65594723Y-112146414D01*
X65569707Y-112146086D01*
X65488087Y-112144606D01*
X65425768Y-112142222D01*
X65380154Y-112138227D01*
X65348652Y-112131913D01*
X65328667Y-112122574D01*
X65317604Y-112109503D01*
X65312869Y-112091992D01*
X65311867Y-112069335D01*
X65311873Y-112066970D01*
X65313027Y-112046939D01*
X65317824Y-112031146D01*
X65328632Y-112019090D01*
X65347817Y-112010267D01*
X65377745Y-112004175D01*
X65420783Y-112000311D01*
X65479299Y-111998174D01*
X65555657Y-111997260D01*
X65652226Y-111997067D01*
X65942406Y-111997067D01*
X65965803Y-112026811D01*
X68059043Y-106754571D02*
X67962768Y-106778809D01*
X67962768Y-106778809D02*
X67876184Y-106821641D01*
X67876184Y-106821641D02*
X67801373Y-106881419D01*
X67801373Y-106881419D02*
X67740418Y-106956494D01*
X67740418Y-106956494D02*
X67695399Y-107045220D01*
X67695399Y-107045220D02*
X67669136Y-107141530D01*
X67669136Y-107141530D02*
X67663286Y-107238795D01*
X67663286Y-107238795D02*
X67678140Y-107332654D01*
X67678140Y-107332654D02*
X67711840Y-107420511D01*
X67711840Y-107420511D02*
X67762528Y-107499770D01*
X67762528Y-107499770D02*
X67828345Y-107567836D01*
X67828345Y-107567836D02*
X67907434Y-107622112D01*
X67907434Y-107622112D02*
X67997934Y-107660002D01*
X67997934Y-107660002D02*
X68049200Y-107672426D01*
X68049200Y-107672426D02*
X68093698Y-107679947D01*
X68093698Y-107679947D02*
X68127999Y-107682919D01*
X68127999Y-107682919D02*
X68160960Y-107681094D01*
X68160960Y-107681094D02*
X68201434Y-107674225D01*
X68201434Y-107674225D02*
X68234531Y-107667250D01*
X68234531Y-107667250D02*
X68327947Y-107635741D01*
X68327947Y-107635741D02*
X68411619Y-107584617D01*
X68411619Y-107584617D02*
X68483665Y-107515429D01*
X68483665Y-107515429D02*
X68542200Y-107429728D01*
X68542200Y-107429728D02*
X68556148Y-107402489D01*
X68556148Y-107402489D02*
X68572586Y-107366122D01*
X68572586Y-107366122D02*
X68582894Y-107335582D01*
X68582894Y-107335582D02*
X68588460Y-107303450D01*
X68588460Y-107303450D02*
X68590669Y-107262307D01*
X68590669Y-107262307D02*
X68590948Y-107216222D01*
X68590948Y-107216222D02*
X68586861Y-107131865D01*
X68586861Y-107131865D02*
X68573446Y-107062586D01*
X68573446Y-107062586D02*
X68548256Y-107001961D01*
X68548256Y-107001961D02*
X68508846Y-106943567D01*
X68508846Y-106943567D02*
X68470298Y-106899302D01*
X68470298Y-106899302D02*
X68398406Y-106833484D01*
X68398406Y-106833484D02*
X68323313Y-106788053D01*
X68323313Y-106788053D02*
X68240562Y-106760850D01*
X68240562Y-106760850D02*
X68162928Y-106750576D01*
X68162928Y-106750576D02*
X68059043Y-106754571D01*
X68059043Y-106754571D02*
X68059043Y-106754571D01*
G36*
X68240562Y-106760850D02*
G01*
X68323313Y-106788053D01*
X68398406Y-106833484D01*
X68470298Y-106899302D01*
X68508846Y-106943567D01*
X68548256Y-107001961D01*
X68573446Y-107062586D01*
X68586861Y-107131865D01*
X68590948Y-107216222D01*
X68590669Y-107262307D01*
X68588460Y-107303450D01*
X68582894Y-107335582D01*
X68572586Y-107366122D01*
X68556148Y-107402489D01*
X68542200Y-107429728D01*
X68483665Y-107515429D01*
X68411619Y-107584617D01*
X68327947Y-107635741D01*
X68234531Y-107667250D01*
X68201434Y-107674225D01*
X68160960Y-107681094D01*
X68127999Y-107682919D01*
X68093698Y-107679947D01*
X68049200Y-107672426D01*
X67997934Y-107660002D01*
X67907434Y-107622112D01*
X67828345Y-107567836D01*
X67762528Y-107499770D01*
X67711840Y-107420511D01*
X67678140Y-107332654D01*
X67663286Y-107238795D01*
X67669136Y-107141530D01*
X67695399Y-107045220D01*
X67740418Y-106956494D01*
X67801373Y-106881419D01*
X67876184Y-106821641D01*
X67962768Y-106778809D01*
X68059043Y-106754571D01*
X68162928Y-106750576D01*
X68240562Y-106760850D01*
G37*
X68240562Y-106760850D02*
X68323313Y-106788053D01*
X68398406Y-106833484D01*
X68470298Y-106899302D01*
X68508846Y-106943567D01*
X68548256Y-107001961D01*
X68573446Y-107062586D01*
X68586861Y-107131865D01*
X68590948Y-107216222D01*
X68590669Y-107262307D01*
X68588460Y-107303450D01*
X68582894Y-107335582D01*
X68572586Y-107366122D01*
X68556148Y-107402489D01*
X68542200Y-107429728D01*
X68483665Y-107515429D01*
X68411619Y-107584617D01*
X68327947Y-107635741D01*
X68234531Y-107667250D01*
X68201434Y-107674225D01*
X68160960Y-107681094D01*
X68127999Y-107682919D01*
X68093698Y-107679947D01*
X68049200Y-107672426D01*
X67997934Y-107660002D01*
X67907434Y-107622112D01*
X67828345Y-107567836D01*
X67762528Y-107499770D01*
X67711840Y-107420511D01*
X67678140Y-107332654D01*
X67663286Y-107238795D01*
X67669136Y-107141530D01*
X67695399Y-107045220D01*
X67740418Y-106956494D01*
X67801373Y-106881419D01*
X67876184Y-106821641D01*
X67962768Y-106778809D01*
X68059043Y-106754571D01*
X68162928Y-106750576D01*
X68240562Y-106760850D01*
X63112426Y-108594552D02*
X62960508Y-108614567D01*
X62960508Y-108614567D02*
X62825244Y-108648202D01*
X62825244Y-108648202D02*
X62705761Y-108695725D01*
X62705761Y-108695725D02*
X62601185Y-108757405D01*
X62601185Y-108757405D02*
X62523576Y-108820965D01*
X62523576Y-108820965D02*
X62454735Y-108895099D01*
X62454735Y-108895099D02*
X62400994Y-108974871D01*
X62400994Y-108974871D02*
X62358090Y-109067091D01*
X62358090Y-109067091D02*
X62342616Y-109110161D01*
X62342616Y-109110161D02*
X62329756Y-109149142D01*
X62329756Y-109149142D02*
X62318554Y-109185289D01*
X62318554Y-109185289D02*
X62308880Y-109220434D01*
X62308880Y-109220434D02*
X62300604Y-109256410D01*
X62300604Y-109256410D02*
X62293597Y-109295050D01*
X62293597Y-109295050D02*
X62287728Y-109338185D01*
X62287728Y-109338185D02*
X62282869Y-109387649D01*
X62282869Y-109387649D02*
X62278890Y-109445273D01*
X62278890Y-109445273D02*
X62275660Y-109512891D01*
X62275660Y-109512891D02*
X62273051Y-109592334D01*
X62273051Y-109592334D02*
X62270933Y-109685436D01*
X62270933Y-109685436D02*
X62269176Y-109794027D01*
X62269176Y-109794027D02*
X62267651Y-109919942D01*
X62267651Y-109919942D02*
X62266228Y-110065012D01*
X62266228Y-110065012D02*
X62264975Y-110207778D01*
X62264975Y-110207778D02*
X62263649Y-110363968D01*
X62263649Y-110363968D02*
X62262444Y-110499239D01*
X62262444Y-110499239D02*
X62261234Y-110615246D01*
X62261234Y-110615246D02*
X62259894Y-110713645D01*
X62259894Y-110713645D02*
X62258300Y-110796093D01*
X62258300Y-110796093D02*
X62256325Y-110864246D01*
X62256325Y-110864246D02*
X62253844Y-110919760D01*
X62253844Y-110919760D02*
X62250731Y-110964292D01*
X62250731Y-110964292D02*
X62246862Y-110999498D01*
X62246862Y-110999498D02*
X62242111Y-111027034D01*
X62242111Y-111027034D02*
X62236352Y-111048556D01*
X62236352Y-111048556D02*
X62229461Y-111065722D01*
X62229461Y-111065722D02*
X62221311Y-111080186D01*
X62221311Y-111080186D02*
X62211777Y-111093606D01*
X62211777Y-111093606D02*
X62200734Y-111107638D01*
X62200734Y-111107638D02*
X62196434Y-111113071D01*
X62196434Y-111113071D02*
X62180614Y-111135910D01*
X62180614Y-111135910D02*
X62173578Y-111151463D01*
X62173578Y-111151463D02*
X62173556Y-111151922D01*
X62173556Y-111151922D02*
X62184433Y-111154121D01*
X62184433Y-111154121D02*
X62215418Y-111156147D01*
X62215418Y-111156147D02*
X62264043Y-111157942D01*
X62264043Y-111157942D02*
X62327837Y-111159451D01*
X62327837Y-111159451D02*
X62404331Y-111160616D01*
X62404331Y-111160616D02*
X62491056Y-111161380D01*
X62491056Y-111161380D02*
X62585543Y-111161686D01*
X62585543Y-111161686D02*
X62596450Y-111161689D01*
X62596450Y-111161689D02*
X63019343Y-111161689D01*
X63019343Y-111161689D02*
X63022605Y-111065622D01*
X63022605Y-111065622D02*
X63025867Y-110969556D01*
X63025867Y-110969556D02*
X63087956Y-111020543D01*
X63087956Y-111020543D02*
X63185286Y-111088057D01*
X63185286Y-111088057D02*
X63295187Y-111142749D01*
X63295187Y-111142749D02*
X63381651Y-111172978D01*
X63381651Y-111172978D02*
X63450722Y-111187666D01*
X63450722Y-111187666D02*
X63534075Y-111197659D01*
X63534075Y-111197659D02*
X63623841Y-111202646D01*
X63623841Y-111202646D02*
X63712155Y-111202313D01*
X63712155Y-111202313D02*
X63791149Y-111196351D01*
X63791149Y-111196351D02*
X63827378Y-111190638D01*
X63827378Y-111190638D02*
X63967397Y-111152776D01*
X63967397Y-111152776D02*
X64093822Y-111097932D01*
X64093822Y-111097932D02*
X64205740Y-111026924D01*
X64205740Y-111026924D02*
X64302238Y-110940568D01*
X64302238Y-110940568D02*
X64382400Y-110839679D01*
X64382400Y-110839679D02*
X64445313Y-110725076D01*
X64445313Y-110725076D02*
X64489688Y-110598984D01*
X64489688Y-110598984D02*
X64502022Y-110542401D01*
X64502022Y-110542401D02*
X64509632Y-110480202D01*
X64509632Y-110480202D02*
X64513261Y-110405363D01*
X64513261Y-110405363D02*
X64513755Y-110371467D01*
X64513755Y-110371467D02*
X64513690Y-110368282D01*
X64513690Y-110368282D02*
X63753752Y-110368282D01*
X63753752Y-110368282D02*
X63744459Y-110443333D01*
X63744459Y-110443333D02*
X63716272Y-110507160D01*
X63716272Y-110507160D02*
X63667803Y-110562798D01*
X63667803Y-110562798D02*
X63662746Y-110567211D01*
X63662746Y-110567211D02*
X63614452Y-110602037D01*
X63614452Y-110602037D02*
X63562743Y-110624620D01*
X63562743Y-110624620D02*
X63502011Y-110636540D01*
X63502011Y-110636540D02*
X63426648Y-110639383D01*
X63426648Y-110639383D02*
X63408541Y-110638978D01*
X63408541Y-110638978D02*
X63354722Y-110636325D01*
X63354722Y-110636325D02*
X63314692Y-110630909D01*
X63314692Y-110630909D02*
X63279676Y-110620745D01*
X63279676Y-110620745D02*
X63240897Y-110603850D01*
X63240897Y-110603850D02*
X63230255Y-110598672D01*
X63230255Y-110598672D02*
X63169604Y-110562844D01*
X63169604Y-110562844D02*
X63122785Y-110520212D01*
X63122785Y-110520212D02*
X63110048Y-110504973D01*
X63110048Y-110504973D02*
X63065378Y-110448462D01*
X63065378Y-110448462D02*
X63065378Y-110252586D01*
X63065378Y-110252586D02*
X63065914Y-110173939D01*
X63065914Y-110173939D02*
X63067604Y-110115988D01*
X63067604Y-110115988D02*
X63070572Y-110076875D01*
X63070572Y-110076875D02*
X63074943Y-110054741D01*
X63074943Y-110054741D02*
X63079028Y-110048274D01*
X63079028Y-110048274D02*
X63094953Y-110045111D01*
X63094953Y-110045111D02*
X63128736Y-110042488D01*
X63128736Y-110042488D02*
X63175660Y-110040655D01*
X63175660Y-110040655D02*
X63231007Y-110039857D01*
X63231007Y-110039857D02*
X63239894Y-110039842D01*
X63239894Y-110039842D02*
X63360670Y-110045096D01*
X63360670Y-110045096D02*
X63463340Y-110061263D01*
X63463340Y-110061263D02*
X63549894Y-110088961D01*
X63549894Y-110088961D02*
X63622319Y-110128808D01*
X63622319Y-110128808D02*
X63677249Y-110175758D01*
X63677249Y-110175758D02*
X63721796Y-110233645D01*
X63721796Y-110233645D02*
X63746520Y-110296693D01*
X63746520Y-110296693D02*
X63753752Y-110368282D01*
X63753752Y-110368282D02*
X64513690Y-110368282D01*
X64513690Y-110368282D02*
X64511822Y-110277712D01*
X64511822Y-110277712D02*
X64503478Y-110198812D01*
X64503478Y-110198812D02*
X64487232Y-110127590D01*
X64487232Y-110127590D02*
X64461595Y-110056864D01*
X64461595Y-110056864D02*
X64437599Y-110004493D01*
X64437599Y-110004493D02*
X64378980Y-109909196D01*
X64378980Y-109909196D02*
X64300883Y-109821170D01*
X64300883Y-109821170D02*
X64205685Y-109742017D01*
X64205685Y-109742017D02*
X64095762Y-109673340D01*
X64095762Y-109673340D02*
X63973490Y-109616741D01*
X63973490Y-109616741D02*
X63841245Y-109573821D01*
X63841245Y-109573821D02*
X63776578Y-109558882D01*
X63776578Y-109558882D02*
X63640396Y-109536777D01*
X63640396Y-109536777D02*
X63491951Y-109522194D01*
X63491951Y-109522194D02*
X63340495Y-109515813D01*
X63340495Y-109515813D02*
X63213936Y-109517445D01*
X63213936Y-109517445D02*
X63052050Y-109524224D01*
X63052050Y-109524224D02*
X63059470Y-109465245D01*
X63059470Y-109465245D02*
X63078762Y-109366092D01*
X63078762Y-109366092D02*
X63109896Y-109285372D01*
X63109896Y-109285372D02*
X63153731Y-109222466D01*
X63153731Y-109222466D02*
X63211129Y-109176756D01*
X63211129Y-109176756D02*
X63282952Y-109147622D01*
X63282952Y-109147622D02*
X63370059Y-109134447D01*
X63370059Y-109134447D02*
X63473314Y-109136611D01*
X63473314Y-109136611D02*
X63511289Y-109140612D01*
X63511289Y-109140612D02*
X63652480Y-109165780D01*
X63652480Y-109165780D02*
X63789293Y-109206814D01*
X63789293Y-109206814D02*
X63883822Y-109244815D01*
X63883822Y-109244815D02*
X63928982Y-109264190D01*
X63928982Y-109264190D02*
X63967415Y-109279760D01*
X63967415Y-109279760D02*
X63993766Y-109289405D01*
X63993766Y-109289405D02*
X64001454Y-109291452D01*
X64001454Y-109291452D02*
X64011198Y-109282374D01*
X64011198Y-109282374D02*
X64027917Y-109253405D01*
X64027917Y-109253405D02*
X64051768Y-109204217D01*
X64051768Y-109204217D02*
X64082907Y-109134484D01*
X64082907Y-109134484D02*
X64121493Y-109043879D01*
X64121493Y-109043879D02*
X64128090Y-109028089D01*
X64128090Y-109028089D02*
X64158147Y-108955772D01*
X64158147Y-108955772D02*
X64185126Y-108890425D01*
X64185126Y-108890425D02*
X64207864Y-108834906D01*
X64207864Y-108834906D02*
X64225194Y-108792072D01*
X64225194Y-108792072D02*
X64235952Y-108764781D01*
X64235952Y-108764781D02*
X64239059Y-108755942D01*
X64239059Y-108755942D02*
X64229060Y-108751187D01*
X64229060Y-108751187D02*
X64202783Y-108745910D01*
X64202783Y-108745910D02*
X64174511Y-108742231D01*
X64174511Y-108742231D02*
X64144354Y-108737474D01*
X64144354Y-108737474D02*
X64096567Y-108728028D01*
X64096567Y-108728028D02*
X64035388Y-108714820D01*
X64035388Y-108714820D02*
X63965054Y-108698776D01*
X63965054Y-108698776D02*
X63889806Y-108680820D01*
X63889806Y-108680820D02*
X63861245Y-108673797D01*
X63861245Y-108673797D02*
X63756184Y-108648209D01*
X63756184Y-108648209D02*
X63668520Y-108628147D01*
X63668520Y-108628147D02*
X63593932Y-108612969D01*
X63593932Y-108612969D02*
X63528097Y-108602035D01*
X63528097Y-108602035D02*
X63466693Y-108594704D01*
X63466693Y-108594704D02*
X63405398Y-108590335D01*
X63405398Y-108590335D02*
X63339890Y-108588287D01*
X63339890Y-108588287D02*
X63281872Y-108587889D01*
X63281872Y-108587889D02*
X63112426Y-108594552D01*
X63112426Y-108594552D02*
X63112426Y-108594552D01*
G36*
X64513261Y-110405363D02*
G01*
X64509632Y-110480202D01*
X64502022Y-110542401D01*
X64489688Y-110598984D01*
X64445313Y-110725076D01*
X64382400Y-110839679D01*
X64302238Y-110940568D01*
X64205740Y-111026924D01*
X64093822Y-111097932D01*
X63967397Y-111152776D01*
X63827378Y-111190638D01*
X63791149Y-111196351D01*
X63712155Y-111202313D01*
X63623841Y-111202646D01*
X63534075Y-111197659D01*
X63450722Y-111187666D01*
X63381651Y-111172978D01*
X63295187Y-111142749D01*
X63185286Y-111088057D01*
X63087956Y-111020543D01*
X63025867Y-110969556D01*
X63022605Y-111065622D01*
X63019343Y-111161689D01*
X62596450Y-111161689D01*
X62585543Y-111161686D01*
X62491056Y-111161380D01*
X62404331Y-111160616D01*
X62327837Y-111159451D01*
X62264043Y-111157942D01*
X62215418Y-111156147D01*
X62184433Y-111154121D01*
X62173556Y-111151922D01*
X62173578Y-111151463D01*
X62180614Y-111135910D01*
X62196434Y-111113071D01*
X62200734Y-111107638D01*
X62211777Y-111093606D01*
X62221311Y-111080186D01*
X62229461Y-111065722D01*
X62236352Y-111048556D01*
X62242111Y-111027034D01*
X62246862Y-110999498D01*
X62250731Y-110964292D01*
X62253844Y-110919760D01*
X62256325Y-110864246D01*
X62258300Y-110796093D01*
X62259894Y-110713645D01*
X62261234Y-110615246D01*
X62262444Y-110499239D01*
X62262896Y-110448462D01*
X63065378Y-110448462D01*
X63110048Y-110504973D01*
X63122785Y-110520212D01*
X63169604Y-110562844D01*
X63230255Y-110598672D01*
X63240897Y-110603850D01*
X63279676Y-110620745D01*
X63314692Y-110630909D01*
X63354722Y-110636325D01*
X63408541Y-110638978D01*
X63426648Y-110639383D01*
X63502011Y-110636540D01*
X63562743Y-110624620D01*
X63614452Y-110602037D01*
X63662746Y-110567211D01*
X63667803Y-110562798D01*
X63716272Y-110507160D01*
X63744459Y-110443333D01*
X63753752Y-110368282D01*
X63746520Y-110296693D01*
X63721796Y-110233645D01*
X63677249Y-110175758D01*
X63622319Y-110128808D01*
X63549894Y-110088961D01*
X63463340Y-110061263D01*
X63360670Y-110045096D01*
X63239894Y-110039842D01*
X63231007Y-110039857D01*
X63175660Y-110040655D01*
X63128736Y-110042488D01*
X63094953Y-110045111D01*
X63079028Y-110048274D01*
X63074943Y-110054741D01*
X63070572Y-110076875D01*
X63067604Y-110115988D01*
X63065914Y-110173939D01*
X63065378Y-110252586D01*
X63065378Y-110448462D01*
X62262896Y-110448462D01*
X62263649Y-110363968D01*
X62264975Y-110207778D01*
X62266228Y-110065012D01*
X62267651Y-109919942D01*
X62269176Y-109794027D01*
X62270933Y-109685436D01*
X62273051Y-109592334D01*
X62275660Y-109512891D01*
X62278890Y-109445273D01*
X62282869Y-109387649D01*
X62287728Y-109338185D01*
X62293597Y-109295050D01*
X62300604Y-109256410D01*
X62308880Y-109220434D01*
X62318554Y-109185289D01*
X62329756Y-109149142D01*
X62342616Y-109110161D01*
X62358090Y-109067091D01*
X62400994Y-108974871D01*
X62454735Y-108895099D01*
X62523576Y-108820965D01*
X62601185Y-108757405D01*
X62705761Y-108695725D01*
X62825244Y-108648202D01*
X62960508Y-108614567D01*
X63112426Y-108594552D01*
X63281872Y-108587889D01*
X63339890Y-108588287D01*
X63405398Y-108590335D01*
X63466693Y-108594704D01*
X63528097Y-108602035D01*
X63593932Y-108612969D01*
X63668520Y-108628147D01*
X63756184Y-108648209D01*
X63861245Y-108673797D01*
X63889806Y-108680820D01*
X63965054Y-108698776D01*
X64035388Y-108714820D01*
X64096567Y-108728028D01*
X64144354Y-108737474D01*
X64174511Y-108742231D01*
X64202783Y-108745910D01*
X64229060Y-108751187D01*
X64239059Y-108755942D01*
X64235952Y-108764781D01*
X64225194Y-108792072D01*
X64207864Y-108834906D01*
X64185126Y-108890425D01*
X64158147Y-108955772D01*
X64128090Y-109028089D01*
X64121493Y-109043879D01*
X64082907Y-109134484D01*
X64051768Y-109204217D01*
X64027917Y-109253405D01*
X64011198Y-109282374D01*
X64001454Y-109291452D01*
X63993766Y-109289405D01*
X63967415Y-109279760D01*
X63928982Y-109264190D01*
X63883822Y-109244815D01*
X63789293Y-109206814D01*
X63652480Y-109165780D01*
X63511289Y-109140612D01*
X63473314Y-109136611D01*
X63370059Y-109134447D01*
X63282952Y-109147622D01*
X63211129Y-109176756D01*
X63153731Y-109222466D01*
X63109896Y-109285372D01*
X63078762Y-109366092D01*
X63059470Y-109465245D01*
X63052050Y-109524224D01*
X63213936Y-109517445D01*
X63340495Y-109515813D01*
X63491951Y-109522194D01*
X63640396Y-109536777D01*
X63776578Y-109558882D01*
X63841245Y-109573821D01*
X63973490Y-109616741D01*
X64095762Y-109673340D01*
X64205685Y-109742017D01*
X64300883Y-109821170D01*
X64378980Y-109909196D01*
X64437599Y-110004493D01*
X64461595Y-110056864D01*
X64487232Y-110127590D01*
X64503478Y-110198812D01*
X64511822Y-110277712D01*
X64513690Y-110368282D01*
X64513755Y-110371467D01*
X64513261Y-110405363D01*
G37*
X64513261Y-110405363D02*
X64509632Y-110480202D01*
X64502022Y-110542401D01*
X64489688Y-110598984D01*
X64445313Y-110725076D01*
X64382400Y-110839679D01*
X64302238Y-110940568D01*
X64205740Y-111026924D01*
X64093822Y-111097932D01*
X63967397Y-111152776D01*
X63827378Y-111190638D01*
X63791149Y-111196351D01*
X63712155Y-111202313D01*
X63623841Y-111202646D01*
X63534075Y-111197659D01*
X63450722Y-111187666D01*
X63381651Y-111172978D01*
X63295187Y-111142749D01*
X63185286Y-111088057D01*
X63087956Y-111020543D01*
X63025867Y-110969556D01*
X63022605Y-111065622D01*
X63019343Y-111161689D01*
X62596450Y-111161689D01*
X62585543Y-111161686D01*
X62491056Y-111161380D01*
X62404331Y-111160616D01*
X62327837Y-111159451D01*
X62264043Y-111157942D01*
X62215418Y-111156147D01*
X62184433Y-111154121D01*
X62173556Y-111151922D01*
X62173578Y-111151463D01*
X62180614Y-111135910D01*
X62196434Y-111113071D01*
X62200734Y-111107638D01*
X62211777Y-111093606D01*
X62221311Y-111080186D01*
X62229461Y-111065722D01*
X62236352Y-111048556D01*
X62242111Y-111027034D01*
X62246862Y-110999498D01*
X62250731Y-110964292D01*
X62253844Y-110919760D01*
X62256325Y-110864246D01*
X62258300Y-110796093D01*
X62259894Y-110713645D01*
X62261234Y-110615246D01*
X62262444Y-110499239D01*
X62262896Y-110448462D01*
X63065378Y-110448462D01*
X63110048Y-110504973D01*
X63122785Y-110520212D01*
X63169604Y-110562844D01*
X63230255Y-110598672D01*
X63240897Y-110603850D01*
X63279676Y-110620745D01*
X63314692Y-110630909D01*
X63354722Y-110636325D01*
X63408541Y-110638978D01*
X63426648Y-110639383D01*
X63502011Y-110636540D01*
X63562743Y-110624620D01*
X63614452Y-110602037D01*
X63662746Y-110567211D01*
X63667803Y-110562798D01*
X63716272Y-110507160D01*
X63744459Y-110443333D01*
X63753752Y-110368282D01*
X63746520Y-110296693D01*
X63721796Y-110233645D01*
X63677249Y-110175758D01*
X63622319Y-110128808D01*
X63549894Y-110088961D01*
X63463340Y-110061263D01*
X63360670Y-110045096D01*
X63239894Y-110039842D01*
X63231007Y-110039857D01*
X63175660Y-110040655D01*
X63128736Y-110042488D01*
X63094953Y-110045111D01*
X63079028Y-110048274D01*
X63074943Y-110054741D01*
X63070572Y-110076875D01*
X63067604Y-110115988D01*
X63065914Y-110173939D01*
X63065378Y-110252586D01*
X63065378Y-110448462D01*
X62262896Y-110448462D01*
X62263649Y-110363968D01*
X62264975Y-110207778D01*
X62266228Y-110065012D01*
X62267651Y-109919942D01*
X62269176Y-109794027D01*
X62270933Y-109685436D01*
X62273051Y-109592334D01*
X62275660Y-109512891D01*
X62278890Y-109445273D01*
X62282869Y-109387649D01*
X62287728Y-109338185D01*
X62293597Y-109295050D01*
X62300604Y-109256410D01*
X62308880Y-109220434D01*
X62318554Y-109185289D01*
X62329756Y-109149142D01*
X62342616Y-109110161D01*
X62358090Y-109067091D01*
X62400994Y-108974871D01*
X62454735Y-108895099D01*
X62523576Y-108820965D01*
X62601185Y-108757405D01*
X62705761Y-108695725D01*
X62825244Y-108648202D01*
X62960508Y-108614567D01*
X63112426Y-108594552D01*
X63281872Y-108587889D01*
X63339890Y-108588287D01*
X63405398Y-108590335D01*
X63466693Y-108594704D01*
X63528097Y-108602035D01*
X63593932Y-108612969D01*
X63668520Y-108628147D01*
X63756184Y-108648209D01*
X63861245Y-108673797D01*
X63889806Y-108680820D01*
X63965054Y-108698776D01*
X64035388Y-108714820D01*
X64096567Y-108728028D01*
X64144354Y-108737474D01*
X64174511Y-108742231D01*
X64202783Y-108745910D01*
X64229060Y-108751187D01*
X64239059Y-108755942D01*
X64235952Y-108764781D01*
X64225194Y-108792072D01*
X64207864Y-108834906D01*
X64185126Y-108890425D01*
X64158147Y-108955772D01*
X64128090Y-109028089D01*
X64121493Y-109043879D01*
X64082907Y-109134484D01*
X64051768Y-109204217D01*
X64027917Y-109253405D01*
X64011198Y-109282374D01*
X64001454Y-109291452D01*
X63993766Y-109289405D01*
X63967415Y-109279760D01*
X63928982Y-109264190D01*
X63883822Y-109244815D01*
X63789293Y-109206814D01*
X63652480Y-109165780D01*
X63511289Y-109140612D01*
X63473314Y-109136611D01*
X63370059Y-109134447D01*
X63282952Y-109147622D01*
X63211129Y-109176756D01*
X63153731Y-109222466D01*
X63109896Y-109285372D01*
X63078762Y-109366092D01*
X63059470Y-109465245D01*
X63052050Y-109524224D01*
X63213936Y-109517445D01*
X63340495Y-109515813D01*
X63491951Y-109522194D01*
X63640396Y-109536777D01*
X63776578Y-109558882D01*
X63841245Y-109573821D01*
X63973490Y-109616741D01*
X64095762Y-109673340D01*
X64205685Y-109742017D01*
X64300883Y-109821170D01*
X64378980Y-109909196D01*
X64437599Y-110004493D01*
X64461595Y-110056864D01*
X64487232Y-110127590D01*
X64503478Y-110198812D01*
X64511822Y-110277712D01*
X64513690Y-110368282D01*
X64513755Y-110371467D01*
X64513261Y-110405363D01*
X68709822Y-112019645D02*
X68703242Y-112027218D01*
X68703242Y-112027218D02*
X68698079Y-112036987D01*
X68698079Y-112036987D02*
X68694164Y-112051571D01*
X68694164Y-112051571D02*
X68691324Y-112073585D01*
X68691324Y-112073585D02*
X68689387Y-112105648D01*
X68689387Y-112105648D02*
X68688183Y-112150375D01*
X68688183Y-112150375D02*
X68687539Y-112210385D01*
X68687539Y-112210385D02*
X68687284Y-112288294D01*
X68687284Y-112288294D02*
X68687245Y-112363956D01*
X68687245Y-112363956D02*
X68687314Y-112457802D01*
X68687314Y-112457802D02*
X68687638Y-112531689D01*
X68687638Y-112531689D02*
X68688386Y-112588232D01*
X68688386Y-112588232D02*
X68689732Y-112630049D01*
X68689732Y-112630049D02*
X68691846Y-112659757D01*
X68691846Y-112659757D02*
X68694900Y-112679973D01*
X68694900Y-112679973D02*
X68699066Y-112693314D01*
X68699066Y-112693314D02*
X68704516Y-112702398D01*
X68704516Y-112702398D02*
X68709822Y-112708267D01*
X68709822Y-112708267D02*
X68742826Y-112727947D01*
X68742826Y-112727947D02*
X68777991Y-112726181D01*
X68777991Y-112726181D02*
X68809455Y-112704717D01*
X68809455Y-112704717D02*
X68816684Y-112696337D01*
X68816684Y-112696337D02*
X68822334Y-112686614D01*
X68822334Y-112686614D02*
X68826599Y-112672861D01*
X68826599Y-112672861D02*
X68829673Y-112652389D01*
X68829673Y-112652389D02*
X68831752Y-112622512D01*
X68831752Y-112622512D02*
X68833030Y-112580541D01*
X68833030Y-112580541D02*
X68833701Y-112523789D01*
X68833701Y-112523789D02*
X68833959Y-112449567D01*
X68833959Y-112449567D02*
X68834000Y-112365537D01*
X68834000Y-112365537D02*
X68834000Y-112052485D01*
X68834000Y-112052485D02*
X68806291Y-112024776D01*
X68806291Y-112024776D02*
X68772137Y-112001463D01*
X68772137Y-112001463D02*
X68739006Y-112000623D01*
X68739006Y-112000623D02*
X68709822Y-112019645D01*
X68709822Y-112019645D02*
X68709822Y-112019645D01*
G36*
X68772137Y-112001463D02*
G01*
X68806291Y-112024776D01*
X68834000Y-112052485D01*
X68834000Y-112365537D01*
X68833959Y-112449567D01*
X68833701Y-112523789D01*
X68833030Y-112580541D01*
X68831752Y-112622512D01*
X68829673Y-112652389D01*
X68826599Y-112672861D01*
X68822334Y-112686614D01*
X68816684Y-112696337D01*
X68809455Y-112704717D01*
X68777991Y-112726181D01*
X68742826Y-112727947D01*
X68709822Y-112708267D01*
X68704516Y-112702398D01*
X68699066Y-112693314D01*
X68694900Y-112679973D01*
X68691846Y-112659757D01*
X68689732Y-112630049D01*
X68688386Y-112588232D01*
X68687638Y-112531689D01*
X68687314Y-112457802D01*
X68687245Y-112363956D01*
X68687284Y-112288294D01*
X68687539Y-112210385D01*
X68688183Y-112150375D01*
X68689387Y-112105648D01*
X68691324Y-112073585D01*
X68694164Y-112051571D01*
X68698079Y-112036987D01*
X68703242Y-112027218D01*
X68709822Y-112019645D01*
X68739006Y-112000623D01*
X68772137Y-112001463D01*
G37*
X68772137Y-112001463D02*
X68806291Y-112024776D01*
X68834000Y-112052485D01*
X68834000Y-112365537D01*
X68833959Y-112449567D01*
X68833701Y-112523789D01*
X68833030Y-112580541D01*
X68831752Y-112622512D01*
X68829673Y-112652389D01*
X68826599Y-112672861D01*
X68822334Y-112686614D01*
X68816684Y-112696337D01*
X68809455Y-112704717D01*
X68777991Y-112726181D01*
X68742826Y-112727947D01*
X68709822Y-112708267D01*
X68704516Y-112702398D01*
X68699066Y-112693314D01*
X68694900Y-112679973D01*
X68691846Y-112659757D01*
X68689732Y-112630049D01*
X68688386Y-112588232D01*
X68687638Y-112531689D01*
X68687314Y-112457802D01*
X68687245Y-112363956D01*
X68687284Y-112288294D01*
X68687539Y-112210385D01*
X68688183Y-112150375D01*
X68689387Y-112105648D01*
X68691324Y-112073585D01*
X68694164Y-112051571D01*
X68698079Y-112036987D01*
X68703242Y-112027218D01*
X68709822Y-112019645D01*
X68739006Y-112000623D01*
X68772137Y-112001463D01*
X64767691Y-111997275D02*
X64638712Y-112001636D01*
X64638712Y-112001636D02*
X64529009Y-112014861D01*
X64529009Y-112014861D02*
X64436774Y-112037741D01*
X64436774Y-112037741D02*
X64360198Y-112071070D01*
X64360198Y-112071070D02*
X64297473Y-112115638D01*
X64297473Y-112115638D02*
X64246788Y-112172236D01*
X64246788Y-112172236D02*
X64206337Y-112241658D01*
X64206337Y-112241658D02*
X64205541Y-112243351D01*
X64205541Y-112243351D02*
X64181399Y-112305483D01*
X64181399Y-112305483D02*
X64172797Y-112360509D01*
X64172797Y-112360509D02*
X64179769Y-112415887D01*
X64179769Y-112415887D02*
X64202346Y-112479073D01*
X64202346Y-112479073D02*
X64206628Y-112488689D01*
X64206628Y-112488689D02*
X64235828Y-112544966D01*
X64235828Y-112544966D02*
X64268644Y-112588451D01*
X64268644Y-112588451D02*
X64310998Y-112625417D01*
X64310998Y-112625417D02*
X64368810Y-112662135D01*
X64368810Y-112662135D02*
X64372169Y-112664052D01*
X64372169Y-112664052D02*
X64422496Y-112688227D01*
X64422496Y-112688227D02*
X64479379Y-112706282D01*
X64479379Y-112706282D02*
X64546473Y-112718839D01*
X64546473Y-112718839D02*
X64627435Y-112726522D01*
X64627435Y-112726522D02*
X64725918Y-112729953D01*
X64725918Y-112729953D02*
X64760714Y-112730251D01*
X64760714Y-112730251D02*
X64926406Y-112730845D01*
X64926406Y-112730845D02*
X64949803Y-112701100D01*
X64949803Y-112701100D02*
X64956743Y-112691319D01*
X64956743Y-112691319D02*
X64962158Y-112679897D01*
X64962158Y-112679897D02*
X64966235Y-112664095D01*
X64966235Y-112664095D02*
X64969163Y-112641175D01*
X64969163Y-112641175D02*
X64971133Y-112608396D01*
X64971133Y-112608396D02*
X64971775Y-112584089D01*
X64971775Y-112584089D02*
X64815156Y-112584089D01*
X64815156Y-112584089D02*
X64721274Y-112584089D01*
X64721274Y-112584089D02*
X64666336Y-112582483D01*
X64666336Y-112582483D02*
X64609940Y-112578255D01*
X64609940Y-112578255D02*
X64563655Y-112572292D01*
X64563655Y-112572292D02*
X64560861Y-112571790D01*
X64560861Y-112571790D02*
X64478652Y-112549736D01*
X64478652Y-112549736D02*
X64414886Y-112516600D01*
X64414886Y-112516600D02*
X64367548Y-112470847D01*
X64367548Y-112470847D02*
X64334618Y-112410939D01*
X64334618Y-112410939D02*
X64328892Y-112395061D01*
X64328892Y-112395061D02*
X64323279Y-112370333D01*
X64323279Y-112370333D02*
X64325709Y-112345902D01*
X64325709Y-112345902D02*
X64337533Y-112313400D01*
X64337533Y-112313400D02*
X64344660Y-112297434D01*
X64344660Y-112297434D02*
X64368000Y-112255006D01*
X64368000Y-112255006D02*
X64396120Y-112225240D01*
X64396120Y-112225240D02*
X64427060Y-112204511D01*
X64427060Y-112204511D02*
X64489034Y-112177537D01*
X64489034Y-112177537D02*
X64568349Y-112157998D01*
X64568349Y-112157998D02*
X64660747Y-112146746D01*
X64660747Y-112146746D02*
X64727667Y-112144270D01*
X64727667Y-112144270D02*
X64815156Y-112143822D01*
X64815156Y-112143822D02*
X64815156Y-112584089D01*
X64815156Y-112584089D02*
X64971775Y-112584089D01*
X64971775Y-112584089D02*
X64972332Y-112563021D01*
X64972332Y-112563021D02*
X64972950Y-112502311D01*
X64972950Y-112502311D02*
X64973175Y-112423526D01*
X64973175Y-112423526D02*
X64973200Y-112361920D01*
X64973200Y-112361920D02*
X64973200Y-112052485D01*
X64973200Y-112052485D02*
X64945491Y-112024776D01*
X64945491Y-112024776D02*
X64933194Y-112013544D01*
X64933194Y-112013544D02*
X64919897Y-112005853D01*
X64919897Y-112005853D02*
X64901328Y-112001040D01*
X64901328Y-112001040D02*
X64873214Y-111998446D01*
X64873214Y-111998446D02*
X64831283Y-111997410D01*
X64831283Y-111997410D02*
X64771263Y-111997270D01*
X64771263Y-111997270D02*
X64767691Y-111997275D01*
X64767691Y-111997275D02*
X64767691Y-111997275D01*
G36*
X64969163Y-112641175D02*
G01*
X64966235Y-112664095D01*
X64962158Y-112679897D01*
X64956743Y-112691319D01*
X64949803Y-112701100D01*
X64926406Y-112730845D01*
X64760714Y-112730251D01*
X64725918Y-112729953D01*
X64627435Y-112726522D01*
X64546473Y-112718839D01*
X64479379Y-112706282D01*
X64422496Y-112688227D01*
X64372169Y-112664052D01*
X64368810Y-112662135D01*
X64310998Y-112625417D01*
X64268644Y-112588451D01*
X64235828Y-112544966D01*
X64206628Y-112488689D01*
X64202346Y-112479073D01*
X64179769Y-112415887D01*
X64174034Y-112370333D01*
X64323279Y-112370333D01*
X64328892Y-112395061D01*
X64334618Y-112410939D01*
X64367548Y-112470847D01*
X64414886Y-112516600D01*
X64478652Y-112549736D01*
X64560861Y-112571790D01*
X64563655Y-112572292D01*
X64609940Y-112578255D01*
X64666336Y-112582483D01*
X64721274Y-112584089D01*
X64815156Y-112584089D01*
X64815156Y-112143822D01*
X64727667Y-112144270D01*
X64660747Y-112146746D01*
X64568349Y-112157998D01*
X64489034Y-112177537D01*
X64427060Y-112204511D01*
X64396120Y-112225240D01*
X64368000Y-112255006D01*
X64344660Y-112297434D01*
X64337533Y-112313400D01*
X64325709Y-112345902D01*
X64323279Y-112370333D01*
X64174034Y-112370333D01*
X64172797Y-112360509D01*
X64181399Y-112305483D01*
X64205541Y-112243351D01*
X64206337Y-112241658D01*
X64246788Y-112172236D01*
X64297473Y-112115638D01*
X64360198Y-112071070D01*
X64436774Y-112037741D01*
X64529009Y-112014861D01*
X64638712Y-112001636D01*
X64767691Y-111997275D01*
X64771263Y-111997270D01*
X64831283Y-111997410D01*
X64873214Y-111998446D01*
X64901328Y-112001040D01*
X64919897Y-112005853D01*
X64933194Y-112013544D01*
X64945491Y-112024776D01*
X64973200Y-112052485D01*
X64973200Y-112361920D01*
X64973175Y-112423526D01*
X64972950Y-112502311D01*
X64972332Y-112563021D01*
X64971775Y-112584089D01*
X64971133Y-112608396D01*
X64969163Y-112641175D01*
G37*
X64969163Y-112641175D02*
X64966235Y-112664095D01*
X64962158Y-112679897D01*
X64956743Y-112691319D01*
X64949803Y-112701100D01*
X64926406Y-112730845D01*
X64760714Y-112730251D01*
X64725918Y-112729953D01*
X64627435Y-112726522D01*
X64546473Y-112718839D01*
X64479379Y-112706282D01*
X64422496Y-112688227D01*
X64372169Y-112664052D01*
X64368810Y-112662135D01*
X64310998Y-112625417D01*
X64268644Y-112588451D01*
X64235828Y-112544966D01*
X64206628Y-112488689D01*
X64202346Y-112479073D01*
X64179769Y-112415887D01*
X64174034Y-112370333D01*
X64323279Y-112370333D01*
X64328892Y-112395061D01*
X64334618Y-112410939D01*
X64367548Y-112470847D01*
X64414886Y-112516600D01*
X64478652Y-112549736D01*
X64560861Y-112571790D01*
X64563655Y-112572292D01*
X64609940Y-112578255D01*
X64666336Y-112582483D01*
X64721274Y-112584089D01*
X64815156Y-112584089D01*
X64815156Y-112143822D01*
X64727667Y-112144270D01*
X64660747Y-112146746D01*
X64568349Y-112157998D01*
X64489034Y-112177537D01*
X64427060Y-112204511D01*
X64396120Y-112225240D01*
X64368000Y-112255006D01*
X64344660Y-112297434D01*
X64337533Y-112313400D01*
X64325709Y-112345902D01*
X64323279Y-112370333D01*
X64174034Y-112370333D01*
X64172797Y-112360509D01*
X64181399Y-112305483D01*
X64205541Y-112243351D01*
X64206337Y-112241658D01*
X64246788Y-112172236D01*
X64297473Y-112115638D01*
X64360198Y-112071070D01*
X64436774Y-112037741D01*
X64529009Y-112014861D01*
X64638712Y-112001636D01*
X64767691Y-111997275D01*
X64771263Y-111997270D01*
X64831283Y-111997410D01*
X64873214Y-111998446D01*
X64901328Y-112001040D01*
X64919897Y-112005853D01*
X64933194Y-112013544D01*
X64945491Y-112024776D01*
X64973200Y-112052485D01*
X64973200Y-112361920D01*
X64973175Y-112423526D01*
X64972950Y-112502311D01*
X64972332Y-112563021D01*
X64971775Y-112584089D01*
X64971133Y-112608396D01*
X64969163Y-112641175D01*
X67086114Y-112001448D02*
X67062548Y-112015273D01*
X67062548Y-112015273D02*
X67031735Y-112037881D01*
X67031735Y-112037881D02*
X66992078Y-112070338D01*
X66992078Y-112070338D02*
X66941980Y-112113708D01*
X66941980Y-112113708D02*
X66879843Y-112169058D01*
X66879843Y-112169058D02*
X66804072Y-112237451D01*
X66804072Y-112237451D02*
X66717334Y-112316084D01*
X66717334Y-112316084D02*
X66536711Y-112479878D01*
X66536711Y-112479878D02*
X66531067Y-112260029D01*
X66531067Y-112260029D02*
X66529029Y-112184351D01*
X66529029Y-112184351D02*
X66527063Y-112127994D01*
X66527063Y-112127994D02*
X66524734Y-112087706D01*
X66524734Y-112087706D02*
X66521606Y-112060235D01*
X66521606Y-112060235D02*
X66517245Y-112042329D01*
X66517245Y-112042329D02*
X66511216Y-112030737D01*
X66511216Y-112030737D02*
X66503084Y-112022208D01*
X66503084Y-112022208D02*
X66498772Y-112018623D01*
X66498772Y-112018623D02*
X66464241Y-111999670D01*
X66464241Y-111999670D02*
X66431383Y-112002441D01*
X66431383Y-112002441D02*
X66405318Y-112018633D01*
X66405318Y-112018633D02*
X66378667Y-112040199D01*
X66378667Y-112040199D02*
X66375352Y-112355151D01*
X66375352Y-112355151D02*
X66374435Y-112447779D01*
X66374435Y-112447779D02*
X66373968Y-112520544D01*
X66373968Y-112520544D02*
X66374113Y-112576161D01*
X66374113Y-112576161D02*
X66375032Y-112617342D01*
X66375032Y-112617342D02*
X66376887Y-112646803D01*
X66376887Y-112646803D02*
X66379839Y-112667255D01*
X66379839Y-112667255D02*
X66384050Y-112681413D01*
X66384050Y-112681413D02*
X66389682Y-112691991D01*
X66389682Y-112691991D02*
X66395927Y-112700474D01*
X66395927Y-112700474D02*
X66409439Y-112716207D01*
X66409439Y-112716207D02*
X66422883Y-112726636D01*
X66422883Y-112726636D02*
X66438124Y-112730639D01*
X66438124Y-112730639D02*
X66457026Y-112727094D01*
X66457026Y-112727094D02*
X66481455Y-112714879D01*
X66481455Y-112714879D02*
X66513273Y-112692871D01*
X66513273Y-112692871D02*
X66554348Y-112659949D01*
X66554348Y-112659949D02*
X66606542Y-112614991D01*
X66606542Y-112614991D02*
X66671722Y-112556875D01*
X66671722Y-112556875D02*
X66745556Y-112490099D01*
X66745556Y-112490099D02*
X67010845Y-112249458D01*
X67010845Y-112249458D02*
X67016489Y-112468589D01*
X67016489Y-112468589D02*
X67018531Y-112544128D01*
X67018531Y-112544128D02*
X67020502Y-112600354D01*
X67020502Y-112600354D02*
X67022839Y-112640524D01*
X67022839Y-112640524D02*
X67025981Y-112667896D01*
X67025981Y-112667896D02*
X67030364Y-112685728D01*
X67030364Y-112685728D02*
X67036424Y-112697279D01*
X67036424Y-112697279D02*
X67044600Y-112705807D01*
X67044600Y-112705807D02*
X67048784Y-112709282D01*
X67048784Y-112709282D02*
X67085765Y-112728372D01*
X67085765Y-112728372D02*
X67120708Y-112725493D01*
X67120708Y-112725493D02*
X67151136Y-112701100D01*
X67151136Y-112701100D02*
X67158097Y-112691286D01*
X67158097Y-112691286D02*
X67163523Y-112679826D01*
X67163523Y-112679826D02*
X67167603Y-112663968D01*
X67167603Y-112663968D02*
X67170529Y-112640963D01*
X67170529Y-112640963D02*
X67172492Y-112608062D01*
X67172492Y-112608062D02*
X67173683Y-112562516D01*
X67173683Y-112562516D02*
X67174292Y-112501573D01*
X67174292Y-112501573D02*
X67174511Y-112422486D01*
X67174511Y-112422486D02*
X67174534Y-112363956D01*
X67174534Y-112363956D02*
X67174460Y-112272407D01*
X67174460Y-112272407D02*
X67174113Y-112200687D01*
X67174113Y-112200687D02*
X67173301Y-112146045D01*
X67173301Y-112146045D02*
X67171833Y-112105732D01*
X67171833Y-112105732D02*
X67169519Y-112076998D01*
X67169519Y-112076998D02*
X67166167Y-112057093D01*
X67166167Y-112057093D02*
X67161588Y-112043268D01*
X67161588Y-112043268D02*
X67155589Y-112032772D01*
X67155589Y-112032772D02*
X67151136Y-112026811D01*
X67151136Y-112026811D02*
X67139850Y-112012691D01*
X67139850Y-112012691D02*
X67129301Y-112002029D01*
X67129301Y-112002029D02*
X67117893Y-111995892D01*
X67117893Y-111995892D02*
X67104030Y-111995343D01*
X67104030Y-111995343D02*
X67086114Y-112001448D01*
X67086114Y-112001448D02*
X67086114Y-112001448D01*
G36*
X67117893Y-111995892D02*
G01*
X67129301Y-112002029D01*
X67139850Y-112012691D01*
X67151136Y-112026811D01*
X67155589Y-112032772D01*
X67161588Y-112043268D01*
X67166167Y-112057093D01*
X67169519Y-112076998D01*
X67171833Y-112105732D01*
X67173301Y-112146045D01*
X67174113Y-112200687D01*
X67174460Y-112272407D01*
X67174534Y-112363956D01*
X67174511Y-112422486D01*
X67174292Y-112501573D01*
X67173683Y-112562516D01*
X67172492Y-112608062D01*
X67170529Y-112640963D01*
X67167603Y-112663968D01*
X67163523Y-112679826D01*
X67158097Y-112691286D01*
X67151136Y-112701100D01*
X67120708Y-112725493D01*
X67085765Y-112728372D01*
X67048784Y-112709282D01*
X67044600Y-112705807D01*
X67036424Y-112697279D01*
X67030364Y-112685728D01*
X67025981Y-112667896D01*
X67022839Y-112640524D01*
X67020502Y-112600354D01*
X67018531Y-112544128D01*
X67016489Y-112468589D01*
X67010845Y-112249458D01*
X66745556Y-112490099D01*
X66671722Y-112556875D01*
X66606542Y-112614991D01*
X66554348Y-112659949D01*
X66513273Y-112692871D01*
X66481455Y-112714879D01*
X66457026Y-112727094D01*
X66438124Y-112730639D01*
X66422883Y-112726636D01*
X66409439Y-112716207D01*
X66395927Y-112700474D01*
X66389682Y-112691991D01*
X66384050Y-112681413D01*
X66379839Y-112667255D01*
X66376887Y-112646803D01*
X66375032Y-112617342D01*
X66374113Y-112576161D01*
X66373968Y-112520544D01*
X66374435Y-112447779D01*
X66375352Y-112355151D01*
X66378667Y-112040199D01*
X66405318Y-112018633D01*
X66431383Y-112002441D01*
X66464241Y-111999670D01*
X66498772Y-112018623D01*
X66503084Y-112022208D01*
X66511216Y-112030737D01*
X66517245Y-112042329D01*
X66521606Y-112060235D01*
X66524734Y-112087706D01*
X66527063Y-112127994D01*
X66529029Y-112184351D01*
X66531067Y-112260029D01*
X66536711Y-112479878D01*
X66717334Y-112316084D01*
X66804072Y-112237451D01*
X66879843Y-112169058D01*
X66941980Y-112113708D01*
X66992078Y-112070338D01*
X67031735Y-112037881D01*
X67062548Y-112015273D01*
X67086114Y-112001448D01*
X67104030Y-111995343D01*
X67117893Y-111995892D01*
G37*
X67117893Y-111995892D02*
X67129301Y-112002029D01*
X67139850Y-112012691D01*
X67151136Y-112026811D01*
X67155589Y-112032772D01*
X67161588Y-112043268D01*
X67166167Y-112057093D01*
X67169519Y-112076998D01*
X67171833Y-112105732D01*
X67173301Y-112146045D01*
X67174113Y-112200687D01*
X67174460Y-112272407D01*
X67174534Y-112363956D01*
X67174511Y-112422486D01*
X67174292Y-112501573D01*
X67173683Y-112562516D01*
X67172492Y-112608062D01*
X67170529Y-112640963D01*
X67167603Y-112663968D01*
X67163523Y-112679826D01*
X67158097Y-112691286D01*
X67151136Y-112701100D01*
X67120708Y-112725493D01*
X67085765Y-112728372D01*
X67048784Y-112709282D01*
X67044600Y-112705807D01*
X67036424Y-112697279D01*
X67030364Y-112685728D01*
X67025981Y-112667896D01*
X67022839Y-112640524D01*
X67020502Y-112600354D01*
X67018531Y-112544128D01*
X67016489Y-112468589D01*
X67010845Y-112249458D01*
X66745556Y-112490099D01*
X66671722Y-112556875D01*
X66606542Y-112614991D01*
X66554348Y-112659949D01*
X66513273Y-112692871D01*
X66481455Y-112714879D01*
X66457026Y-112727094D01*
X66438124Y-112730639D01*
X66422883Y-112726636D01*
X66409439Y-112716207D01*
X66395927Y-112700474D01*
X66389682Y-112691991D01*
X66384050Y-112681413D01*
X66379839Y-112667255D01*
X66376887Y-112646803D01*
X66375032Y-112617342D01*
X66374113Y-112576161D01*
X66373968Y-112520544D01*
X66374435Y-112447779D01*
X66375352Y-112355151D01*
X66378667Y-112040199D01*
X66405318Y-112018633D01*
X66431383Y-112002441D01*
X66464241Y-111999670D01*
X66498772Y-112018623D01*
X66503084Y-112022208D01*
X66511216Y-112030737D01*
X66517245Y-112042329D01*
X66521606Y-112060235D01*
X66524734Y-112087706D01*
X66527063Y-112127994D01*
X66529029Y-112184351D01*
X66531067Y-112260029D01*
X66536711Y-112479878D01*
X66717334Y-112316084D01*
X66804072Y-112237451D01*
X66879843Y-112169058D01*
X66941980Y-112113708D01*
X66992078Y-112070338D01*
X67031735Y-112037881D01*
X67062548Y-112015273D01*
X67086114Y-112001448D01*
X67104030Y-111995343D01*
X67117893Y-111995892D01*
X69477703Y-111998351D02*
X69402888Y-112003581D01*
X69402888Y-112003581D02*
X69333306Y-112011750D01*
X69333306Y-112011750D02*
X69273002Y-112022550D01*
X69273002Y-112022550D02*
X69226020Y-112035673D01*
X69226020Y-112035673D02*
X69196406Y-112050813D01*
X69196406Y-112050813D02*
X69191860Y-112055269D01*
X69191860Y-112055269D02*
X69176054Y-112089850D01*
X69176054Y-112089850D02*
X69180847Y-112125351D01*
X69180847Y-112125351D02*
X69205364Y-112155725D01*
X69205364Y-112155725D02*
X69206534Y-112156596D01*
X69206534Y-112156596D02*
X69220954Y-112165954D01*
X69220954Y-112165954D02*
X69236008Y-112170876D01*
X69236008Y-112170876D02*
X69257005Y-112171473D01*
X69257005Y-112171473D02*
X69289257Y-112167861D01*
X69289257Y-112167861D02*
X69338073Y-112160154D01*
X69338073Y-112160154D02*
X69342000Y-112159505D01*
X69342000Y-112159505D02*
X69414739Y-112150569D01*
X69414739Y-112150569D02*
X69493217Y-112146161D01*
X69493217Y-112146161D02*
X69571927Y-112146119D01*
X69571927Y-112146119D02*
X69645361Y-112150279D01*
X69645361Y-112150279D02*
X69708011Y-112158479D01*
X69708011Y-112158479D02*
X69754370Y-112170557D01*
X69754370Y-112170557D02*
X69757416Y-112171771D01*
X69757416Y-112171771D02*
X69791048Y-112190615D01*
X69791048Y-112190615D02*
X69802864Y-112209685D01*
X69802864Y-112209685D02*
X69793614Y-112228439D01*
X69793614Y-112228439D02*
X69764047Y-112246337D01*
X69764047Y-112246337D02*
X69714911Y-112262837D01*
X69714911Y-112262837D02*
X69646957Y-112277396D01*
X69646957Y-112277396D02*
X69601645Y-112284406D01*
X69601645Y-112284406D02*
X69507456Y-112297889D01*
X69507456Y-112297889D02*
X69432544Y-112310214D01*
X69432544Y-112310214D02*
X69373717Y-112322449D01*
X69373717Y-112322449D02*
X69327785Y-112335661D01*
X69327785Y-112335661D02*
X69291555Y-112350917D01*
X69291555Y-112350917D02*
X69261838Y-112369285D01*
X69261838Y-112369285D02*
X69235442Y-112391831D01*
X69235442Y-112391831D02*
X69214230Y-112413971D01*
X69214230Y-112413971D02*
X69189065Y-112444819D01*
X69189065Y-112444819D02*
X69176681Y-112471345D01*
X69176681Y-112471345D02*
X69172808Y-112504026D01*
X69172808Y-112504026D02*
X69172667Y-112515995D01*
X69172667Y-112515995D02*
X69175576Y-112555712D01*
X69175576Y-112555712D02*
X69187202Y-112585259D01*
X69187202Y-112585259D02*
X69207323Y-112611486D01*
X69207323Y-112611486D02*
X69248216Y-112651576D01*
X69248216Y-112651576D02*
X69293817Y-112682149D01*
X69293817Y-112682149D02*
X69347513Y-112704203D01*
X69347513Y-112704203D02*
X69412692Y-112718735D01*
X69412692Y-112718735D02*
X69492744Y-112726741D01*
X69492744Y-112726741D02*
X69591057Y-112729218D01*
X69591057Y-112729218D02*
X69607289Y-112729177D01*
X69607289Y-112729177D02*
X69672849Y-112727818D01*
X69672849Y-112727818D02*
X69737866Y-112724730D01*
X69737866Y-112724730D02*
X69795252Y-112720356D01*
X69795252Y-112720356D02*
X69837922Y-112715140D01*
X69837922Y-112715140D02*
X69841372Y-112714541D01*
X69841372Y-112714541D02*
X69883796Y-112704491D01*
X69883796Y-112704491D02*
X69919780Y-112691796D01*
X69919780Y-112691796D02*
X69940150Y-112680190D01*
X69940150Y-112680190D02*
X69959107Y-112649572D01*
X69959107Y-112649572D02*
X69960427Y-112613918D01*
X69960427Y-112613918D02*
X69944085Y-112582144D01*
X69944085Y-112582144D02*
X69940429Y-112578551D01*
X69940429Y-112578551D02*
X69925315Y-112567876D01*
X69925315Y-112567876D02*
X69906415Y-112563276D01*
X69906415Y-112563276D02*
X69877162Y-112564059D01*
X69877162Y-112564059D02*
X69841651Y-112568127D01*
X69841651Y-112568127D02*
X69801970Y-112571762D01*
X69801970Y-112571762D02*
X69746345Y-112574828D01*
X69746345Y-112574828D02*
X69681406Y-112577053D01*
X69681406Y-112577053D02*
X69613785Y-112578164D01*
X69613785Y-112578164D02*
X69596000Y-112578237D01*
X69596000Y-112578237D02*
X69528128Y-112577964D01*
X69528128Y-112577964D02*
X69478454Y-112576646D01*
X69478454Y-112576646D02*
X69442610Y-112573827D01*
X69442610Y-112573827D02*
X69416224Y-112569050D01*
X69416224Y-112569050D02*
X69394926Y-112561857D01*
X69394926Y-112561857D02*
X69382126Y-112555867D01*
X69382126Y-112555867D02*
X69354000Y-112539233D01*
X69354000Y-112539233D02*
X69336068Y-112524168D01*
X69336068Y-112524168D02*
X69333447Y-112519897D01*
X69333447Y-112519897D02*
X69338976Y-112502263D01*
X69338976Y-112502263D02*
X69365260Y-112485192D01*
X69365260Y-112485192D02*
X69410478Y-112469458D01*
X69410478Y-112469458D02*
X69472808Y-112455838D01*
X69472808Y-112455838D02*
X69491171Y-112452804D01*
X69491171Y-112452804D02*
X69587090Y-112437738D01*
X69587090Y-112437738D02*
X69663641Y-112425146D01*
X69663641Y-112425146D02*
X69723780Y-112414111D01*
X69723780Y-112414111D02*
X69770460Y-112403720D01*
X69770460Y-112403720D02*
X69806637Y-112393056D01*
X69806637Y-112393056D02*
X69835265Y-112381205D01*
X69835265Y-112381205D02*
X69859298Y-112367251D01*
X69859298Y-112367251D02*
X69881692Y-112350281D01*
X69881692Y-112350281D02*
X69905402Y-112329378D01*
X69905402Y-112329378D02*
X69913380Y-112322049D01*
X69913380Y-112322049D02*
X69941353Y-112294699D01*
X69941353Y-112294699D02*
X69956160Y-112273029D01*
X69956160Y-112273029D02*
X69961952Y-112248232D01*
X69961952Y-112248232D02*
X69962889Y-112216983D01*
X69962889Y-112216983D02*
X69952575Y-112155705D01*
X69952575Y-112155705D02*
X69921752Y-112103640D01*
X69921752Y-112103640D02*
X69870595Y-112060958D01*
X69870595Y-112060958D02*
X69799283Y-112027825D01*
X69799283Y-112027825D02*
X69748400Y-112012964D01*
X69748400Y-112012964D02*
X69693100Y-112003366D01*
X69693100Y-112003366D02*
X69626853Y-111997936D01*
X69626853Y-111997936D02*
X69553706Y-111996367D01*
X69553706Y-111996367D02*
X69477703Y-111998351D01*
X69477703Y-111998351D02*
X69477703Y-111998351D01*
G36*
X69626853Y-111997936D02*
G01*
X69693100Y-112003366D01*
X69748400Y-112012964D01*
X69799283Y-112027825D01*
X69870595Y-112060958D01*
X69921752Y-112103640D01*
X69952575Y-112155705D01*
X69962889Y-112216983D01*
X69961952Y-112248232D01*
X69956160Y-112273029D01*
X69941353Y-112294699D01*
X69913380Y-112322049D01*
X69905402Y-112329378D01*
X69881692Y-112350281D01*
X69859298Y-112367251D01*
X69835265Y-112381205D01*
X69806637Y-112393056D01*
X69770460Y-112403720D01*
X69723780Y-112414111D01*
X69663641Y-112425146D01*
X69587090Y-112437738D01*
X69491171Y-112452804D01*
X69472808Y-112455838D01*
X69410478Y-112469458D01*
X69365260Y-112485192D01*
X69338976Y-112502263D01*
X69333447Y-112519897D01*
X69336068Y-112524168D01*
X69354000Y-112539233D01*
X69382126Y-112555867D01*
X69394926Y-112561857D01*
X69416224Y-112569050D01*
X69442610Y-112573827D01*
X69478454Y-112576646D01*
X69528128Y-112577964D01*
X69596000Y-112578237D01*
X69613785Y-112578164D01*
X69681406Y-112577053D01*
X69746345Y-112574828D01*
X69801970Y-112571762D01*
X69841651Y-112568127D01*
X69877162Y-112564059D01*
X69906415Y-112563276D01*
X69925315Y-112567876D01*
X69940429Y-112578551D01*
X69944085Y-112582144D01*
X69960427Y-112613918D01*
X69959107Y-112649572D01*
X69940150Y-112680190D01*
X69919780Y-112691796D01*
X69883796Y-112704491D01*
X69841372Y-112714541D01*
X69837922Y-112715140D01*
X69795252Y-112720356D01*
X69737866Y-112724730D01*
X69672849Y-112727818D01*
X69607289Y-112729177D01*
X69591057Y-112729218D01*
X69492744Y-112726741D01*
X69412692Y-112718735D01*
X69347513Y-112704203D01*
X69293817Y-112682149D01*
X69248216Y-112651576D01*
X69207323Y-112611486D01*
X69187202Y-112585259D01*
X69175576Y-112555712D01*
X69172667Y-112515995D01*
X69172808Y-112504026D01*
X69176681Y-112471345D01*
X69189065Y-112444819D01*
X69214230Y-112413971D01*
X69235442Y-112391831D01*
X69261838Y-112369285D01*
X69291555Y-112350917D01*
X69327785Y-112335661D01*
X69373717Y-112322449D01*
X69432544Y-112310214D01*
X69507456Y-112297889D01*
X69601645Y-112284406D01*
X69646957Y-112277396D01*
X69714911Y-112262837D01*
X69764047Y-112246337D01*
X69793614Y-112228439D01*
X69802864Y-112209685D01*
X69791048Y-112190615D01*
X69757416Y-112171771D01*
X69754370Y-112170557D01*
X69708011Y-112158479D01*
X69645361Y-112150279D01*
X69571927Y-112146119D01*
X69493217Y-112146161D01*
X69414739Y-112150569D01*
X69342000Y-112159505D01*
X69338073Y-112160154D01*
X69289257Y-112167861D01*
X69257005Y-112171473D01*
X69236008Y-112170876D01*
X69220954Y-112165954D01*
X69206534Y-112156596D01*
X69205364Y-112155725D01*
X69180847Y-112125351D01*
X69176054Y-112089850D01*
X69191860Y-112055269D01*
X69196406Y-112050813D01*
X69226020Y-112035673D01*
X69273002Y-112022550D01*
X69333306Y-112011750D01*
X69402888Y-112003581D01*
X69477703Y-111998351D01*
X69553706Y-111996367D01*
X69626853Y-111997936D01*
G37*
X69626853Y-111997936D02*
X69693100Y-112003366D01*
X69748400Y-112012964D01*
X69799283Y-112027825D01*
X69870595Y-112060958D01*
X69921752Y-112103640D01*
X69952575Y-112155705D01*
X69962889Y-112216983D01*
X69961952Y-112248232D01*
X69956160Y-112273029D01*
X69941353Y-112294699D01*
X69913380Y-112322049D01*
X69905402Y-112329378D01*
X69881692Y-112350281D01*
X69859298Y-112367251D01*
X69835265Y-112381205D01*
X69806637Y-112393056D01*
X69770460Y-112403720D01*
X69723780Y-112414111D01*
X69663641Y-112425146D01*
X69587090Y-112437738D01*
X69491171Y-112452804D01*
X69472808Y-112455838D01*
X69410478Y-112469458D01*
X69365260Y-112485192D01*
X69338976Y-112502263D01*
X69333447Y-112519897D01*
X69336068Y-112524168D01*
X69354000Y-112539233D01*
X69382126Y-112555867D01*
X69394926Y-112561857D01*
X69416224Y-112569050D01*
X69442610Y-112573827D01*
X69478454Y-112576646D01*
X69528128Y-112577964D01*
X69596000Y-112578237D01*
X69613785Y-112578164D01*
X69681406Y-112577053D01*
X69746345Y-112574828D01*
X69801970Y-112571762D01*
X69841651Y-112568127D01*
X69877162Y-112564059D01*
X69906415Y-112563276D01*
X69925315Y-112567876D01*
X69940429Y-112578551D01*
X69944085Y-112582144D01*
X69960427Y-112613918D01*
X69959107Y-112649572D01*
X69940150Y-112680190D01*
X69919780Y-112691796D01*
X69883796Y-112704491D01*
X69841372Y-112714541D01*
X69837922Y-112715140D01*
X69795252Y-112720356D01*
X69737866Y-112724730D01*
X69672849Y-112727818D01*
X69607289Y-112729177D01*
X69591057Y-112729218D01*
X69492744Y-112726741D01*
X69412692Y-112718735D01*
X69347513Y-112704203D01*
X69293817Y-112682149D01*
X69248216Y-112651576D01*
X69207323Y-112611486D01*
X69187202Y-112585259D01*
X69175576Y-112555712D01*
X69172667Y-112515995D01*
X69172808Y-112504026D01*
X69176681Y-112471345D01*
X69189065Y-112444819D01*
X69214230Y-112413971D01*
X69235442Y-112391831D01*
X69261838Y-112369285D01*
X69291555Y-112350917D01*
X69327785Y-112335661D01*
X69373717Y-112322449D01*
X69432544Y-112310214D01*
X69507456Y-112297889D01*
X69601645Y-112284406D01*
X69646957Y-112277396D01*
X69714911Y-112262837D01*
X69764047Y-112246337D01*
X69793614Y-112228439D01*
X69802864Y-112209685D01*
X69791048Y-112190615D01*
X69757416Y-112171771D01*
X69754370Y-112170557D01*
X69708011Y-112158479D01*
X69645361Y-112150279D01*
X69571927Y-112146119D01*
X69493217Y-112146161D01*
X69414739Y-112150569D01*
X69342000Y-112159505D01*
X69338073Y-112160154D01*
X69289257Y-112167861D01*
X69257005Y-112171473D01*
X69236008Y-112170876D01*
X69220954Y-112165954D01*
X69206534Y-112156596D01*
X69205364Y-112155725D01*
X69180847Y-112125351D01*
X69176054Y-112089850D01*
X69191860Y-112055269D01*
X69196406Y-112050813D01*
X69226020Y-112035673D01*
X69273002Y-112022550D01*
X69333306Y-112011750D01*
X69402888Y-112003581D01*
X69477703Y-111998351D01*
X69553706Y-111996367D01*
X69626853Y-111997936D01*
X71907371Y-111997066D02*
X71867889Y-111997467D01*
X71867889Y-111997467D02*
X71752200Y-112000259D01*
X71752200Y-112000259D02*
X71655311Y-112008550D01*
X71655311Y-112008550D02*
X71573919Y-112023232D01*
X71573919Y-112023232D02*
X71504723Y-112045193D01*
X71504723Y-112045193D02*
X71444420Y-112075322D01*
X71444420Y-112075322D02*
X71389708Y-112114510D01*
X71389708Y-112114510D02*
X71370167Y-112131532D01*
X71370167Y-112131532D02*
X71337750Y-112171363D01*
X71337750Y-112171363D02*
X71308520Y-112225413D01*
X71308520Y-112225413D02*
X71285991Y-112285323D01*
X71285991Y-112285323D02*
X71273679Y-112342739D01*
X71273679Y-112342739D02*
X71272400Y-112363956D01*
X71272400Y-112363956D02*
X71280417Y-112422769D01*
X71280417Y-112422769D02*
X71301899Y-112487013D01*
X71301899Y-112487013D02*
X71332999Y-112547821D01*
X71332999Y-112547821D02*
X71369866Y-112596330D01*
X71369866Y-112596330D02*
X71375854Y-112602182D01*
X71375854Y-112602182D02*
X71426579Y-112643321D01*
X71426579Y-112643321D02*
X71482125Y-112675435D01*
X71482125Y-112675435D02*
X71545696Y-112699365D01*
X71545696Y-112699365D02*
X71620494Y-112715953D01*
X71620494Y-112715953D02*
X71709722Y-112726041D01*
X71709722Y-112726041D02*
X71816582Y-112730469D01*
X71816582Y-112730469D02*
X71865528Y-112730845D01*
X71865528Y-112730845D02*
X71927762Y-112730545D01*
X71927762Y-112730545D02*
X71971528Y-112729292D01*
X71971528Y-112729292D02*
X72000931Y-112726554D01*
X72000931Y-112726554D02*
X72020079Y-112721801D01*
X72020079Y-112721801D02*
X72033077Y-112714501D01*
X72033077Y-112714501D02*
X72040045Y-112708267D01*
X72040045Y-112708267D02*
X72046626Y-112700694D01*
X72046626Y-112700694D02*
X72051788Y-112690924D01*
X72051788Y-112690924D02*
X72055703Y-112676340D01*
X72055703Y-112676340D02*
X72058543Y-112654326D01*
X72058543Y-112654326D02*
X72060480Y-112622264D01*
X72060480Y-112622264D02*
X72061684Y-112577536D01*
X72061684Y-112577536D02*
X72062328Y-112517526D01*
X72062328Y-112517526D02*
X72062583Y-112439617D01*
X72062583Y-112439617D02*
X72062622Y-112363956D01*
X72062622Y-112363956D02*
X72062870Y-112263041D01*
X72062870Y-112263041D02*
X72062817Y-112182427D01*
X72062817Y-112182427D02*
X72061857Y-112143822D01*
X72061857Y-112143822D02*
X71915867Y-112143822D01*
X71915867Y-112143822D02*
X71915867Y-112584089D01*
X71915867Y-112584089D02*
X71822734Y-112584004D01*
X71822734Y-112584004D02*
X71766693Y-112582396D01*
X71766693Y-112582396D02*
X71707999Y-112578256D01*
X71707999Y-112578256D02*
X71659028Y-112572464D01*
X71659028Y-112572464D02*
X71657538Y-112572226D01*
X71657538Y-112572226D02*
X71578392Y-112553090D01*
X71578392Y-112553090D02*
X71517002Y-112523287D01*
X71517002Y-112523287D02*
X71470305Y-112480878D01*
X71470305Y-112480878D02*
X71440635Y-112434961D01*
X71440635Y-112434961D02*
X71422353Y-112384026D01*
X71422353Y-112384026D02*
X71423771Y-112336200D01*
X71423771Y-112336200D02*
X71444988Y-112284933D01*
X71444988Y-112284933D02*
X71486489Y-112231899D01*
X71486489Y-112231899D02*
X71543998Y-112192600D01*
X71543998Y-112192600D02*
X71618750Y-112166331D01*
X71618750Y-112166331D02*
X71668708Y-112157035D01*
X71668708Y-112157035D02*
X71725416Y-112150507D01*
X71725416Y-112150507D02*
X71785519Y-112145782D01*
X71785519Y-112145782D02*
X71836639Y-112143817D01*
X71836639Y-112143817D02*
X71839667Y-112143808D01*
X71839667Y-112143808D02*
X71915867Y-112143822D01*
X71915867Y-112143822D02*
X72061857Y-112143822D01*
X72061857Y-112143822D02*
X72061260Y-112119851D01*
X72061260Y-112119851D02*
X72056998Y-112073055D01*
X72056998Y-112073055D02*
X72048830Y-112039778D01*
X72048830Y-112039778D02*
X72035556Y-112017759D01*
X72035556Y-112017759D02*
X72015974Y-112004739D01*
X72015974Y-112004739D02*
X71988883Y-111998457D01*
X71988883Y-111998457D02*
X71953082Y-111996653D01*
X71953082Y-111996653D02*
X71907371Y-111997066D01*
X71907371Y-111997066D02*
X71907371Y-111997066D01*
G36*
X72062870Y-112263041D02*
G01*
X72062622Y-112363956D01*
X72062583Y-112439617D01*
X72062328Y-112517526D01*
X72061684Y-112577536D01*
X72060480Y-112622264D01*
X72058543Y-112654326D01*
X72055703Y-112676340D01*
X72051788Y-112690924D01*
X72046626Y-112700694D01*
X72040045Y-112708267D01*
X72033077Y-112714501D01*
X72020079Y-112721801D01*
X72000931Y-112726554D01*
X71971528Y-112729292D01*
X71927762Y-112730545D01*
X71865528Y-112730845D01*
X71816582Y-112730469D01*
X71709722Y-112726041D01*
X71620494Y-112715953D01*
X71545696Y-112699365D01*
X71482125Y-112675435D01*
X71426579Y-112643321D01*
X71375854Y-112602182D01*
X71369866Y-112596330D01*
X71332999Y-112547821D01*
X71301899Y-112487013D01*
X71280417Y-112422769D01*
X71275136Y-112384026D01*
X71422353Y-112384026D01*
X71440635Y-112434961D01*
X71470305Y-112480878D01*
X71517002Y-112523287D01*
X71578392Y-112553090D01*
X71657538Y-112572226D01*
X71659028Y-112572464D01*
X71707999Y-112578256D01*
X71766693Y-112582396D01*
X71822734Y-112584004D01*
X71915867Y-112584089D01*
X71915867Y-112143822D01*
X71839667Y-112143808D01*
X71836639Y-112143817D01*
X71785519Y-112145782D01*
X71725416Y-112150507D01*
X71668708Y-112157035D01*
X71618750Y-112166331D01*
X71543998Y-112192600D01*
X71486489Y-112231899D01*
X71444988Y-112284933D01*
X71423771Y-112336200D01*
X71422353Y-112384026D01*
X71275136Y-112384026D01*
X71272400Y-112363956D01*
X71273679Y-112342739D01*
X71285991Y-112285323D01*
X71308520Y-112225413D01*
X71337750Y-112171363D01*
X71370167Y-112131532D01*
X71389708Y-112114510D01*
X71444420Y-112075322D01*
X71504723Y-112045193D01*
X71573919Y-112023232D01*
X71655311Y-112008550D01*
X71752200Y-112000259D01*
X71867889Y-111997467D01*
X71907371Y-111997066D01*
X71953082Y-111996653D01*
X71988883Y-111998457D01*
X72015974Y-112004739D01*
X72035556Y-112017759D01*
X72048830Y-112039778D01*
X72056998Y-112073055D01*
X72061260Y-112119851D01*
X72061857Y-112143822D01*
X72062817Y-112182427D01*
X72062870Y-112263041D01*
G37*
X72062870Y-112263041D02*
X72062622Y-112363956D01*
X72062583Y-112439617D01*
X72062328Y-112517526D01*
X72061684Y-112577536D01*
X72060480Y-112622264D01*
X72058543Y-112654326D01*
X72055703Y-112676340D01*
X72051788Y-112690924D01*
X72046626Y-112700694D01*
X72040045Y-112708267D01*
X72033077Y-112714501D01*
X72020079Y-112721801D01*
X72000931Y-112726554D01*
X71971528Y-112729292D01*
X71927762Y-112730545D01*
X71865528Y-112730845D01*
X71816582Y-112730469D01*
X71709722Y-112726041D01*
X71620494Y-112715953D01*
X71545696Y-112699365D01*
X71482125Y-112675435D01*
X71426579Y-112643321D01*
X71375854Y-112602182D01*
X71369866Y-112596330D01*
X71332999Y-112547821D01*
X71301899Y-112487013D01*
X71280417Y-112422769D01*
X71275136Y-112384026D01*
X71422353Y-112384026D01*
X71440635Y-112434961D01*
X71470305Y-112480878D01*
X71517002Y-112523287D01*
X71578392Y-112553090D01*
X71657538Y-112572226D01*
X71659028Y-112572464D01*
X71707999Y-112578256D01*
X71766693Y-112582396D01*
X71822734Y-112584004D01*
X71915867Y-112584089D01*
X71915867Y-112143822D01*
X71839667Y-112143808D01*
X71836639Y-112143817D01*
X71785519Y-112145782D01*
X71725416Y-112150507D01*
X71668708Y-112157035D01*
X71618750Y-112166331D01*
X71543998Y-112192600D01*
X71486489Y-112231899D01*
X71444988Y-112284933D01*
X71423771Y-112336200D01*
X71422353Y-112384026D01*
X71275136Y-112384026D01*
X71272400Y-112363956D01*
X71273679Y-112342739D01*
X71285991Y-112285323D01*
X71308520Y-112225413D01*
X71337750Y-112171363D01*
X71370167Y-112131532D01*
X71389708Y-112114510D01*
X71444420Y-112075322D01*
X71504723Y-112045193D01*
X71573919Y-112023232D01*
X71655311Y-112008550D01*
X71752200Y-112000259D01*
X71867889Y-111997467D01*
X71907371Y-111997066D01*
X71953082Y-111996653D01*
X71988883Y-111998457D01*
X72015974Y-112004739D01*
X72035556Y-112017759D01*
X72048830Y-112039778D01*
X72056998Y-112073055D01*
X72061260Y-112119851D01*
X72061857Y-112143822D01*
X72062817Y-112182427D01*
X72062870Y-112263041D01*
X62041335Y-111999034D02*
X62021745Y-112006035D01*
X62021745Y-112006035D02*
X62020990Y-112006377D01*
X62020990Y-112006377D02*
X61994387Y-112026678D01*
X61994387Y-112026678D02*
X61979730Y-112047561D01*
X61979730Y-112047561D02*
X61976862Y-112057352D01*
X61976862Y-112057352D02*
X61977004Y-112070361D01*
X61977004Y-112070361D02*
X61981039Y-112088895D01*
X61981039Y-112088895D02*
X61989854Y-112115257D01*
X61989854Y-112115257D02*
X62004331Y-112151752D01*
X62004331Y-112151752D02*
X62025355Y-112200687D01*
X62025355Y-112200687D02*
X62053812Y-112264365D01*
X62053812Y-112264365D02*
X62090585Y-112345093D01*
X62090585Y-112345093D02*
X62110825Y-112389216D01*
X62110825Y-112389216D02*
X62147375Y-112467985D01*
X62147375Y-112467985D02*
X62181685Y-112540423D01*
X62181685Y-112540423D02*
X62212448Y-112603880D01*
X62212448Y-112603880D02*
X62238352Y-112655708D01*
X62238352Y-112655708D02*
X62258090Y-112693259D01*
X62258090Y-112693259D02*
X62270350Y-112713884D01*
X62270350Y-112713884D02*
X62272776Y-112716733D01*
X62272776Y-112716733D02*
X62303817Y-112729302D01*
X62303817Y-112729302D02*
X62338879Y-112727619D01*
X62338879Y-112727619D02*
X62367000Y-112712332D01*
X62367000Y-112712332D02*
X62368146Y-112711089D01*
X62368146Y-112711089D02*
X62379332Y-112694154D01*
X62379332Y-112694154D02*
X62398096Y-112661170D01*
X62398096Y-112661170D02*
X62422125Y-112616380D01*
X62422125Y-112616380D02*
X62449103Y-112564032D01*
X62449103Y-112564032D02*
X62458799Y-112544742D01*
X62458799Y-112544742D02*
X62531986Y-112398150D01*
X62531986Y-112398150D02*
X62611760Y-112557393D01*
X62611760Y-112557393D02*
X62640233Y-112612415D01*
X62640233Y-112612415D02*
X62666650Y-112660132D01*
X62666650Y-112660132D02*
X62688852Y-112696893D01*
X62688852Y-112696893D02*
X62704681Y-112719044D01*
X62704681Y-112719044D02*
X62710046Y-112723741D01*
X62710046Y-112723741D02*
X62751743Y-112730102D01*
X62751743Y-112730102D02*
X62786151Y-112716733D01*
X62786151Y-112716733D02*
X62796272Y-112702446D01*
X62796272Y-112702446D02*
X62813786Y-112670692D01*
X62813786Y-112670692D02*
X62837265Y-112624597D01*
X62837265Y-112624597D02*
X62865280Y-112567285D01*
X62865280Y-112567285D02*
X62896401Y-112501880D01*
X62896401Y-112501880D02*
X62929201Y-112431507D01*
X62929201Y-112431507D02*
X62962250Y-112359291D01*
X62962250Y-112359291D02*
X62994119Y-112288355D01*
X62994119Y-112288355D02*
X63023381Y-112221825D01*
X63023381Y-112221825D02*
X63048605Y-112162826D01*
X63048605Y-112162826D02*
X63068364Y-112114481D01*
X63068364Y-112114481D02*
X63081228Y-112079915D01*
X63081228Y-112079915D02*
X63085769Y-112062253D01*
X63085769Y-112062253D02*
X63085723Y-112061613D01*
X63085723Y-112061613D02*
X63074674Y-112039388D01*
X63074674Y-112039388D02*
X63052590Y-112016753D01*
X63052590Y-112016753D02*
X63051290Y-112015768D01*
X63051290Y-112015768D02*
X63024147Y-112000425D01*
X63024147Y-112000425D02*
X62999042Y-112000574D01*
X62999042Y-112000574D02*
X62989632Y-112003466D01*
X62989632Y-112003466D02*
X62978166Y-112009718D01*
X62978166Y-112009718D02*
X62965990Y-112022014D01*
X62965990Y-112022014D02*
X62951643Y-112042908D01*
X62951643Y-112042908D02*
X62933664Y-112074949D01*
X62933664Y-112074949D02*
X62910593Y-112120688D01*
X62910593Y-112120688D02*
X62880970Y-112182677D01*
X62880970Y-112182677D02*
X62854255Y-112239898D01*
X62854255Y-112239898D02*
X62823520Y-112306226D01*
X62823520Y-112306226D02*
X62795979Y-112365874D01*
X62795979Y-112365874D02*
X62773062Y-112415725D01*
X62773062Y-112415725D02*
X62756202Y-112452664D01*
X62756202Y-112452664D02*
X62746827Y-112473573D01*
X62746827Y-112473573D02*
X62745460Y-112476845D01*
X62745460Y-112476845D02*
X62739311Y-112471497D01*
X62739311Y-112471497D02*
X62725178Y-112449109D01*
X62725178Y-112449109D02*
X62704943Y-112412946D01*
X62704943Y-112412946D02*
X62680485Y-112366277D01*
X62680485Y-112366277D02*
X62670752Y-112347022D01*
X62670752Y-112347022D02*
X62637783Y-112282004D01*
X62637783Y-112282004D02*
X62612357Y-112234654D01*
X62612357Y-112234654D02*
X62592388Y-112202219D01*
X62592388Y-112202219D02*
X62575790Y-112181946D01*
X62575790Y-112181946D02*
X62560476Y-112171082D01*
X62560476Y-112171082D02*
X62544360Y-112166875D01*
X62544360Y-112166875D02*
X62533857Y-112166400D01*
X62533857Y-112166400D02*
X62515330Y-112168042D01*
X62515330Y-112168042D02*
X62499096Y-112174831D01*
X62499096Y-112174831D02*
X62482965Y-112189566D01*
X62482965Y-112189566D02*
X62464749Y-112215044D01*
X62464749Y-112215044D02*
X62442261Y-112254061D01*
X62442261Y-112254061D02*
X62413311Y-112309414D01*
X62413311Y-112309414D02*
X62397338Y-112340903D01*
X62397338Y-112340903D02*
X62371430Y-112391087D01*
X62371430Y-112391087D02*
X62348833Y-112432704D01*
X62348833Y-112432704D02*
X62331542Y-112462242D01*
X62331542Y-112462242D02*
X62321550Y-112476189D01*
X62321550Y-112476189D02*
X62320191Y-112476770D01*
X62320191Y-112476770D02*
X62313739Y-112465793D01*
X62313739Y-112465793D02*
X62299292Y-112437290D01*
X62299292Y-112437290D02*
X62278297Y-112394244D01*
X62278297Y-112394244D02*
X62252203Y-112339638D01*
X62252203Y-112339638D02*
X62222454Y-112276454D01*
X62222454Y-112276454D02*
X62207820Y-112245071D01*
X62207820Y-112245071D02*
X62169750Y-112164078D01*
X62169750Y-112164078D02*
X62139095Y-112101756D01*
X62139095Y-112101756D02*
X62114263Y-112056071D01*
X62114263Y-112056071D02*
X62093663Y-112024989D01*
X62093663Y-112024989D02*
X62075702Y-112006478D01*
X62075702Y-112006478D02*
X62058790Y-111998504D01*
X62058790Y-111998504D02*
X62041335Y-111999034D01*
X62041335Y-111999034D02*
X62041335Y-111999034D01*
G36*
X62075702Y-112006478D02*
G01*
X62093663Y-112024989D01*
X62114263Y-112056071D01*
X62139095Y-112101756D01*
X62169750Y-112164078D01*
X62207820Y-112245071D01*
X62222454Y-112276454D01*
X62252203Y-112339638D01*
X62278297Y-112394244D01*
X62299292Y-112437290D01*
X62313739Y-112465793D01*
X62320191Y-112476770D01*
X62321550Y-112476189D01*
X62331542Y-112462242D01*
X62348833Y-112432704D01*
X62371430Y-112391087D01*
X62397338Y-112340903D01*
X62413311Y-112309414D01*
X62442261Y-112254061D01*
X62464749Y-112215044D01*
X62482965Y-112189566D01*
X62499096Y-112174831D01*
X62515330Y-112168042D01*
X62533857Y-112166400D01*
X62544360Y-112166875D01*
X62560476Y-112171082D01*
X62575790Y-112181946D01*
X62592388Y-112202219D01*
X62612357Y-112234654D01*
X62637783Y-112282004D01*
X62670752Y-112347022D01*
X62680485Y-112366277D01*
X62704943Y-112412946D01*
X62725178Y-112449109D01*
X62739311Y-112471497D01*
X62745460Y-112476845D01*
X62746827Y-112473573D01*
X62756202Y-112452664D01*
X62773062Y-112415725D01*
X62795979Y-112365874D01*
X62823520Y-112306226D01*
X62854255Y-112239898D01*
X62880970Y-112182677D01*
X62910593Y-112120688D01*
X62933664Y-112074949D01*
X62951643Y-112042908D01*
X62965990Y-112022014D01*
X62978166Y-112009718D01*
X62989632Y-112003466D01*
X62999042Y-112000574D01*
X63024147Y-112000425D01*
X63051290Y-112015768D01*
X63052590Y-112016753D01*
X63074674Y-112039388D01*
X63085723Y-112061613D01*
X63085769Y-112062253D01*
X63081228Y-112079915D01*
X63068364Y-112114481D01*
X63048605Y-112162826D01*
X63023381Y-112221825D01*
X62994119Y-112288355D01*
X62962250Y-112359291D01*
X62929201Y-112431507D01*
X62896401Y-112501880D01*
X62865280Y-112567285D01*
X62837265Y-112624597D01*
X62813786Y-112670692D01*
X62796272Y-112702446D01*
X62786151Y-112716733D01*
X62751743Y-112730102D01*
X62710046Y-112723741D01*
X62704681Y-112719044D01*
X62688852Y-112696893D01*
X62666650Y-112660132D01*
X62640233Y-112612415D01*
X62611760Y-112557393D01*
X62531986Y-112398150D01*
X62458799Y-112544742D01*
X62449103Y-112564032D01*
X62422125Y-112616380D01*
X62398096Y-112661170D01*
X62379332Y-112694154D01*
X62368146Y-112711089D01*
X62367000Y-112712332D01*
X62338879Y-112727619D01*
X62303817Y-112729302D01*
X62272776Y-112716733D01*
X62270350Y-112713884D01*
X62258090Y-112693259D01*
X62238352Y-112655708D01*
X62212448Y-112603880D01*
X62181685Y-112540423D01*
X62147375Y-112467985D01*
X62110825Y-112389216D01*
X62090585Y-112345093D01*
X62053812Y-112264365D01*
X62025355Y-112200687D01*
X62004331Y-112151752D01*
X61989854Y-112115257D01*
X61981039Y-112088895D01*
X61977004Y-112070361D01*
X61976862Y-112057352D01*
X61979730Y-112047561D01*
X61994387Y-112026678D01*
X62020990Y-112006377D01*
X62021745Y-112006035D01*
X62041335Y-111999034D01*
X62058790Y-111998504D01*
X62075702Y-112006478D01*
G37*
X62075702Y-112006478D02*
X62093663Y-112024989D01*
X62114263Y-112056071D01*
X62139095Y-112101756D01*
X62169750Y-112164078D01*
X62207820Y-112245071D01*
X62222454Y-112276454D01*
X62252203Y-112339638D01*
X62278297Y-112394244D01*
X62299292Y-112437290D01*
X62313739Y-112465793D01*
X62320191Y-112476770D01*
X62321550Y-112476189D01*
X62331542Y-112462242D01*
X62348833Y-112432704D01*
X62371430Y-112391087D01*
X62397338Y-112340903D01*
X62413311Y-112309414D01*
X62442261Y-112254061D01*
X62464749Y-112215044D01*
X62482965Y-112189566D01*
X62499096Y-112174831D01*
X62515330Y-112168042D01*
X62533857Y-112166400D01*
X62544360Y-112166875D01*
X62560476Y-112171082D01*
X62575790Y-112181946D01*
X62592388Y-112202219D01*
X62612357Y-112234654D01*
X62637783Y-112282004D01*
X62670752Y-112347022D01*
X62680485Y-112366277D01*
X62704943Y-112412946D01*
X62725178Y-112449109D01*
X62739311Y-112471497D01*
X62745460Y-112476845D01*
X62746827Y-112473573D01*
X62756202Y-112452664D01*
X62773062Y-112415725D01*
X62795979Y-112365874D01*
X62823520Y-112306226D01*
X62854255Y-112239898D01*
X62880970Y-112182677D01*
X62910593Y-112120688D01*
X62933664Y-112074949D01*
X62951643Y-112042908D01*
X62965990Y-112022014D01*
X62978166Y-112009718D01*
X62989632Y-112003466D01*
X62999042Y-112000574D01*
X63024147Y-112000425D01*
X63051290Y-112015768D01*
X63052590Y-112016753D01*
X63074674Y-112039388D01*
X63085723Y-112061613D01*
X63085769Y-112062253D01*
X63081228Y-112079915D01*
X63068364Y-112114481D01*
X63048605Y-112162826D01*
X63023381Y-112221825D01*
X62994119Y-112288355D01*
X62962250Y-112359291D01*
X62929201Y-112431507D01*
X62896401Y-112501880D01*
X62865280Y-112567285D01*
X62837265Y-112624597D01*
X62813786Y-112670692D01*
X62796272Y-112702446D01*
X62786151Y-112716733D01*
X62751743Y-112730102D01*
X62710046Y-112723741D01*
X62704681Y-112719044D01*
X62688852Y-112696893D01*
X62666650Y-112660132D01*
X62640233Y-112612415D01*
X62611760Y-112557393D01*
X62531986Y-112398150D01*
X62458799Y-112544742D01*
X62449103Y-112564032D01*
X62422125Y-112616380D01*
X62398096Y-112661170D01*
X62379332Y-112694154D01*
X62368146Y-112711089D01*
X62367000Y-112712332D01*
X62338879Y-112727619D01*
X62303817Y-112729302D01*
X62272776Y-112716733D01*
X62270350Y-112713884D01*
X62258090Y-112693259D01*
X62238352Y-112655708D01*
X62212448Y-112603880D01*
X62181685Y-112540423D01*
X62147375Y-112467985D01*
X62110825Y-112389216D01*
X62090585Y-112345093D01*
X62053812Y-112264365D01*
X62025355Y-112200687D01*
X62004331Y-112151752D01*
X61989854Y-112115257D01*
X61981039Y-112088895D01*
X61977004Y-112070361D01*
X61976862Y-112057352D01*
X61979730Y-112047561D01*
X61994387Y-112026678D01*
X62020990Y-112006377D01*
X62021745Y-112006035D01*
X62041335Y-111999034D01*
X62058790Y-111998504D01*
X62075702Y-112006478D01*
X61597386Y-112003877D02*
X61573673Y-112018647D01*
X61573673Y-112018647D02*
X61547022Y-112040227D01*
X61547022Y-112040227D02*
X61547022Y-112361773D01*
X61547022Y-112361773D02*
X61547107Y-112455830D01*
X61547107Y-112455830D02*
X61547471Y-112529932D01*
X61547471Y-112529932D02*
X61548276Y-112586704D01*
X61548276Y-112586704D02*
X61549687Y-112628768D01*
X61549687Y-112628768D02*
X61551867Y-112658748D01*
X61551867Y-112658748D02*
X61554979Y-112679267D01*
X61554979Y-112679267D02*
X61559186Y-112692949D01*
X61559186Y-112692949D02*
X61564652Y-112702416D01*
X61564652Y-112702416D02*
X61568528Y-112707082D01*
X61568528Y-112707082D02*
X61599966Y-112727575D01*
X61599966Y-112727575D02*
X61635767Y-112726739D01*
X61635767Y-112726739D02*
X61667127Y-112709264D01*
X61667127Y-112709264D02*
X61693778Y-112687684D01*
X61693778Y-112687684D02*
X61693778Y-112040227D01*
X61693778Y-112040227D02*
X61667127Y-112018647D01*
X61667127Y-112018647D02*
X61641406Y-112002949D01*
X61641406Y-112002949D02*
X61620400Y-111997067D01*
X61620400Y-111997067D02*
X61597386Y-112003877D01*
X61597386Y-112003877D02*
X61597386Y-112003877D01*
G36*
X61641406Y-112002949D02*
G01*
X61667127Y-112018647D01*
X61693778Y-112040227D01*
X61693778Y-112687684D01*
X61667127Y-112709264D01*
X61635767Y-112726739D01*
X61599966Y-112727575D01*
X61568528Y-112707082D01*
X61564652Y-112702416D01*
X61559186Y-112692949D01*
X61554979Y-112679267D01*
X61551867Y-112658748D01*
X61549687Y-112628768D01*
X61548276Y-112586704D01*
X61547471Y-112529932D01*
X61547107Y-112455830D01*
X61547022Y-112361773D01*
X61547022Y-112040227D01*
X61573673Y-112018647D01*
X61597386Y-112003877D01*
X61620400Y-111997067D01*
X61641406Y-112002949D01*
G37*
X61641406Y-112002949D02*
X61667127Y-112018647D01*
X61693778Y-112040227D01*
X61693778Y-112687684D01*
X61667127Y-112709264D01*
X61635767Y-112726739D01*
X61599966Y-112727575D01*
X61568528Y-112707082D01*
X61564652Y-112702416D01*
X61559186Y-112692949D01*
X61554979Y-112679267D01*
X61551867Y-112658748D01*
X61549687Y-112628768D01*
X61548276Y-112586704D01*
X61547471Y-112529932D01*
X61547107Y-112455830D01*
X61547022Y-112361773D01*
X61547022Y-112040227D01*
X61573673Y-112018647D01*
X61597386Y-112003877D01*
X61620400Y-111997067D01*
X61641406Y-112002949D01*
X67736081Y-112002599D02*
X67667565Y-112014095D01*
X67667565Y-112014095D02*
X67614943Y-112031967D01*
X67614943Y-112031967D02*
X67580708Y-112055499D01*
X67580708Y-112055499D02*
X67571379Y-112068924D01*
X67571379Y-112068924D02*
X67561893Y-112100148D01*
X67561893Y-112100148D02*
X67568277Y-112128395D01*
X67568277Y-112128395D02*
X67588430Y-112155182D01*
X67588430Y-112155182D02*
X67619745Y-112167713D01*
X67619745Y-112167713D02*
X67665183Y-112166696D01*
X67665183Y-112166696D02*
X67700326Y-112159906D01*
X67700326Y-112159906D02*
X67778419Y-112146971D01*
X67778419Y-112146971D02*
X67858226Y-112145742D01*
X67858226Y-112145742D02*
X67947555Y-112156241D01*
X67947555Y-112156241D02*
X67972229Y-112160690D01*
X67972229Y-112160690D02*
X68055291Y-112184108D01*
X68055291Y-112184108D02*
X68120273Y-112218945D01*
X68120273Y-112218945D02*
X68166461Y-112264604D01*
X68166461Y-112264604D02*
X68193145Y-112320494D01*
X68193145Y-112320494D02*
X68198663Y-112349388D01*
X68198663Y-112349388D02*
X68195051Y-112408012D01*
X68195051Y-112408012D02*
X68171729Y-112459879D01*
X68171729Y-112459879D02*
X68130824Y-112503978D01*
X68130824Y-112503978D02*
X68074459Y-112539299D01*
X68074459Y-112539299D02*
X68004760Y-112564829D01*
X68004760Y-112564829D02*
X67923852Y-112579559D01*
X67923852Y-112579559D02*
X67833860Y-112582478D01*
X67833860Y-112582478D02*
X67736910Y-112572575D01*
X67736910Y-112572575D02*
X67731436Y-112571641D01*
X67731436Y-112571641D02*
X67692875Y-112564459D01*
X67692875Y-112564459D02*
X67671494Y-112557521D01*
X67671494Y-112557521D02*
X67662227Y-112547227D01*
X67662227Y-112547227D02*
X67660006Y-112529976D01*
X67660006Y-112529976D02*
X67659956Y-112520841D01*
X67659956Y-112520841D02*
X67659956Y-112482489D01*
X67659956Y-112482489D02*
X67728431Y-112482489D01*
X67728431Y-112482489D02*
X67788900Y-112478347D01*
X67788900Y-112478347D02*
X67830165Y-112465147D01*
X67830165Y-112465147D02*
X67854175Y-112441730D01*
X67854175Y-112441730D02*
X67862877Y-112406936D01*
X67862877Y-112406936D02*
X67862983Y-112402394D01*
X67862983Y-112402394D02*
X67857892Y-112372654D01*
X67857892Y-112372654D02*
X67840433Y-112351419D01*
X67840433Y-112351419D02*
X67807939Y-112337366D01*
X67807939Y-112337366D02*
X67757743Y-112329173D01*
X67757743Y-112329173D02*
X67709123Y-112326161D01*
X67709123Y-112326161D02*
X67638456Y-112324433D01*
X67638456Y-112324433D02*
X67587198Y-112327070D01*
X67587198Y-112327070D02*
X67552239Y-112336800D01*
X67552239Y-112336800D02*
X67530470Y-112356353D01*
X67530470Y-112356353D02*
X67518780Y-112388456D01*
X67518780Y-112388456D02*
X67514060Y-112435838D01*
X67514060Y-112435838D02*
X67513200Y-112498071D01*
X67513200Y-112498071D02*
X67514609Y-112567535D01*
X67514609Y-112567535D02*
X67518848Y-112614786D01*
X67518848Y-112614786D02*
X67525936Y-112640012D01*
X67525936Y-112640012D02*
X67527311Y-112641988D01*
X67527311Y-112641988D02*
X67566228Y-112673508D01*
X67566228Y-112673508D02*
X67623286Y-112698470D01*
X67623286Y-112698470D02*
X67694869Y-112716340D01*
X67694869Y-112716340D02*
X67777358Y-112726586D01*
X67777358Y-112726586D02*
X67867139Y-112728673D01*
X67867139Y-112728673D02*
X67960592Y-112722068D01*
X67960592Y-112722068D02*
X68015556Y-112713956D01*
X68015556Y-112713956D02*
X68101766Y-112689554D01*
X68101766Y-112689554D02*
X68181892Y-112649662D01*
X68181892Y-112649662D02*
X68248977Y-112597887D01*
X68248977Y-112597887D02*
X68259173Y-112587539D01*
X68259173Y-112587539D02*
X68292302Y-112544035D01*
X68292302Y-112544035D02*
X68322194Y-112490118D01*
X68322194Y-112490118D02*
X68345357Y-112433592D01*
X68345357Y-112433592D02*
X68358298Y-112382259D01*
X68358298Y-112382259D02*
X68359858Y-112362544D01*
X68359858Y-112362544D02*
X68353218Y-112321419D01*
X68353218Y-112321419D02*
X68335568Y-112270252D01*
X68335568Y-112270252D02*
X68310297Y-112216394D01*
X68310297Y-112216394D02*
X68280789Y-112167195D01*
X68280789Y-112167195D02*
X68254719Y-112134334D01*
X68254719Y-112134334D02*
X68193765Y-112085452D01*
X68193765Y-112085452D02*
X68114969Y-112046545D01*
X68114969Y-112046545D02*
X68021157Y-112018494D01*
X68021157Y-112018494D02*
X67915150Y-112002179D01*
X67915150Y-112002179D02*
X67818000Y-111998192D01*
X67818000Y-111998192D02*
X67736081Y-112002599D01*
X67736081Y-112002599D02*
X67736081Y-112002599D01*
G36*
X67915150Y-112002179D02*
G01*
X68021157Y-112018494D01*
X68114969Y-112046545D01*
X68193765Y-112085452D01*
X68254719Y-112134334D01*
X68280789Y-112167195D01*
X68310297Y-112216394D01*
X68335568Y-112270252D01*
X68353218Y-112321419D01*
X68359858Y-112362544D01*
X68358298Y-112382259D01*
X68345357Y-112433592D01*
X68322194Y-112490118D01*
X68292302Y-112544035D01*
X68259173Y-112587539D01*
X68248977Y-112597887D01*
X68181892Y-112649662D01*
X68101766Y-112689554D01*
X68015556Y-112713956D01*
X67960592Y-112722068D01*
X67867139Y-112728673D01*
X67777358Y-112726586D01*
X67694869Y-112716340D01*
X67623286Y-112698470D01*
X67566228Y-112673508D01*
X67527311Y-112641988D01*
X67525936Y-112640012D01*
X67518848Y-112614786D01*
X67514609Y-112567535D01*
X67513200Y-112498071D01*
X67514060Y-112435838D01*
X67518780Y-112388456D01*
X67530470Y-112356353D01*
X67552239Y-112336800D01*
X67587198Y-112327070D01*
X67638456Y-112324433D01*
X67709123Y-112326161D01*
X67757743Y-112329173D01*
X67807939Y-112337366D01*
X67840433Y-112351419D01*
X67857892Y-112372654D01*
X67862983Y-112402394D01*
X67862877Y-112406936D01*
X67854175Y-112441730D01*
X67830165Y-112465147D01*
X67788900Y-112478347D01*
X67728431Y-112482489D01*
X67659956Y-112482489D01*
X67659956Y-112520841D01*
X67660006Y-112529976D01*
X67662227Y-112547227D01*
X67671494Y-112557521D01*
X67692875Y-112564459D01*
X67731436Y-112571641D01*
X67736910Y-112572575D01*
X67833860Y-112582478D01*
X67923852Y-112579559D01*
X68004760Y-112564829D01*
X68074459Y-112539299D01*
X68130824Y-112503978D01*
X68171729Y-112459879D01*
X68195051Y-112408012D01*
X68198663Y-112349388D01*
X68193145Y-112320494D01*
X68166461Y-112264604D01*
X68120273Y-112218945D01*
X68055291Y-112184108D01*
X67972229Y-112160690D01*
X67947555Y-112156241D01*
X67858226Y-112145742D01*
X67778419Y-112146971D01*
X67700326Y-112159906D01*
X67665183Y-112166696D01*
X67619745Y-112167713D01*
X67588430Y-112155182D01*
X67568277Y-112128395D01*
X67561893Y-112100148D01*
X67571379Y-112068924D01*
X67580708Y-112055499D01*
X67614943Y-112031967D01*
X67667565Y-112014095D01*
X67736081Y-112002599D01*
X67818000Y-111998192D01*
X67915150Y-112002179D01*
G37*
X67915150Y-112002179D02*
X68021157Y-112018494D01*
X68114969Y-112046545D01*
X68193765Y-112085452D01*
X68254719Y-112134334D01*
X68280789Y-112167195D01*
X68310297Y-112216394D01*
X68335568Y-112270252D01*
X68353218Y-112321419D01*
X68359858Y-112362544D01*
X68358298Y-112382259D01*
X68345357Y-112433592D01*
X68322194Y-112490118D01*
X68292302Y-112544035D01*
X68259173Y-112587539D01*
X68248977Y-112597887D01*
X68181892Y-112649662D01*
X68101766Y-112689554D01*
X68015556Y-112713956D01*
X67960592Y-112722068D01*
X67867139Y-112728673D01*
X67777358Y-112726586D01*
X67694869Y-112716340D01*
X67623286Y-112698470D01*
X67566228Y-112673508D01*
X67527311Y-112641988D01*
X67525936Y-112640012D01*
X67518848Y-112614786D01*
X67514609Y-112567535D01*
X67513200Y-112498071D01*
X67514060Y-112435838D01*
X67518780Y-112388456D01*
X67530470Y-112356353D01*
X67552239Y-112336800D01*
X67587198Y-112327070D01*
X67638456Y-112324433D01*
X67709123Y-112326161D01*
X67757743Y-112329173D01*
X67807939Y-112337366D01*
X67840433Y-112351419D01*
X67857892Y-112372654D01*
X67862983Y-112402394D01*
X67862877Y-112406936D01*
X67854175Y-112441730D01*
X67830165Y-112465147D01*
X67788900Y-112478347D01*
X67728431Y-112482489D01*
X67659956Y-112482489D01*
X67659956Y-112520841D01*
X67660006Y-112529976D01*
X67662227Y-112547227D01*
X67671494Y-112557521D01*
X67692875Y-112564459D01*
X67731436Y-112571641D01*
X67736910Y-112572575D01*
X67833860Y-112582478D01*
X67923852Y-112579559D01*
X68004760Y-112564829D01*
X68074459Y-112539299D01*
X68130824Y-112503978D01*
X68171729Y-112459879D01*
X68195051Y-112408012D01*
X68198663Y-112349388D01*
X68193145Y-112320494D01*
X68166461Y-112264604D01*
X68120273Y-112218945D01*
X68055291Y-112184108D01*
X67972229Y-112160690D01*
X67947555Y-112156241D01*
X67858226Y-112145742D01*
X67778419Y-112146971D01*
X67700326Y-112159906D01*
X67665183Y-112166696D01*
X67619745Y-112167713D01*
X67588430Y-112155182D01*
X67568277Y-112128395D01*
X67561893Y-112100148D01*
X67571379Y-112068924D01*
X67580708Y-112055499D01*
X67614943Y-112031967D01*
X67667565Y-112014095D01*
X67736081Y-112002599D01*
X67818000Y-111998192D01*
X67915150Y-112002179D01*
X60822935Y-111997163D02*
X60744228Y-111997542D01*
X60744228Y-111997542D02*
X60683137Y-111998333D01*
X60683137Y-111998333D02*
X60637183Y-111999670D01*
X60637183Y-111999670D02*
X60603886Y-112001683D01*
X60603886Y-112001683D02*
X60580764Y-112004506D01*
X60580764Y-112004506D02*
X60565338Y-112008269D01*
X60565338Y-112008269D02*
X60555129Y-112013105D01*
X60555129Y-112013105D02*
X60550187Y-112016822D01*
X60550187Y-112016822D02*
X60524543Y-112049358D01*
X60524543Y-112049358D02*
X60521441Y-112083138D01*
X60521441Y-112083138D02*
X60537289Y-112113826D01*
X60537289Y-112113826D02*
X60547652Y-112126089D01*
X60547652Y-112126089D02*
X60558804Y-112134450D01*
X60558804Y-112134450D02*
X60574965Y-112139657D01*
X60574965Y-112139657D02*
X60600358Y-112142457D01*
X60600358Y-112142457D02*
X60639202Y-112143596D01*
X60639202Y-112143596D02*
X60695720Y-112143821D01*
X60695720Y-112143821D02*
X60706820Y-112143822D01*
X60706820Y-112143822D02*
X60852756Y-112143822D01*
X60852756Y-112143822D02*
X60852756Y-112414756D01*
X60852756Y-112414756D02*
X60852852Y-112500154D01*
X60852852Y-112500154D02*
X60853289Y-112565864D01*
X60853289Y-112565864D02*
X60854288Y-112614774D01*
X60854288Y-112614774D02*
X60856072Y-112649773D01*
X60856072Y-112649773D02*
X60858863Y-112673749D01*
X60858863Y-112673749D02*
X60862883Y-112689593D01*
X60862883Y-112689593D02*
X60868355Y-112700191D01*
X60868355Y-112700191D02*
X60875334Y-112708267D01*
X60875334Y-112708267D02*
X60908266Y-112728112D01*
X60908266Y-112728112D02*
X60942646Y-112726548D01*
X60942646Y-112726548D02*
X60973824Y-112703906D01*
X60973824Y-112703906D02*
X60976114Y-112701100D01*
X60976114Y-112701100D02*
X60983571Y-112690492D01*
X60983571Y-112690492D02*
X60989253Y-112678081D01*
X60989253Y-112678081D02*
X60993399Y-112660850D01*
X60993399Y-112660850D02*
X60996250Y-112635784D01*
X60996250Y-112635784D02*
X60998046Y-112599867D01*
X60998046Y-112599867D02*
X60999028Y-112550083D01*
X60999028Y-112550083D02*
X60999436Y-112483417D01*
X60999436Y-112483417D02*
X60999511Y-112407589D01*
X60999511Y-112407589D02*
X60999511Y-112143822D01*
X60999511Y-112143822D02*
X61138873Y-112143822D01*
X61138873Y-112143822D02*
X61198678Y-112143418D01*
X61198678Y-112143418D02*
X61240082Y-112141840D01*
X61240082Y-112141840D02*
X61267252Y-112138547D01*
X61267252Y-112138547D02*
X61284354Y-112132992D01*
X61284354Y-112132992D02*
X61295557Y-112124631D01*
X61295557Y-112124631D02*
X61296917Y-112123178D01*
X61296917Y-112123178D02*
X61313275Y-112089939D01*
X61313275Y-112089939D02*
X61311828Y-112052362D01*
X61311828Y-112052362D02*
X61293022Y-112019645D01*
X61293022Y-112019645D02*
X61285750Y-112013298D01*
X61285750Y-112013298D02*
X61276373Y-112008266D01*
X61276373Y-112008266D02*
X61262391Y-112004396D01*
X61262391Y-112004396D02*
X61241304Y-112001537D01*
X61241304Y-112001537D02*
X61210611Y-111999535D01*
X61210611Y-111999535D02*
X61167811Y-111998239D01*
X61167811Y-111998239D02*
X61110405Y-111997498D01*
X61110405Y-111997498D02*
X61035890Y-111997158D01*
X61035890Y-111997158D02*
X60941767Y-111997068D01*
X60941767Y-111997068D02*
X60921740Y-111997067D01*
X60921740Y-111997067D02*
X60822935Y-111997163D01*
X60822935Y-111997163D02*
X60822935Y-111997163D01*
G36*
X60941767Y-111997068D02*
G01*
X61035890Y-111997158D01*
X61110405Y-111997498D01*
X61167811Y-111998239D01*
X61210611Y-111999535D01*
X61241304Y-112001537D01*
X61262391Y-112004396D01*
X61276373Y-112008266D01*
X61285750Y-112013298D01*
X61293022Y-112019645D01*
X61311828Y-112052362D01*
X61313275Y-112089939D01*
X61296917Y-112123178D01*
X61295557Y-112124631D01*
X61284354Y-112132992D01*
X61267252Y-112138547D01*
X61240082Y-112141840D01*
X61198678Y-112143418D01*
X61138873Y-112143822D01*
X60999511Y-112143822D01*
X60999511Y-112407589D01*
X60999436Y-112483417D01*
X60999028Y-112550083D01*
X60998046Y-112599867D01*
X60996250Y-112635784D01*
X60993399Y-112660850D01*
X60989253Y-112678081D01*
X60983571Y-112690492D01*
X60976114Y-112701100D01*
X60973824Y-112703906D01*
X60942646Y-112726548D01*
X60908266Y-112728112D01*
X60875334Y-112708267D01*
X60868355Y-112700191D01*
X60862883Y-112689593D01*
X60858863Y-112673749D01*
X60856072Y-112649773D01*
X60854288Y-112614774D01*
X60853289Y-112565864D01*
X60852852Y-112500154D01*
X60852756Y-112414756D01*
X60852756Y-112143822D01*
X60706820Y-112143822D01*
X60695720Y-112143821D01*
X60639202Y-112143596D01*
X60600358Y-112142457D01*
X60574965Y-112139657D01*
X60558804Y-112134450D01*
X60547652Y-112126089D01*
X60537289Y-112113826D01*
X60521441Y-112083138D01*
X60524543Y-112049358D01*
X60550187Y-112016822D01*
X60555129Y-112013105D01*
X60565338Y-112008269D01*
X60580764Y-112004506D01*
X60603886Y-112001683D01*
X60637183Y-111999670D01*
X60683137Y-111998333D01*
X60744228Y-111997542D01*
X60822935Y-111997163D01*
X60921740Y-111997067D01*
X60941767Y-111997068D01*
G37*
X60941767Y-111997068D02*
X61035890Y-111997158D01*
X61110405Y-111997498D01*
X61167811Y-111998239D01*
X61210611Y-111999535D01*
X61241304Y-112001537D01*
X61262391Y-112004396D01*
X61276373Y-112008266D01*
X61285750Y-112013298D01*
X61293022Y-112019645D01*
X61311828Y-112052362D01*
X61313275Y-112089939D01*
X61296917Y-112123178D01*
X61295557Y-112124631D01*
X61284354Y-112132992D01*
X61267252Y-112138547D01*
X61240082Y-112141840D01*
X61198678Y-112143418D01*
X61138873Y-112143822D01*
X60999511Y-112143822D01*
X60999511Y-112407589D01*
X60999436Y-112483417D01*
X60999028Y-112550083D01*
X60998046Y-112599867D01*
X60996250Y-112635784D01*
X60993399Y-112660850D01*
X60989253Y-112678081D01*
X60983571Y-112690492D01*
X60976114Y-112701100D01*
X60973824Y-112703906D01*
X60942646Y-112726548D01*
X60908266Y-112728112D01*
X60875334Y-112708267D01*
X60868355Y-112700191D01*
X60862883Y-112689593D01*
X60858863Y-112673749D01*
X60856072Y-112649773D01*
X60854288Y-112614774D01*
X60853289Y-112565864D01*
X60852852Y-112500154D01*
X60852756Y-112414756D01*
X60852756Y-112143822D01*
X60706820Y-112143822D01*
X60695720Y-112143821D01*
X60639202Y-112143596D01*
X60600358Y-112142457D01*
X60574965Y-112139657D01*
X60558804Y-112134450D01*
X60547652Y-112126089D01*
X60537289Y-112113826D01*
X60521441Y-112083138D01*
X60524543Y-112049358D01*
X60550187Y-112016822D01*
X60555129Y-112013105D01*
X60565338Y-112008269D01*
X60580764Y-112004506D01*
X60603886Y-112001683D01*
X60637183Y-111999670D01*
X60683137Y-111998333D01*
X60744228Y-111997542D01*
X60822935Y-111997163D01*
X60921740Y-111997067D01*
X60941767Y-111997068D01*
%TD*%
M02*
