%TF.GenerationSoftware,KiCad,Pcbnew,6.0.2+dfsg-1*%
%TF.CreationDate,2023-02-03T00:30:43+01:00*%
%TF.ProjectId,xOTA,784f5441-2e6b-4696-9361-645f70636258,rev?*%
%TF.SameCoordinates,Original*%
%TF.FileFunction,Legend,Top*%
%TF.FilePolarity,Positive*%
%FSLAX46Y46*%
G04 Gerber Fmt 4.6, Leading zero omitted, Abs format (unit mm)*
G04 Created by KiCad (PCBNEW 6.0.2+dfsg-1) date 2023-02-03 00:30:43*
%MOMM*%
%LPD*%
G01*
G04 APERTURE LIST*
%ADD10C,0.120000*%
%ADD11C,0.200000*%
%ADD12C,0.150000*%
%ADD13C,0.100000*%
%ADD14C,0.500000*%
%ADD15C,0.010000*%
G04 APERTURE END LIST*
D10*
X140538200Y-90652600D02*
X140500000Y-93000000D01*
D11*
X115909523Y-109752380D02*
X116242857Y-110752380D01*
X116576190Y-109752380D01*
X117433333Y-110752380D02*
X116861904Y-110752380D01*
X117147619Y-110752380D02*
X117147619Y-109752380D01*
X117052380Y-109895238D01*
X116957142Y-109990476D01*
X116861904Y-110038095D01*
X117861904Y-110657142D02*
X117909523Y-110704761D01*
X117861904Y-110752380D01*
X117814285Y-110704761D01*
X117861904Y-110657142D01*
X117861904Y-110752380D01*
X118528571Y-109752380D02*
X118623809Y-109752380D01*
X118719047Y-109800000D01*
X118766666Y-109847619D01*
X118814285Y-109942857D01*
X118861904Y-110133333D01*
X118861904Y-110371428D01*
X118814285Y-110561904D01*
X118766666Y-110657142D01*
X118719047Y-110704761D01*
X118623809Y-110752380D01*
X118528571Y-110752380D01*
X118433333Y-110704761D01*
X118385714Y-110657142D01*
X118338095Y-110561904D01*
X118290476Y-110371428D01*
X118290476Y-110133333D01*
X118338095Y-109942857D01*
X118385714Y-109847619D01*
X118433333Y-109800000D01*
X118528571Y-109752380D01*
X120004761Y-109847619D02*
X120052380Y-109800000D01*
X120147619Y-109752380D01*
X120385714Y-109752380D01*
X120480952Y-109800000D01*
X120528571Y-109847619D01*
X120576190Y-109942857D01*
X120576190Y-110038095D01*
X120528571Y-110180952D01*
X119957142Y-110752380D01*
X120576190Y-110752380D01*
X121195238Y-109752380D02*
X121290476Y-109752380D01*
X121385714Y-109800000D01*
X121433333Y-109847619D01*
X121480952Y-109942857D01*
X121528571Y-110133333D01*
X121528571Y-110371428D01*
X121480952Y-110561904D01*
X121433333Y-110657142D01*
X121385714Y-110704761D01*
X121290476Y-110752380D01*
X121195238Y-110752380D01*
X121100000Y-110704761D01*
X121052380Y-110657142D01*
X121004761Y-110561904D01*
X120957142Y-110371428D01*
X120957142Y-110133333D01*
X121004761Y-109942857D01*
X121052380Y-109847619D01*
X121100000Y-109800000D01*
X121195238Y-109752380D01*
X121909523Y-109847619D02*
X121957142Y-109800000D01*
X122052380Y-109752380D01*
X122290476Y-109752380D01*
X122385714Y-109800000D01*
X122433333Y-109847619D01*
X122480952Y-109942857D01*
X122480952Y-110038095D01*
X122433333Y-110180952D01*
X121861904Y-110752380D01*
X122480952Y-110752380D01*
X122814285Y-109752380D02*
X123433333Y-109752380D01*
X123100000Y-110133333D01*
X123242857Y-110133333D01*
X123338095Y-110180952D01*
X123385714Y-110228571D01*
X123433333Y-110323809D01*
X123433333Y-110561904D01*
X123385714Y-110657142D01*
X123338095Y-110704761D01*
X123242857Y-110752380D01*
X122957142Y-110752380D01*
X122861904Y-110704761D01*
X122814285Y-110657142D01*
D10*
X133350000Y-80264000D02*
X133350000Y-74930000D01*
X138226800Y-80314800D02*
X133350000Y-80264000D01*
X152146000Y-80264000D02*
X152146000Y-74930000D01*
X138226800Y-80314800D02*
X152146000Y-80264000D01*
X119900000Y-93450000D02*
X119900000Y-105200000D01*
X119900000Y-93550000D02*
X130500000Y-88150000D01*
X108950000Y-88100000D02*
X119900000Y-93550000D01*
X150876000Y-89103200D02*
X153700000Y-89100000D01*
X140500000Y-93000000D02*
X137058400Y-96400000D01*
X171600000Y-86360000D02*
G75*
G03*
X171600000Y-86360000I-3181090J0D01*
G01*
X140538200Y-80264000D02*
X140538200Y-82905600D01*
X143129000Y-89077800D02*
X142138400Y-89077800D01*
X156900000Y-86400000D02*
X165237820Y-86360000D01*
X153700000Y-89100000D02*
X156900000Y-86400000D01*
D12*
X146580266Y-88580980D02*
X146580266Y-89295266D01*
X146532647Y-89438123D01*
X146437409Y-89533361D01*
X146294552Y-89580980D01*
X146199314Y-89580980D01*
X147008838Y-88676219D02*
X147056457Y-88628600D01*
X147151695Y-88580980D01*
X147389790Y-88580980D01*
X147485028Y-88628600D01*
X147532647Y-88676219D01*
X147580266Y-88771457D01*
X147580266Y-88866695D01*
X147532647Y-89009552D01*
X146961219Y-89580980D01*
X147580266Y-89580980D01*
X140128666Y-86244180D02*
X140128666Y-86958466D01*
X140081047Y-87101323D01*
X139985809Y-87196561D01*
X139842952Y-87244180D01*
X139747714Y-87244180D01*
X141128666Y-87244180D02*
X140557238Y-87244180D01*
X140842952Y-87244180D02*
X140842952Y-86244180D01*
X140747714Y-86387038D01*
X140652476Y-86482276D01*
X140557238Y-86529895D01*
D10*
X150876000Y-90678000D02*
X150876000Y-87528400D01*
X143129000Y-87528400D02*
X143129000Y-90678000D01*
X150876000Y-87528400D02*
X143129000Y-87528400D01*
X143129000Y-90678000D02*
X150876000Y-90678000D01*
X142113000Y-82905600D02*
X138963400Y-82905600D01*
X142113000Y-90652600D02*
X142113000Y-82905600D01*
X138963400Y-90652600D02*
X142113000Y-90652600D01*
X138963400Y-82905600D02*
X138963400Y-90652600D01*
D11*
X115059523Y-101078571D02*
X114726190Y-101078571D01*
X114726190Y-101602380D02*
X114726190Y-100602380D01*
X115202380Y-100602380D01*
X115440476Y-100602380D02*
X116011904Y-100602380D01*
X115726190Y-101602380D02*
X115726190Y-100602380D01*
X116488095Y-101030952D02*
X116392857Y-100983333D01*
X116345238Y-100935714D01*
X116297619Y-100840476D01*
X116297619Y-100792857D01*
X116345238Y-100697619D01*
X116392857Y-100650000D01*
X116488095Y-100602380D01*
X116678571Y-100602380D01*
X116773809Y-100650000D01*
X116821428Y-100697619D01*
X116869047Y-100792857D01*
X116869047Y-100840476D01*
X116821428Y-100935714D01*
X116773809Y-100983333D01*
X116678571Y-101030952D01*
X116488095Y-101030952D01*
X116392857Y-101078571D01*
X116345238Y-101126190D01*
X116297619Y-101221428D01*
X116297619Y-101411904D01*
X116345238Y-101507142D01*
X116392857Y-101554761D01*
X116488095Y-101602380D01*
X116678571Y-101602380D01*
X116773809Y-101554761D01*
X116821428Y-101507142D01*
X116869047Y-101411904D01*
X116869047Y-101221428D01*
X116821428Y-101126190D01*
X116773809Y-101078571D01*
X116678571Y-101030952D01*
X117250000Y-100697619D02*
X117297619Y-100650000D01*
X117392857Y-100602380D01*
X117630952Y-100602380D01*
X117726190Y-100650000D01*
X117773809Y-100697619D01*
X117821428Y-100792857D01*
X117821428Y-100888095D01*
X117773809Y-101030952D01*
X117202380Y-101602380D01*
X117821428Y-101602380D01*
X113383333Y-105428571D02*
X113050000Y-105428571D01*
X113050000Y-105952380D02*
X113050000Y-104952380D01*
X113526190Y-104952380D01*
X113764285Y-104952380D02*
X114335714Y-104952380D01*
X114050000Y-105952380D02*
X114050000Y-104952380D01*
X115192857Y-105952380D02*
X114621428Y-105952380D01*
X114907142Y-105952380D02*
X114907142Y-104952380D01*
X114811904Y-105095238D01*
X114716666Y-105190476D01*
X114621428Y-105238095D01*
X116145238Y-105952380D02*
X115573809Y-105952380D01*
X115859523Y-105952380D02*
X115859523Y-104952380D01*
X115764285Y-105095238D01*
X115669047Y-105190476D01*
X115573809Y-105238095D01*
X117002380Y-105285714D02*
X117002380Y-105952380D01*
X116764285Y-104904761D02*
X116526190Y-105619047D01*
X117145238Y-105619047D01*
X125350000Y-97450000D02*
X133096000Y-103124000D01*
X114850000Y-97500000D02*
X107188000Y-103632000D01*
X119888000Y-77470000D02*
X119888000Y-87200000D01*
D12*
X129542851Y-93453927D02*
G75*
G03*
X129542851Y-93453927I-9761851J0D01*
G01*
D13*
X81280000Y-81534000D02*
X81280000Y-96520000D01*
D12*
X134114582Y-93453927D02*
G75*
G03*
X134114582Y-93453927I-14333582J0D01*
G01*
D13*
X81280000Y-96520000D02*
X81280000Y-96520000D01*
D11*
X134837609Y-100547466D02*
X135313800Y-100547466D01*
X134742371Y-100833180D02*
X135075704Y-99833180D01*
X135409038Y-100833180D01*
X135742371Y-100166514D02*
X135742371Y-100833180D01*
X135742371Y-100261752D02*
X135789990Y-100214133D01*
X135885228Y-100166514D01*
X136028085Y-100166514D01*
X136123323Y-100214133D01*
X136170942Y-100309371D01*
X136170942Y-100833180D01*
X136504276Y-100166514D02*
X136885228Y-100166514D01*
X136647133Y-99833180D02*
X136647133Y-100690323D01*
X136694752Y-100785561D01*
X136789990Y-100833180D01*
X136885228Y-100833180D01*
X103144723Y-94680114D02*
X103144723Y-95489638D01*
X103097104Y-95584876D01*
X103049485Y-95632495D01*
X102954247Y-95680114D01*
X102811390Y-95680114D01*
X102716152Y-95632495D01*
X103144723Y-95299161D02*
X103049485Y-95346780D01*
X102859009Y-95346780D01*
X102763771Y-95299161D01*
X102716152Y-95251542D01*
X102668533Y-95156304D01*
X102668533Y-94870590D01*
X102716152Y-94775352D01*
X102763771Y-94727733D01*
X102859009Y-94680114D01*
X103049485Y-94680114D01*
X103144723Y-94727733D01*
X103620914Y-94680114D02*
X103620914Y-95346780D01*
X103620914Y-94775352D02*
X103668533Y-94727733D01*
X103763771Y-94680114D01*
X103906628Y-94680114D01*
X104001866Y-94727733D01*
X104049485Y-94822971D01*
X104049485Y-95346780D01*
X104954247Y-95346780D02*
X104954247Y-94346780D01*
X104954247Y-95299161D02*
X104859009Y-95346780D01*
X104668533Y-95346780D01*
X104573295Y-95299161D01*
X104525676Y-95251542D01*
X104478057Y-95156304D01*
X104478057Y-94870590D01*
X104525676Y-94775352D01*
X104573295Y-94727733D01*
X104668533Y-94680114D01*
X104859009Y-94680114D01*
X104954247Y-94727733D01*
D12*
X82986571Y-89852380D02*
X83034190Y-89709523D01*
X83081809Y-89661904D01*
X83177047Y-89614285D01*
X83319904Y-89614285D01*
X83415142Y-89661904D01*
X83462761Y-89709523D01*
X83510380Y-89804761D01*
X83510380Y-90185714D01*
X82510380Y-90185714D01*
X82510380Y-89852380D01*
X82558000Y-89757142D01*
X82605619Y-89709523D01*
X82700857Y-89661904D01*
X82796095Y-89661904D01*
X82891333Y-89709523D01*
X82938952Y-89757142D01*
X82986571Y-89852380D01*
X82986571Y-90185714D01*
X83510380Y-89185714D02*
X82510380Y-89185714D01*
X83510380Y-88614285D01*
X82510380Y-88614285D01*
X83415142Y-87566666D02*
X83462761Y-87614285D01*
X83510380Y-87757142D01*
X83510380Y-87852380D01*
X83462761Y-87995238D01*
X83367523Y-88090476D01*
X83272285Y-88138095D01*
X83081809Y-88185714D01*
X82938952Y-88185714D01*
X82748476Y-88138095D01*
X82653238Y-88090476D01*
X82558000Y-87995238D01*
X82510380Y-87852380D01*
X82510380Y-87757142D01*
X82558000Y-87614285D01*
X82605619Y-87566666D01*
D11*
X103763819Y-87066380D02*
X103763819Y-86399714D01*
X103763819Y-86066380D02*
X103716200Y-86114000D01*
X103763819Y-86161619D01*
X103811438Y-86114000D01*
X103763819Y-86066380D01*
X103763819Y-86161619D01*
X104240009Y-86399714D02*
X104240009Y-87066380D01*
X104240009Y-86494952D02*
X104287628Y-86447333D01*
X104382866Y-86399714D01*
X104525723Y-86399714D01*
X104620961Y-86447333D01*
X104668580Y-86542571D01*
X104668580Y-87066380D01*
D14*
X165394285Y-108670142D02*
X166965714Y-106670142D01*
X165394285Y-106670142D02*
X166965714Y-108670142D01*
X168680000Y-105670142D02*
X169251428Y-105670142D01*
X169537142Y-105813000D01*
X169822857Y-106098714D01*
X169965714Y-106670142D01*
X169965714Y-107670142D01*
X169822857Y-108241571D01*
X169537142Y-108527285D01*
X169251428Y-108670142D01*
X168680000Y-108670142D01*
X168394285Y-108527285D01*
X168108571Y-108241571D01*
X167965714Y-107670142D01*
X167965714Y-106670142D01*
X168108571Y-106098714D01*
X168394285Y-105813000D01*
X168680000Y-105670142D01*
X170822857Y-105670142D02*
X172537142Y-105670142D01*
X171680000Y-108670142D02*
X171680000Y-105670142D01*
X173394285Y-107813000D02*
X174822857Y-107813000D01*
X173108571Y-108670142D02*
X174108571Y-105670142D01*
X175108571Y-108670142D01*
X161894285Y-112643000D02*
X163322857Y-112643000D01*
X161608571Y-113500142D02*
X162608571Y-110500142D01*
X163608571Y-113500142D01*
X164608571Y-111500142D02*
X164608571Y-113500142D01*
X164608571Y-111785857D02*
X164751428Y-111643000D01*
X165037142Y-111500142D01*
X165465714Y-111500142D01*
X165751428Y-111643000D01*
X165894285Y-111928714D01*
X165894285Y-113500142D01*
X166894285Y-111500142D02*
X168037142Y-111500142D01*
X167322857Y-110500142D02*
X167322857Y-113071571D01*
X167465714Y-113357285D01*
X167751428Y-113500142D01*
X168037142Y-113500142D01*
X170180000Y-113357285D02*
X169894285Y-113500142D01*
X169322857Y-113500142D01*
X169037142Y-113357285D01*
X168894285Y-113071571D01*
X168894285Y-111928714D01*
X169037142Y-111643000D01*
X169322857Y-111500142D01*
X169894285Y-111500142D01*
X170180000Y-111643000D01*
X170322857Y-111928714D01*
X170322857Y-112214428D01*
X168894285Y-112500142D01*
X171608571Y-111500142D02*
X171608571Y-113500142D01*
X171608571Y-111785857D02*
X171751428Y-111643000D01*
X172037142Y-111500142D01*
X172465714Y-111500142D01*
X172751428Y-111643000D01*
X172894285Y-111928714D01*
X172894285Y-113500142D01*
X174322857Y-111500142D02*
X174322857Y-113500142D01*
X174322857Y-111785857D02*
X174465714Y-111643000D01*
X174751428Y-111500142D01*
X175180000Y-111500142D01*
X175465714Y-111643000D01*
X175608571Y-111928714D01*
X175608571Y-113500142D01*
X178322857Y-113500142D02*
X178322857Y-111928714D01*
X178180000Y-111643000D01*
X177894285Y-111500142D01*
X177322857Y-111500142D01*
X177037142Y-111643000D01*
X178322857Y-113357285D02*
X178037142Y-113500142D01*
X177322857Y-113500142D01*
X177037142Y-113357285D01*
X176894285Y-113071571D01*
X176894285Y-112785857D01*
X177037142Y-112500142D01*
X177322857Y-112357285D01*
X178037142Y-112357285D01*
X178322857Y-112214428D01*
D12*
%TO.C,*%
%TO.C,100pF*%
X99715580Y-92479619D02*
X99715580Y-93051047D01*
X99715580Y-92765333D02*
X98715580Y-92765333D01*
X98858438Y-92860571D01*
X98953676Y-92955809D01*
X99001295Y-93051047D01*
X98715580Y-91860571D02*
X98715580Y-91765333D01*
X98763200Y-91670095D01*
X98810819Y-91622476D01*
X98906057Y-91574857D01*
X99096533Y-91527238D01*
X99334628Y-91527238D01*
X99525104Y-91574857D01*
X99620342Y-91622476D01*
X99667961Y-91670095D01*
X99715580Y-91765333D01*
X99715580Y-91860571D01*
X99667961Y-91955809D01*
X99620342Y-92003428D01*
X99525104Y-92051047D01*
X99334628Y-92098666D01*
X99096533Y-92098666D01*
X98906057Y-92051047D01*
X98810819Y-92003428D01*
X98763200Y-91955809D01*
X98715580Y-91860571D01*
X98715580Y-90908190D02*
X98715580Y-90812952D01*
X98763200Y-90717714D01*
X98810819Y-90670095D01*
X98906057Y-90622476D01*
X99096533Y-90574857D01*
X99334628Y-90574857D01*
X99525104Y-90622476D01*
X99620342Y-90670095D01*
X99667961Y-90717714D01*
X99715580Y-90812952D01*
X99715580Y-90908190D01*
X99667961Y-91003428D01*
X99620342Y-91051047D01*
X99525104Y-91098666D01*
X99334628Y-91146285D01*
X99096533Y-91146285D01*
X98906057Y-91098666D01*
X98810819Y-91051047D01*
X98763200Y-91003428D01*
X98715580Y-90908190D01*
X99048914Y-90146285D02*
X100048914Y-90146285D01*
X99096533Y-90146285D02*
X99048914Y-90051047D01*
X99048914Y-89860571D01*
X99096533Y-89765333D01*
X99144152Y-89717714D01*
X99239390Y-89670095D01*
X99525104Y-89670095D01*
X99620342Y-89717714D01*
X99667961Y-89765333D01*
X99715580Y-89860571D01*
X99715580Y-90051047D01*
X99667961Y-90146285D01*
X99191771Y-88908190D02*
X99191771Y-89241523D01*
X99715580Y-89241523D02*
X98715580Y-89241523D01*
X98715580Y-88765333D01*
%TO.C,*%
D15*
%TO.C,REF\u002A\u002A*%
X62949429Y-114113719D02*
X63043123Y-114167914D01*
X63043123Y-114167914D02*
X63108264Y-114221707D01*
X63108264Y-114221707D02*
X63155907Y-114278066D01*
X63155907Y-114278066D02*
X63188728Y-114346987D01*
X63188728Y-114346987D02*
X63209406Y-114438468D01*
X63209406Y-114438468D02*
X63220620Y-114562506D01*
X63220620Y-114562506D02*
X63225049Y-114729098D01*
X63225049Y-114729098D02*
X63225563Y-114848851D01*
X63225563Y-114848851D02*
X63225563Y-115289659D01*
X63225563Y-115289659D02*
X63101483Y-115345283D01*
X63101483Y-115345283D02*
X62977402Y-115400907D01*
X62977402Y-115400907D02*
X62962805Y-114918095D01*
X62962805Y-114918095D02*
X62956773Y-114737779D01*
X62956773Y-114737779D02*
X62950445Y-114606901D01*
X62950445Y-114606901D02*
X62942606Y-114516511D01*
X62942606Y-114516511D02*
X62932037Y-114457664D01*
X62932037Y-114457664D02*
X62917523Y-114421413D01*
X62917523Y-114421413D02*
X62897848Y-114398810D01*
X62897848Y-114398810D02*
X62891535Y-114393917D01*
X62891535Y-114393917D02*
X62795888Y-114355706D01*
X62795888Y-114355706D02*
X62699207Y-114370827D01*
X62699207Y-114370827D02*
X62641655Y-114410943D01*
X62641655Y-114410943D02*
X62618245Y-114439370D01*
X62618245Y-114439370D02*
X62602039Y-114476672D01*
X62602039Y-114476672D02*
X62591741Y-114533223D01*
X62591741Y-114533223D02*
X62586049Y-114619394D01*
X62586049Y-114619394D02*
X62583664Y-114745558D01*
X62583664Y-114745558D02*
X62583264Y-114877042D01*
X62583264Y-114877042D02*
X62583186Y-115041999D01*
X62583186Y-115041999D02*
X62580361Y-115158761D01*
X62580361Y-115158761D02*
X62570907Y-115237510D01*
X62570907Y-115237510D02*
X62550940Y-115288431D01*
X62550940Y-115288431D02*
X62516576Y-115321706D01*
X62516576Y-115321706D02*
X62463932Y-115347520D01*
X62463932Y-115347520D02*
X62393617Y-115374344D01*
X62393617Y-115374344D02*
X62316820Y-115403542D01*
X62316820Y-115403542D02*
X62325962Y-114885346D01*
X62325962Y-114885346D02*
X62329643Y-114698539D01*
X62329643Y-114698539D02*
X62333950Y-114560490D01*
X62333950Y-114560490D02*
X62340123Y-114461568D01*
X62340123Y-114461568D02*
X62349402Y-114392145D01*
X62349402Y-114392145D02*
X62363027Y-114342590D01*
X62363027Y-114342590D02*
X62382239Y-114303273D01*
X62382239Y-114303273D02*
X62405402Y-114268584D01*
X62405402Y-114268584D02*
X62517152Y-114157770D01*
X62517152Y-114157770D02*
X62653513Y-114093689D01*
X62653513Y-114093689D02*
X62801825Y-114078339D01*
X62801825Y-114078339D02*
X62949429Y-114113719D01*
X62949429Y-114113719D02*
X62949429Y-114113719D01*
G36*
X62949429Y-114113719D02*
G01*
X63043123Y-114167914D01*
X63108264Y-114221707D01*
X63155907Y-114278066D01*
X63188728Y-114346987D01*
X63209406Y-114438468D01*
X63220620Y-114562506D01*
X63225049Y-114729098D01*
X63225563Y-114848851D01*
X63225563Y-115289659D01*
X63101483Y-115345283D01*
X62977402Y-115400907D01*
X62962805Y-114918095D01*
X62956773Y-114737779D01*
X62950445Y-114606901D01*
X62942606Y-114516511D01*
X62932037Y-114457664D01*
X62917523Y-114421413D01*
X62897848Y-114398810D01*
X62891535Y-114393917D01*
X62795888Y-114355706D01*
X62699207Y-114370827D01*
X62641655Y-114410943D01*
X62618245Y-114439370D01*
X62602039Y-114476672D01*
X62591741Y-114533223D01*
X62586049Y-114619394D01*
X62583664Y-114745558D01*
X62583264Y-114877042D01*
X62583186Y-115041999D01*
X62580361Y-115158761D01*
X62570907Y-115237510D01*
X62550940Y-115288431D01*
X62516576Y-115321706D01*
X62463932Y-115347520D01*
X62393617Y-115374344D01*
X62316820Y-115403542D01*
X62325962Y-114885346D01*
X62329643Y-114698539D01*
X62333950Y-114560490D01*
X62340123Y-114461568D01*
X62349402Y-114392145D01*
X62363027Y-114342590D01*
X62382239Y-114303273D01*
X62405402Y-114268584D01*
X62517152Y-114157770D01*
X62653513Y-114093689D01*
X62801825Y-114078339D01*
X62949429Y-114113719D01*
G37*
X62949429Y-114113719D02*
X63043123Y-114167914D01*
X63108264Y-114221707D01*
X63155907Y-114278066D01*
X63188728Y-114346987D01*
X63209406Y-114438468D01*
X63220620Y-114562506D01*
X63225049Y-114729098D01*
X63225563Y-114848851D01*
X63225563Y-115289659D01*
X63101483Y-115345283D01*
X62977402Y-115400907D01*
X62962805Y-114918095D01*
X62956773Y-114737779D01*
X62950445Y-114606901D01*
X62942606Y-114516511D01*
X62932037Y-114457664D01*
X62917523Y-114421413D01*
X62897848Y-114398810D01*
X62891535Y-114393917D01*
X62795888Y-114355706D01*
X62699207Y-114370827D01*
X62641655Y-114410943D01*
X62618245Y-114439370D01*
X62602039Y-114476672D01*
X62591741Y-114533223D01*
X62586049Y-114619394D01*
X62583664Y-114745558D01*
X62583264Y-114877042D01*
X62583186Y-115041999D01*
X62580361Y-115158761D01*
X62570907Y-115237510D01*
X62550940Y-115288431D01*
X62516576Y-115321706D01*
X62463932Y-115347520D01*
X62393617Y-115374344D01*
X62316820Y-115403542D01*
X62325962Y-114885346D01*
X62329643Y-114698539D01*
X62333950Y-114560490D01*
X62340123Y-114461568D01*
X62349402Y-114392145D01*
X62363027Y-114342590D01*
X62382239Y-114303273D01*
X62405402Y-114268584D01*
X62517152Y-114157770D01*
X62653513Y-114093689D01*
X62801825Y-114078339D01*
X62949429Y-114113719D01*
X60703900Y-114097903D02*
X60815450Y-114153522D01*
X60815450Y-114153522D02*
X60913908Y-114255931D01*
X60913908Y-114255931D02*
X60941023Y-114293864D01*
X60941023Y-114293864D02*
X60970562Y-114343500D01*
X60970562Y-114343500D02*
X60989728Y-114397412D01*
X60989728Y-114397412D02*
X61000693Y-114469364D01*
X61000693Y-114469364D02*
X61005629Y-114573122D01*
X61005629Y-114573122D02*
X61006713Y-114710101D01*
X61006713Y-114710101D02*
X61001818Y-114897815D01*
X61001818Y-114897815D02*
X60984804Y-115038758D01*
X60984804Y-115038758D02*
X60952177Y-115143908D01*
X60952177Y-115143908D02*
X60900442Y-115224243D01*
X60900442Y-115224243D02*
X60826104Y-115290741D01*
X60826104Y-115290741D02*
X60820642Y-115294678D01*
X60820642Y-115294678D02*
X60747380Y-115334953D01*
X60747380Y-115334953D02*
X60659160Y-115354880D01*
X60659160Y-115354880D02*
X60546962Y-115359793D01*
X60546962Y-115359793D02*
X60364567Y-115359793D01*
X60364567Y-115359793D02*
X60364491Y-115536857D01*
X60364491Y-115536857D02*
X60362793Y-115635470D01*
X60362793Y-115635470D02*
X60352450Y-115693314D01*
X60352450Y-115693314D02*
X60325422Y-115728006D01*
X60325422Y-115728006D02*
X60273668Y-115757164D01*
X60273668Y-115757164D02*
X60261239Y-115763121D01*
X60261239Y-115763121D02*
X60203077Y-115791039D01*
X60203077Y-115791039D02*
X60158044Y-115808672D01*
X60158044Y-115808672D02*
X60124559Y-115810194D01*
X60124559Y-115810194D02*
X60101038Y-115789781D01*
X60101038Y-115789781D02*
X60085900Y-115741607D01*
X60085900Y-115741607D02*
X60077563Y-115659846D01*
X60077563Y-115659846D02*
X60074444Y-115538672D01*
X60074444Y-115538672D02*
X60074960Y-115372260D01*
X60074960Y-115372260D02*
X60077529Y-115154785D01*
X60077529Y-115154785D02*
X60078332Y-115089736D01*
X60078332Y-115089736D02*
X60081222Y-114865502D01*
X60081222Y-114865502D02*
X60083812Y-114718821D01*
X60083812Y-114718821D02*
X60364414Y-114718821D01*
X60364414Y-114718821D02*
X60365991Y-114843326D01*
X60365991Y-114843326D02*
X60373000Y-114924787D01*
X60373000Y-114924787D02*
X60388858Y-114978515D01*
X60388858Y-114978515D02*
X60416981Y-115019823D01*
X60416981Y-115019823D02*
X60436075Y-115039971D01*
X60436075Y-115039971D02*
X60514135Y-115098921D01*
X60514135Y-115098921D02*
X60583247Y-115103720D01*
X60583247Y-115103720D02*
X60654560Y-115055038D01*
X60654560Y-115055038D02*
X60656368Y-115053241D01*
X60656368Y-115053241D02*
X60685383Y-115015618D01*
X60685383Y-115015618D02*
X60703033Y-114964484D01*
X60703033Y-114964484D02*
X60711936Y-114885738D01*
X60711936Y-114885738D02*
X60714709Y-114765276D01*
X60714709Y-114765276D02*
X60714759Y-114738588D01*
X60714759Y-114738588D02*
X60708058Y-114572583D01*
X60708058Y-114572583D02*
X60686248Y-114457505D01*
X60686248Y-114457505D02*
X60646765Y-114387254D01*
X60646765Y-114387254D02*
X60587044Y-114355729D01*
X60587044Y-114355729D02*
X60552528Y-114352552D01*
X60552528Y-114352552D02*
X60470611Y-114367460D01*
X60470611Y-114367460D02*
X60414421Y-114416548D01*
X60414421Y-114416548D02*
X60380598Y-114506362D01*
X60380598Y-114506362D02*
X60365780Y-114643445D01*
X60365780Y-114643445D02*
X60364414Y-114718821D01*
X60364414Y-114718821D02*
X60083812Y-114718821D01*
X60083812Y-114718821D02*
X60084287Y-114691952D01*
X60084287Y-114691952D02*
X60088247Y-114561382D01*
X60088247Y-114561382D02*
X60093826Y-114466087D01*
X60093826Y-114466087D02*
X60101746Y-114398364D01*
X60101746Y-114398364D02*
X60112731Y-114350507D01*
X60112731Y-114350507D02*
X60127501Y-114314813D01*
X60127501Y-114314813D02*
X60146782Y-114283578D01*
X60146782Y-114283578D02*
X60155049Y-114271824D01*
X60155049Y-114271824D02*
X60264712Y-114160797D01*
X60264712Y-114160797D02*
X60403365Y-114097847D01*
X60403365Y-114097847D02*
X60563754Y-114080297D01*
X60563754Y-114080297D02*
X60703900Y-114097903D01*
X60703900Y-114097903D02*
X60703900Y-114097903D01*
G36*
X60088247Y-114561382D02*
G01*
X60093826Y-114466087D01*
X60101746Y-114398364D01*
X60112731Y-114350507D01*
X60127501Y-114314813D01*
X60146782Y-114283578D01*
X60155049Y-114271824D01*
X60264712Y-114160797D01*
X60403365Y-114097847D01*
X60563754Y-114080297D01*
X60703900Y-114097903D01*
X60815450Y-114153522D01*
X60913908Y-114255931D01*
X60941023Y-114293864D01*
X60970562Y-114343500D01*
X60989728Y-114397412D01*
X61000693Y-114469364D01*
X61005629Y-114573122D01*
X61006713Y-114710101D01*
X61001818Y-114897815D01*
X60984804Y-115038758D01*
X60952177Y-115143908D01*
X60900442Y-115224243D01*
X60826104Y-115290741D01*
X60820642Y-115294678D01*
X60747380Y-115334953D01*
X60659160Y-115354880D01*
X60546962Y-115359793D01*
X60364567Y-115359793D01*
X60364491Y-115536857D01*
X60362793Y-115635470D01*
X60352450Y-115693314D01*
X60325422Y-115728006D01*
X60273668Y-115757164D01*
X60261239Y-115763121D01*
X60203077Y-115791039D01*
X60158044Y-115808672D01*
X60124559Y-115810194D01*
X60101038Y-115789781D01*
X60085900Y-115741607D01*
X60077563Y-115659846D01*
X60074444Y-115538672D01*
X60074960Y-115372260D01*
X60077529Y-115154785D01*
X60078332Y-115089736D01*
X60081222Y-114865502D01*
X60083812Y-114718821D01*
X60364414Y-114718821D01*
X60365991Y-114843326D01*
X60373000Y-114924787D01*
X60388858Y-114978515D01*
X60416981Y-115019823D01*
X60436075Y-115039971D01*
X60514135Y-115098921D01*
X60583247Y-115103720D01*
X60654560Y-115055038D01*
X60656368Y-115053241D01*
X60685383Y-115015618D01*
X60703033Y-114964484D01*
X60711936Y-114885738D01*
X60714709Y-114765276D01*
X60714759Y-114738588D01*
X60708058Y-114572583D01*
X60686248Y-114457505D01*
X60646765Y-114387254D01*
X60587044Y-114355729D01*
X60552528Y-114352552D01*
X60470611Y-114367460D01*
X60414421Y-114416548D01*
X60380598Y-114506362D01*
X60365780Y-114643445D01*
X60364414Y-114718821D01*
X60083812Y-114718821D01*
X60084287Y-114691952D01*
X60088247Y-114561382D01*
G37*
X60088247Y-114561382D02*
X60093826Y-114466087D01*
X60101746Y-114398364D01*
X60112731Y-114350507D01*
X60127501Y-114314813D01*
X60146782Y-114283578D01*
X60155049Y-114271824D01*
X60264712Y-114160797D01*
X60403365Y-114097847D01*
X60563754Y-114080297D01*
X60703900Y-114097903D01*
X60815450Y-114153522D01*
X60913908Y-114255931D01*
X60941023Y-114293864D01*
X60970562Y-114343500D01*
X60989728Y-114397412D01*
X61000693Y-114469364D01*
X61005629Y-114573122D01*
X61006713Y-114710101D01*
X61001818Y-114897815D01*
X60984804Y-115038758D01*
X60952177Y-115143908D01*
X60900442Y-115224243D01*
X60826104Y-115290741D01*
X60820642Y-115294678D01*
X60747380Y-115334953D01*
X60659160Y-115354880D01*
X60546962Y-115359793D01*
X60364567Y-115359793D01*
X60364491Y-115536857D01*
X60362793Y-115635470D01*
X60352450Y-115693314D01*
X60325422Y-115728006D01*
X60273668Y-115757164D01*
X60261239Y-115763121D01*
X60203077Y-115791039D01*
X60158044Y-115808672D01*
X60124559Y-115810194D01*
X60101038Y-115789781D01*
X60085900Y-115741607D01*
X60077563Y-115659846D01*
X60074444Y-115538672D01*
X60074960Y-115372260D01*
X60077529Y-115154785D01*
X60078332Y-115089736D01*
X60081222Y-114865502D01*
X60083812Y-114718821D01*
X60364414Y-114718821D01*
X60365991Y-114843326D01*
X60373000Y-114924787D01*
X60388858Y-114978515D01*
X60416981Y-115019823D01*
X60436075Y-115039971D01*
X60514135Y-115098921D01*
X60583247Y-115103720D01*
X60654560Y-115055038D01*
X60656368Y-115053241D01*
X60685383Y-115015618D01*
X60703033Y-114964484D01*
X60711936Y-114885738D01*
X60714709Y-114765276D01*
X60714759Y-114738588D01*
X60708058Y-114572583D01*
X60686248Y-114457505D01*
X60646765Y-114387254D01*
X60587044Y-114355729D01*
X60552528Y-114352552D01*
X60470611Y-114367460D01*
X60414421Y-114416548D01*
X60380598Y-114506362D01*
X60365780Y-114643445D01*
X60364414Y-114718821D01*
X60083812Y-114718821D01*
X60084287Y-114691952D01*
X60088247Y-114561382D01*
X67925914Y-114390455D02*
X67925543Y-114608661D01*
X67925543Y-114608661D02*
X67924108Y-114776519D01*
X67924108Y-114776519D02*
X67921002Y-114902070D01*
X67921002Y-114902070D02*
X67915622Y-114993355D01*
X67915622Y-114993355D02*
X67907362Y-115058415D01*
X67907362Y-115058415D02*
X67895616Y-115105291D01*
X67895616Y-115105291D02*
X67879781Y-115142024D01*
X67879781Y-115142024D02*
X67867790Y-115162991D01*
X67867790Y-115162991D02*
X67768490Y-115276694D01*
X67768490Y-115276694D02*
X67642588Y-115347965D01*
X67642588Y-115347965D02*
X67503291Y-115373538D01*
X67503291Y-115373538D02*
X67363805Y-115350150D01*
X67363805Y-115350150D02*
X67280743Y-115308119D01*
X67280743Y-115308119D02*
X67193545Y-115235411D01*
X67193545Y-115235411D02*
X67134117Y-115146612D01*
X67134117Y-115146612D02*
X67098261Y-115030320D01*
X67098261Y-115030320D02*
X67081781Y-114875135D01*
X67081781Y-114875135D02*
X67079447Y-114761287D01*
X67079447Y-114761287D02*
X67079761Y-114753106D01*
X67079761Y-114753106D02*
X67283724Y-114753106D01*
X67283724Y-114753106D02*
X67284970Y-114883657D01*
X67284970Y-114883657D02*
X67290678Y-114970080D01*
X67290678Y-114970080D02*
X67303804Y-115026618D01*
X67303804Y-115026618D02*
X67327306Y-115067514D01*
X67327306Y-115067514D02*
X67355386Y-115098362D01*
X67355386Y-115098362D02*
X67449688Y-115157905D01*
X67449688Y-115157905D02*
X67550940Y-115162992D01*
X67550940Y-115162992D02*
X67646636Y-115113279D01*
X67646636Y-115113279D02*
X67654084Y-115106543D01*
X67654084Y-115106543D02*
X67685874Y-115071502D01*
X67685874Y-115071502D02*
X67705808Y-115029811D01*
X67705808Y-115029811D02*
X67716600Y-114967762D01*
X67716600Y-114967762D02*
X67720965Y-114871644D01*
X67720965Y-114871644D02*
X67721655Y-114765379D01*
X67721655Y-114765379D02*
X67720159Y-114631880D01*
X67720159Y-114631880D02*
X67713964Y-114542822D01*
X67713964Y-114542822D02*
X67700514Y-114484293D01*
X67700514Y-114484293D02*
X67677251Y-114442382D01*
X67677251Y-114442382D02*
X67658175Y-114420123D01*
X67658175Y-114420123D02*
X67569563Y-114363985D01*
X67569563Y-114363985D02*
X67467508Y-114357235D01*
X67467508Y-114357235D02*
X67370095Y-114400114D01*
X67370095Y-114400114D02*
X67351296Y-114416032D01*
X67351296Y-114416032D02*
X67319293Y-114451382D01*
X67319293Y-114451382D02*
X67299318Y-114493502D01*
X67299318Y-114493502D02*
X67288593Y-114556251D01*
X67288593Y-114556251D02*
X67284339Y-114653487D01*
X67284339Y-114653487D02*
X67283724Y-114753106D01*
X67283724Y-114753106D02*
X67079761Y-114753106D01*
X67079761Y-114753106D02*
X67086504Y-114577947D01*
X67086504Y-114577947D02*
X67110472Y-114440195D01*
X67110472Y-114440195D02*
X67155548Y-114336632D01*
X67155548Y-114336632D02*
X67225928Y-114255856D01*
X67225928Y-114255856D02*
X67280743Y-114214455D01*
X67280743Y-114214455D02*
X67380376Y-114169728D01*
X67380376Y-114169728D02*
X67495855Y-114148967D01*
X67495855Y-114148967D02*
X67603199Y-114154525D01*
X67603199Y-114154525D02*
X67663264Y-114176943D01*
X67663264Y-114176943D02*
X67686835Y-114183323D01*
X67686835Y-114183323D02*
X67702477Y-114159535D01*
X67702477Y-114159535D02*
X67713395Y-114095788D01*
X67713395Y-114095788D02*
X67721655Y-113998687D01*
X67721655Y-113998687D02*
X67730699Y-113890541D01*
X67730699Y-113890541D02*
X67743261Y-113825475D01*
X67743261Y-113825475D02*
X67766119Y-113788268D01*
X67766119Y-113788268D02*
X67806051Y-113763699D01*
X67806051Y-113763699D02*
X67831138Y-113752819D01*
X67831138Y-113752819D02*
X67926023Y-113713072D01*
X67926023Y-113713072D02*
X67925914Y-114390455D01*
X67925914Y-114390455D02*
X67925914Y-114390455D01*
G36*
X67110472Y-114440195D02*
G01*
X67155548Y-114336632D01*
X67225928Y-114255856D01*
X67280743Y-114214455D01*
X67380376Y-114169728D01*
X67495855Y-114148967D01*
X67603199Y-114154525D01*
X67663264Y-114176943D01*
X67686835Y-114183323D01*
X67702477Y-114159535D01*
X67713395Y-114095788D01*
X67721655Y-113998687D01*
X67730699Y-113890541D01*
X67743261Y-113825475D01*
X67766119Y-113788268D01*
X67806051Y-113763699D01*
X67831138Y-113752819D01*
X67926023Y-113713072D01*
X67925914Y-114390455D01*
X67925543Y-114608661D01*
X67924108Y-114776519D01*
X67921002Y-114902070D01*
X67915622Y-114993355D01*
X67907362Y-115058415D01*
X67895616Y-115105291D01*
X67879781Y-115142024D01*
X67867790Y-115162991D01*
X67768490Y-115276694D01*
X67642588Y-115347965D01*
X67503291Y-115373538D01*
X67363805Y-115350150D01*
X67280743Y-115308119D01*
X67193545Y-115235411D01*
X67134117Y-115146612D01*
X67098261Y-115030320D01*
X67081781Y-114875135D01*
X67079447Y-114761287D01*
X67079761Y-114753106D01*
X67283724Y-114753106D01*
X67284970Y-114883657D01*
X67290678Y-114970080D01*
X67303804Y-115026618D01*
X67327306Y-115067514D01*
X67355386Y-115098362D01*
X67449688Y-115157905D01*
X67550940Y-115162992D01*
X67646636Y-115113279D01*
X67654084Y-115106543D01*
X67685874Y-115071502D01*
X67705808Y-115029811D01*
X67716600Y-114967762D01*
X67720965Y-114871644D01*
X67721655Y-114765379D01*
X67720159Y-114631880D01*
X67713964Y-114542822D01*
X67700514Y-114484293D01*
X67677251Y-114442382D01*
X67658175Y-114420123D01*
X67569563Y-114363985D01*
X67467508Y-114357235D01*
X67370095Y-114400114D01*
X67351296Y-114416032D01*
X67319293Y-114451382D01*
X67299318Y-114493502D01*
X67288593Y-114556251D01*
X67284339Y-114653487D01*
X67283724Y-114753106D01*
X67079761Y-114753106D01*
X67086504Y-114577947D01*
X67110472Y-114440195D01*
G37*
X67110472Y-114440195D02*
X67155548Y-114336632D01*
X67225928Y-114255856D01*
X67280743Y-114214455D01*
X67380376Y-114169728D01*
X67495855Y-114148967D01*
X67603199Y-114154525D01*
X67663264Y-114176943D01*
X67686835Y-114183323D01*
X67702477Y-114159535D01*
X67713395Y-114095788D01*
X67721655Y-113998687D01*
X67730699Y-113890541D01*
X67743261Y-113825475D01*
X67766119Y-113788268D01*
X67806051Y-113763699D01*
X67831138Y-113752819D01*
X67926023Y-113713072D01*
X67925914Y-114390455D01*
X67925543Y-114608661D01*
X67924108Y-114776519D01*
X67921002Y-114902070D01*
X67915622Y-114993355D01*
X67907362Y-115058415D01*
X67895616Y-115105291D01*
X67879781Y-115142024D01*
X67867790Y-115162991D01*
X67768490Y-115276694D01*
X67642588Y-115347965D01*
X67503291Y-115373538D01*
X67363805Y-115350150D01*
X67280743Y-115308119D01*
X67193545Y-115235411D01*
X67134117Y-115146612D01*
X67098261Y-115030320D01*
X67081781Y-114875135D01*
X67079447Y-114761287D01*
X67079761Y-114753106D01*
X67283724Y-114753106D01*
X67284970Y-114883657D01*
X67290678Y-114970080D01*
X67303804Y-115026618D01*
X67327306Y-115067514D01*
X67355386Y-115098362D01*
X67449688Y-115157905D01*
X67550940Y-115162992D01*
X67646636Y-115113279D01*
X67654084Y-115106543D01*
X67685874Y-115071502D01*
X67705808Y-115029811D01*
X67716600Y-114967762D01*
X67720965Y-114871644D01*
X67721655Y-114765379D01*
X67720159Y-114631880D01*
X67713964Y-114542822D01*
X67700514Y-114484293D01*
X67677251Y-114442382D01*
X67658175Y-114420123D01*
X67569563Y-114363985D01*
X67467508Y-114357235D01*
X67370095Y-114400114D01*
X67351296Y-114416032D01*
X67319293Y-114451382D01*
X67299318Y-114493502D01*
X67288593Y-114556251D01*
X67284339Y-114653487D01*
X67283724Y-114753106D01*
X67079761Y-114753106D01*
X67086504Y-114577947D01*
X67110472Y-114440195D01*
X69112124Y-114175840D02*
X69116579Y-114252653D01*
X69116579Y-114252653D02*
X69120071Y-114369391D01*
X69120071Y-114369391D02*
X69122315Y-114516821D01*
X69122315Y-114516821D02*
X69123035Y-114671455D01*
X69123035Y-114671455D02*
X69123035Y-115194727D01*
X69123035Y-115194727D02*
X69030645Y-115287117D01*
X69030645Y-115287117D02*
X68966978Y-115344047D01*
X68966978Y-115344047D02*
X68911089Y-115367107D01*
X68911089Y-115367107D02*
X68834702Y-115365647D01*
X68834702Y-115365647D02*
X68804380Y-115361934D01*
X68804380Y-115361934D02*
X68709610Y-115351126D01*
X68709610Y-115351126D02*
X68631222Y-115344933D01*
X68631222Y-115344933D02*
X68612115Y-115344361D01*
X68612115Y-115344361D02*
X68547699Y-115348102D01*
X68547699Y-115348102D02*
X68455571Y-115357494D01*
X68455571Y-115357494D02*
X68419850Y-115361934D01*
X68419850Y-115361934D02*
X68332114Y-115368801D01*
X68332114Y-115368801D02*
X68273153Y-115353885D01*
X68273153Y-115353885D02*
X68214690Y-115307835D01*
X68214690Y-115307835D02*
X68193585Y-115287117D01*
X68193585Y-115287117D02*
X68101195Y-115194727D01*
X68101195Y-115194727D02*
X68101195Y-114215947D01*
X68101195Y-114215947D02*
X68175558Y-114182066D01*
X68175558Y-114182066D02*
X68239590Y-114156970D01*
X68239590Y-114156970D02*
X68277052Y-114148184D01*
X68277052Y-114148184D02*
X68286657Y-114175950D01*
X68286657Y-114175950D02*
X68295635Y-114253530D01*
X68295635Y-114253530D02*
X68303386Y-114372348D01*
X68303386Y-114372348D02*
X68309314Y-114523828D01*
X68309314Y-114523828D02*
X68312173Y-114651805D01*
X68312173Y-114651805D02*
X68320161Y-115155425D01*
X68320161Y-115155425D02*
X68389848Y-115165278D01*
X68389848Y-115165278D02*
X68453229Y-115158389D01*
X68453229Y-115158389D02*
X68484286Y-115136083D01*
X68484286Y-115136083D02*
X68492967Y-115094379D01*
X68492967Y-115094379D02*
X68500378Y-115005544D01*
X68500378Y-115005544D02*
X68505931Y-114880834D01*
X68505931Y-114880834D02*
X68509036Y-114731507D01*
X68509036Y-114731507D02*
X68509484Y-114654661D01*
X68509484Y-114654661D02*
X68509931Y-114212287D01*
X68509931Y-114212287D02*
X68601874Y-114180235D01*
X68601874Y-114180235D02*
X68666949Y-114158443D01*
X68666949Y-114158443D02*
X68702347Y-114148281D01*
X68702347Y-114148281D02*
X68703368Y-114148184D01*
X68703368Y-114148184D02*
X68706920Y-114175809D01*
X68706920Y-114175809D02*
X68710823Y-114252411D01*
X68710823Y-114252411D02*
X68714751Y-114368579D01*
X68714751Y-114368579D02*
X68718376Y-114514904D01*
X68718376Y-114514904D02*
X68720908Y-114651805D01*
X68720908Y-114651805D02*
X68728897Y-115155425D01*
X68728897Y-115155425D02*
X68904069Y-115155425D01*
X68904069Y-115155425D02*
X68912107Y-114695965D01*
X68912107Y-114695965D02*
X68920146Y-114236505D01*
X68920146Y-114236505D02*
X69005543Y-114192344D01*
X69005543Y-114192344D02*
X69068593Y-114162019D01*
X69068593Y-114162019D02*
X69105910Y-114148258D01*
X69105910Y-114148258D02*
X69106987Y-114148184D01*
X69106987Y-114148184D02*
X69112124Y-114175840D01*
X69112124Y-114175840D02*
X69112124Y-114175840D01*
G36*
X69112124Y-114175840D02*
G01*
X69116579Y-114252653D01*
X69120071Y-114369391D01*
X69122315Y-114516821D01*
X69123035Y-114671455D01*
X69123035Y-115194727D01*
X69030645Y-115287117D01*
X68966978Y-115344047D01*
X68911089Y-115367107D01*
X68834702Y-115365647D01*
X68804380Y-115361934D01*
X68709610Y-115351126D01*
X68631222Y-115344933D01*
X68612115Y-115344361D01*
X68547699Y-115348102D01*
X68455571Y-115357494D01*
X68419850Y-115361934D01*
X68332114Y-115368801D01*
X68273153Y-115353885D01*
X68214690Y-115307835D01*
X68193585Y-115287117D01*
X68101195Y-115194727D01*
X68101195Y-114215947D01*
X68175558Y-114182066D01*
X68239590Y-114156970D01*
X68277052Y-114148184D01*
X68286657Y-114175950D01*
X68295635Y-114253530D01*
X68303386Y-114372348D01*
X68309314Y-114523828D01*
X68312173Y-114651805D01*
X68320161Y-115155425D01*
X68389848Y-115165278D01*
X68453229Y-115158389D01*
X68484286Y-115136083D01*
X68492967Y-115094379D01*
X68500378Y-115005544D01*
X68505931Y-114880834D01*
X68509036Y-114731507D01*
X68509484Y-114654661D01*
X68509931Y-114212287D01*
X68601874Y-114180235D01*
X68666949Y-114158443D01*
X68702347Y-114148281D01*
X68703368Y-114148184D01*
X68706920Y-114175809D01*
X68710823Y-114252411D01*
X68714751Y-114368579D01*
X68718376Y-114514904D01*
X68720908Y-114651805D01*
X68728897Y-115155425D01*
X68904069Y-115155425D01*
X68912107Y-114695965D01*
X68920146Y-114236505D01*
X69005543Y-114192344D01*
X69068593Y-114162019D01*
X69105910Y-114148258D01*
X69106987Y-114148184D01*
X69112124Y-114175840D01*
G37*
X69112124Y-114175840D02*
X69116579Y-114252653D01*
X69120071Y-114369391D01*
X69122315Y-114516821D01*
X69123035Y-114671455D01*
X69123035Y-115194727D01*
X69030645Y-115287117D01*
X68966978Y-115344047D01*
X68911089Y-115367107D01*
X68834702Y-115365647D01*
X68804380Y-115361934D01*
X68709610Y-115351126D01*
X68631222Y-115344933D01*
X68612115Y-115344361D01*
X68547699Y-115348102D01*
X68455571Y-115357494D01*
X68419850Y-115361934D01*
X68332114Y-115368801D01*
X68273153Y-115353885D01*
X68214690Y-115307835D01*
X68193585Y-115287117D01*
X68101195Y-115194727D01*
X68101195Y-114215947D01*
X68175558Y-114182066D01*
X68239590Y-114156970D01*
X68277052Y-114148184D01*
X68286657Y-114175950D01*
X68295635Y-114253530D01*
X68303386Y-114372348D01*
X68309314Y-114523828D01*
X68312173Y-114651805D01*
X68320161Y-115155425D01*
X68389848Y-115165278D01*
X68453229Y-115158389D01*
X68484286Y-115136083D01*
X68492967Y-115094379D01*
X68500378Y-115005544D01*
X68505931Y-114880834D01*
X68509036Y-114731507D01*
X68509484Y-114654661D01*
X68509931Y-114212287D01*
X68601874Y-114180235D01*
X68666949Y-114158443D01*
X68702347Y-114148281D01*
X68703368Y-114148184D01*
X68706920Y-114175809D01*
X68710823Y-114252411D01*
X68714751Y-114368579D01*
X68718376Y-114514904D01*
X68720908Y-114651805D01*
X68728897Y-115155425D01*
X68904069Y-115155425D01*
X68912107Y-114695965D01*
X68920146Y-114236505D01*
X69005543Y-114192344D01*
X69068593Y-114162019D01*
X69105910Y-114148258D01*
X69106987Y-114148184D01*
X69112124Y-114175840D01*
X70867690Y-114176018D02*
X70902585Y-114191269D01*
X70902585Y-114191269D02*
X70985877Y-114257235D01*
X70985877Y-114257235D02*
X71057103Y-114352618D01*
X71057103Y-114352618D02*
X71101153Y-114454406D01*
X71101153Y-114454406D02*
X71108322Y-114504587D01*
X71108322Y-114504587D02*
X71084285Y-114574647D01*
X71084285Y-114574647D02*
X71031561Y-114611717D01*
X71031561Y-114611717D02*
X70975031Y-114634164D01*
X70975031Y-114634164D02*
X70949146Y-114638300D01*
X70949146Y-114638300D02*
X70936542Y-114608283D01*
X70936542Y-114608283D02*
X70911654Y-114542961D01*
X70911654Y-114542961D02*
X70900735Y-114513445D01*
X70900735Y-114513445D02*
X70839508Y-114411348D01*
X70839508Y-114411348D02*
X70750861Y-114360423D01*
X70750861Y-114360423D02*
X70637193Y-114361989D01*
X70637193Y-114361989D02*
X70628774Y-114363994D01*
X70628774Y-114363994D02*
X70568088Y-114392767D01*
X70568088Y-114392767D02*
X70523474Y-114448859D01*
X70523474Y-114448859D02*
X70493002Y-114539163D01*
X70493002Y-114539163D02*
X70474744Y-114670571D01*
X70474744Y-114670571D02*
X70466771Y-114849974D01*
X70466771Y-114849974D02*
X70466023Y-114945433D01*
X70466023Y-114945433D02*
X70465652Y-115095913D01*
X70465652Y-115095913D02*
X70463223Y-115198495D01*
X70463223Y-115198495D02*
X70456760Y-115263672D01*
X70456760Y-115263672D02*
X70444288Y-115301938D01*
X70444288Y-115301938D02*
X70423833Y-115323785D01*
X70423833Y-115323785D02*
X70393419Y-115339707D01*
X70393419Y-115339707D02*
X70391661Y-115340509D01*
X70391661Y-115340509D02*
X70333091Y-115365272D01*
X70333091Y-115365272D02*
X70304075Y-115374391D01*
X70304075Y-115374391D02*
X70299616Y-115346822D01*
X70299616Y-115346822D02*
X70295799Y-115270620D01*
X70295799Y-115270620D02*
X70292899Y-115155541D01*
X70292899Y-115155541D02*
X70291191Y-115011341D01*
X70291191Y-115011341D02*
X70290851Y-114905814D01*
X70290851Y-114905814D02*
X70292588Y-114701613D01*
X70292588Y-114701613D02*
X70299382Y-114546697D01*
X70299382Y-114546697D02*
X70313607Y-114432024D01*
X70313607Y-114432024D02*
X70337638Y-114348551D01*
X70337638Y-114348551D02*
X70373848Y-114287236D01*
X70373848Y-114287236D02*
X70424612Y-114239034D01*
X70424612Y-114239034D02*
X70474739Y-114205393D01*
X70474739Y-114205393D02*
X70595275Y-114160619D01*
X70595275Y-114160619D02*
X70735557Y-114150521D01*
X70735557Y-114150521D02*
X70867690Y-114176018D01*
X70867690Y-114176018D02*
X70867690Y-114176018D01*
G36*
X70867690Y-114176018D02*
G01*
X70902585Y-114191269D01*
X70985877Y-114257235D01*
X71057103Y-114352618D01*
X71101153Y-114454406D01*
X71108322Y-114504587D01*
X71084285Y-114574647D01*
X71031561Y-114611717D01*
X70975031Y-114634164D01*
X70949146Y-114638300D01*
X70936542Y-114608283D01*
X70911654Y-114542961D01*
X70900735Y-114513445D01*
X70839508Y-114411348D01*
X70750861Y-114360423D01*
X70637193Y-114361989D01*
X70628774Y-114363994D01*
X70568088Y-114392767D01*
X70523474Y-114448859D01*
X70493002Y-114539163D01*
X70474744Y-114670571D01*
X70466771Y-114849974D01*
X70466023Y-114945433D01*
X70465652Y-115095913D01*
X70463223Y-115198495D01*
X70456760Y-115263672D01*
X70444288Y-115301938D01*
X70423833Y-115323785D01*
X70393419Y-115339707D01*
X70391661Y-115340509D01*
X70333091Y-115365272D01*
X70304075Y-115374391D01*
X70299616Y-115346822D01*
X70295799Y-115270620D01*
X70292899Y-115155541D01*
X70291191Y-115011341D01*
X70290851Y-114905814D01*
X70292588Y-114701613D01*
X70299382Y-114546697D01*
X70313607Y-114432024D01*
X70337638Y-114348551D01*
X70373848Y-114287236D01*
X70424612Y-114239034D01*
X70474739Y-114205393D01*
X70595275Y-114160619D01*
X70735557Y-114150521D01*
X70867690Y-114176018D01*
G37*
X70867690Y-114176018D02*
X70902585Y-114191269D01*
X70985877Y-114257235D01*
X71057103Y-114352618D01*
X71101153Y-114454406D01*
X71108322Y-114504587D01*
X71084285Y-114574647D01*
X71031561Y-114611717D01*
X70975031Y-114634164D01*
X70949146Y-114638300D01*
X70936542Y-114608283D01*
X70911654Y-114542961D01*
X70900735Y-114513445D01*
X70839508Y-114411348D01*
X70750861Y-114360423D01*
X70637193Y-114361989D01*
X70628774Y-114363994D01*
X70568088Y-114392767D01*
X70523474Y-114448859D01*
X70493002Y-114539163D01*
X70474744Y-114670571D01*
X70466771Y-114849974D01*
X70466023Y-114945433D01*
X70465652Y-115095913D01*
X70463223Y-115198495D01*
X70456760Y-115263672D01*
X70444288Y-115301938D01*
X70423833Y-115323785D01*
X70393419Y-115339707D01*
X70391661Y-115340509D01*
X70333091Y-115365272D01*
X70304075Y-115374391D01*
X70299616Y-115346822D01*
X70295799Y-115270620D01*
X70292899Y-115155541D01*
X70291191Y-115011341D01*
X70290851Y-114905814D01*
X70292588Y-114701613D01*
X70299382Y-114546697D01*
X70313607Y-114432024D01*
X70337638Y-114348551D01*
X70373848Y-114287236D01*
X70424612Y-114239034D01*
X70474739Y-114205393D01*
X70595275Y-114160619D01*
X70735557Y-114150521D01*
X70867690Y-114176018D01*
X65741014Y-104688998D02*
X65899006Y-104689863D01*
X65899006Y-104689863D02*
X66013347Y-104692205D01*
X66013347Y-104692205D02*
X66091407Y-104696762D01*
X66091407Y-104696762D02*
X66140554Y-104704270D01*
X66140554Y-104704270D02*
X66168159Y-104715466D01*
X66168159Y-104715466D02*
X66181592Y-104731088D01*
X66181592Y-104731088D02*
X66188221Y-104751873D01*
X66188221Y-104751873D02*
X66188865Y-104754563D01*
X66188865Y-104754563D02*
X66198935Y-104803113D01*
X66198935Y-104803113D02*
X66217575Y-104898905D01*
X66217575Y-104898905D02*
X66242845Y-105031743D01*
X66242845Y-105031743D02*
X66272807Y-105191431D01*
X66272807Y-105191431D02*
X66305522Y-105367774D01*
X66305522Y-105367774D02*
X66306664Y-105373967D01*
X66306664Y-105373967D02*
X66339433Y-105546782D01*
X66339433Y-105546782D02*
X66370093Y-105699469D01*
X66370093Y-105699469D02*
X66396664Y-105822871D01*
X66396664Y-105822871D02*
X66417167Y-105907831D01*
X66417167Y-105907831D02*
X66429626Y-105945190D01*
X66429626Y-105945190D02*
X66430220Y-105945852D01*
X66430220Y-105945852D02*
X66466919Y-105964095D01*
X66466919Y-105964095D02*
X66542586Y-105994497D01*
X66542586Y-105994497D02*
X66640878Y-106030493D01*
X66640878Y-106030493D02*
X66641425Y-106030685D01*
X66641425Y-106030685D02*
X66765233Y-106077222D01*
X66765233Y-106077222D02*
X66911196Y-106136504D01*
X66911196Y-106136504D02*
X67048781Y-106196109D01*
X67048781Y-106196109D02*
X67055293Y-106199056D01*
X67055293Y-106199056D02*
X67279390Y-106300765D01*
X67279390Y-106300765D02*
X67775619Y-105961897D01*
X67775619Y-105961897D02*
X67927846Y-105858592D01*
X67927846Y-105858592D02*
X68065741Y-105766237D01*
X68065741Y-105766237D02*
X68181315Y-105690084D01*
X68181315Y-105690084D02*
X68266579Y-105635385D01*
X68266579Y-105635385D02*
X68313544Y-105607393D01*
X68313544Y-105607393D02*
X68318004Y-105605317D01*
X68318004Y-105605317D02*
X68352134Y-105614560D01*
X68352134Y-105614560D02*
X68415881Y-105659156D01*
X68415881Y-105659156D02*
X68511731Y-105741209D01*
X68511731Y-105741209D02*
X68642169Y-105862821D01*
X68642169Y-105862821D02*
X68775328Y-105992205D01*
X68775328Y-105992205D02*
X68903694Y-106119702D01*
X68903694Y-106119702D02*
X69018581Y-106236046D01*
X69018581Y-106236046D02*
X69113073Y-106334052D01*
X69113073Y-106334052D02*
X69180253Y-106406536D01*
X69180253Y-106406536D02*
X69213206Y-106446313D01*
X69213206Y-106446313D02*
X69214432Y-106448361D01*
X69214432Y-106448361D02*
X69218074Y-106475656D01*
X69218074Y-106475656D02*
X69204350Y-106520234D01*
X69204350Y-106520234D02*
X69169869Y-106588112D01*
X69169869Y-106588112D02*
X69111239Y-106685311D01*
X69111239Y-106685311D02*
X69025070Y-106817851D01*
X69025070Y-106817851D02*
X68910200Y-106988476D01*
X68910200Y-106988476D02*
X68808254Y-107138655D01*
X68808254Y-107138655D02*
X68717123Y-107273350D01*
X68717123Y-107273350D02*
X68642073Y-107384740D01*
X68642073Y-107384740D02*
X68588369Y-107465005D01*
X68588369Y-107465005D02*
X68561280Y-107506325D01*
X68561280Y-107506325D02*
X68559574Y-107509130D01*
X68559574Y-107509130D02*
X68562882Y-107548721D01*
X68562882Y-107548721D02*
X68587953Y-107625669D01*
X68587953Y-107625669D02*
X68629798Y-107725432D01*
X68629798Y-107725432D02*
X68644712Y-107757291D01*
X68644712Y-107757291D02*
X68709786Y-107899226D01*
X68709786Y-107899226D02*
X68779212Y-108060273D01*
X68779212Y-108060273D02*
X68835609Y-108199621D01*
X68835609Y-108199621D02*
X68876247Y-108303044D01*
X68876247Y-108303044D02*
X68908526Y-108381642D01*
X68908526Y-108381642D02*
X68927178Y-108422720D01*
X68927178Y-108422720D02*
X68929497Y-108425885D01*
X68929497Y-108425885D02*
X68963803Y-108431128D01*
X68963803Y-108431128D02*
X69044669Y-108445494D01*
X69044669Y-108445494D02*
X69161343Y-108466937D01*
X69161343Y-108466937D02*
X69303075Y-108493413D01*
X69303075Y-108493413D02*
X69459110Y-108522877D01*
X69459110Y-108522877D02*
X69618698Y-108553283D01*
X69618698Y-108553283D02*
X69771085Y-108582588D01*
X69771085Y-108582588D02*
X69905521Y-108608745D01*
X69905521Y-108608745D02*
X70011252Y-108629710D01*
X70011252Y-108629710D02*
X70077526Y-108643439D01*
X70077526Y-108643439D02*
X70093782Y-108647320D01*
X70093782Y-108647320D02*
X70110573Y-108656900D01*
X70110573Y-108656900D02*
X70123249Y-108678536D01*
X70123249Y-108678536D02*
X70132378Y-108719531D01*
X70132378Y-108719531D02*
X70138531Y-108787189D01*
X70138531Y-108787189D02*
X70142280Y-108888812D01*
X70142280Y-108888812D02*
X70144192Y-109031703D01*
X70144192Y-109031703D02*
X70144840Y-109223165D01*
X70144840Y-109223165D02*
X70144874Y-109301645D01*
X70144874Y-109301645D02*
X70144874Y-109939906D01*
X70144874Y-109939906D02*
X69991598Y-109970160D01*
X69991598Y-109970160D02*
X69906322Y-109986564D01*
X69906322Y-109986564D02*
X69779070Y-110010509D01*
X69779070Y-110010509D02*
X69625315Y-110039107D01*
X69625315Y-110039107D02*
X69460534Y-110069467D01*
X69460534Y-110069467D02*
X69414989Y-110077806D01*
X69414989Y-110077806D02*
X69262932Y-110107370D01*
X69262932Y-110107370D02*
X69130468Y-110136442D01*
X69130468Y-110136442D02*
X69028714Y-110162329D01*
X69028714Y-110162329D02*
X68968788Y-110182337D01*
X68968788Y-110182337D02*
X68958805Y-110188301D01*
X68958805Y-110188301D02*
X68934293Y-110230534D01*
X68934293Y-110230534D02*
X68899148Y-110312370D01*
X68899148Y-110312370D02*
X68860173Y-110417683D01*
X68860173Y-110417683D02*
X68852442Y-110440368D01*
X68852442Y-110440368D02*
X68801360Y-110581018D01*
X68801360Y-110581018D02*
X68737954Y-110739714D01*
X68737954Y-110739714D02*
X68675904Y-110882225D01*
X68675904Y-110882225D02*
X68675598Y-110882886D01*
X68675598Y-110882886D02*
X68572267Y-111106440D01*
X68572267Y-111106440D02*
X69251961Y-112106232D01*
X69251961Y-112106232D02*
X68815621Y-112543300D01*
X68815621Y-112543300D02*
X68683649Y-112673381D01*
X68683649Y-112673381D02*
X68563279Y-112788048D01*
X68563279Y-112788048D02*
X68461273Y-112881181D01*
X68461273Y-112881181D02*
X68384391Y-112946658D01*
X68384391Y-112946658D02*
X68339393Y-112978357D01*
X68339393Y-112978357D02*
X68332938Y-112980368D01*
X68332938Y-112980368D02*
X68295040Y-112964529D01*
X68295040Y-112964529D02*
X68217708Y-112920496D01*
X68217708Y-112920496D02*
X68109389Y-112853490D01*
X68109389Y-112853490D02*
X67978532Y-112768734D01*
X67978532Y-112768734D02*
X67837052Y-112673816D01*
X67837052Y-112673816D02*
X67693461Y-112576998D01*
X67693461Y-112576998D02*
X67565435Y-112492751D01*
X67565435Y-112492751D02*
X67461105Y-112426258D01*
X67461105Y-112426258D02*
X67388600Y-112382702D01*
X67388600Y-112382702D02*
X67356158Y-112367264D01*
X67356158Y-112367264D02*
X67316576Y-112380328D01*
X67316576Y-112380328D02*
X67241519Y-112414750D01*
X67241519Y-112414750D02*
X67146468Y-112463380D01*
X67146468Y-112463380D02*
X67136392Y-112468785D01*
X67136392Y-112468785D02*
X67008391Y-112532980D01*
X67008391Y-112532980D02*
X66920618Y-112564463D01*
X66920618Y-112564463D02*
X66866028Y-112564798D01*
X66866028Y-112564798D02*
X66837575Y-112535548D01*
X66837575Y-112535548D02*
X66837410Y-112535138D01*
X66837410Y-112535138D02*
X66823188Y-112500498D01*
X66823188Y-112500498D02*
X66789269Y-112418269D01*
X66789269Y-112418269D02*
X66738284Y-112294814D01*
X66738284Y-112294814D02*
X66672862Y-112136498D01*
X66672862Y-112136498D02*
X66595634Y-111949686D01*
X66595634Y-111949686D02*
X66509229Y-111740742D01*
X66509229Y-111740742D02*
X66425551Y-111538446D01*
X66425551Y-111538446D02*
X66333588Y-111315200D01*
X66333588Y-111315200D02*
X66249150Y-111108392D01*
X66249150Y-111108392D02*
X66174769Y-110924362D01*
X66174769Y-110924362D02*
X66112974Y-110769451D01*
X66112974Y-110769451D02*
X66066297Y-110649996D01*
X66066297Y-110649996D02*
X66037268Y-110572339D01*
X66037268Y-110572339D02*
X66028322Y-110543356D01*
X66028322Y-110543356D02*
X66050756Y-110510110D01*
X66050756Y-110510110D02*
X66109439Y-110457123D01*
X66109439Y-110457123D02*
X66187689Y-110398704D01*
X66187689Y-110398704D02*
X66410534Y-110213952D01*
X66410534Y-110213952D02*
X66584718Y-110002182D01*
X66584718Y-110002182D02*
X66708154Y-109767856D01*
X66708154Y-109767856D02*
X66778754Y-109515434D01*
X66778754Y-109515434D02*
X66794431Y-109249377D01*
X66794431Y-109249377D02*
X66783036Y-109126575D01*
X66783036Y-109126575D02*
X66720950Y-108871793D01*
X66720950Y-108871793D02*
X66614023Y-108646801D01*
X66614023Y-108646801D02*
X66468889Y-108453817D01*
X66468889Y-108453817D02*
X66292178Y-108295061D01*
X66292178Y-108295061D02*
X66090522Y-108172750D01*
X66090522Y-108172750D02*
X65870554Y-108089105D01*
X65870554Y-108089105D02*
X65638906Y-108046344D01*
X65638906Y-108046344D02*
X65402209Y-108046687D01*
X65402209Y-108046687D02*
X65167095Y-108092352D01*
X65167095Y-108092352D02*
X64940196Y-108185559D01*
X64940196Y-108185559D02*
X64728144Y-108328527D01*
X64728144Y-108328527D02*
X64639636Y-108409383D01*
X64639636Y-108409383D02*
X64469889Y-108617007D01*
X64469889Y-108617007D02*
X64351699Y-108843895D01*
X64351699Y-108843895D02*
X64284278Y-109083433D01*
X64284278Y-109083433D02*
X64266840Y-109329007D01*
X64266840Y-109329007D02*
X64298598Y-109574003D01*
X64298598Y-109574003D02*
X64378765Y-109811808D01*
X64378765Y-109811808D02*
X64506555Y-110035807D01*
X64506555Y-110035807D02*
X64681180Y-110239387D01*
X64681180Y-110239387D02*
X64876312Y-110398704D01*
X64876312Y-110398704D02*
X64957591Y-110459602D01*
X64957591Y-110459602D02*
X65015009Y-110512015D01*
X65015009Y-110512015D02*
X65035678Y-110543406D01*
X65035678Y-110543406D02*
X65024856Y-110577639D01*
X65024856Y-110577639D02*
X64994077Y-110659419D01*
X64994077Y-110659419D02*
X64945874Y-110782407D01*
X64945874Y-110782407D02*
X64882778Y-110940263D01*
X64882778Y-110940263D02*
X64807322Y-111126649D01*
X64807322Y-111126649D02*
X64722038Y-111335226D01*
X64722038Y-111335226D02*
X64638219Y-111538496D01*
X64638219Y-111538496D02*
X64545745Y-111761933D01*
X64545745Y-111761933D02*
X64460089Y-111968984D01*
X64460089Y-111968984D02*
X64383882Y-112153286D01*
X64383882Y-112153286D02*
X64319753Y-112308475D01*
X64319753Y-112308475D02*
X64270332Y-112428188D01*
X64270332Y-112428188D02*
X64238248Y-112506061D01*
X64238248Y-112506061D02*
X64226359Y-112535138D01*
X64226359Y-112535138D02*
X64198274Y-112564677D01*
X64198274Y-112564677D02*
X64143949Y-112564591D01*
X64143949Y-112564591D02*
X64056395Y-112533326D01*
X64056395Y-112533326D02*
X63928619Y-112469329D01*
X63928619Y-112469329D02*
X63927608Y-112468785D01*
X63927608Y-112468785D02*
X63831402Y-112419121D01*
X63831402Y-112419121D02*
X63753631Y-112382945D01*
X63753631Y-112382945D02*
X63709777Y-112367408D01*
X63709777Y-112367408D02*
X63707842Y-112367264D01*
X63707842Y-112367264D02*
X63674829Y-112383024D01*
X63674829Y-112383024D02*
X63601946Y-112426850D01*
X63601946Y-112426850D02*
X63497322Y-112493557D01*
X63497322Y-112493557D02*
X63369090Y-112577964D01*
X63369090Y-112577964D02*
X63226948Y-112673816D01*
X63226948Y-112673816D02*
X63082233Y-112770867D01*
X63082233Y-112770867D02*
X62951804Y-112855270D01*
X62951804Y-112855270D02*
X62844110Y-112921801D01*
X62844110Y-112921801D02*
X62767598Y-112965238D01*
X62767598Y-112965238D02*
X62731062Y-112980368D01*
X62731062Y-112980368D02*
X62697418Y-112960482D01*
X62697418Y-112960482D02*
X62629776Y-112904903D01*
X62629776Y-112904903D02*
X62534893Y-112819754D01*
X62534893Y-112819754D02*
X62419530Y-112711153D01*
X62419530Y-112711153D02*
X62290445Y-112585221D01*
X62290445Y-112585221D02*
X62248229Y-112543149D01*
X62248229Y-112543149D02*
X61811739Y-112105931D01*
X61811739Y-112105931D02*
X62143977Y-111618340D01*
X62143977Y-111618340D02*
X62244946Y-111468605D01*
X62244946Y-111468605D02*
X62333562Y-111334220D01*
X62333562Y-111334220D02*
X62404854Y-111222969D01*
X62404854Y-111222969D02*
X62453850Y-111142639D01*
X62453850Y-111142639D02*
X62475578Y-111101014D01*
X62475578Y-111101014D02*
X62476215Y-111098053D01*
X62476215Y-111098053D02*
X62464760Y-111058818D01*
X62464760Y-111058818D02*
X62433949Y-110979895D01*
X62433949Y-110979895D02*
X62389116Y-110874509D01*
X62389116Y-110874509D02*
X62357647Y-110803954D01*
X62357647Y-110803954D02*
X62298808Y-110668876D01*
X62298808Y-110668876D02*
X62243396Y-110532409D01*
X62243396Y-110532409D02*
X62200436Y-110417103D01*
X62200436Y-110417103D02*
X62188766Y-110381977D01*
X62188766Y-110381977D02*
X62155611Y-110288174D01*
X62155611Y-110288174D02*
X62123201Y-110215694D01*
X62123201Y-110215694D02*
X62105399Y-110188301D01*
X62105399Y-110188301D02*
X62066114Y-110171536D01*
X62066114Y-110171536D02*
X61980374Y-110147770D01*
X61980374Y-110147770D02*
X61859303Y-110119697D01*
X61859303Y-110119697D02*
X61714027Y-110090009D01*
X61714027Y-110090009D02*
X61649012Y-110077806D01*
X61649012Y-110077806D02*
X61483913Y-110047468D01*
X61483913Y-110047468D02*
X61325552Y-110018093D01*
X61325552Y-110018093D02*
X61189404Y-109992569D01*
X61189404Y-109992569D02*
X61090943Y-109973785D01*
X61090943Y-109973785D02*
X61072402Y-109970160D01*
X61072402Y-109970160D02*
X60919127Y-109939906D01*
X60919127Y-109939906D02*
X60919127Y-109301645D01*
X60919127Y-109301645D02*
X60919471Y-109091770D01*
X60919471Y-109091770D02*
X60920884Y-108932980D01*
X60920884Y-108932980D02*
X60923936Y-108817973D01*
X60923936Y-108817973D02*
X60929197Y-108739446D01*
X60929197Y-108739446D02*
X60937237Y-108690096D01*
X60937237Y-108690096D02*
X60948627Y-108662619D01*
X60948627Y-108662619D02*
X60963937Y-108649713D01*
X60963937Y-108649713D02*
X60970218Y-108647320D01*
X60970218Y-108647320D02*
X61008104Y-108638833D01*
X61008104Y-108638833D02*
X61091805Y-108621900D01*
X61091805Y-108621900D02*
X61210567Y-108598566D01*
X61210567Y-108598566D02*
X61353639Y-108570875D01*
X61353639Y-108570875D02*
X61510268Y-108540873D01*
X61510268Y-108540873D02*
X61669703Y-108510604D01*
X61669703Y-108510604D02*
X61821191Y-108482115D01*
X61821191Y-108482115D02*
X61953981Y-108457449D01*
X61953981Y-108457449D02*
X62057319Y-108438651D01*
X62057319Y-108438651D02*
X62120455Y-108427767D01*
X62120455Y-108427767D02*
X62134503Y-108425885D01*
X62134503Y-108425885D02*
X62147230Y-108400704D01*
X62147230Y-108400704D02*
X62175400Y-108333622D01*
X62175400Y-108333622D02*
X62213748Y-108237333D01*
X62213748Y-108237333D02*
X62228391Y-108199621D01*
X62228391Y-108199621D02*
X62287452Y-108053921D01*
X62287452Y-108053921D02*
X62357000Y-107892951D01*
X62357000Y-107892951D02*
X62419288Y-107757291D01*
X62419288Y-107757291D02*
X62465121Y-107653561D01*
X62465121Y-107653561D02*
X62495613Y-107568326D01*
X62495613Y-107568326D02*
X62505792Y-107516126D01*
X62505792Y-107516126D02*
X62504169Y-107509130D01*
X62504169Y-107509130D02*
X62482657Y-107476102D01*
X62482657Y-107476102D02*
X62433535Y-107402643D01*
X62433535Y-107402643D02*
X62362077Y-107296577D01*
X62362077Y-107296577D02*
X62273555Y-107165726D01*
X62273555Y-107165726D02*
X62173241Y-107017912D01*
X62173241Y-107017912D02*
X62153406Y-106988734D01*
X62153406Y-106988734D02*
X62037012Y-106815863D01*
X62037012Y-106815863D02*
X61951452Y-106684226D01*
X61951452Y-106684226D02*
X61893316Y-106587761D01*
X61893316Y-106587761D02*
X61859192Y-106520408D01*
X61859192Y-106520408D02*
X61845669Y-106476106D01*
X61845669Y-106476106D02*
X61849336Y-106448794D01*
X61849336Y-106448794D02*
X61849430Y-106448620D01*
X61849430Y-106448620D02*
X61878293Y-106412746D01*
X61878293Y-106412746D02*
X61942133Y-106343391D01*
X61942133Y-106343391D02*
X62034031Y-106247745D01*
X62034031Y-106247745D02*
X62147067Y-106132999D01*
X62147067Y-106132999D02*
X62274321Y-106006341D01*
X62274321Y-106006341D02*
X62288672Y-105992205D01*
X62288672Y-105992205D02*
X62449043Y-105836903D01*
X62449043Y-105836903D02*
X62572805Y-105722870D01*
X62572805Y-105722870D02*
X62662445Y-105648002D01*
X62662445Y-105648002D02*
X62720448Y-105610196D01*
X62720448Y-105610196D02*
X62745996Y-105605317D01*
X62745996Y-105605317D02*
X62783282Y-105626603D01*
X62783282Y-105626603D02*
X62860657Y-105675773D01*
X62860657Y-105675773D02*
X62970133Y-105747575D01*
X62970133Y-105747575D02*
X63103720Y-105836755D01*
X63103720Y-105836755D02*
X63253430Y-105938063D01*
X63253430Y-105938063D02*
X63288382Y-105961897D01*
X63288382Y-105961897D02*
X63784610Y-106300765D01*
X63784610Y-106300765D02*
X64008707Y-106199056D01*
X64008707Y-106199056D02*
X64144989Y-106139783D01*
X64144989Y-106139783D02*
X64291276Y-106080170D01*
X64291276Y-106080170D02*
X64417035Y-106032640D01*
X64417035Y-106032640D02*
X64422575Y-106030685D01*
X64422575Y-106030685D02*
X64520943Y-105994677D01*
X64520943Y-105994677D02*
X64596771Y-105964229D01*
X64596771Y-105964229D02*
X64633718Y-105945905D01*
X64633718Y-105945905D02*
X64633780Y-105945852D01*
X64633780Y-105945852D02*
X64645504Y-105912729D01*
X64645504Y-105912729D02*
X64665432Y-105831267D01*
X64665432Y-105831267D02*
X64691587Y-105710625D01*
X64691587Y-105710625D02*
X64721990Y-105559959D01*
X64721990Y-105559959D02*
X64754663Y-105388428D01*
X64754663Y-105388428D02*
X64757336Y-105373967D01*
X64757336Y-105373967D02*
X64790110Y-105197235D01*
X64790110Y-105197235D02*
X64820198Y-105036810D01*
X64820198Y-105036810D02*
X64845661Y-104902888D01*
X64845661Y-104902888D02*
X64864559Y-104805663D01*
X64864559Y-104805663D02*
X64874953Y-104755332D01*
X64874953Y-104755332D02*
X64875135Y-104754563D01*
X64875135Y-104754563D02*
X64881461Y-104733153D01*
X64881461Y-104733153D02*
X64893761Y-104716988D01*
X64893761Y-104716988D02*
X64919406Y-104705331D01*
X64919406Y-104705331D02*
X64965765Y-104697445D01*
X64965765Y-104697445D02*
X65040208Y-104692593D01*
X65040208Y-104692593D02*
X65150105Y-104690039D01*
X65150105Y-104690039D02*
X65302825Y-104689045D01*
X65302825Y-104689045D02*
X65505738Y-104688874D01*
X65505738Y-104688874D02*
X65532000Y-104688874D01*
X65532000Y-104688874D02*
X65741014Y-104688998D01*
X65741014Y-104688998D02*
X65741014Y-104688998D01*
G36*
X65741014Y-104688998D02*
G01*
X65899006Y-104689863D01*
X66013347Y-104692205D01*
X66091407Y-104696762D01*
X66140554Y-104704270D01*
X66168159Y-104715466D01*
X66181592Y-104731088D01*
X66188221Y-104751873D01*
X66188865Y-104754563D01*
X66198935Y-104803113D01*
X66217575Y-104898905D01*
X66242845Y-105031743D01*
X66272807Y-105191431D01*
X66305522Y-105367774D01*
X66306664Y-105373967D01*
X66339433Y-105546782D01*
X66370093Y-105699469D01*
X66396664Y-105822871D01*
X66417167Y-105907831D01*
X66429626Y-105945190D01*
X66430220Y-105945852D01*
X66466919Y-105964095D01*
X66542586Y-105994497D01*
X66640878Y-106030493D01*
X66641425Y-106030685D01*
X66765233Y-106077222D01*
X66911196Y-106136504D01*
X67048781Y-106196109D01*
X67055293Y-106199056D01*
X67279390Y-106300765D01*
X67775619Y-105961897D01*
X67927846Y-105858592D01*
X68065741Y-105766237D01*
X68181315Y-105690084D01*
X68266579Y-105635385D01*
X68313544Y-105607393D01*
X68318004Y-105605317D01*
X68352134Y-105614560D01*
X68415881Y-105659156D01*
X68511731Y-105741209D01*
X68642169Y-105862821D01*
X68775328Y-105992205D01*
X68903694Y-106119702D01*
X69018581Y-106236046D01*
X69113073Y-106334052D01*
X69180253Y-106406536D01*
X69213206Y-106446313D01*
X69214432Y-106448361D01*
X69218074Y-106475656D01*
X69204350Y-106520234D01*
X69169869Y-106588112D01*
X69111239Y-106685311D01*
X69025070Y-106817851D01*
X68910200Y-106988476D01*
X68808254Y-107138655D01*
X68717123Y-107273350D01*
X68642073Y-107384740D01*
X68588369Y-107465005D01*
X68561280Y-107506325D01*
X68559574Y-107509130D01*
X68562882Y-107548721D01*
X68587953Y-107625669D01*
X68629798Y-107725432D01*
X68644712Y-107757291D01*
X68709786Y-107899226D01*
X68779212Y-108060273D01*
X68835609Y-108199621D01*
X68876247Y-108303044D01*
X68908526Y-108381642D01*
X68927178Y-108422720D01*
X68929497Y-108425885D01*
X68963803Y-108431128D01*
X69044669Y-108445494D01*
X69161343Y-108466937D01*
X69303075Y-108493413D01*
X69459110Y-108522877D01*
X69618698Y-108553283D01*
X69771085Y-108582588D01*
X69905521Y-108608745D01*
X70011252Y-108629710D01*
X70077526Y-108643439D01*
X70093782Y-108647320D01*
X70110573Y-108656900D01*
X70123249Y-108678536D01*
X70132378Y-108719531D01*
X70138531Y-108787189D01*
X70142280Y-108888812D01*
X70144192Y-109031703D01*
X70144840Y-109223165D01*
X70144874Y-109301645D01*
X70144874Y-109939906D01*
X69991598Y-109970160D01*
X69906322Y-109986564D01*
X69779070Y-110010509D01*
X69625315Y-110039107D01*
X69460534Y-110069467D01*
X69414989Y-110077806D01*
X69262932Y-110107370D01*
X69130468Y-110136442D01*
X69028714Y-110162329D01*
X68968788Y-110182337D01*
X68958805Y-110188301D01*
X68934293Y-110230534D01*
X68899148Y-110312370D01*
X68860173Y-110417683D01*
X68852442Y-110440368D01*
X68801360Y-110581018D01*
X68737954Y-110739714D01*
X68675904Y-110882225D01*
X68675598Y-110882886D01*
X68572267Y-111106440D01*
X69251961Y-112106232D01*
X68815621Y-112543300D01*
X68683649Y-112673381D01*
X68563279Y-112788048D01*
X68461273Y-112881181D01*
X68384391Y-112946658D01*
X68339393Y-112978357D01*
X68332938Y-112980368D01*
X68295040Y-112964529D01*
X68217708Y-112920496D01*
X68109389Y-112853490D01*
X67978532Y-112768734D01*
X67837052Y-112673816D01*
X67693461Y-112576998D01*
X67565435Y-112492751D01*
X67461105Y-112426258D01*
X67388600Y-112382702D01*
X67356158Y-112367264D01*
X67316576Y-112380328D01*
X67241519Y-112414750D01*
X67146468Y-112463380D01*
X67136392Y-112468785D01*
X67008391Y-112532980D01*
X66920618Y-112564463D01*
X66866028Y-112564798D01*
X66837575Y-112535548D01*
X66837410Y-112535138D01*
X66823188Y-112500498D01*
X66789269Y-112418269D01*
X66738284Y-112294814D01*
X66672862Y-112136498D01*
X66595634Y-111949686D01*
X66509229Y-111740742D01*
X66425551Y-111538446D01*
X66333588Y-111315200D01*
X66249150Y-111108392D01*
X66174769Y-110924362D01*
X66112974Y-110769451D01*
X66066297Y-110649996D01*
X66037268Y-110572339D01*
X66028322Y-110543356D01*
X66050756Y-110510110D01*
X66109439Y-110457123D01*
X66187689Y-110398704D01*
X66410534Y-110213952D01*
X66584718Y-110002182D01*
X66708154Y-109767856D01*
X66778754Y-109515434D01*
X66794431Y-109249377D01*
X66783036Y-109126575D01*
X66720950Y-108871793D01*
X66614023Y-108646801D01*
X66468889Y-108453817D01*
X66292178Y-108295061D01*
X66090522Y-108172750D01*
X65870554Y-108089105D01*
X65638906Y-108046344D01*
X65402209Y-108046687D01*
X65167095Y-108092352D01*
X64940196Y-108185559D01*
X64728144Y-108328527D01*
X64639636Y-108409383D01*
X64469889Y-108617007D01*
X64351699Y-108843895D01*
X64284278Y-109083433D01*
X64266840Y-109329007D01*
X64298598Y-109574003D01*
X64378765Y-109811808D01*
X64506555Y-110035807D01*
X64681180Y-110239387D01*
X64876312Y-110398704D01*
X64957591Y-110459602D01*
X65015009Y-110512015D01*
X65035678Y-110543406D01*
X65024856Y-110577639D01*
X64994077Y-110659419D01*
X64945874Y-110782407D01*
X64882778Y-110940263D01*
X64807322Y-111126649D01*
X64722038Y-111335226D01*
X64638219Y-111538496D01*
X64545745Y-111761933D01*
X64460089Y-111968984D01*
X64383882Y-112153286D01*
X64319753Y-112308475D01*
X64270332Y-112428188D01*
X64238248Y-112506061D01*
X64226359Y-112535138D01*
X64198274Y-112564677D01*
X64143949Y-112564591D01*
X64056395Y-112533326D01*
X63928619Y-112469329D01*
X63927608Y-112468785D01*
X63831402Y-112419121D01*
X63753631Y-112382945D01*
X63709777Y-112367408D01*
X63707842Y-112367264D01*
X63674829Y-112383024D01*
X63601946Y-112426850D01*
X63497322Y-112493557D01*
X63369090Y-112577964D01*
X63226948Y-112673816D01*
X63082233Y-112770867D01*
X62951804Y-112855270D01*
X62844110Y-112921801D01*
X62767598Y-112965238D01*
X62731062Y-112980368D01*
X62697418Y-112960482D01*
X62629776Y-112904903D01*
X62534893Y-112819754D01*
X62419530Y-112711153D01*
X62290445Y-112585221D01*
X62248229Y-112543149D01*
X61811739Y-112105931D01*
X62143977Y-111618340D01*
X62244946Y-111468605D01*
X62333562Y-111334220D01*
X62404854Y-111222969D01*
X62453850Y-111142639D01*
X62475578Y-111101014D01*
X62476215Y-111098053D01*
X62464760Y-111058818D01*
X62433949Y-110979895D01*
X62389116Y-110874509D01*
X62357647Y-110803954D01*
X62298808Y-110668876D01*
X62243396Y-110532409D01*
X62200436Y-110417103D01*
X62188766Y-110381977D01*
X62155611Y-110288174D01*
X62123201Y-110215694D01*
X62105399Y-110188301D01*
X62066114Y-110171536D01*
X61980374Y-110147770D01*
X61859303Y-110119697D01*
X61714027Y-110090009D01*
X61649012Y-110077806D01*
X61483913Y-110047468D01*
X61325552Y-110018093D01*
X61189404Y-109992569D01*
X61090943Y-109973785D01*
X61072402Y-109970160D01*
X60919127Y-109939906D01*
X60919127Y-109301645D01*
X60919471Y-109091770D01*
X60920884Y-108932980D01*
X60923936Y-108817973D01*
X60929197Y-108739446D01*
X60937237Y-108690096D01*
X60948627Y-108662619D01*
X60963937Y-108649713D01*
X60970218Y-108647320D01*
X61008104Y-108638833D01*
X61091805Y-108621900D01*
X61210567Y-108598566D01*
X61353639Y-108570875D01*
X61510268Y-108540873D01*
X61669703Y-108510604D01*
X61821191Y-108482115D01*
X61953981Y-108457449D01*
X62057319Y-108438651D01*
X62120455Y-108427767D01*
X62134503Y-108425885D01*
X62147230Y-108400704D01*
X62175400Y-108333622D01*
X62213748Y-108237333D01*
X62228391Y-108199621D01*
X62287452Y-108053921D01*
X62357000Y-107892951D01*
X62419288Y-107757291D01*
X62465121Y-107653561D01*
X62495613Y-107568326D01*
X62505792Y-107516126D01*
X62504169Y-107509130D01*
X62482657Y-107476102D01*
X62433535Y-107402643D01*
X62362077Y-107296577D01*
X62273555Y-107165726D01*
X62173241Y-107017912D01*
X62153406Y-106988734D01*
X62037012Y-106815863D01*
X61951452Y-106684226D01*
X61893316Y-106587761D01*
X61859192Y-106520408D01*
X61845669Y-106476106D01*
X61849336Y-106448794D01*
X61849430Y-106448620D01*
X61878293Y-106412746D01*
X61942133Y-106343391D01*
X62034031Y-106247745D01*
X62147067Y-106132999D01*
X62274321Y-106006341D01*
X62288672Y-105992205D01*
X62449043Y-105836903D01*
X62572805Y-105722870D01*
X62662445Y-105648002D01*
X62720448Y-105610196D01*
X62745996Y-105605317D01*
X62783282Y-105626603D01*
X62860657Y-105675773D01*
X62970133Y-105747575D01*
X63103720Y-105836755D01*
X63253430Y-105938063D01*
X63288382Y-105961897D01*
X63784610Y-106300765D01*
X64008707Y-106199056D01*
X64144989Y-106139783D01*
X64291276Y-106080170D01*
X64417035Y-106032640D01*
X64422575Y-106030685D01*
X64520943Y-105994677D01*
X64596771Y-105964229D01*
X64633718Y-105945905D01*
X64633780Y-105945852D01*
X64645504Y-105912729D01*
X64665432Y-105831267D01*
X64691587Y-105710625D01*
X64721990Y-105559959D01*
X64754663Y-105388428D01*
X64757336Y-105373967D01*
X64790110Y-105197235D01*
X64820198Y-105036810D01*
X64845661Y-104902888D01*
X64864559Y-104805663D01*
X64874953Y-104755332D01*
X64875135Y-104754563D01*
X64881461Y-104733153D01*
X64893761Y-104716988D01*
X64919406Y-104705331D01*
X64965765Y-104697445D01*
X65040208Y-104692593D01*
X65150105Y-104690039D01*
X65302825Y-104689045D01*
X65505738Y-104688874D01*
X65532000Y-104688874D01*
X65741014Y-104688998D01*
G37*
X65741014Y-104688998D02*
X65899006Y-104689863D01*
X66013347Y-104692205D01*
X66091407Y-104696762D01*
X66140554Y-104704270D01*
X66168159Y-104715466D01*
X66181592Y-104731088D01*
X66188221Y-104751873D01*
X66188865Y-104754563D01*
X66198935Y-104803113D01*
X66217575Y-104898905D01*
X66242845Y-105031743D01*
X66272807Y-105191431D01*
X66305522Y-105367774D01*
X66306664Y-105373967D01*
X66339433Y-105546782D01*
X66370093Y-105699469D01*
X66396664Y-105822871D01*
X66417167Y-105907831D01*
X66429626Y-105945190D01*
X66430220Y-105945852D01*
X66466919Y-105964095D01*
X66542586Y-105994497D01*
X66640878Y-106030493D01*
X66641425Y-106030685D01*
X66765233Y-106077222D01*
X66911196Y-106136504D01*
X67048781Y-106196109D01*
X67055293Y-106199056D01*
X67279390Y-106300765D01*
X67775619Y-105961897D01*
X67927846Y-105858592D01*
X68065741Y-105766237D01*
X68181315Y-105690084D01*
X68266579Y-105635385D01*
X68313544Y-105607393D01*
X68318004Y-105605317D01*
X68352134Y-105614560D01*
X68415881Y-105659156D01*
X68511731Y-105741209D01*
X68642169Y-105862821D01*
X68775328Y-105992205D01*
X68903694Y-106119702D01*
X69018581Y-106236046D01*
X69113073Y-106334052D01*
X69180253Y-106406536D01*
X69213206Y-106446313D01*
X69214432Y-106448361D01*
X69218074Y-106475656D01*
X69204350Y-106520234D01*
X69169869Y-106588112D01*
X69111239Y-106685311D01*
X69025070Y-106817851D01*
X68910200Y-106988476D01*
X68808254Y-107138655D01*
X68717123Y-107273350D01*
X68642073Y-107384740D01*
X68588369Y-107465005D01*
X68561280Y-107506325D01*
X68559574Y-107509130D01*
X68562882Y-107548721D01*
X68587953Y-107625669D01*
X68629798Y-107725432D01*
X68644712Y-107757291D01*
X68709786Y-107899226D01*
X68779212Y-108060273D01*
X68835609Y-108199621D01*
X68876247Y-108303044D01*
X68908526Y-108381642D01*
X68927178Y-108422720D01*
X68929497Y-108425885D01*
X68963803Y-108431128D01*
X69044669Y-108445494D01*
X69161343Y-108466937D01*
X69303075Y-108493413D01*
X69459110Y-108522877D01*
X69618698Y-108553283D01*
X69771085Y-108582588D01*
X69905521Y-108608745D01*
X70011252Y-108629710D01*
X70077526Y-108643439D01*
X70093782Y-108647320D01*
X70110573Y-108656900D01*
X70123249Y-108678536D01*
X70132378Y-108719531D01*
X70138531Y-108787189D01*
X70142280Y-108888812D01*
X70144192Y-109031703D01*
X70144840Y-109223165D01*
X70144874Y-109301645D01*
X70144874Y-109939906D01*
X69991598Y-109970160D01*
X69906322Y-109986564D01*
X69779070Y-110010509D01*
X69625315Y-110039107D01*
X69460534Y-110069467D01*
X69414989Y-110077806D01*
X69262932Y-110107370D01*
X69130468Y-110136442D01*
X69028714Y-110162329D01*
X68968788Y-110182337D01*
X68958805Y-110188301D01*
X68934293Y-110230534D01*
X68899148Y-110312370D01*
X68860173Y-110417683D01*
X68852442Y-110440368D01*
X68801360Y-110581018D01*
X68737954Y-110739714D01*
X68675904Y-110882225D01*
X68675598Y-110882886D01*
X68572267Y-111106440D01*
X69251961Y-112106232D01*
X68815621Y-112543300D01*
X68683649Y-112673381D01*
X68563279Y-112788048D01*
X68461273Y-112881181D01*
X68384391Y-112946658D01*
X68339393Y-112978357D01*
X68332938Y-112980368D01*
X68295040Y-112964529D01*
X68217708Y-112920496D01*
X68109389Y-112853490D01*
X67978532Y-112768734D01*
X67837052Y-112673816D01*
X67693461Y-112576998D01*
X67565435Y-112492751D01*
X67461105Y-112426258D01*
X67388600Y-112382702D01*
X67356158Y-112367264D01*
X67316576Y-112380328D01*
X67241519Y-112414750D01*
X67146468Y-112463380D01*
X67136392Y-112468785D01*
X67008391Y-112532980D01*
X66920618Y-112564463D01*
X66866028Y-112564798D01*
X66837575Y-112535548D01*
X66837410Y-112535138D01*
X66823188Y-112500498D01*
X66789269Y-112418269D01*
X66738284Y-112294814D01*
X66672862Y-112136498D01*
X66595634Y-111949686D01*
X66509229Y-111740742D01*
X66425551Y-111538446D01*
X66333588Y-111315200D01*
X66249150Y-111108392D01*
X66174769Y-110924362D01*
X66112974Y-110769451D01*
X66066297Y-110649996D01*
X66037268Y-110572339D01*
X66028322Y-110543356D01*
X66050756Y-110510110D01*
X66109439Y-110457123D01*
X66187689Y-110398704D01*
X66410534Y-110213952D01*
X66584718Y-110002182D01*
X66708154Y-109767856D01*
X66778754Y-109515434D01*
X66794431Y-109249377D01*
X66783036Y-109126575D01*
X66720950Y-108871793D01*
X66614023Y-108646801D01*
X66468889Y-108453817D01*
X66292178Y-108295061D01*
X66090522Y-108172750D01*
X65870554Y-108089105D01*
X65638906Y-108046344D01*
X65402209Y-108046687D01*
X65167095Y-108092352D01*
X64940196Y-108185559D01*
X64728144Y-108328527D01*
X64639636Y-108409383D01*
X64469889Y-108617007D01*
X64351699Y-108843895D01*
X64284278Y-109083433D01*
X64266840Y-109329007D01*
X64298598Y-109574003D01*
X64378765Y-109811808D01*
X64506555Y-110035807D01*
X64681180Y-110239387D01*
X64876312Y-110398704D01*
X64957591Y-110459602D01*
X65015009Y-110512015D01*
X65035678Y-110543406D01*
X65024856Y-110577639D01*
X64994077Y-110659419D01*
X64945874Y-110782407D01*
X64882778Y-110940263D01*
X64807322Y-111126649D01*
X64722038Y-111335226D01*
X64638219Y-111538496D01*
X64545745Y-111761933D01*
X64460089Y-111968984D01*
X64383882Y-112153286D01*
X64319753Y-112308475D01*
X64270332Y-112428188D01*
X64238248Y-112506061D01*
X64226359Y-112535138D01*
X64198274Y-112564677D01*
X64143949Y-112564591D01*
X64056395Y-112533326D01*
X63928619Y-112469329D01*
X63927608Y-112468785D01*
X63831402Y-112419121D01*
X63753631Y-112382945D01*
X63709777Y-112367408D01*
X63707842Y-112367264D01*
X63674829Y-112383024D01*
X63601946Y-112426850D01*
X63497322Y-112493557D01*
X63369090Y-112577964D01*
X63226948Y-112673816D01*
X63082233Y-112770867D01*
X62951804Y-112855270D01*
X62844110Y-112921801D01*
X62767598Y-112965238D01*
X62731062Y-112980368D01*
X62697418Y-112960482D01*
X62629776Y-112904903D01*
X62534893Y-112819754D01*
X62419530Y-112711153D01*
X62290445Y-112585221D01*
X62248229Y-112543149D01*
X61811739Y-112105931D01*
X62143977Y-111618340D01*
X62244946Y-111468605D01*
X62333562Y-111334220D01*
X62404854Y-111222969D01*
X62453850Y-111142639D01*
X62475578Y-111101014D01*
X62476215Y-111098053D01*
X62464760Y-111058818D01*
X62433949Y-110979895D01*
X62389116Y-110874509D01*
X62357647Y-110803954D01*
X62298808Y-110668876D01*
X62243396Y-110532409D01*
X62200436Y-110417103D01*
X62188766Y-110381977D01*
X62155611Y-110288174D01*
X62123201Y-110215694D01*
X62105399Y-110188301D01*
X62066114Y-110171536D01*
X61980374Y-110147770D01*
X61859303Y-110119697D01*
X61714027Y-110090009D01*
X61649012Y-110077806D01*
X61483913Y-110047468D01*
X61325552Y-110018093D01*
X61189404Y-109992569D01*
X61090943Y-109973785D01*
X61072402Y-109970160D01*
X60919127Y-109939906D01*
X60919127Y-109301645D01*
X60919471Y-109091770D01*
X60920884Y-108932980D01*
X60923936Y-108817973D01*
X60929197Y-108739446D01*
X60937237Y-108690096D01*
X60948627Y-108662619D01*
X60963937Y-108649713D01*
X60970218Y-108647320D01*
X61008104Y-108638833D01*
X61091805Y-108621900D01*
X61210567Y-108598566D01*
X61353639Y-108570875D01*
X61510268Y-108540873D01*
X61669703Y-108510604D01*
X61821191Y-108482115D01*
X61953981Y-108457449D01*
X62057319Y-108438651D01*
X62120455Y-108427767D01*
X62134503Y-108425885D01*
X62147230Y-108400704D01*
X62175400Y-108333622D01*
X62213748Y-108237333D01*
X62228391Y-108199621D01*
X62287452Y-108053921D01*
X62357000Y-107892951D01*
X62419288Y-107757291D01*
X62465121Y-107653561D01*
X62495613Y-107568326D01*
X62505792Y-107516126D01*
X62504169Y-107509130D01*
X62482657Y-107476102D01*
X62433535Y-107402643D01*
X62362077Y-107296577D01*
X62273555Y-107165726D01*
X62173241Y-107017912D01*
X62153406Y-106988734D01*
X62037012Y-106815863D01*
X61951452Y-106684226D01*
X61893316Y-106587761D01*
X61859192Y-106520408D01*
X61845669Y-106476106D01*
X61849336Y-106448794D01*
X61849430Y-106448620D01*
X61878293Y-106412746D01*
X61942133Y-106343391D01*
X62034031Y-106247745D01*
X62147067Y-106132999D01*
X62274321Y-106006341D01*
X62288672Y-105992205D01*
X62449043Y-105836903D01*
X62572805Y-105722870D01*
X62662445Y-105648002D01*
X62720448Y-105610196D01*
X62745996Y-105605317D01*
X62783282Y-105626603D01*
X62860657Y-105675773D01*
X62970133Y-105747575D01*
X63103720Y-105836755D01*
X63253430Y-105938063D01*
X63288382Y-105961897D01*
X63784610Y-106300765D01*
X64008707Y-106199056D01*
X64144989Y-106139783D01*
X64291276Y-106080170D01*
X64417035Y-106032640D01*
X64422575Y-106030685D01*
X64520943Y-105994677D01*
X64596771Y-105964229D01*
X64633718Y-105945905D01*
X64633780Y-105945852D01*
X64645504Y-105912729D01*
X64665432Y-105831267D01*
X64691587Y-105710625D01*
X64721990Y-105559959D01*
X64754663Y-105388428D01*
X64757336Y-105373967D01*
X64790110Y-105197235D01*
X64820198Y-105036810D01*
X64845661Y-104902888D01*
X64864559Y-104805663D01*
X64874953Y-104755332D01*
X64875135Y-104754563D01*
X64881461Y-104733153D01*
X64893761Y-104716988D01*
X64919406Y-104705331D01*
X64965765Y-104697445D01*
X65040208Y-104692593D01*
X65150105Y-104690039D01*
X65302825Y-104689045D01*
X65505738Y-104688874D01*
X65532000Y-104688874D01*
X65741014Y-104688998D01*
X65611944Y-114160360D02*
X65726343Y-114202842D01*
X65726343Y-114202842D02*
X65727652Y-114203658D01*
X65727652Y-114203658D02*
X65798403Y-114255730D01*
X65798403Y-114255730D02*
X65850636Y-114316584D01*
X65850636Y-114316584D02*
X65887371Y-114395887D01*
X65887371Y-114395887D02*
X65911634Y-114503309D01*
X65911634Y-114503309D02*
X65926445Y-114648517D01*
X65926445Y-114648517D02*
X65934829Y-114841179D01*
X65934829Y-114841179D02*
X65935564Y-114868628D01*
X65935564Y-114868628D02*
X65946120Y-115282521D01*
X65946120Y-115282521D02*
X65857291Y-115328456D01*
X65857291Y-115328456D02*
X65793018Y-115359498D01*
X65793018Y-115359498D02*
X65754210Y-115374206D01*
X65754210Y-115374206D02*
X65752415Y-115374391D01*
X65752415Y-115374391D02*
X65745700Y-115347250D01*
X65745700Y-115347250D02*
X65740365Y-115274041D01*
X65740365Y-115274041D02*
X65737083Y-115167081D01*
X65737083Y-115167081D02*
X65736368Y-115080469D01*
X65736368Y-115080469D02*
X65736351Y-114940162D01*
X65736351Y-114940162D02*
X65729937Y-114852051D01*
X65729937Y-114852051D02*
X65707580Y-114810025D01*
X65707580Y-114810025D02*
X65659732Y-114807975D01*
X65659732Y-114807975D02*
X65576849Y-114839790D01*
X65576849Y-114839790D02*
X65451713Y-114898272D01*
X65451713Y-114898272D02*
X65359697Y-114946845D01*
X65359697Y-114946845D02*
X65312371Y-114988986D01*
X65312371Y-114988986D02*
X65298458Y-115034916D01*
X65298458Y-115034916D02*
X65298437Y-115037189D01*
X65298437Y-115037189D02*
X65321395Y-115116311D01*
X65321395Y-115116311D02*
X65389370Y-115159055D01*
X65389370Y-115159055D02*
X65493398Y-115165246D01*
X65493398Y-115165246D02*
X65568330Y-115164172D01*
X65568330Y-115164172D02*
X65607839Y-115185753D01*
X65607839Y-115185753D02*
X65632478Y-115237591D01*
X65632478Y-115237591D02*
X65646659Y-115303632D01*
X65646659Y-115303632D02*
X65626223Y-115341104D01*
X65626223Y-115341104D02*
X65618528Y-115346467D01*
X65618528Y-115346467D02*
X65546083Y-115368006D01*
X65546083Y-115368006D02*
X65444633Y-115371055D01*
X65444633Y-115371055D02*
X65340157Y-115356778D01*
X65340157Y-115356778D02*
X65266125Y-115330688D01*
X65266125Y-115330688D02*
X65163772Y-115243785D01*
X65163772Y-115243785D02*
X65105591Y-115122816D01*
X65105591Y-115122816D02*
X65094069Y-115028308D01*
X65094069Y-115028308D02*
X65102862Y-114943062D01*
X65102862Y-114943062D02*
X65134680Y-114873476D01*
X65134680Y-114873476D02*
X65197684Y-114811672D01*
X65197684Y-114811672D02*
X65300031Y-114749772D01*
X65300031Y-114749772D02*
X65449882Y-114679897D01*
X65449882Y-114679897D02*
X65459012Y-114675948D01*
X65459012Y-114675948D02*
X65593997Y-114613588D01*
X65593997Y-114613588D02*
X65677294Y-114562446D01*
X65677294Y-114562446D02*
X65712997Y-114516488D01*
X65712997Y-114516488D02*
X65705203Y-114469683D01*
X65705203Y-114469683D02*
X65658007Y-114415998D01*
X65658007Y-114415998D02*
X65643894Y-114403644D01*
X65643894Y-114403644D02*
X65549359Y-114355741D01*
X65549359Y-114355741D02*
X65451406Y-114357758D01*
X65451406Y-114357758D02*
X65366097Y-114404724D01*
X65366097Y-114404724D02*
X65309496Y-114491669D01*
X65309496Y-114491669D02*
X65304237Y-114508734D01*
X65304237Y-114508734D02*
X65253023Y-114591504D01*
X65253023Y-114591504D02*
X65188037Y-114631372D01*
X65188037Y-114631372D02*
X65094069Y-114670882D01*
X65094069Y-114670882D02*
X65094069Y-114568658D01*
X65094069Y-114568658D02*
X65122653Y-114420072D01*
X65122653Y-114420072D02*
X65207495Y-114283784D01*
X65207495Y-114283784D02*
X65251645Y-114238191D01*
X65251645Y-114238191D02*
X65352005Y-114179674D01*
X65352005Y-114179674D02*
X65479635Y-114153184D01*
X65479635Y-114153184D02*
X65611944Y-114160360D01*
X65611944Y-114160360D02*
X65611944Y-114160360D01*
G36*
X65611944Y-114160360D02*
G01*
X65726343Y-114202842D01*
X65727652Y-114203658D01*
X65798403Y-114255730D01*
X65850636Y-114316584D01*
X65887371Y-114395887D01*
X65911634Y-114503309D01*
X65926445Y-114648517D01*
X65934829Y-114841179D01*
X65935564Y-114868628D01*
X65946120Y-115282521D01*
X65857291Y-115328456D01*
X65793018Y-115359498D01*
X65754210Y-115374206D01*
X65752415Y-115374391D01*
X65745700Y-115347250D01*
X65740365Y-115274041D01*
X65737083Y-115167081D01*
X65736368Y-115080469D01*
X65736351Y-114940162D01*
X65729937Y-114852051D01*
X65707580Y-114810025D01*
X65659732Y-114807975D01*
X65576849Y-114839790D01*
X65451713Y-114898272D01*
X65359697Y-114946845D01*
X65312371Y-114988986D01*
X65298458Y-115034916D01*
X65298437Y-115037189D01*
X65321395Y-115116311D01*
X65389370Y-115159055D01*
X65493398Y-115165246D01*
X65568330Y-115164172D01*
X65607839Y-115185753D01*
X65632478Y-115237591D01*
X65646659Y-115303632D01*
X65626223Y-115341104D01*
X65618528Y-115346467D01*
X65546083Y-115368006D01*
X65444633Y-115371055D01*
X65340157Y-115356778D01*
X65266125Y-115330688D01*
X65163772Y-115243785D01*
X65105591Y-115122816D01*
X65094069Y-115028308D01*
X65102862Y-114943062D01*
X65134680Y-114873476D01*
X65197684Y-114811672D01*
X65300031Y-114749772D01*
X65449882Y-114679897D01*
X65459012Y-114675948D01*
X65593997Y-114613588D01*
X65677294Y-114562446D01*
X65712997Y-114516488D01*
X65705203Y-114469683D01*
X65658007Y-114415998D01*
X65643894Y-114403644D01*
X65549359Y-114355741D01*
X65451406Y-114357758D01*
X65366097Y-114404724D01*
X65309496Y-114491669D01*
X65304237Y-114508734D01*
X65253023Y-114591504D01*
X65188037Y-114631372D01*
X65094069Y-114670882D01*
X65094069Y-114568658D01*
X65122653Y-114420072D01*
X65207495Y-114283784D01*
X65251645Y-114238191D01*
X65352005Y-114179674D01*
X65479635Y-114153184D01*
X65611944Y-114160360D01*
G37*
X65611944Y-114160360D02*
X65726343Y-114202842D01*
X65727652Y-114203658D01*
X65798403Y-114255730D01*
X65850636Y-114316584D01*
X65887371Y-114395887D01*
X65911634Y-114503309D01*
X65926445Y-114648517D01*
X65934829Y-114841179D01*
X65935564Y-114868628D01*
X65946120Y-115282521D01*
X65857291Y-115328456D01*
X65793018Y-115359498D01*
X65754210Y-115374206D01*
X65752415Y-115374391D01*
X65745700Y-115347250D01*
X65740365Y-115274041D01*
X65737083Y-115167081D01*
X65736368Y-115080469D01*
X65736351Y-114940162D01*
X65729937Y-114852051D01*
X65707580Y-114810025D01*
X65659732Y-114807975D01*
X65576849Y-114839790D01*
X65451713Y-114898272D01*
X65359697Y-114946845D01*
X65312371Y-114988986D01*
X65298458Y-115034916D01*
X65298437Y-115037189D01*
X65321395Y-115116311D01*
X65389370Y-115159055D01*
X65493398Y-115165246D01*
X65568330Y-115164172D01*
X65607839Y-115185753D01*
X65632478Y-115237591D01*
X65646659Y-115303632D01*
X65626223Y-115341104D01*
X65618528Y-115346467D01*
X65546083Y-115368006D01*
X65444633Y-115371055D01*
X65340157Y-115356778D01*
X65266125Y-115330688D01*
X65163772Y-115243785D01*
X65105591Y-115122816D01*
X65094069Y-115028308D01*
X65102862Y-114943062D01*
X65134680Y-114873476D01*
X65197684Y-114811672D01*
X65300031Y-114749772D01*
X65449882Y-114679897D01*
X65459012Y-114675948D01*
X65593997Y-114613588D01*
X65677294Y-114562446D01*
X65712997Y-114516488D01*
X65705203Y-114469683D01*
X65658007Y-114415998D01*
X65643894Y-114403644D01*
X65549359Y-114355741D01*
X65451406Y-114357758D01*
X65366097Y-114404724D01*
X65309496Y-114491669D01*
X65304237Y-114508734D01*
X65253023Y-114591504D01*
X65188037Y-114631372D01*
X65094069Y-114670882D01*
X65094069Y-114568658D01*
X65122653Y-114420072D01*
X65207495Y-114283784D01*
X65251645Y-114238191D01*
X65352005Y-114179674D01*
X65479635Y-114153184D01*
X65611944Y-114160360D01*
X59580221Y-114102015D02*
X59717061Y-114173968D01*
X59717061Y-114173968D02*
X59818051Y-114289766D01*
X59818051Y-114289766D02*
X59853925Y-114364213D01*
X59853925Y-114364213D02*
X59881839Y-114475992D01*
X59881839Y-114475992D02*
X59896129Y-114617227D01*
X59896129Y-114617227D02*
X59897484Y-114771371D01*
X59897484Y-114771371D02*
X59886595Y-114921879D01*
X59886595Y-114921879D02*
X59864153Y-115052205D01*
X59864153Y-115052205D02*
X59830850Y-115145803D01*
X59830850Y-115145803D02*
X59820615Y-115161922D01*
X59820615Y-115161922D02*
X59699382Y-115282249D01*
X59699382Y-115282249D02*
X59555387Y-115354317D01*
X59555387Y-115354317D02*
X59399139Y-115375408D01*
X59399139Y-115375408D02*
X59241148Y-115342802D01*
X59241148Y-115342802D02*
X59197180Y-115323253D01*
X59197180Y-115323253D02*
X59111556Y-115263012D01*
X59111556Y-115263012D02*
X59036408Y-115183135D01*
X59036408Y-115183135D02*
X59029306Y-115173004D01*
X59029306Y-115173004D02*
X59000439Y-115124181D01*
X59000439Y-115124181D02*
X58981357Y-115071990D01*
X58981357Y-115071990D02*
X58970084Y-115003285D01*
X58970084Y-115003285D02*
X58964645Y-114904918D01*
X58964645Y-114904918D02*
X58963062Y-114763744D01*
X58963062Y-114763744D02*
X58963035Y-114732092D01*
X58963035Y-114732092D02*
X58963107Y-114722019D01*
X58963107Y-114722019D02*
X59254989Y-114722019D01*
X59254989Y-114722019D02*
X59256687Y-114855256D01*
X59256687Y-114855256D02*
X59263372Y-114943674D01*
X59263372Y-114943674D02*
X59277425Y-115000785D01*
X59277425Y-115000785D02*
X59301229Y-115040102D01*
X59301229Y-115040102D02*
X59313379Y-115053241D01*
X59313379Y-115053241D02*
X59383236Y-115103172D01*
X59383236Y-115103172D02*
X59451059Y-115100895D01*
X59451059Y-115100895D02*
X59519635Y-115057584D01*
X59519635Y-115057584D02*
X59560535Y-115011346D01*
X59560535Y-115011346D02*
X59584758Y-114943857D01*
X59584758Y-114943857D02*
X59598361Y-114837433D01*
X59598361Y-114837433D02*
X59599294Y-114825020D01*
X59599294Y-114825020D02*
X59601616Y-114632147D01*
X59601616Y-114632147D02*
X59577350Y-114488900D01*
X59577350Y-114488900D02*
X59526824Y-114396160D01*
X59526824Y-114396160D02*
X59450368Y-114354807D01*
X59450368Y-114354807D02*
X59423076Y-114352552D01*
X59423076Y-114352552D02*
X59351411Y-114363893D01*
X59351411Y-114363893D02*
X59302390Y-114403184D01*
X59302390Y-114403184D02*
X59272418Y-114478326D01*
X59272418Y-114478326D02*
X59257899Y-114597222D01*
X59257899Y-114597222D02*
X59254989Y-114722019D01*
X59254989Y-114722019D02*
X58963107Y-114722019D01*
X58963107Y-114722019D02*
X58964122Y-114581659D01*
X58964122Y-114581659D02*
X58968688Y-114476549D01*
X58968688Y-114476549D02*
X58978688Y-114403714D01*
X58978688Y-114403714D02*
X58996079Y-114350108D01*
X58996079Y-114350108D02*
X59022816Y-114302681D01*
X59022816Y-114302681D02*
X59028724Y-114293864D01*
X59028724Y-114293864D02*
X59128032Y-114175007D01*
X59128032Y-114175007D02*
X59236242Y-114106008D01*
X59236242Y-114106008D02*
X59367981Y-114078619D01*
X59367981Y-114078619D02*
X59412717Y-114077281D01*
X59412717Y-114077281D02*
X59580221Y-114102015D01*
X59580221Y-114102015D02*
X59580221Y-114102015D01*
G36*
X58968688Y-114476549D02*
G01*
X58978688Y-114403714D01*
X58996079Y-114350108D01*
X59022816Y-114302681D01*
X59028724Y-114293864D01*
X59128032Y-114175007D01*
X59236242Y-114106008D01*
X59367981Y-114078619D01*
X59412717Y-114077281D01*
X59580221Y-114102015D01*
X59717061Y-114173968D01*
X59818051Y-114289766D01*
X59853925Y-114364213D01*
X59881839Y-114475992D01*
X59896129Y-114617227D01*
X59897484Y-114771371D01*
X59886595Y-114921879D01*
X59864153Y-115052205D01*
X59830850Y-115145803D01*
X59820615Y-115161922D01*
X59699382Y-115282249D01*
X59555387Y-115354317D01*
X59399139Y-115375408D01*
X59241148Y-115342802D01*
X59197180Y-115323253D01*
X59111556Y-115263012D01*
X59036408Y-115183135D01*
X59029306Y-115173004D01*
X59000439Y-115124181D01*
X58981357Y-115071990D01*
X58970084Y-115003285D01*
X58964645Y-114904918D01*
X58963062Y-114763744D01*
X58963035Y-114732092D01*
X58963107Y-114722019D01*
X59254989Y-114722019D01*
X59256687Y-114855256D01*
X59263372Y-114943674D01*
X59277425Y-115000785D01*
X59301229Y-115040102D01*
X59313379Y-115053241D01*
X59383236Y-115103172D01*
X59451059Y-115100895D01*
X59519635Y-115057584D01*
X59560535Y-115011346D01*
X59584758Y-114943857D01*
X59598361Y-114837433D01*
X59599294Y-114825020D01*
X59601616Y-114632147D01*
X59577350Y-114488900D01*
X59526824Y-114396160D01*
X59450368Y-114354807D01*
X59423076Y-114352552D01*
X59351411Y-114363893D01*
X59302390Y-114403184D01*
X59272418Y-114478326D01*
X59257899Y-114597222D01*
X59254989Y-114722019D01*
X58963107Y-114722019D01*
X58964122Y-114581659D01*
X58968688Y-114476549D01*
G37*
X58968688Y-114476549D02*
X58978688Y-114403714D01*
X58996079Y-114350108D01*
X59022816Y-114302681D01*
X59028724Y-114293864D01*
X59128032Y-114175007D01*
X59236242Y-114106008D01*
X59367981Y-114078619D01*
X59412717Y-114077281D01*
X59580221Y-114102015D01*
X59717061Y-114173968D01*
X59818051Y-114289766D01*
X59853925Y-114364213D01*
X59881839Y-114475992D01*
X59896129Y-114617227D01*
X59897484Y-114771371D01*
X59886595Y-114921879D01*
X59864153Y-115052205D01*
X59830850Y-115145803D01*
X59820615Y-115161922D01*
X59699382Y-115282249D01*
X59555387Y-115354317D01*
X59399139Y-115375408D01*
X59241148Y-115342802D01*
X59197180Y-115323253D01*
X59111556Y-115263012D01*
X59036408Y-115183135D01*
X59029306Y-115173004D01*
X59000439Y-115124181D01*
X58981357Y-115071990D01*
X58970084Y-115003285D01*
X58964645Y-114904918D01*
X58963062Y-114763744D01*
X58963035Y-114732092D01*
X58963107Y-114722019D01*
X59254989Y-114722019D01*
X59256687Y-114855256D01*
X59263372Y-114943674D01*
X59277425Y-115000785D01*
X59301229Y-115040102D01*
X59313379Y-115053241D01*
X59383236Y-115103172D01*
X59451059Y-115100895D01*
X59519635Y-115057584D01*
X59560535Y-115011346D01*
X59584758Y-114943857D01*
X59598361Y-114837433D01*
X59599294Y-114825020D01*
X59601616Y-114632147D01*
X59577350Y-114488900D01*
X59526824Y-114396160D01*
X59450368Y-114354807D01*
X59423076Y-114352552D01*
X59351411Y-114363893D01*
X59302390Y-114403184D01*
X59272418Y-114478326D01*
X59257899Y-114597222D01*
X59254989Y-114722019D01*
X58963107Y-114722019D01*
X58964122Y-114581659D01*
X58968688Y-114476549D01*
X66597943Y-114157920D02*
X66730565Y-114206859D01*
X66730565Y-114206859D02*
X66838010Y-114293419D01*
X66838010Y-114293419D02*
X66880032Y-114354352D01*
X66880032Y-114354352D02*
X66925843Y-114466161D01*
X66925843Y-114466161D02*
X66924891Y-114547006D01*
X66924891Y-114547006D02*
X66876808Y-114601378D01*
X66876808Y-114601378D02*
X66859017Y-114610624D01*
X66859017Y-114610624D02*
X66782204Y-114639450D01*
X66782204Y-114639450D02*
X66742976Y-114632065D01*
X66742976Y-114632065D02*
X66729689Y-114583658D01*
X66729689Y-114583658D02*
X66729012Y-114556920D01*
X66729012Y-114556920D02*
X66704686Y-114458548D01*
X66704686Y-114458548D02*
X66641281Y-114389734D01*
X66641281Y-114389734D02*
X66553154Y-114356498D01*
X66553154Y-114356498D02*
X66454663Y-114364861D01*
X66454663Y-114364861D02*
X66374602Y-114408296D01*
X66374602Y-114408296D02*
X66347561Y-114433072D01*
X66347561Y-114433072D02*
X66328394Y-114463129D01*
X66328394Y-114463129D02*
X66315446Y-114508565D01*
X66315446Y-114508565D02*
X66307064Y-114579476D01*
X66307064Y-114579476D02*
X66301593Y-114685960D01*
X66301593Y-114685960D02*
X66297378Y-114838112D01*
X66297378Y-114838112D02*
X66296287Y-114886287D01*
X66296287Y-114886287D02*
X66292307Y-115051095D01*
X66292307Y-115051095D02*
X66287781Y-115167088D01*
X66287781Y-115167088D02*
X66280995Y-115243833D01*
X66280995Y-115243833D02*
X66270231Y-115290893D01*
X66270231Y-115290893D02*
X66253773Y-115317835D01*
X66253773Y-115317835D02*
X66229906Y-115334223D01*
X66229906Y-115334223D02*
X66214626Y-115341463D01*
X66214626Y-115341463D02*
X66149733Y-115366220D01*
X66149733Y-115366220D02*
X66111534Y-115374391D01*
X66111534Y-115374391D02*
X66098912Y-115347103D01*
X66098912Y-115347103D02*
X66091208Y-115264603D01*
X66091208Y-115264603D02*
X66088380Y-115125941D01*
X66088380Y-115125941D02*
X66090386Y-114930162D01*
X66090386Y-114930162D02*
X66091011Y-114899965D01*
X66091011Y-114899965D02*
X66095421Y-114721349D01*
X66095421Y-114721349D02*
X66100635Y-114590923D01*
X66100635Y-114590923D02*
X66108055Y-114498492D01*
X66108055Y-114498492D02*
X66119082Y-114433858D01*
X66119082Y-114433858D02*
X66135117Y-114386825D01*
X66135117Y-114386825D02*
X66157561Y-114347196D01*
X66157561Y-114347196D02*
X66169302Y-114330215D01*
X66169302Y-114330215D02*
X66236619Y-114255080D01*
X66236619Y-114255080D02*
X66311910Y-114196638D01*
X66311910Y-114196638D02*
X66321128Y-114191536D01*
X66321128Y-114191536D02*
X66456133Y-114151260D01*
X66456133Y-114151260D02*
X66597943Y-114157920D01*
X66597943Y-114157920D02*
X66597943Y-114157920D01*
G36*
X66597943Y-114157920D02*
G01*
X66730565Y-114206859D01*
X66838010Y-114293419D01*
X66880032Y-114354352D01*
X66925843Y-114466161D01*
X66924891Y-114547006D01*
X66876808Y-114601378D01*
X66859017Y-114610624D01*
X66782204Y-114639450D01*
X66742976Y-114632065D01*
X66729689Y-114583658D01*
X66729012Y-114556920D01*
X66704686Y-114458548D01*
X66641281Y-114389734D01*
X66553154Y-114356498D01*
X66454663Y-114364861D01*
X66374602Y-114408296D01*
X66347561Y-114433072D01*
X66328394Y-114463129D01*
X66315446Y-114508565D01*
X66307064Y-114579476D01*
X66301593Y-114685960D01*
X66297378Y-114838112D01*
X66296287Y-114886287D01*
X66292307Y-115051095D01*
X66287781Y-115167088D01*
X66280995Y-115243833D01*
X66270231Y-115290893D01*
X66253773Y-115317835D01*
X66229906Y-115334223D01*
X66214626Y-115341463D01*
X66149733Y-115366220D01*
X66111534Y-115374391D01*
X66098912Y-115347103D01*
X66091208Y-115264603D01*
X66088380Y-115125941D01*
X66090386Y-114930162D01*
X66091011Y-114899965D01*
X66095421Y-114721349D01*
X66100635Y-114590923D01*
X66108055Y-114498492D01*
X66119082Y-114433858D01*
X66135117Y-114386825D01*
X66157561Y-114347196D01*
X66169302Y-114330215D01*
X66236619Y-114255080D01*
X66311910Y-114196638D01*
X66321128Y-114191536D01*
X66456133Y-114151260D01*
X66597943Y-114157920D01*
G37*
X66597943Y-114157920D02*
X66730565Y-114206859D01*
X66838010Y-114293419D01*
X66880032Y-114354352D01*
X66925843Y-114466161D01*
X66924891Y-114547006D01*
X66876808Y-114601378D01*
X66859017Y-114610624D01*
X66782204Y-114639450D01*
X66742976Y-114632065D01*
X66729689Y-114583658D01*
X66729012Y-114556920D01*
X66704686Y-114458548D01*
X66641281Y-114389734D01*
X66553154Y-114356498D01*
X66454663Y-114364861D01*
X66374602Y-114408296D01*
X66347561Y-114433072D01*
X66328394Y-114463129D01*
X66315446Y-114508565D01*
X66307064Y-114579476D01*
X66301593Y-114685960D01*
X66297378Y-114838112D01*
X66296287Y-114886287D01*
X66292307Y-115051095D01*
X66287781Y-115167088D01*
X66280995Y-115243833D01*
X66270231Y-115290893D01*
X66253773Y-115317835D01*
X66229906Y-115334223D01*
X66214626Y-115341463D01*
X66149733Y-115366220D01*
X66111534Y-115374391D01*
X66098912Y-115347103D01*
X66091208Y-115264603D01*
X66088380Y-115125941D01*
X66090386Y-114930162D01*
X66091011Y-114899965D01*
X66095421Y-114721349D01*
X66100635Y-114590923D01*
X66108055Y-114498492D01*
X66119082Y-114433858D01*
X66135117Y-114386825D01*
X66157561Y-114347196D01*
X66169302Y-114330215D01*
X66236619Y-114255080D01*
X66311910Y-114196638D01*
X66321128Y-114191536D01*
X66456133Y-114151260D01*
X66597943Y-114157920D01*
X64276598Y-113959857D02*
X64285154Y-114079188D01*
X64285154Y-114079188D02*
X64294981Y-114149506D01*
X64294981Y-114149506D02*
X64308599Y-114180179D01*
X64308599Y-114180179D02*
X64328527Y-114180571D01*
X64328527Y-114180571D02*
X64334989Y-114176910D01*
X64334989Y-114176910D02*
X64420940Y-114150398D01*
X64420940Y-114150398D02*
X64532745Y-114151946D01*
X64532745Y-114151946D02*
X64646414Y-114179199D01*
X64646414Y-114179199D02*
X64717510Y-114214455D01*
X64717510Y-114214455D02*
X64790405Y-114270778D01*
X64790405Y-114270778D02*
X64843693Y-114334519D01*
X64843693Y-114334519D02*
X64880275Y-114415510D01*
X64880275Y-114415510D02*
X64903050Y-114523586D01*
X64903050Y-114523586D02*
X64914919Y-114668580D01*
X64914919Y-114668580D02*
X64918782Y-114860326D01*
X64918782Y-114860326D02*
X64918851Y-114897109D01*
X64918851Y-114897109D02*
X64918897Y-115310288D01*
X64918897Y-115310288D02*
X64826954Y-115342339D01*
X64826954Y-115342339D02*
X64761652Y-115364144D01*
X64761652Y-115364144D02*
X64725824Y-115374297D01*
X64725824Y-115374297D02*
X64724770Y-115374391D01*
X64724770Y-115374391D02*
X64721242Y-115346860D01*
X64721242Y-115346860D02*
X64718239Y-115270923D01*
X64718239Y-115270923D02*
X64715990Y-115156565D01*
X64715990Y-115156565D02*
X64714724Y-115013769D01*
X64714724Y-115013769D02*
X64714529Y-114926951D01*
X64714529Y-114926951D02*
X64714123Y-114755773D01*
X64714123Y-114755773D02*
X64712032Y-114633088D01*
X64712032Y-114633088D02*
X64706947Y-114549000D01*
X64706947Y-114549000D02*
X64697560Y-114493614D01*
X64697560Y-114493614D02*
X64682561Y-114457032D01*
X64682561Y-114457032D02*
X64660642Y-114429359D01*
X64660642Y-114429359D02*
X64646957Y-114416032D01*
X64646957Y-114416032D02*
X64552949Y-114362328D01*
X64552949Y-114362328D02*
X64450364Y-114358307D01*
X64450364Y-114358307D02*
X64357290Y-114403725D01*
X64357290Y-114403725D02*
X64340078Y-114420123D01*
X64340078Y-114420123D02*
X64314832Y-114450957D01*
X64314832Y-114450957D02*
X64297320Y-114487531D01*
X64297320Y-114487531D02*
X64286142Y-114540415D01*
X64286142Y-114540415D02*
X64279896Y-114620177D01*
X64279896Y-114620177D02*
X64277182Y-114737385D01*
X64277182Y-114737385D02*
X64276598Y-114898991D01*
X64276598Y-114898991D02*
X64276598Y-115310288D01*
X64276598Y-115310288D02*
X64184655Y-115342339D01*
X64184655Y-115342339D02*
X64119353Y-115364144D01*
X64119353Y-115364144D02*
X64083525Y-115374297D01*
X64083525Y-115374297D02*
X64082471Y-115374391D01*
X64082471Y-115374391D02*
X64079775Y-115346448D01*
X64079775Y-115346448D02*
X64077345Y-115267630D01*
X64077345Y-115267630D02*
X64075278Y-115145453D01*
X64075278Y-115145453D02*
X64073671Y-114987432D01*
X64073671Y-114987432D02*
X64072623Y-114801083D01*
X64072623Y-114801083D02*
X64072231Y-114593920D01*
X64072231Y-114593920D02*
X64072230Y-114584706D01*
X64072230Y-114584706D02*
X64072230Y-113795020D01*
X64072230Y-113795020D02*
X64167115Y-113754997D01*
X64167115Y-113754997D02*
X64262000Y-113714973D01*
X64262000Y-113714973D02*
X64276598Y-113959857D01*
X64276598Y-113959857D02*
X64276598Y-113959857D01*
G36*
X64276598Y-113959857D02*
G01*
X64285154Y-114079188D01*
X64294981Y-114149506D01*
X64308599Y-114180179D01*
X64328527Y-114180571D01*
X64334989Y-114176910D01*
X64420940Y-114150398D01*
X64532745Y-114151946D01*
X64646414Y-114179199D01*
X64717510Y-114214455D01*
X64790405Y-114270778D01*
X64843693Y-114334519D01*
X64880275Y-114415510D01*
X64903050Y-114523586D01*
X64914919Y-114668580D01*
X64918782Y-114860326D01*
X64918851Y-114897109D01*
X64918897Y-115310288D01*
X64826954Y-115342339D01*
X64761652Y-115364144D01*
X64725824Y-115374297D01*
X64724770Y-115374391D01*
X64721242Y-115346860D01*
X64718239Y-115270923D01*
X64715990Y-115156565D01*
X64714724Y-115013769D01*
X64714529Y-114926951D01*
X64714123Y-114755773D01*
X64712032Y-114633088D01*
X64706947Y-114549000D01*
X64697560Y-114493614D01*
X64682561Y-114457032D01*
X64660642Y-114429359D01*
X64646957Y-114416032D01*
X64552949Y-114362328D01*
X64450364Y-114358307D01*
X64357290Y-114403725D01*
X64340078Y-114420123D01*
X64314832Y-114450957D01*
X64297320Y-114487531D01*
X64286142Y-114540415D01*
X64279896Y-114620177D01*
X64277182Y-114737385D01*
X64276598Y-114898991D01*
X64276598Y-115310288D01*
X64184655Y-115342339D01*
X64119353Y-115364144D01*
X64083525Y-115374297D01*
X64082471Y-115374391D01*
X64079775Y-115346448D01*
X64077345Y-115267630D01*
X64075278Y-115145453D01*
X64073671Y-114987432D01*
X64072623Y-114801083D01*
X64072231Y-114593920D01*
X64072230Y-114584706D01*
X64072230Y-113795020D01*
X64167115Y-113754997D01*
X64262000Y-113714973D01*
X64276598Y-113959857D01*
G37*
X64276598Y-113959857D02*
X64285154Y-114079188D01*
X64294981Y-114149506D01*
X64308599Y-114180179D01*
X64328527Y-114180571D01*
X64334989Y-114176910D01*
X64420940Y-114150398D01*
X64532745Y-114151946D01*
X64646414Y-114179199D01*
X64717510Y-114214455D01*
X64790405Y-114270778D01*
X64843693Y-114334519D01*
X64880275Y-114415510D01*
X64903050Y-114523586D01*
X64914919Y-114668580D01*
X64918782Y-114860326D01*
X64918851Y-114897109D01*
X64918897Y-115310288D01*
X64826954Y-115342339D01*
X64761652Y-115364144D01*
X64725824Y-115374297D01*
X64724770Y-115374391D01*
X64721242Y-115346860D01*
X64718239Y-115270923D01*
X64715990Y-115156565D01*
X64714724Y-115013769D01*
X64714529Y-114926951D01*
X64714123Y-114755773D01*
X64712032Y-114633088D01*
X64706947Y-114549000D01*
X64697560Y-114493614D01*
X64682561Y-114457032D01*
X64660642Y-114429359D01*
X64646957Y-114416032D01*
X64552949Y-114362328D01*
X64450364Y-114358307D01*
X64357290Y-114403725D01*
X64340078Y-114420123D01*
X64314832Y-114450957D01*
X64297320Y-114487531D01*
X64286142Y-114540415D01*
X64279896Y-114620177D01*
X64277182Y-114737385D01*
X64276598Y-114898991D01*
X64276598Y-115310288D01*
X64184655Y-115342339D01*
X64119353Y-115364144D01*
X64083525Y-115374297D01*
X64082471Y-115374391D01*
X64079775Y-115346448D01*
X64077345Y-115267630D01*
X64075278Y-115145453D01*
X64073671Y-114987432D01*
X64072623Y-114801083D01*
X64072231Y-114593920D01*
X64072230Y-114584706D01*
X64072230Y-113795020D01*
X64167115Y-113754997D01*
X64262000Y-113714973D01*
X64276598Y-113959857D01*
X61847552Y-114120676D02*
X61962658Y-114198111D01*
X61962658Y-114198111D02*
X62051611Y-114309949D01*
X62051611Y-114309949D02*
X62104749Y-114452265D01*
X62104749Y-114452265D02*
X62115497Y-114557015D01*
X62115497Y-114557015D02*
X62114276Y-114600726D01*
X62114276Y-114600726D02*
X62104056Y-114634194D01*
X62104056Y-114634194D02*
X62075961Y-114664179D01*
X62075961Y-114664179D02*
X62021116Y-114697440D01*
X62021116Y-114697440D02*
X61930645Y-114740738D01*
X61930645Y-114740738D02*
X61795672Y-114800833D01*
X61795672Y-114800833D02*
X61794989Y-114801134D01*
X61794989Y-114801134D02*
X61670751Y-114858037D01*
X61670751Y-114858037D02*
X61568873Y-114908565D01*
X61568873Y-114908565D02*
X61499767Y-114947280D01*
X61499767Y-114947280D02*
X61473846Y-114968740D01*
X61473846Y-114968740D02*
X61473839Y-114968913D01*
X61473839Y-114968913D02*
X61496685Y-115015644D01*
X61496685Y-115015644D02*
X61550109Y-115067154D01*
X61550109Y-115067154D02*
X61611442Y-115104261D01*
X61611442Y-115104261D02*
X61642515Y-115111632D01*
X61642515Y-115111632D02*
X61727289Y-115086138D01*
X61727289Y-115086138D02*
X61800293Y-115022291D01*
X61800293Y-115022291D02*
X61835913Y-114952094D01*
X61835913Y-114952094D02*
X61870180Y-114900343D01*
X61870180Y-114900343D02*
X61937303Y-114841409D01*
X61937303Y-114841409D02*
X62016208Y-114790496D01*
X62016208Y-114790496D02*
X62085821Y-114762809D01*
X62085821Y-114762809D02*
X62100377Y-114761287D01*
X62100377Y-114761287D02*
X62116763Y-114786321D01*
X62116763Y-114786321D02*
X62117750Y-114850311D01*
X62117750Y-114850311D02*
X62105708Y-114936593D01*
X62105708Y-114936593D02*
X62083007Y-115028501D01*
X62083007Y-115028501D02*
X62052014Y-115109369D01*
X62052014Y-115109369D02*
X62050448Y-115112509D01*
X62050448Y-115112509D02*
X61957181Y-115242734D01*
X61957181Y-115242734D02*
X61836304Y-115331311D01*
X61836304Y-115331311D02*
X61699027Y-115374786D01*
X61699027Y-115374786D02*
X61556560Y-115369706D01*
X61556560Y-115369706D02*
X61420112Y-115312616D01*
X61420112Y-115312616D02*
X61414045Y-115308602D01*
X61414045Y-115308602D02*
X61306710Y-115211326D01*
X61306710Y-115211326D02*
X61236132Y-115084409D01*
X61236132Y-115084409D02*
X61197074Y-114917526D01*
X61197074Y-114917526D02*
X61191832Y-114870639D01*
X61191832Y-114870639D02*
X61182548Y-114649329D01*
X61182548Y-114649329D02*
X61193678Y-114546124D01*
X61193678Y-114546124D02*
X61473839Y-114546124D01*
X61473839Y-114546124D02*
X61477479Y-114610503D01*
X61477479Y-114610503D02*
X61497389Y-114629291D01*
X61497389Y-114629291D02*
X61547026Y-114615235D01*
X61547026Y-114615235D02*
X61625267Y-114582009D01*
X61625267Y-114582009D02*
X61712726Y-114540359D01*
X61712726Y-114540359D02*
X61714899Y-114539256D01*
X61714899Y-114539256D02*
X61789030Y-114500265D01*
X61789030Y-114500265D02*
X61818781Y-114474244D01*
X61818781Y-114474244D02*
X61811445Y-114446965D01*
X61811445Y-114446965D02*
X61780553Y-114411121D01*
X61780553Y-114411121D02*
X61701960Y-114359251D01*
X61701960Y-114359251D02*
X61617323Y-114355439D01*
X61617323Y-114355439D02*
X61541403Y-114393189D01*
X61541403Y-114393189D02*
X61488965Y-114466001D01*
X61488965Y-114466001D02*
X61473839Y-114546124D01*
X61473839Y-114546124D02*
X61193678Y-114546124D01*
X61193678Y-114546124D02*
X61201644Y-114472261D01*
X61201644Y-114472261D02*
X61250634Y-114331829D01*
X61250634Y-114331829D02*
X61318836Y-114233447D01*
X61318836Y-114233447D02*
X61441935Y-114134030D01*
X61441935Y-114134030D02*
X61577528Y-114084711D01*
X61577528Y-114084711D02*
X61715955Y-114081568D01*
X61715955Y-114081568D02*
X61847552Y-114120676D01*
X61847552Y-114120676D02*
X61847552Y-114120676D01*
G36*
X61250634Y-114331829D02*
G01*
X61318836Y-114233447D01*
X61441935Y-114134030D01*
X61577528Y-114084711D01*
X61715955Y-114081568D01*
X61847552Y-114120676D01*
X61962658Y-114198111D01*
X62051611Y-114309949D01*
X62104749Y-114452265D01*
X62115497Y-114557015D01*
X62114276Y-114600726D01*
X62104056Y-114634194D01*
X62075961Y-114664179D01*
X62021116Y-114697440D01*
X61930645Y-114740738D01*
X61795672Y-114800833D01*
X61794989Y-114801134D01*
X61670751Y-114858037D01*
X61568873Y-114908565D01*
X61499767Y-114947280D01*
X61473846Y-114968740D01*
X61473839Y-114968913D01*
X61496685Y-115015644D01*
X61550109Y-115067154D01*
X61611442Y-115104261D01*
X61642515Y-115111632D01*
X61727289Y-115086138D01*
X61800293Y-115022291D01*
X61835913Y-114952094D01*
X61870180Y-114900343D01*
X61937303Y-114841409D01*
X62016208Y-114790496D01*
X62085821Y-114762809D01*
X62100377Y-114761287D01*
X62116763Y-114786321D01*
X62117750Y-114850311D01*
X62105708Y-114936593D01*
X62083007Y-115028501D01*
X62052014Y-115109369D01*
X62050448Y-115112509D01*
X61957181Y-115242734D01*
X61836304Y-115331311D01*
X61699027Y-115374786D01*
X61556560Y-115369706D01*
X61420112Y-115312616D01*
X61414045Y-115308602D01*
X61306710Y-115211326D01*
X61236132Y-115084409D01*
X61197074Y-114917526D01*
X61191832Y-114870639D01*
X61182548Y-114649329D01*
X61193678Y-114546124D01*
X61473839Y-114546124D01*
X61477479Y-114610503D01*
X61497389Y-114629291D01*
X61547026Y-114615235D01*
X61625267Y-114582009D01*
X61712726Y-114540359D01*
X61714899Y-114539256D01*
X61789030Y-114500265D01*
X61818781Y-114474244D01*
X61811445Y-114446965D01*
X61780553Y-114411121D01*
X61701960Y-114359251D01*
X61617323Y-114355439D01*
X61541403Y-114393189D01*
X61488965Y-114466001D01*
X61473839Y-114546124D01*
X61193678Y-114546124D01*
X61201644Y-114472261D01*
X61250634Y-114331829D01*
G37*
X61250634Y-114331829D02*
X61318836Y-114233447D01*
X61441935Y-114134030D01*
X61577528Y-114084711D01*
X61715955Y-114081568D01*
X61847552Y-114120676D01*
X61962658Y-114198111D01*
X62051611Y-114309949D01*
X62104749Y-114452265D01*
X62115497Y-114557015D01*
X62114276Y-114600726D01*
X62104056Y-114634194D01*
X62075961Y-114664179D01*
X62021116Y-114697440D01*
X61930645Y-114740738D01*
X61795672Y-114800833D01*
X61794989Y-114801134D01*
X61670751Y-114858037D01*
X61568873Y-114908565D01*
X61499767Y-114947280D01*
X61473846Y-114968740D01*
X61473839Y-114968913D01*
X61496685Y-115015644D01*
X61550109Y-115067154D01*
X61611442Y-115104261D01*
X61642515Y-115111632D01*
X61727289Y-115086138D01*
X61800293Y-115022291D01*
X61835913Y-114952094D01*
X61870180Y-114900343D01*
X61937303Y-114841409D01*
X62016208Y-114790496D01*
X62085821Y-114762809D01*
X62100377Y-114761287D01*
X62116763Y-114786321D01*
X62117750Y-114850311D01*
X62105708Y-114936593D01*
X62083007Y-115028501D01*
X62052014Y-115109369D01*
X62050448Y-115112509D01*
X61957181Y-115242734D01*
X61836304Y-115331311D01*
X61699027Y-115374786D01*
X61556560Y-115369706D01*
X61420112Y-115312616D01*
X61414045Y-115308602D01*
X61306710Y-115211326D01*
X61236132Y-115084409D01*
X61197074Y-114917526D01*
X61191832Y-114870639D01*
X61182548Y-114649329D01*
X61193678Y-114546124D01*
X61473839Y-114546124D01*
X61477479Y-114610503D01*
X61497389Y-114629291D01*
X61547026Y-114615235D01*
X61625267Y-114582009D01*
X61712726Y-114540359D01*
X61714899Y-114539256D01*
X61789030Y-114500265D01*
X61818781Y-114474244D01*
X61811445Y-114446965D01*
X61780553Y-114411121D01*
X61701960Y-114359251D01*
X61617323Y-114355439D01*
X61541403Y-114393189D01*
X61488965Y-114466001D01*
X61473839Y-114546124D01*
X61193678Y-114546124D01*
X61201644Y-114472261D01*
X61250634Y-114331829D01*
X69846406Y-114171156D02*
X69930469Y-114209393D01*
X69930469Y-114209393D02*
X69996450Y-114255726D01*
X69996450Y-114255726D02*
X70044794Y-114307532D01*
X70044794Y-114307532D02*
X70078172Y-114374363D01*
X70078172Y-114374363D02*
X70099253Y-114465769D01*
X70099253Y-114465769D02*
X70110707Y-114591301D01*
X70110707Y-114591301D02*
X70115203Y-114760508D01*
X70115203Y-114760508D02*
X70115678Y-114871933D01*
X70115678Y-114871933D02*
X70115678Y-115306627D01*
X70115678Y-115306627D02*
X70041316Y-115340509D01*
X70041316Y-115340509D02*
X69982746Y-115365272D01*
X69982746Y-115365272D02*
X69953730Y-115374391D01*
X69953730Y-115374391D02*
X69948179Y-115347257D01*
X69948179Y-115347257D02*
X69943775Y-115274094D01*
X69943775Y-115274094D02*
X69941078Y-115167263D01*
X69941078Y-115167263D02*
X69940506Y-115082437D01*
X69940506Y-115082437D02*
X69938046Y-114959887D01*
X69938046Y-114959887D02*
X69931412Y-114862668D01*
X69931412Y-114862668D02*
X69921726Y-114803134D01*
X69921726Y-114803134D02*
X69914032Y-114790483D01*
X69914032Y-114790483D02*
X69862311Y-114803402D01*
X69862311Y-114803402D02*
X69781117Y-114836539D01*
X69781117Y-114836539D02*
X69687102Y-114881461D01*
X69687102Y-114881461D02*
X69596917Y-114929735D01*
X69596917Y-114929735D02*
X69527215Y-114972928D01*
X69527215Y-114972928D02*
X69494648Y-115002608D01*
X69494648Y-115002608D02*
X69494519Y-115002929D01*
X69494519Y-115002929D02*
X69497320Y-115057857D01*
X69497320Y-115057857D02*
X69522439Y-115110292D01*
X69522439Y-115110292D02*
X69566541Y-115152881D01*
X69566541Y-115152881D02*
X69630909Y-115167126D01*
X69630909Y-115167126D02*
X69685921Y-115165466D01*
X69685921Y-115165466D02*
X69763835Y-115164245D01*
X69763835Y-115164245D02*
X69804732Y-115182498D01*
X69804732Y-115182498D02*
X69829295Y-115230726D01*
X69829295Y-115230726D02*
X69832392Y-115239820D01*
X69832392Y-115239820D02*
X69843040Y-115308598D01*
X69843040Y-115308598D02*
X69814565Y-115350360D01*
X69814565Y-115350360D02*
X69740344Y-115370263D01*
X69740344Y-115370263D02*
X69660168Y-115373944D01*
X69660168Y-115373944D02*
X69515890Y-115346658D01*
X69515890Y-115346658D02*
X69441203Y-115307690D01*
X69441203Y-115307690D02*
X69348963Y-115216148D01*
X69348963Y-115216148D02*
X69300043Y-115103782D01*
X69300043Y-115103782D02*
X69295654Y-114985051D01*
X69295654Y-114985051D02*
X69337001Y-114874411D01*
X69337001Y-114874411D02*
X69399197Y-114805080D01*
X69399197Y-114805080D02*
X69461294Y-114766265D01*
X69461294Y-114766265D02*
X69558895Y-114717125D01*
X69558895Y-114717125D02*
X69672632Y-114667292D01*
X69672632Y-114667292D02*
X69691590Y-114659677D01*
X69691590Y-114659677D02*
X69816521Y-114604545D01*
X69816521Y-114604545D02*
X69888539Y-114555954D01*
X69888539Y-114555954D02*
X69911700Y-114507647D01*
X69911700Y-114507647D02*
X69890064Y-114453370D01*
X69890064Y-114453370D02*
X69852920Y-114410943D01*
X69852920Y-114410943D02*
X69765127Y-114358702D01*
X69765127Y-114358702D02*
X69668530Y-114354784D01*
X69668530Y-114354784D02*
X69579944Y-114395041D01*
X69579944Y-114395041D02*
X69516186Y-114475326D01*
X69516186Y-114475326D02*
X69507817Y-114496040D01*
X69507817Y-114496040D02*
X69459096Y-114572225D01*
X69459096Y-114572225D02*
X69387965Y-114628785D01*
X69387965Y-114628785D02*
X69298207Y-114675201D01*
X69298207Y-114675201D02*
X69298207Y-114543584D01*
X69298207Y-114543584D02*
X69303490Y-114463168D01*
X69303490Y-114463168D02*
X69326142Y-114399786D01*
X69326142Y-114399786D02*
X69376367Y-114332163D01*
X69376367Y-114332163D02*
X69424582Y-114280076D01*
X69424582Y-114280076D02*
X69499554Y-114206322D01*
X69499554Y-114206322D02*
X69557806Y-114166702D01*
X69557806Y-114166702D02*
X69620372Y-114150810D01*
X69620372Y-114150810D02*
X69691193Y-114148184D01*
X69691193Y-114148184D02*
X69846406Y-114171156D01*
X69846406Y-114171156D02*
X69846406Y-114171156D01*
G36*
X69846406Y-114171156D02*
G01*
X69930469Y-114209393D01*
X69996450Y-114255726D01*
X70044794Y-114307532D01*
X70078172Y-114374363D01*
X70099253Y-114465769D01*
X70110707Y-114591301D01*
X70115203Y-114760508D01*
X70115678Y-114871933D01*
X70115678Y-115306627D01*
X70041316Y-115340509D01*
X69982746Y-115365272D01*
X69953730Y-115374391D01*
X69948179Y-115347257D01*
X69943775Y-115274094D01*
X69941078Y-115167263D01*
X69940506Y-115082437D01*
X69938046Y-114959887D01*
X69931412Y-114862668D01*
X69921726Y-114803134D01*
X69914032Y-114790483D01*
X69862311Y-114803402D01*
X69781117Y-114836539D01*
X69687102Y-114881461D01*
X69596917Y-114929735D01*
X69527215Y-114972928D01*
X69494648Y-115002608D01*
X69494519Y-115002929D01*
X69497320Y-115057857D01*
X69522439Y-115110292D01*
X69566541Y-115152881D01*
X69630909Y-115167126D01*
X69685921Y-115165466D01*
X69763835Y-115164245D01*
X69804732Y-115182498D01*
X69829295Y-115230726D01*
X69832392Y-115239820D01*
X69843040Y-115308598D01*
X69814565Y-115350360D01*
X69740344Y-115370263D01*
X69660168Y-115373944D01*
X69515890Y-115346658D01*
X69441203Y-115307690D01*
X69348963Y-115216148D01*
X69300043Y-115103782D01*
X69295654Y-114985051D01*
X69337001Y-114874411D01*
X69399197Y-114805080D01*
X69461294Y-114766265D01*
X69558895Y-114717125D01*
X69672632Y-114667292D01*
X69691590Y-114659677D01*
X69816521Y-114604545D01*
X69888539Y-114555954D01*
X69911700Y-114507647D01*
X69890064Y-114453370D01*
X69852920Y-114410943D01*
X69765127Y-114358702D01*
X69668530Y-114354784D01*
X69579944Y-114395041D01*
X69516186Y-114475326D01*
X69507817Y-114496040D01*
X69459096Y-114572225D01*
X69387965Y-114628785D01*
X69298207Y-114675201D01*
X69298207Y-114543584D01*
X69303490Y-114463168D01*
X69326142Y-114399786D01*
X69376367Y-114332163D01*
X69424582Y-114280076D01*
X69499554Y-114206322D01*
X69557806Y-114166702D01*
X69620372Y-114150810D01*
X69691193Y-114148184D01*
X69846406Y-114171156D01*
G37*
X69846406Y-114171156D02*
X69930469Y-114209393D01*
X69996450Y-114255726D01*
X70044794Y-114307532D01*
X70078172Y-114374363D01*
X70099253Y-114465769D01*
X70110707Y-114591301D01*
X70115203Y-114760508D01*
X70115678Y-114871933D01*
X70115678Y-115306627D01*
X70041316Y-115340509D01*
X69982746Y-115365272D01*
X69953730Y-115374391D01*
X69948179Y-115347257D01*
X69943775Y-115274094D01*
X69941078Y-115167263D01*
X69940506Y-115082437D01*
X69938046Y-114959887D01*
X69931412Y-114862668D01*
X69921726Y-114803134D01*
X69914032Y-114790483D01*
X69862311Y-114803402D01*
X69781117Y-114836539D01*
X69687102Y-114881461D01*
X69596917Y-114929735D01*
X69527215Y-114972928D01*
X69494648Y-115002608D01*
X69494519Y-115002929D01*
X69497320Y-115057857D01*
X69522439Y-115110292D01*
X69566541Y-115152881D01*
X69630909Y-115167126D01*
X69685921Y-115165466D01*
X69763835Y-115164245D01*
X69804732Y-115182498D01*
X69829295Y-115230726D01*
X69832392Y-115239820D01*
X69843040Y-115308598D01*
X69814565Y-115350360D01*
X69740344Y-115370263D01*
X69660168Y-115373944D01*
X69515890Y-115346658D01*
X69441203Y-115307690D01*
X69348963Y-115216148D01*
X69300043Y-115103782D01*
X69295654Y-114985051D01*
X69337001Y-114874411D01*
X69399197Y-114805080D01*
X69461294Y-114766265D01*
X69558895Y-114717125D01*
X69672632Y-114667292D01*
X69691590Y-114659677D01*
X69816521Y-114604545D01*
X69888539Y-114555954D01*
X69911700Y-114507647D01*
X69890064Y-114453370D01*
X69852920Y-114410943D01*
X69765127Y-114358702D01*
X69668530Y-114354784D01*
X69579944Y-114395041D01*
X69516186Y-114475326D01*
X69507817Y-114496040D01*
X69459096Y-114572225D01*
X69387965Y-114628785D01*
X69298207Y-114675201D01*
X69298207Y-114543584D01*
X69303490Y-114463168D01*
X69326142Y-114399786D01*
X69376367Y-114332163D01*
X69424582Y-114280076D01*
X69499554Y-114206322D01*
X69557806Y-114166702D01*
X69620372Y-114150810D01*
X69691193Y-114148184D01*
X69846406Y-114171156D01*
X71875439Y-114192540D02*
X71990950Y-114268034D01*
X71990950Y-114268034D02*
X72046664Y-114335617D01*
X72046664Y-114335617D02*
X72090804Y-114458255D01*
X72090804Y-114458255D02*
X72094309Y-114555298D01*
X72094309Y-114555298D02*
X72086368Y-114685056D01*
X72086368Y-114685056D02*
X71787115Y-114816039D01*
X71787115Y-114816039D02*
X71641611Y-114882958D01*
X71641611Y-114882958D02*
X71546537Y-114936790D01*
X71546537Y-114936790D02*
X71497101Y-114983416D01*
X71497101Y-114983416D02*
X71488511Y-115028720D01*
X71488511Y-115028720D02*
X71515972Y-115078582D01*
X71515972Y-115078582D02*
X71546253Y-115111632D01*
X71546253Y-115111632D02*
X71634363Y-115164633D01*
X71634363Y-115164633D02*
X71730196Y-115168347D01*
X71730196Y-115168347D02*
X71818212Y-115127041D01*
X71818212Y-115127041D02*
X71882869Y-115044983D01*
X71882869Y-115044983D02*
X71894433Y-115016008D01*
X71894433Y-115016008D02*
X71949825Y-114925509D01*
X71949825Y-114925509D02*
X72013553Y-114886940D01*
X72013553Y-114886940D02*
X72100966Y-114853946D01*
X72100966Y-114853946D02*
X72100966Y-114979034D01*
X72100966Y-114979034D02*
X72093238Y-115064156D01*
X72093238Y-115064156D02*
X72062966Y-115135938D01*
X72062966Y-115135938D02*
X71999518Y-115218356D01*
X71999518Y-115218356D02*
X71990088Y-115229066D01*
X71990088Y-115229066D02*
X71919513Y-115302391D01*
X71919513Y-115302391D02*
X71858847Y-115341742D01*
X71858847Y-115341742D02*
X71782950Y-115359845D01*
X71782950Y-115359845D02*
X71720030Y-115365774D01*
X71720030Y-115365774D02*
X71607487Y-115367251D01*
X71607487Y-115367251D02*
X71527370Y-115348535D01*
X71527370Y-115348535D02*
X71477390Y-115320747D01*
X71477390Y-115320747D02*
X71398838Y-115259641D01*
X71398838Y-115259641D02*
X71344463Y-115193554D01*
X71344463Y-115193554D02*
X71310052Y-115110441D01*
X71310052Y-115110441D02*
X71291388Y-114998254D01*
X71291388Y-114998254D02*
X71284256Y-114844946D01*
X71284256Y-114844946D02*
X71283687Y-114767136D01*
X71283687Y-114767136D02*
X71285622Y-114673853D01*
X71285622Y-114673853D02*
X71461899Y-114673853D01*
X71461899Y-114673853D02*
X71463944Y-114723896D01*
X71463944Y-114723896D02*
X71469039Y-114732092D01*
X71469039Y-114732092D02*
X71502666Y-114720958D01*
X71502666Y-114720958D02*
X71575030Y-114691493D01*
X71575030Y-114691493D02*
X71671747Y-114649601D01*
X71671747Y-114649601D02*
X71691973Y-114640597D01*
X71691973Y-114640597D02*
X71814203Y-114578442D01*
X71814203Y-114578442D02*
X71881547Y-114523815D01*
X71881547Y-114523815D02*
X71896348Y-114472649D01*
X71896348Y-114472649D02*
X71860947Y-114420876D01*
X71860947Y-114420876D02*
X71831711Y-114398000D01*
X71831711Y-114398000D02*
X71726216Y-114352250D01*
X71726216Y-114352250D02*
X71627476Y-114359808D01*
X71627476Y-114359808D02*
X71544812Y-114415651D01*
X71544812Y-114415651D02*
X71487548Y-114514753D01*
X71487548Y-114514753D02*
X71469188Y-114593414D01*
X71469188Y-114593414D02*
X71461899Y-114673853D01*
X71461899Y-114673853D02*
X71285622Y-114673853D01*
X71285622Y-114673853D02*
X71287459Y-114585351D01*
X71287459Y-114585351D02*
X71301359Y-114450853D01*
X71301359Y-114450853D02*
X71328894Y-114352916D01*
X71328894Y-114352916D02*
X71373572Y-114280811D01*
X71373572Y-114280811D02*
X71438901Y-114223813D01*
X71438901Y-114223813D02*
X71467383Y-114205393D01*
X71467383Y-114205393D02*
X71596763Y-114157422D01*
X71596763Y-114157422D02*
X71738412Y-114154403D01*
X71738412Y-114154403D02*
X71875439Y-114192540D01*
X71875439Y-114192540D02*
X71875439Y-114192540D01*
G36*
X71301359Y-114450853D02*
G01*
X71328894Y-114352916D01*
X71373572Y-114280811D01*
X71438901Y-114223813D01*
X71467383Y-114205393D01*
X71596763Y-114157422D01*
X71738412Y-114154403D01*
X71875439Y-114192540D01*
X71990950Y-114268034D01*
X72046664Y-114335617D01*
X72090804Y-114458255D01*
X72094309Y-114555298D01*
X72086368Y-114685056D01*
X71787115Y-114816039D01*
X71641611Y-114882958D01*
X71546537Y-114936790D01*
X71497101Y-114983416D01*
X71488511Y-115028720D01*
X71515972Y-115078582D01*
X71546253Y-115111632D01*
X71634363Y-115164633D01*
X71730196Y-115168347D01*
X71818212Y-115127041D01*
X71882869Y-115044983D01*
X71894433Y-115016008D01*
X71949825Y-114925509D01*
X72013553Y-114886940D01*
X72100966Y-114853946D01*
X72100966Y-114979034D01*
X72093238Y-115064156D01*
X72062966Y-115135938D01*
X71999518Y-115218356D01*
X71990088Y-115229066D01*
X71919513Y-115302391D01*
X71858847Y-115341742D01*
X71782950Y-115359845D01*
X71720030Y-115365774D01*
X71607487Y-115367251D01*
X71527370Y-115348535D01*
X71477390Y-115320747D01*
X71398838Y-115259641D01*
X71344463Y-115193554D01*
X71310052Y-115110441D01*
X71291388Y-114998254D01*
X71284256Y-114844946D01*
X71283687Y-114767136D01*
X71285622Y-114673853D01*
X71461899Y-114673853D01*
X71463944Y-114723896D01*
X71469039Y-114732092D01*
X71502666Y-114720958D01*
X71575030Y-114691493D01*
X71671747Y-114649601D01*
X71691973Y-114640597D01*
X71814203Y-114578442D01*
X71881547Y-114523815D01*
X71896348Y-114472649D01*
X71860947Y-114420876D01*
X71831711Y-114398000D01*
X71726216Y-114352250D01*
X71627476Y-114359808D01*
X71544812Y-114415651D01*
X71487548Y-114514753D01*
X71469188Y-114593414D01*
X71461899Y-114673853D01*
X71285622Y-114673853D01*
X71287459Y-114585351D01*
X71301359Y-114450853D01*
G37*
X71301359Y-114450853D02*
X71328894Y-114352916D01*
X71373572Y-114280811D01*
X71438901Y-114223813D01*
X71467383Y-114205393D01*
X71596763Y-114157422D01*
X71738412Y-114154403D01*
X71875439Y-114192540D01*
X71990950Y-114268034D01*
X72046664Y-114335617D01*
X72090804Y-114458255D01*
X72094309Y-114555298D01*
X72086368Y-114685056D01*
X71787115Y-114816039D01*
X71641611Y-114882958D01*
X71546537Y-114936790D01*
X71497101Y-114983416D01*
X71488511Y-115028720D01*
X71515972Y-115078582D01*
X71546253Y-115111632D01*
X71634363Y-115164633D01*
X71730196Y-115168347D01*
X71818212Y-115127041D01*
X71882869Y-115044983D01*
X71894433Y-115016008D01*
X71949825Y-114925509D01*
X72013553Y-114886940D01*
X72100966Y-114853946D01*
X72100966Y-114979034D01*
X72093238Y-115064156D01*
X72062966Y-115135938D01*
X71999518Y-115218356D01*
X71990088Y-115229066D01*
X71919513Y-115302391D01*
X71858847Y-115341742D01*
X71782950Y-115359845D01*
X71720030Y-115365774D01*
X71607487Y-115367251D01*
X71527370Y-115348535D01*
X71477390Y-115320747D01*
X71398838Y-115259641D01*
X71344463Y-115193554D01*
X71310052Y-115110441D01*
X71291388Y-114998254D01*
X71284256Y-114844946D01*
X71283687Y-114767136D01*
X71285622Y-114673853D01*
X71461899Y-114673853D01*
X71463944Y-114723896D01*
X71469039Y-114732092D01*
X71502666Y-114720958D01*
X71575030Y-114691493D01*
X71671747Y-114649601D01*
X71691973Y-114640597D01*
X71814203Y-114578442D01*
X71881547Y-114523815D01*
X71896348Y-114472649D01*
X71860947Y-114420876D01*
X71831711Y-114398000D01*
X71726216Y-114352250D01*
X71627476Y-114359808D01*
X71544812Y-114415651D01*
X71487548Y-114514753D01*
X71469188Y-114593414D01*
X71461899Y-114673853D01*
X71285622Y-114673853D01*
X71287459Y-114585351D01*
X71301359Y-114450853D01*
D10*
X96224800Y-96546000D02*
X81224800Y-96546000D01*
X81224800Y-81546000D02*
X96224800Y-81546000D01*
X96224800Y-81546000D02*
X96224800Y-96546000D01*
%TO.C,100pF*%
X100406200Y-83312000D02*
X98348800Y-83312000D01*
X98348800Y-83312000D02*
X98348800Y-95402400D01*
X98348800Y-95402400D02*
X100406200Y-95402400D01*
X100406200Y-95402400D02*
X100406200Y-83312000D01*
%TD*%
M02*
